<svg id="Layer_1" xmlns="http://www.w3.org/2000/svg" viewBox="0 0 148.5 75.2"><style>.st0{fill:#003976}.st1{fill:#fff}</style><path class="st0" d="M11.4 2s2.9-2.2 5.3-2c1 .1 3 .2 4.2 1.1 2.8 2.1 6.2 2 9.2 2.2h117.8s1.4.2-.1 1.1c-.8.5-6.7 4.2-10.1 4.6-4.2.6-4.1 1.9-4.7 2.7-1 1.3-5.5 4.1-9 4.1 0 0-2.5 2.1-.6 1.8 0 0 1.9.1 3-.4 1.2-.5.9.1.9.1s-1.2 1 9.7.8c0 0 1 .1-2.1 1.6-1.6.7-3.5 1.8-5.6 1.4-1.2-.3-2-.8-5.4-.3-1.9.3-1.6.6-3.7-.7 0 0-1.9 2.4-8.4 5.8 0 0-1.1.3-.4 1.4 0 0 18.6 29.5 17.7 44.4 0 0 0 5.2-4.3 2.8 0 0-6.9-7.1-9.9-9.3-3-2.2-6.2-5.6-6.7-6-.6-.4-7.3-6.2-8.2-7.6-.9-1.5-4.8-3.9-11.4-18.1 0 0 .6-1.9-2.2-.9 0 0-.9 6.3-2.4 7.3 0 0 8.8 14.9 2.6 28.9 0 0-3.3 6.5-5.1 3.5 0 0-.5-.1-2.7-3.9-1.9-3.2-2.9-5.7-5.6-9.8-2.6-3.9-3.3-6.9-6.3-12-3.8-6.4-4.1-16-3.5-23.7 0 0 .7-1.3-1.3-2.8-2.1-1.4-10.8-10-10.8-10s-1.9-.9-3.5-.9c-1.8 0-11.8.1-11.8.1s-7.3.5-9.9 2c-2.2 1.2-6.7 4.1-11.9 2.4-4.9-1.6-4.3-2.6-8.4-3C3 10.4.2 10.8 0 8.6c0 0 .2-1.7 4.1-2.4 0 0 4.7-.5 7.3-4.2z"/><path class="st1" d="M61.3 15s4.7-3.1 7.4-6.4c0 0 .5-.5.8 0 .4.5 5 3.5 13.2 5.6 0 0 .7-.1.5.6 0 0-.3 3 .9 7.1s1.8 6.3 1.8 6.3 1.1 1.3-.7 1.3-3-.1-6-1.2c-3-1.1-2-.2-6.5-3.2-4.6-3-6.7-4.8-7.8-5.5-1.1-.7-3.8-3.4-3.7-3.6.1-.3-.7-.8.1-1zM127.1 5.6l3.1-.1s-2.5 4.3-6.4 7.3c0 0-.5.5.9.1s4.8-1.4 4.9-1.6c.1-.2-2.2 2.8-7.4 2.8 0 0-.8 1.7-1.5 1.6-.7-.1-.6-.5-1.3-1.6-.7-1.1-1.3-.4-1.8-.7h-2.1s-1.1.3-.9 1.1c.2.8.5 1.3.5 1.3s0 .9.9.7c.9-.2 2-.1 2.1.4.1.5.6.4 0 1.4-.7 1.1-4.6 5.9-6.7 5.3 0 0 3.1-5.9.7-11.9l1.7-1.7s.7-.8 1.6-.1c1 .8 4.9 1.3 11.7-4.3zM21.6 6.5s.9-1.2.9 0 .6 3.4-1.1 4.2c-1.7.8-3 1.9-5.7.9 0 0-1.4-.1 0-.8 1.5-.7 3.8-1.6 5.9-4.3z"/></svg>