<svg id="Layer_1" xmlns="http://www.w3.org/2000/svg" viewBox="0 0 51.4 45.4"><style>.st0{fill:#0078b9}.st1{fill:#fff}.st2{fill:#5ccae8}</style><path class="st0" d="M26.5 18.1c-.5.5-2.5 2.1-2.7 2.4 0 0-.9.8-.5 2.4 0 0 .6 2.6.1 3.7-.1 0 2.7-2.9 3.1-8.5z"/><path class="st0" d="M39.4 15.2s-2.1-3.6-2.2-5.3c0 0-.4-6-2.6-9.2 0 0-.4-.5-.7-.2-.1 0-.4.1-.4.2 0 .8-.3 2-.7 2.6-.6-.4-.8-1.3-1-2.1 0 0-.6-1.9-1.5-.9 0 0-4.8 5.4-3.6 14.8 0 0 1.6 8.8-5.4 14 0 0-7.4 6.3-13.3.8 0 0-.1 4.1 2.4 4.9 0 0-1.2.5-.4 1.6 0 0 .6 1.2.4 2.9 0 0 1.8 1.3 4.8-2.1 0 0 1.6-2.3 9.1-2.9 0 0 .7-.3.7.6 0 0-.1 2.1 1.6.5 0 0 .6-.3 1.2-1.7 0 0 0-.4.9-.7.5-.2 4.4-1.8 6.4-5.3 0 0 2.1 1.2 2.2-.7 0 0 0-2-.3-3.1 0 0 .1-.1.3-1.3 0 0 .7-3 .7-5.7 0 0 2.2.4 1.4-1.7z"/><path class="st1" d="M36.7 9.2c.1.5-.6 2.9-3.6 2.8 2.4-.4 3.2-2.9 3.3-3.5 0-.1.2.1.3.7z"/><circle class="st1" cx="30.2" cy="5.2" r=".6"/><path class="st2" d="M49.5 40s-5.6-8.4-17.7.3c0 0-20.7 16.7-31.8-10.6 2.3 4.1 13.5 20.7 30.1 6.2 0 0 9.1-8.3 17.8-5.5 1 .3 6.2 3.3 1.6 9.6z"/></svg>