<?xml version="1.0" encoding="utf-8"?>
<!-- Generator: Adobe Illustrator 19.1.0, SVG Export Plug-In . SVG Version: 6.00 Build 0)  -->
<svg version="1.1" id="Layer_1" xmlns="http://www.w3.org/2000/svg" xmlns:xlink="http://www.w3.org/1999/xlink" x="0px" y="0px"
	 viewBox="-1658.7 1257 63.3 80.1" style="enable-background:new -1658.7 1257 63.3 80.1;" xml:space="preserve">
<g>
	<path d="M-1631.1,1258.7l-25.9,25.9c-2.2,2.2-2.2,5.9,0,8.1c2.2,2.2,5.8,2.2,8.1,0l16.2-16.2v54.9c0,3.2,2.6,5.7,5.7,5.7
		s5.7-2.6,5.7-5.7v-54.9l16.2,16.2c2.2,2.2,5.9,2.2,8.1,0c1.1-1.1,1.7-2.6,1.7-4c0-1.5-0.6-2.9-1.7-4l-25.9-25.9
		C-1625.2,1256.5-1628.8,1256.5-1631.1,1258.7z"/>
</g>
</svg>
