<?xml version="1.0" encoding="utf-8"?>
<!-- Generator: Adobe Illustrator 21.1.0, SVG Export Plug-In . SVG Version: 6.00 Build 0)  -->
<svg version="1.1" xmlns="http://www.w3.org/2000/svg" xmlns:xlink="http://www.w3.org/1999/xlink" x="0px" y="0px"
	 viewBox="0 0 80.2 125" style="enable-background:new 0 0 80.2 125;" xml:space="preserve">
<g id="marker">
	<path style="fill:#FFFFFF;stroke:#000000;stroke-miterlimit:10;" d="M40.3,1.2C18.9,1.2,1.6,18.8,1.6,40.7c0,5.7,1.2,10.9,3.2,15.9
		l33.4,65.8c0.9,1.8,3.3,1.8,4.2,0l33.4-65.8c2.1-4.8,3.2-10.2,3.2-15.9C79,18.8,61.7,1.2,40.3,1.2z"/>
</g>
<g id="heron">
	<path style="stroke:#000000;stroke-miterlimit:10;" d="M62.2,31.8c-0.9-0.8-3-0.9-3-1.5c0-0.6,0.8-0.6,1.6-1.7
		c2-2.7,1.9-5.2,1.9-5.8l0.5-2l-1.6,0.3c-0.2-0.1-0.9-0.2-1.7-0.2c-0.3,0-0.8,0.1-1,0.1c-2.6,0-4.5,1.7-4.8,1.9
		c-0.1,0.1-0.3,0.3-0.5,0.1c-0.3-0.5-0.6-2-1.2-3.3c-0.5-1.2-1.5-2.3-3.9-2.3c-0.3,0-0.8,0-1.1,0.1c-3,0.3-6.1,1-9.5,2
		C34.7,20.4,21.1,25,21,25c0,0-0.3,0.1-0.5,0.3c-1.3,0.5-2.3,1.1-2,1.5c0.2,0.3,11.4-0.1,16.8-0.6c1.1-0.1,2.2,0.3,2.9,1.2
		c0.3,0.4,0.8,0.9,1.2,1.3c0.8,0.6,1.3,0.9,2.2,1.3c0.5,0.2,0.8,1,0.4,1.5c-0.6,1-1.4,2.3-2.9,3.1c-1.4,0.9-4,1.9-5.9,2.8
		c-0.4,0.2-1.4,0.6-2.7,1.1c-5.7,2.4-17.2,7.3-18.5,8c-0.8,0.4-0.9,1.6-0.6,1.5c0.6-0.2,1.5-0.5,1.7-0.6c1.3-0.5,13.7-5.4,16.9-6.2
		c2.2-0.5,3.8-0.9,4.7-0.9c0.2,0,0.8-0.1,0.9,0.5c0.2,0.8-0.8,2-1.4,3.1c-0.1,0.1-0.2,0.3-0.2,0.4c-0.9,1.4-1.9,3.8-3.1,5.2
		C29.7,51,19.8,62,19.7,62.2c-0.1,0.3,0.8,0.1,0.8,0.1c0.2-0.1,2.7-1.6,3.3-2.3c0.6-0.9,15.1-17,18.3-19.1c1.2-0.8,2.7-1,4.3-1.6
		c0.4-0.2,0.8,0.1,1,0.5c0.2,0.4,1,2.3,2,3.6c0.6,0.8,0.9,1.7,0.6,2.6c-0.1,0.2-0.1,0.3-0.1,0.5c-0.5,2.7-0.8,3.7-1.5,6.6
		c-0.1,0.5-0.3,1.2-0.5,1.9c-0.2,0.8-0.4,1.7-0.6,2.6c-1.3,5.2-1.3,5.7-1,5.9c0.2,0.1,0.5,0,1.3-1c0.4-0.5,1.2-1.4,2-2.5
		c1.5-1.9,3.8-4.8,5.8-7.9c2.6-3.8,7-12.9,8-15.5C63.6,36,64,33.5,62.2,31.8z"/>
</g>
</svg>
