<?xml version="1.0" encoding="utf-8"?>
<!-- Generator: Adobe Illustrator 19.1.0, SVG Export Plug-In . SVG Version: 6.00 Build 0)  -->
<svg version="1.1" id="Layer_1" xmlns="http://www.w3.org/2000/svg" xmlns:xlink="http://www.w3.org/1999/xlink" x="0px" y="0px"
	 viewBox="-1672 1249.1 90 69.7" style="enable-background:new -1672 1249.1 90 69.7;" xml:space="preserve">
<g>
	<path d="M-1619.1,1294.1c0,2-1.6,3.7-3.7,3.7h-8.6c-2,0-3.7-1.6-3.7-3.7v-3.3l-35.2-4.4v30.9c0,0.9,0.7,1.6,1.6,1.6h31.2h21.5h30.4
		c0.9,0,1.6-0.7,1.6-1.6v-30.9l-35.2,4.4L-1619.1,1294.1L-1619.1,1294.1z"/>
	<path d="M-1582.7,1260.7h-30.6v-1.2v-1.2v-3.8c0-1,0-2.5,0-3.5v-0.1c0-1-0.8-1.7-1.7-1.7h-0.1c-1,0-2.5,0-3.5,0h-16.7
		c-1,0-2.5,0-3.5,0h-0.1c-1,0-1.7,0.8-1.7,1.7v0.1c0,1,0,2.5,0,3.5v3.8v1.2v1.2h-31.1c-0.1,0-0.2,0.2-0.2,0.4v22.4
		c0,0.2,0.2,0.4,0.4,0.4c0.1,0,0.1,0,0.2,0l1.3,0.2l35.2,4.4v-2.8c0-1.7,1.1-3.1,2.6-3.5l-0.7-20.2l0-1.2h-3.5v-1.2v-1.2v-3.3
		c0-1,0.8-1.7,1.7-1.7h15.8c1,0,1.7,0.8,1.7,1.7v3.3v1.2v1.2h-3.5l0,1.2l-0.7,20.2c1.5,0.4,2.6,1.8,2.6,3.5v2.8l35.2-4.4l1.3-0.2
		c0.1,0,0.1,0,0.2,0c0.2,0,0.4-0.2,0.4-0.4v-22.4C-1582,1260.9-1582.3,1260.7-1582.7,1260.7z"/>
	<path d="M-1630.6,1261.9l0.7,20h5.8l0.7-20l0-1.2l0-1.2l0-1.2c0,0,0,0,0,0c0-0.3-0.3-0.5-0.5-0.5h-6.4c-0.3,0-0.5,0.2-0.5,0.5
		c0,0,0,0,0,0l0,1.2l0,1.2L-1630.6,1261.9z"/>
	<path d="M-1631,1284.8h-0.1h-0.2c-0.4,0-0.8,0.3-0.8,0.8v0.3v2.8v1.2v1.2v3.1c0,0.4,0.3,0.8,0.8,0.8h8.6c0.4,0,0.8-0.3,0.8-0.8
		v-3.1v-1.2v-1.2v-2.8v-0.3c0-0.4-0.3-0.8-0.8-0.8h-0.2h-0.1h-0.1h-1.1h-5.6h-1.1C-1630.9,1284.8-1631,1284.8-1631,1284.8z"/>
</g>
</svg>
