<?xml version="1.0" encoding="utf-8"?>
<!-- Generator: Adobe Illustrator 19.1.0, SVG Export Plug-In . SVG Version: 6.00 Build 0)  -->
<svg version="1.1" id="Layer_1" xmlns="http://www.w3.org/2000/svg" xmlns:xlink="http://www.w3.org/1999/xlink" x="0px" y="0px"
	 viewBox="-1702.5 1267.5 47 47" style="enable-background:new -1702.5 1267.5 47 47;" xml:space="preserve">
<g>
	<path d="M-1665.5,1314.5h-27v-47h27V1314.5z M-1690.5,1312.5h23v-43h-23V1312.5z"/>
	<path d="M-1655.5,1314.5h-12v-39h12V1314.5z M-1665.5,1312.5h8v-35h-8V1312.5z"/>
	<path d="M-1690.5,1314.5h-12v-39h12V1314.5z M-1700.5,1312.5h8v-35h-8V1312.5z"/>
	<path d="M-1673,1314.5h-12v-10h12V1314.5z M-1683,1312.5h8v-6h-8V1312.5z"/>
	<rect x="-1662.5" y="1280.5" width="2" height="5"/>
	<g>
		<rect x="-1672" y="1274.5" width="2" height="5"/>
		<rect x="-1677.3" y="1274.5" width="2" height="5"/>
		<rect x="-1682.7" y="1274.5" width="2" height="5"/>
		<rect x="-1688" y="1274.5" width="2" height="5"/>
	</g>
	<g>
		<rect x="-1672" y="1284.5" width="2" height="5"/>
		<rect x="-1677.3" y="1284.5" width="2" height="5"/>
		<rect x="-1682.7" y="1284.5" width="2" height="5"/>
		<rect x="-1688" y="1284.5" width="2" height="5"/>
	</g>
	<g>
		<rect x="-1672" y="1294.5" width="2" height="5"/>
		<rect x="-1677.3" y="1294.5" width="2" height="5"/>
		<rect x="-1682.7" y="1294.5" width="2" height="5"/>
		<rect x="-1688" y="1294.5" width="2" height="5"/>
	</g>
	<rect x="-1662.5" y="1288.5" width="2" height="5"/>
	<rect x="-1662.5" y="1296.5" width="2" height="5"/>
	<rect x="-1662.5" y="1304.5" width="2" height="5"/>
	<rect x="-1697.5" y="1280.5" width="2" height="5"/>
	<rect x="-1697.5" y="1288.5" width="2" height="5"/>
	<rect x="-1697.5" y="1296.5" width="2" height="5"/>
	<rect x="-1697.5" y="1304.5" width="2" height="5"/>
</g>
</svg>
