<?xml version="1.0" encoding="utf-8"?>
<!-- Generator: Adobe Illustrator 19.1.0, SVG Export Plug-In . SVG Version: 6.00 Build 0)  -->
<svg version="1.1" id="Layer_1" xmlns:sketch="http://www.bohemiancoding.com/sketch/ns"
	 xmlns="http://www.w3.org/2000/svg" xmlns:xlink="http://www.w3.org/1999/xlink" x="0px" y="0px" viewBox="-1660 1235.5 87 96"
	 style="enable-background:new -1660 1235.5 87 96;" xml:space="preserve">
<title>flag</title>
<desc>Created with Sketch.</desc>
<g sketch:type="MSPage">
	<g sketch:type="MSArtboardGroup">
		<path sketch:type="MSShapeGroup" d="M-1573,1292.9c-25.5-17.9-50.9,17.9-76.4,0V1248c25.5,17.9,50.9-17.9,76.4,0V1292.9z
			 M-1649.1,1241c0,3-2.4,5.5-5.4,5.5s-5.4-2.4-5.4-5.5c0-3,2.4-5.5,5.4-5.5S-1649.1,1237.9-1649.1,1241z M-1652.4,1329.3v-79.6
			c0-1.2-1-2.2-2.2-2.2c-1.2,0-2.2,1-2.2,2.2v79.6c0,1.2,1,2.2,2.2,2.2C-1653.4,1331.5-1652.4,1330.5-1652.4,1329.3L-1652.4,1329.3z
			"/>
	</g>
</g>
</svg>
