<?xml version="1.0" encoding="utf-8"?>
<!-- Generator: Adobe Illustrator 19.1.0, SVG Export Plug-In . SVG Version: 6.00 Build 0)  -->
<svg version="1.1" id="Layer_1" xmlns="http://www.w3.org/2000/svg" xmlns:xlink="http://www.w3.org/1999/xlink" x="0px" y="0px"
	 viewBox="-1665.9 1234 77.7 99.5" style="enable-background:new -1665.9 1234 77.7 99.5;" xml:space="preserve">
<g>
	<path d="M-1589.3,1333.4h-75.5c-0.4,0-0.7-0.2-0.9-0.5c-0.2-0.3-0.3-0.7-0.1-1l26.6-67.3v-25c-1.5-0.1-2.6-1.3-2.6-2.8
		c0-1.6,1.3-2.8,2.8-2.8h24c1.6,0,2.8,1.3,2.8,2.8c0,1.5-1.2,2.7-2.6,2.8v25l26.6,67.3c0.1,0.3,0.1,0.7-0.1,1
		C-1588.5,1333.3-1588.9,1333.4-1589.3,1333.4z M-1663.1,1331.2h72.2l-26.1-66c-0.1-0.1-0.1-0.3-0.1-0.4v-26.3
		c0-0.6,0.5-1.1,1.1-1.1h1c0.3,0,0.6-0.3,0.6-0.6c0-0.3-0.3-0.6-0.6-0.6h-24c-0.3,0-0.6,0.3-0.6,0.6c0,0.3,0.3,0.6,0.6,0.6h1
		c0.6,0,1.1,0.5,1.1,1.1v26.4c0,0.1,0,0.3-0.1,0.4L-1663.1,1331.2z"/>
	<g>
		<g>
			<polygon points="-1658.8,1328.4 -1645.4,1295.9 -1608.6,1295.9 -1595.2,1328.4 			"/>
			<path d="M-1608.8,1296.2l13.2,32h-31.4h-31.4l13.2-32H-1608.8 M-1608.5,1295.7h-37l-13.7,33h32.2h32.2L-1608.5,1295.7
				L-1608.5,1295.7z"/>
		</g>
	</g>
</g>
</svg>
