<?xml version="1.0" encoding="utf-8"?>
<!-- Generator: Adobe Illustrator 19.1.0, SVG Export Plug-In . SVG Version: 6.00 Build 0)  -->
<svg version="1.1" id="Layer_1" xmlns="http://www.w3.org/2000/svg" xmlns:xlink="http://www.w3.org/1999/xlink" x="0px" y="0px"
	 viewBox="-1672 1239 89.8 90" style="enable-background:new -1672 1239 89.8 90;" xml:space="preserve">
<path d="M-1650.2,1245.4l-0.3,0.3l0.5-0.3h0.1l0.1-0.1L-1650.2,1245.4z M-1651.4,1246.3l-0.2,0.2l0.4-0.1l0.4-0.1h0.3l0.7-0.4
	l0.1-0.2l-0.4,0.2h-0.3l0.8-0.5l0.3-0.2l-0.6,0.2c-0.6,0.4-1.3,0.8-1.9,1.2l0.1-0.1L-1651.4,1246.3z M-1617.6,1328L-1617.6,1328
	h-0.2c-0.7,0.1-1.3,0.3-2,0.4C-1619,1328.3-1618.3,1328.2-1617.6,1328z M-1604,1245.3L-1604,1245.3c0.1,0.1,0.2,0.1,0.4,0.2
	C-1603.8,1245.5-1603.9,1245.4-1604,1245.3z M-1633.8,1250.9l0.4-0.1l0.4-0.1l0,0l-0.6,0.1L-1633.8,1250.9z M-1607.6,1243.4
	l-0.4-0.2l0,0C-1607.9,1243.3-1607.7,1243.3-1607.6,1243.4z M-1602.7,1246.1c0,0,0.1,0.1,0.2,0.1
	C-1602.6,1246.2-1602.6,1246.1-1602.7,1246.1z M-1602.5,1246.2L-1602.5,1246.2L-1602.5,1246.2L-1602.5,1246.2z M-1651.9,1246.6
	c-0.6,0.3-1.1,0.7-1.4,1C-1652.8,1247.2-1652.3,1246.9-1651.9,1246.6L-1651.9,1246.6z M-1602.5,1246.2l0.2,0.2
	C-1602.3,1246.3-1602.4,1246.3-1602.5,1246.2z M-1604.5,1245.1c0.1,0.1,0.3,0.2,0.4,0.3C-1604.2,1245.2-1604.3,1245.1-1604.5,1245.1
	L-1604.5,1245.1z M-1597.2,1250.3c-0.2-0.2-0.4-0.3-0.5-0.5C-1597.5,1249.9-1597.4,1250.1-1597.2,1250.3L-1597.2,1250.3z
	 M-1647.6,1253.1l-0.5,0.2h0.4L-1647.6,1253.1z M-1582.2,1286.8c0,0.1,0,0.2-0.1,0.3v0.1l-0.1-0.1l-0.1-0.4l-0.1-0.2l-0.1-0.3
	l-0.3-0.1v-0.9l-0.2-0.3l-0.1-0.2h-0.1l-0.1-0.1v-0.4h-0.1l-0.1-0.2l-0.1-0.2v-0.1l-0.1-0.1c-0.1-0.1-0.1-0.4-0.1-0.6v-0.4l-0.2-0.4
	l-0.1-0.2l0.1-0.3v-1.1l-0.1-0.3v-0.3l-0.1-0.7c-0.1-0.4-0.2-0.7-0.3-1l-0.1-0.4l-0.1-0.3l-0.2-0.2c-0.1-0.2-0.1-0.4-0.2-0.6v-0.7
	l-0.1-0.2l-0.1-0.5v-0.7l-0.1-0.4l-0.1-0.5l-0.1-0.5v-0.4l-0.2-0.8v-0.4l0.1-0.3l-0.1-0.7v-1.2l-0.4-0.8c-0.1-0.4-0.3-0.7-0.4-1
	l-0.2-0.6c0-0.4-0.1-0.6-0.2-1c-0.2-0.4-0.4-0.8-0.5-1.3v-0.2l-0.3,0.1l-0.2-0.1l-0.3-0.3l-0.1,0.1l0.1,0.3h-0.1v0.2l-0.3-0.5
	l-0.3-0.4l-0.2-0.2l0.2-0.4l-0.1-0.3c-0.1-0.2-0.3-0.4-0.4-0.6l-0.2-0.3l-0.1-0.1c-0.2-0.2-0.3-0.4-0.4-0.6l-0.2-0.2l-0.2-0.7
	l0.2-0.2l0.1-0.3l0.1-0.1v-0.6l-0.3-0.4l-0.9-1.2l-0.4-0.4l-0.3-0.1l-0.2,0.1l-0.4-0.4l-0.1-0.2l0.2-0.2l-0.5-0.5h0.2l-0.4-0.9
	l-0.4-0.4v0.1l0.1,0.4h-0.1l0.2,0.4l-0.1,0.1l0.2,0.4h-0.1l-0.4-0.8l-0.1-0.3l-0.1,0.2l-0.3-0.2l-0.1-0.4l-0.3,0.2l-0.4-0.4l0.1-0.3
	l-0.2-0.2l-0.4-0.2v0.2l-0.2-0.1l-0.3-0.3l-0.2-0.1l0.3,0.4l-0.5-0.4l-0.3-0.2l-0.5-0.5l-0.5-0.7v-0.3l0.5,0.7l-0.1-0.3v-0.2
	l0.4,0.4l0.4,0.5l0.1-0.2l0.7,0.4l0.1-0.1c0.3,0.2,0.5,0.4,0.8,0.5l0.1-0.2l0.4,0.4l0.2,0.3l0.2,0.1l-0.1-0.1l-0.9-1l-0.3-0.4
	l-0.1-0.2l-0.1-0.1l-0.1-0.2l-0.3-0.3c-0.2-0.1-0.4-0.3-0.4-0.4l-0.3-0.2c-0.3-0.3-0.6-0.4-0.9-0.7l-0.1-0.2
	c-0.2-0.2-0.3-0.3-0.4-0.4l0.3,0.2l0.2,0.2l0.2,0.1l0.3,0.2l0.4,0.4l0.3,0.2l0.2,0.2v-0.1l0.2,0.2l-0.2-0.3l-0.2-0.2h0.1l-0.7-0.6
	v-0.1l-0.5-0.5l-0.1-0.1l-0.3-0.2c-0.1,0-0.1-0.1-0.2-0.1l-0.3-0.3c-0.2-0.2-0.5-0.4-0.7-0.6c0.2,0.2,0.5,0.4,0.7,0.6
	c0.1,0,0.2,0.2,0.3,0.3c0.1,0,0.1,0,0.2,0.1c0.1,0,0.2,0.1,0.3,0.2h0.1c-1.4-1.3-2.9-2.3-4.5-3.4c0.4,0.3,0.6,0.4,1,0.7h-0.2
	l-0.1-0.1l0.1,0.1l0,0c-0.8-0.5-1.8-1.1-2.6-1.7c-0.1-0.1-0.3-0.2-0.4-0.3l-0.1,0.1c0.3,0.2,0.7,0.4,1.1,0.7
	c0.8,0.5,1.5,1.1,2.3,1.6l0.3,0.2l0.2,0.1l0.7,0.5l0.3,0.3c0.5,0.4,1,0.8,1.5,1.2l0.1,0.2l0.2,0.2c-0.4-0.3-0.8-0.5-1.2-0.7
	l-0.3-0.1l0.8,0.8l0.3,0.4h-0.2c-0.6-0.4-1.3-0.8-1.9-1.3l-0.4-0.4l-0.6-0.8l-0.8-0.6c-1.4-1.1-3.1-2.1-4.7-3.1l-0.2-0.3l-0.7-0.4
	l-0.3-0.1l-0.4-0.3l-0.2-0.2l0.4,0.2h0.2c-0.3-0.1-0.7-0.3-1.1-0.5l1.1,0.5l0,0l-0.4-0.2c-0.3-0.1-0.4-0.3-0.7-0.4
	c-2-0.9-4-1.6-6.1-2.2c-1.3-0.4-2.6-0.6-4-0.9c-5.5-0.8-11.3-0.7-16.8,0.4c-1,0.2-1.9,0.4-2.9,0.7h0.2l-0.6,0.2
	c-0.2,0-0.4,0.1-0.6,0.1v0.3l-1.7,0.6c-0.2,0.1-0.5,0.2-0.7,0.3l-0.9,0.4l-0.5,0.5l-0.4,0.2l-0.4,0.2l-0.4,0.2l-0.4,0.2v0.1
	l-0.2,0.2l-0.3,0.3v0.3l-0.7,0.4l0.2,0.1l0.4-0.3l0.3-0.1l-0.3,0.2v0.3l-0.4,0.5l-0.3,0.3c-0.4,0.4-0.6,0.8-1,1.3l-0.4,0.2l-0.1,0.2
	l0.4-0.3l0.1,0.4l-0.4,0.6h-0.4l-0.3-0.2l-0.6,0.4h-0.2v-0.2l0.2-0.3l0.1-0.3l0.3-0.2l0.1-0.2l-0.1-0.1l0.3-0.3l0.3-0.1l-0.3-0.1
	l-0.3,0.3l-0.3,0.1c0,0,0,0-0.1,0h-0.3l0.1-0.2l-0.4,0.4l-0.4,0.5h-0.1l-0.3,0.2l-0.2,0.1l0.2-0.4l-0.4-0.2v-0.1h-0.6l-0.3,0.1
	l0.5-0.4l-0.3-0.2l0.3-0.2h-0.2l0.3-0.3l-0.4,0.2l-0.4,0.2l-0.3,0.2l-0.3,0.3l-0.7,0.5l0.1-0.2l-0.4,0.2l-0.3,0.3v-0.1l-0.5,0.4
	l0.2-0.2c-0.2,0.1-0.4,0.3-0.4,0.4c-7.6,5.9-13.1,14.1-15.6,23.2c-2.4,8.8-2.1,18.3,0.9,26.9c5.6,15.8,20.1,27.5,36.7,29.7
	c4,0.5,8.2,0.4,12.2-0.1c1-0.2,1.9-0.4,2.8-0.5c16.1-3.4,29.5-15.9,34-31.7c0.9-2.9,1.4-5.9,1.6-9V1286.8z M-1600.1,1247.9
	L-1600.1,1247.9c0,0,0.1,0.1,0.2,0.1L-1600.1,1247.9z M-1596.2,1254.2l0.4,0.1l0.8,0.8l0.4,0.6v0.6l-0.2,0.2l-0.4-0.7l-0.5-0.4
	c-0.2-0.4-0.4-0.7-0.5-1C-1596.2,1254.4-1596.2,1254.2-1596.2,1254.2z M-1604.2,1251.2l0.6,0.1l-0.1-0.4h0.4l-0.3-0.4l0.2-0.2
	l0.4,0.3l0.5,0.2l0.4,0.5l0.1,0.7v0.2c-0.3,0.1-0.5,0.2-0.8,0.4l-0.2-0.5l-0.6,0.1l0.2-0.3l-0.2-0.1l-0.4,0.2l-0.3-0.4
	L-1604.2,1251.2z M-1605.6,1265l0.3-0.2l0.2,0.4l0.4,0.4l0.1,0.6l-0.2,0.1l-0.4-0.1l-0.2-0.5l-0.2-0.1l-0.3,0.7h-0.3l0.2-0.4
	l-0.5-0.1l-0.4,0.2l-0.9,0.2l-0.2-0.2l0.2-0.3l-0.3-0.2l0.3-0.4l0.1-1.2l0.1-0.4l0.3-0.3h0.2v0.2c0,0.4-0.1,0.7-0.1,1.1l0.2-0.3
	l0.4,0.1l-0.1,0.3l0.4,0.1l0.1-0.2l0.5,0.1L-1605.6,1265z M-1615,1240.6c-0.1,0-0.2,0-0.3-0.1
	C-1615.2,1240.5-1615.1,1240.6-1615,1240.6z M-1616.2,1240.3c-0.3,0-0.5-0.1-0.8-0.2C-1616.7,1240.2-1616.5,1240.2-1616.2,1240.3z
	 M-1618.9,1247.1l0.4-0.2l0.5-0.1l0.4,0.1l0.2-0.4l0.5,0.1h0.7l-0.6-0.1l-0.3-0.3l0.2-0.4l0.4-0.2l-0.1-0.2l0.4-0.2
	c0.3-0.1,0.5-0.3,0.8-0.4c0.3,0,0.7-0.1,1-0.1l0.1,0.3c-0.3,0.2-0.4,0.4-0.7,0.6h0.2l0.3-0.3l0.4-0.1l-0.1-0.2h0.4l0.3,0.3v-0.7
	l0.3-0.2l0.4,0.1l0.3,0.5l0.1,0.1l-0.1,0.3l0.2-0.2c0.3,0.2,0.5,0.4,0.8,0.6l0.7,0.4l0.5,0.1l-0.1,0.2l0.1,0.3h0.5l0.5,0.3v0.1
	l0.7,0.2l-0.2,0.3h0.4l0.2,0.2l-0.1,0.2l-0.2,0.2l0.5,0.2l0.3,0.2h-0.5l0.2,0.2h0.4l0.5,0.1l0.5,0.3l-0.1,0.3
	c-0.3-0.1-0.5-0.2-0.8-0.2l0.4,0.3l0.2,0.4c0.2-0.1,0.4-0.3,0.6-0.4l0.2,0.6v0.6l-0.4,0.4l-0.2,0.1v0.3l0.3,0.6l-0.1,0.5l-0.2,0.2
	l-0.2,0.3l-0.4,0.4l0.1,0.4l0.4,0.4l0.2,0.4l-0.1,0.6l0.4,0.4c0.2,0.4,0.4,0.7,0.5,1.1h-0.3l-0.8-0.4l-0.6,0.2l-0.5-0.2l-0.6-0.4
	l-1.1-0.5l-0.4-0.4l-0.4-0.4l-0.8-0.4l-0.3-0.5l-0.4-0.1l-0.2-0.7l0.3-0.3l-0.1-0.3l-0.3-0.4v0.4l-0.1,0.1l-0.2,0.1l-0.4-0.2
	l-0.3-0.4v-0.2l0.3-0.1h0.6c-0.4-0.1-0.7-0.2-1.1-0.4l-0.2,0.1l-0.3-0.1l-0.1-0.5l-0.3-0.2c-0.4-0.3-0.8-0.5-1.2-0.7l-0.4-0.1
	l-0.2-0.1l-0.9-0.2l-0.5,0.1c-0.4,0.1-0.8,0.2-1.3,0.2l-0.4-0.1l-0.6-0.3l0.5-0.2l0.4-0.1h-1l-0.6-0.2l-0.1-0.1
	c0.4-0.2,1-0.4,1.4-0.6v-0.2l-0.7-0.1l0.2-0.2l0.4-0.4l0.3-0.1l-0.2-0.1L-1618.9,1247.1z M-1615.6,1255.8l0.6,0.2l0.2,0.1l0.5,0.5
	l0.1,0.4h-0.6l-1.2-0.4c0.4,0.3,0.9,0.5,1.3,0.7l0.2,0.2l-1.2-0.1l-1-0.3l-0.5-0.1l0.1-0.2c-0.4-0.2-0.9-0.4-1.3-0.4l0.1,0.2
	l-1.2,0.2l-0.4-0.2l0.2-0.4l0.7-0.2l0.8-0.1l-0.2-0.2v-0.3l0.3-0.6l-0.2-0.3l-0.3-0.3l-0.6-0.2l-0.8-0.1l0.2-0.2l-0.4-0.4h-0.4
	l-0.4-0.2l-0.2,0.2l-0.6,0.1l-1.3-0.1c-0.4-0.1-0.9-0.2-1.3-0.3l-0.3-0.2l0.4-0.3h-0.5l-0.2-0.4l0.3-0.4l0.4-0.2l0.8-0.1l-0.2,0.4
	l0.3,0.4l0.3-0.4l0.8-0.2l0.6,0.5v0.4l0.6-0.2l0.3-0.2l0.8,0.3l0.5,0.2l0.1,0.3l0.5-0.2l0.4,0.3l0.9,0.1l0.4,0.2l0.5,0.4l-0.4,0.4
	l1,0.3l0.6,0.1l0.7,0.4l0.5-0.1l0.1,0.4l-0.3,0.6l-0.5-0.2l-0.7-0.6l-0.4,0.1v0.4L-1615.6,1255.8z M-1620.5,1257l-0.4,0.2l-0.7-0.2
	l-0.3-0.3l-0.4,0.4l-0.6,0.3l-0.1-0.4l-0.6,0.1l0.4-0.3v-0.4l0.1-0.5l0.3,0.1l0.1,0.3l0.2-0.1l0.3,0.2c0.4,0.1,0.6,0.3,1,0.4
	l0.1,0.3l0.3-0.1H-1620.5z M-1626.4,1248l0.2-0.1h0.3l-0.2-0.2h0.5l0.3,0.3c0.3,0.1,0.5,0.2,0.8,0.2l0.2,0.3h0.1l-0.1-0.2h0.6
	l0.2,0.1l0.4-0.2h-1.3l-0.4-0.2l-0.2-0.2l-0.3-0.2l-0.1-0.2l0.4,0.1h0.3l0.4-0.1l0.3-0.2h0.3l0.3,0.1l0.1-0.2l0.3-0.1l0.4-0.1
	l0.5-0.1h0.6c0.5,0,1.2-0.1,1.7-0.1l0.4,0.1l0.1,0.1l-0.3,0.3l-0.4,0.2l-0.1,0.1h0.3l-0.3,0.4l-0.2,0.1l-0.2,0.4l-0.5,0.1l-0.1,0.1
	l-0.7,0.1h0.4l-0.1,0.1l0.3,0.2l-0.2,0.2l-0.4,0.2l-0.1,0.2l-0.4,0.2l0.1,0.1h0.4v0.1l-0.6,0.4h0.1l0.4,0.2l0.1,0.2l-0.2,0.1
	l-0.4,0.1l-0.4-0.1l-1,0.1h-0.6l-0.5-0.1l-0.7-0.1l-0.1-0.3v-0.3l-0.4-0.2h-0.6l-0.3-0.2l0.2-0.2l0.5,0.1l0.3,0.2h0.5l0.3,0.2v0.2
	l0.4,0.1l0.2,0.1c0.3,0,0.5,0.1,0.9,0.1l0.4-0.1l0.6-0.1h0.3l-0.8-0.1l-0.8,0.1l-0.4-0.1h-0.5v-0.3l0.5-0.1l-0.2-0.4h0.2l0.7,0.2
	l-0.4-0.3l-0.4-0.1l0.2-0.2l0.4-0.1l0.1-0.2l-0.1-0.1l-0.4,0.2l-0.4,0.4h-0.4l-0.5-0.1l-0.4-0.3v-0.2l0.2-0.1h-0.4l-0.3-0.2
	l-0.1-0.2L-1626.4,1248z M-1625.1,1251.3l-0.5,0.4l-0.4,0.1l-0.4,0.4h-0.4l-0.2-0.4v-0.3l0.2-0.2l0.4-0.1l0.6,0.1H-1625.1z
	 M-1627.2,1248.8h0.6l0.3,0.2l-0.1,0.2l-0.4,0.1l-0.2-0.1l-0.2-0.2V1248.8z M-1627.2,1250.1v0.3l-0.2,0.4h-0.5l-0.3-0.1l0.1-0.3
	h-0.4l0.1-0.4h0.3l0.4-0.1l0.3-0.1L-1627.2,1250.1z M-1628.8,1248.3l0.4,0.1l0.6,0.3l0.2,0.3l0.1,0.2l-0.4-0.1l-0.4-0.2l-0.5-0.1
	l0.3-0.1l-0.4-0.2L-1628.8,1248.3z M-1629.3,1251.6h0.2l0.6,0.1l-0.3-0.4l0.4-0.2l0.4,0.2h0.5l0.1,0.2l-0.4,0.2l0.4,0.3l-0.1,0.4
	l-0.6,0.2l-0.3-0.1l-0.2-0.2l-0.7-0.4C-1629.3,1251.9-1629.3,1251.6-1629.3,1251.6z M-1632.3,1249.4l0.4-0.1l0.6,0.3l0.4,0.4
	l0.4,0.1l-0.2-0.5l0.4-0.1l0.3,0.1v0.5h0.3l0.3,0.1v0.3l-0.3,0.2l-1-0.1l-0.8,0.1l-0.5-0.4l0.1-0.2l0.7-0.1c-0.4,0-0.9-0.1-1.3-0.2
	l-0.4-0.1L-1632.3,1249.4z M-1636.1,1250.7l0.5-0.4l0.4-0.3v-0.4l0.9,0.2l0.3,0.2l0.6,0.2l0.2,0.2l0.2,0.3l0.4-0.1l0.3,0.2l-0.3,0.2
	h0.6l0.3,0.4l0.4-0.2l0.2,0.2l0.1,0.5l0.3-0.2v-0.5h0.3l0.3,0.1l0.3,0.3v0.9c0.2,0.3,0.5,0.5,0.9,0.6l-0.2,0.3h-0.6l0.2,0.3
	l-0.2,0.2l-0.6-0.2l-0.5-0.3h-0.4l-0.8,0.1c-0.5,0-1.1-0.1-1.5-0.1l-0.1-0.3l-0.4-0.2h-0.4l-0.2-0.4h0.8l0.4,0.1h0.4l-0.4-0.3
	l-0.6-0.2l-0.4-0.1v-0.2l0.8-0.1l-0.4-0.1l-0.4-0.3l0.4-0.3l0.2-0.1l-0.4,0.1l-0.6,0.3c-0.1,0.1-0.1,0.2-0.2,0.2l-0.9,0.1v-0.3
	l-0.4-0.4L-1636.1,1250.7z M-1637.3,1240.2c-0.1,0.1-0.2,0.1-0.4,0.1C-1637.6,1240.3-1637.4,1240.2-1637.3,1240.2z M-1590.5,1301.9
	l-0.5,1.2l-0.4,0.5l-0.9,1.2l-0.4,0.8l-0.5,0.7l-0.1,0.1l-0.3,0.5l-0.4,1.2c-0.3,0.4-0.4,0.9-0.7,1.3l-0.3,0.3l-0.4,0.8l-0.8,0.9
	l-0.2,0.6l-0.4,0.4l-0.3,0.4c-0.2,0.1-0.4,0.1-0.4,0.2l-0.8,0.4l-0.4,0.4l-0.6,0.4l-0.8,0.6l-0.9,0.6l-0.3,0.4v0.2l-0.4,0.5
	l-0.3,0.3l-0.5,0.4l-1.1,1c-0.4,0.3-0.7,0.5-1.2,0.7l-0.5,0.4l-0.8,0.8l-0.7,0.4h-0.3l-0.3,0.1l-0.4-0.1l-0.4,0.1l-0.2-0.2l-0.2,0.3
	l0.4,0.3l-0.3,0.3l0.2,0.1l-0.2,0.2l-0.8,0.6l-0.7,0.2l-1.1,0.3l-0.5,0.1l-0.2,0.2v0.2l-0.4,0.2l-0.5,0.1l-0.3-0.2l-0.4,0.2
	l-0.2,0.4l0.3,0.1l0.4-0.2v0.2l-0.5,0.2l-0.5,0.3l-0.4,0.4l-0.3,0.2l-0.6-0.1l-0.5,0.2l-0.4,0.3l0.3,0.2h0.4l-0.4,0.3l-0.7,0.2
	l-0.6,0.4l-0.5,0.2l-0.4-0.1l-0.1,0.2l0.2,0.1c-0.1,0-0.1,0-0.2,0v0.1l0.4,0.1h0.4l-0.2,0.1l-0.4,0.1h-0.1l-0.3,0.1l-0.4,0.1h-0.9
	c-0.3,0-0.4-0.1-0.7-0.1l-0.4-0.3l0,0l-0.1-0.1v-0.1l0.3-0.2l-0.1-0.2l0.3-0.4l0.4-0.3l0.6-0.3h-0.7l0.6-0.3l0.4-0.5l0.5,0.1
	l0.6-0.6h-0.1l-0.4,0.4h-0.3c0.4-0.4,0.6-0.7,0.9-1.1l0.4-0.3v-0.4l0.2-0.4h0.3c0.4-0.4,0.9-0.9,1.3-1.3l0.5-0.6l0.1-0.6l0.4-0.4
	l0.1-0.5l0.5-0.6c0.4-1.1,1-2.2,1.4-3.1l0.2-0.9l0.1-0.7l-0.6-0.3v-0.3l-1.3-0.4l-1.2-0.5l-0.5-0.4l-0.3-0.4l0.2-0.2l-0.5-0.7
	c-0.4-0.8-0.8-1.5-1.2-2.3l-0.3-0.3l-0.2-0.4l-0.5-0.4l-0.5-0.3l0.3-0.3l-0.4-0.6l0.3-0.4l0.6-0.4l0.4-0.5v-0.8l-0.4,0.4l-0.4-0.3
	l0.2-0.2l-0.1-0.6l0.3-0.1l0.2-0.4l0.4-0.4v-0.3l0.4-0.2l0.5-0.3l-0.2-0.4l0.3-0.1v-0.4l0.2-0.3l0.4-0.1c0.2-0.3,0.4-0.6,0.6-0.9
	l-0.2-0.1l0.2-0.4l-0.2-0.7l0.2-0.2l-0.1-0.6l-0.3-0.3l-0.3-0.2l-0.2-0.4l0.2-0.2h-0.2l-0.1-0.2l-0.4-0.2l-0.4-0.1l-0.1,0.3
	l-0.4,0.2h-0.2l-0.1,0.2l0.4,0.4h-0.2l-0.1,0.1l-0.3,0.1l-0.1-0.4l-0.1,0.1h-0.3l-0.2-0.3h-0.4l-0.2-0.1h-0.4v0.2l-0.1-0.1l-0.4-0.2
	l-0.2-0.2l0.1-0.1v-0.2l-0.2-0.2l-0.3-0.2l-0.3-0.1l-0.1-0.2l-0.2-0.3v0.2l-0.2,0.2l-0.2-0.1l-0.1-0.2v-0.3l0.1-0.3l-0.2-0.1
	l0.2-0.2c-0.2-0.2-0.4-0.4-0.6-0.5l-0.2-0.2l-0.4-0.3l-0.4-0.4l0.1-0.1l0.1,0.1l0.1-0.1l-0.1-0.3l-0.3-0.1l-0.1,0.2h-0.4l-0.3-0.1
	l-0.3-0.1l-0.4-0.1l-0.2,0.2l-0.5-0.1h-0.5l-0.4-0.2l-0.4-0.4l-0.9-0.8l-0.3-0.4l-0.6-0.2h-0.4l-0.6,0.3l-0.4,0.1l-0.5-0.3l-0.5-0.2
	l-0.7-0.4l-0.7-0.1l-1-0.4l-0.6-0.4l-0.2-0.2l-0.4-0.1l-0.8-0.3l-0.3-0.4l-0.7-0.5l-0.4-0.5l-0.2-0.4h0.3v-0.2l0.2-0.2v-0.3
	l-0.2-0.4v-0.3l-0.2-0.4l-0.5-0.8l-0.6-0.8l-0.4-0.5l-0.5-0.4l-0.1-0.2l0.2-0.4l-0.4-0.3l-0.4-0.4v-0.6h-0.3l-0.4-0.4l-0.3-0.4v-0.3
	l-0.3-0.6v-0.5l0.1-0.3l-0.4-0.4h-0.2l-0.4-0.3l-0.2,0.3v0.9l0.2,0.4l0.4,0.6l0.1,0.2l0.1,0.1v0.3h0.1v0.4l0.2,0.2l0.1,0.3l0.4,0.4
	l0.1,0.7c0.1,0.3,0.2,0.4,0.3,0.7v0.4l0.4,0.1c0.2,0.3,0.3,0.5,0.4,0.7v0.1l-0.4,0.3h-0.1l-0.1-0.4l-0.4-0.5l-0.4-0.4l-0.4-0.3
	l0.1-0.5v-0.4c-0.3-0.3-0.4-0.4-0.7-0.7v0.2l-0.1-0.2l-0.4-0.3l-0.3-0.7l0.1-0.1l0.3,0.1l0.3-0.3l0.1-0.4l-0.5-0.4l-0.4-0.3
	c-0.2-0.5-0.3-1.1-0.4-1.6l-0.2-0.7v-0.4l-0.3-0.4l-0.3-0.2v-0.2l-0.4-0.1l-0.2-0.3l-0.5-0.2l-0.1-0.2v-0.4l-0.4-0.8l-0.1-0.9
	l0.1-0.2v-0.4l-0.2-0.7l0.1-0.6l-0.2-0.4l0.4-0.5l0.2-0.5v-0.5l0.4-0.5l0.6-1.2l0.3-0.9l0.1-0.6v-0.4l0.1-0.1l0.6,0.4v0.7l0.3-0.2
	l0.2-0.5l0.1-0.5h-0.1l-0.6-0.9l-0.2-0.4l-0.6-0.4l0.1-0.6l0.3-0.4l-0.4-0.4l0.2-0.5l-0.2-0.6l0.2-0.3l-0.1-0.3l-0.2-0.3l0.3-0.5
	l-0.2-0.6l0.2-0.6l-0.5-0.5l-0.5-0.2l-0.3-0.3l-0.2-0.8c-0.2-0.2-0.4-0.4-0.5-0.6l-0.4-0.2l-0.4-0.6l-0.1-0.4l-0.4-0.1l-0.4,0.4
	h-0.1l-0.4-0.1h-0.4l-0.2-0.1l0.3-0.3l0.5-0.4l-0.1,0.1l-0.5,0.3l-0.7,0.2l-0.1,0.4l-0.5,0.1h-0.9l-0.3,0.2h-0.6l-0.3,0.2h-0.4
	l-0.1-0.2h-1.1l-0.4-0.2l0.1-0.1h0.8l0.4-0.1l0.3,0.2l0.3-0.1l0.6-0.1l0.2-0.1l0.4-0.1l0.4-0.4l0.4-0.2h-0.4v-0.1l-0.4,0.1l0.2-0.4
	l-0.3,0.1l0.2-0.3h-0.4l-0.1-0.1l0.4-0.3l0.3-0.2l0.1-0.3l-0.3,0.1l0.3-0.6l0.4-0.3l0.2-0.3l0.4-0.2l0.4-0.1l0.4-0.2l0.2,0.1v0.2
	l0.4-0.1l-0.1,0.1h0.3l0.3-0.2v-0.2l0.4-0.1l-0.1-0.1l-0.3-0.1l-0.2,0.1l-0.3-0.2v-0.3l0.2-0.2l0.3-0.4h0.4l0.5,0.1l0.1,0.1
	l-0.4,0.2l0.3,0.3l0.3-0.4l0.1-0.3l0.3-0.3l0.2-0.3l0.1-0.3l0.4-0.1l0.2,0.2h0.4l0.4-0.2l0.4-0.1l0.2,0.1l0.5,0.1l0.1,0.1h0.3
	l0.1,0.3l-0.2,0.3h0.2l0.3,0.2h-0.2l0.2,0.3l0.3,0.1l0.2,0.4l0.4,0.3l0.1,0.2l0.4,0.1l0.2,0.3c0.2,0.2,0.4,0.3,0.4,0.4l0.2,0.4
	l0.2,0.2l0.4-0.1h0.4l0.4,0.2l0.6-0.1h0.4v0.3l0.3-0.1l0.3-0.2l0.2,0.1l0.1,0.5l0.6-0.3l-0.3,0.4h0.4l0.2-0.1l0.4,0.1l0.4,0.4
	l0.6,0.4l0.4,0.2h0.4l0.4,0.4l-0.6,0.2l0.5,0.3l1,0.1l0.4-0.1l0.3,0.4l0.5-0.2l-0.3-0.3l0.3-0.2h0.5l0.3,0.2l0.3,0.4h0.4l0.6,0.4
	h0.6l0.5,0.1v-0.4l0.4-0.1l0.5,0.3l-0.1,0.5l0.3-0.4h0.3l0.3-0.5l-0.4-0.4l-0.4-0.3l0.1-0.6l0.4-0.4l0.4,0.1l0.4,0.3l0.4,0.6
	l-0.4,0.3l0.7,0.2v0.5l0.5-0.4l0.4,0.4l-0.1,0.4l0.4,0.4l0.4-0.4l0.3-0.4v-0.6c0.4,0,0.7,0.1,1.1,0.1l0.5,0.3l0.1,0.3l-0.3,0.3
	l0.2,0.2l-0.1,0.2l-0.5,0.1l-0.5-0.2l-0.1,0.3l-0.4,0.4l-0.1,0.3l-0.4,0.4h-0.6l-0.6,0.2v0.4l-0.5,0.1l-0.6,0.4l-0.5,0.6l-0.3,0.5
	l-0.1,0.7l0.7,0.2l0.2,0.6l0.2,0.4l0.7-0.1l1,0.3l0.5,0.3l0.4,0.3l0.6,0.2l0.5,0.3c0.4,0,1,0,1.4,0.1v0.5l0.3,0.6l0.4,0.7l0.9,0.6
	l0.4-0.3l0.2-0.7l-0.4-1l-0.4-0.4l0.8-0.4l0.4-0.4l0.2-0.4l-0.1-0.4l-0.4-0.5l-0.6-0.4l0.4-0.6l-0.4-0.5l-0.4-0.9l0.3-0.2l0.8,0.1
	h0.4l0.3-0.2l0.4,0.2l0.6,0.3l0.2,0.2h0.8l0.2,0.5l0.4,0.7l0.4,0.1l0.4,0.4l0.5-0.4l0.2-0.7l0.2-0.4c0.7,0.6,1.4,1.3,2.2,1.9v0.4
	l0.7,0.3l0.5,0.3h0.7l0.4,0.2l0.4,0.5h0.4l0.3,0.2l0.4,0.7c-0.1,0.2-0.3,0.4-0.4,0.6l-0.6,0.4l-0.4,0.6l-0.7,0.3h-1.1l-0.7,0.1
	l-0.5,0.1l-0.3,0.5l-0.5,0.4l-0.5,1l-0.4,0.7l0.4-0.2l0.6-1l0.9-0.7l0.7-0.2l0.5,0.3l-0.4,0.5l0.4,0.7l0.4,0.4l0.8,0.3l0.8-0.3
	l0.3-0.8l0.2,0.4l0.4,0.2l-0.4,0.5l-1,0.6l-0.4,0.4l-0.4,0.5h-0.4l-0.2-0.5l0.8-0.7l-1.2,0.4l-0.5,0.2l0.2,0.2l-0.5,0.4l-1,0.6
	l-0.3,0.3l-0.1,0.1l0.1,0.4l0.3,0.4h0.3l-0.1-0.2l0.2,0.2l-0.4,0.2h-0.3l-0.4,0.1c-0.2,0.1-0.4,0.1-0.6,0.1l-0.4,0.3l0.9-0.2
	l0.2,0.1l-0.8,0.3h-0.4v-0.1l-0.2,0.2h0.2l-0.1,0.5l-0.4,0.7l-0.2-0.2h-0.2l-0.3-0.2l0.2,0.4l0.2,0.1l0.1,0.3l-0.1,0.3l-0.3,0.6
	h-0.1l0.2-0.5l-0.4-0.3l-0.1-0.7l-0.1,0.4l0.2,0.4l-0.4-0.1l0.4,0.2l0.1,0.7h0.2l0.1,0.3l0.2,0.7l-0.4,0.5l-0.6,0.3l-0.4,0.4
	l-0.4,0.2l-0.4,0.3l-0.1,0.3l-0.7,0.5l-0.4,0.4l-0.3,0.4v0.5l0.2,0.5l0.3,0.6l0.4,0.5v0.4l0.4,0.9v0.8l-0.3,0.5l-0.2,0.1l-0.4-0.1
	l-0.1-0.4l-0.3-0.2c-0.3-0.4-0.5-0.8-0.7-1.2l-0.1-0.3l0.2-0.5l-0.2-0.4l-0.5-0.6h-0.2l-1.1,0.2h-0.1l-0.3-0.3l-0.4-0.2l-0.9,0.1
	l-0.7-0.1h-0.5l-0.4,0.1l0.2,0.2v0.3l0.2,0.2l-0.2,0.1l-0.3-0.2l-0.3,0.1h-0.5l-0.6-0.5l-0.6,0.1l-0.5-0.1h-0.5l-0.6,0.2l-0.7,0.5
	l-0.7,0.3l-0.5,0.3l-0.2,0.4l-0.1,0.5v0.4l0.1,0.3l-0.4,0.6l-0.2,0.5v1l-0.2,0.4l0.1,0.4l0.2,0.4l0.1,0.6l0.4,0.6l0.2,0.4l0.3,0.4
	l0.8,0.3l0.3,0.4l0.7-0.2l0.6-0.1c0.4-0.1,0.7-0.2,1.1-0.2l0.5-0.3l0.2-0.4l0.1-0.6l0.2-0.2l0.5-0.2l0.8-0.2h0.7l0.4-0.1l0.2,0.2
	v0.4l-0.4,0.4l-0.2,0.4l0.2,0.1c-0.1,0.3-0.3,0.6-0.4,0.9l-0.1-0.3h-0.2v0.1h0.2v0.2l-0.2,0.4l0.1,0.1l-0.1,0.3l0.1,0.1l-0.1,0.4
	l-0.2,0.2h-0.2l-0.2,0.3l0.3,0.2l0.1-0.1c0.1,0.1,0.2,0.1,0.3,0.1l0.2-0.1h0.3l0.1,0.1h0.1l0.4,0.1h0.4l0.3-0.1l0.1-0.1h0.2l0.2,0.1
	h0.2l0.2-0.1l0.4,0.1h0.1l0.3,0.2l0.2,0.2l0.3,0.1l0.2,0.2l-0.1,0.1v0.2l0.1,0.3l-0.4-0.1l-0.1,0.3v1l-0.1,0.1l-0.1,0.4l0.1,0.2
	h-0.2v0.2l0.1,0.1l0.2,0.4c0.3,0.3,0.6,0.5,0.9,0.9v0.2h0.3l0.1-0.1l0.2,0.2l0.4-0.1l0.4-0.2l0.4-0.2l0.3-0.3h0.4v0.1h0.4l0.4,0.1
	l0.3,0.2l0.3,0.2h0.4l0.5-0.5l0.4-0.1v-0.3l0.2-0.6l0.4-0.4l0.4-0.1l0.1-0.2h0.5c0.3-0.2,0.5-0.4,0.9-0.6l0.4-0.4h0.3l0.2,0.2
	l-0.3,0.3v0.2l-0.4,0.1l0.3,0.4v0.3l-0.3,0.6l0.3,0.5l0.4-0.1l0.2-0.5l-0.2-0.3v-0.5l0.9-0.4l-0.3-0.3l0.3-0.3l0.3,0.5h0.5l0.4,0.4
	v0.3l0.6-0.1l0.7-0.2l0.4,0.3h0.5l0.4-0.3v-0.2c0.5-0.1,1.1-0.2,1.6-0.3l-0.4,0.4l0.3,0.4h0.5l0.5,0.3l0.1,0.5l0.4-0.1
	c0.2,0.1,0.4,0.2,0.7,0.4l0.4,0.4v0.4h0.3l0.5,0.5h0.7l0.1-0.2l0.5-0.2l0.6,0.1c0.2,0,0.4,0.1,0.6,0.1l0.6,0.4l0.1,0.3l0.2-0.1
	l0.1,0.4l0.3,1.2h0.3v0.5l-0.4,0.7l0.2,0.2l1-0.2l-0.2,0.7l0.4-0.6l0.6,0.1l0.8,0.2l0.2,0.4v0.4l0.6-0.4h0.9l0.7-0.3l0.6,0.3
	l0.4,0.5l0.3,0.1l0.4-0.2l0.1,0.2v0.6h0.1C-1590.5,1301.5-1590.5,1301.9-1590.5,1301.9z M-1612,1288.4l-0.4,0.1h-0.4l-0.4,0.2
	l-0.4-0.3v-0.3h0.1c0.4,0,0.8,0.1,1.3,0.1l0.3-0.2l-0.4-0.3v-0.3l-0.4-0.1l0.2-0.2h0.4l0.6,0.1l0.1-0.1l0.5-0.1l0.4,0.2h0.2l0.2,0.3
	l0.4-0.1v0.3h0.3l0.4,0.3l-0.3,0.4l-0.4-0.1l-0.4,0.1h-0.3l-0.1,0.2l-0.3,0.1l-0.1-0.5l-0.3,0.1l-0.3,0.5l-0.2-0.1v-0.2
	L-1612,1288.4z M-1615.8,1286.8h-0.4l-0.3-0.2l-0.2-0.4h-0.4l-0.8-0.2l-0.3-0.2h-0.9l-0.3-0.2l0.3-0.2h-0.7l-0.5,0.4h-0.4l-0.1,0.2
	l-0.4,0.1l-0.3-0.1l0.4-0.3l0.2-0.3l0.8-0.4l0.5-0.1l0.2-0.1h1.3l0.7,0.3l0.3,0.3l0.7-0.1c0.4,0.3,0.9,0.6,1.3,0.9h0.3l0.4,0.1v0.2
	h0.5l0.5,0.3l-0.1,0.2l-0.4,0.1l-0.4,0.3h-1.7l0.4-0.4L-1615.8,1286.8z M-1648.1,1253.3L-1648.1,1253.3L-1648.1,1253.3
	L-1648.1,1253.3z M-1618.4,1326.9l-0.4,0.1l-0.3,0.2l-0.4,0.1h-0.4l-0.4-0.1h-0.4l0.3,0.2l0.4,0.1h0.6l0.3-0.2
	c0.3-0.1,0.4-0.1,0.7-0.2c0.1-0.1,0.2-0.1,0.3-0.1v-0.1H-1618.4z M-1593.9,1254.8L-1593.9,1254.8v-0.2l-0.3-0.4l-0.1-0.1l0.1,0.2
	C-1594.1,1254.4-1594,1254.6-1593.9,1254.8z M-1623.9,1248.7L-1623.9,1248.7l-0.3-0.2v0.1L-1623.9,1248.7z M-1601.7,1246.7l0.2,0.1
	C-1601.6,1246.8-1601.6,1246.7-1601.7,1246.7z M-1587.5,1264.4L-1587.5,1264.4l0.1-0.2l-0.2-0.5l-0.1-0.4c-0.3-0.5-0.4-1.2-0.6-1.8
	c0-0.1,0-0.1-0.1-0.2c0.2,0.4,0.5,0.8,0.7,1.2c0.1,0.2,0.2,0.4,0.4,0.6c-1.1-2.1-2.3-4-3.7-5.9c-0.2-0.3-0.4-0.5-0.7-0.8v0.1h-0.1
	c0.1,0.2,0.3,0.4,0.4,0.5c0.1,0.2,0.3,0.4,0.4,0.6v0.4l0.3,0.5c0.2,0.3,0.4,0.4,0.5,0.6l0.4,0.6l0.1,0.4l0.2,0.2
	c0.2,0.4,0.4,0.7,0.5,1l0.2,0.3l0.2,0.4l0.3,0.4l0.1,0.3l0.3,0.6v0.5l0.1,0.4l0.1,0.4l0.2,0.1
	C-1587.5,1264.7-1587.5,1264.4-1587.5,1264.4z M-1589,1260.3c0-0.1-0.1-0.2-0.1-0.3L-1589,1260.3L-1589,1260.3z M-1588.7,1260.8
	c0.1,0.1,0.2,0.3,0.2,0.4C-1588.5,1261.1-1588.6,1261-1588.7,1260.8z"/>
</svg>
