<?xml version="1.0" encoding="utf-8"?>
<!-- Generator: Adobe Illustrator 19.1.0, SVG Export Plug-In . SVG Version: 6.00 Build 0)  -->
<svg version="1.1" id="Layer_1" xmlns="http://www.w3.org/2000/svg" xmlns:xlink="http://www.w3.org/1999/xlink" x="0px" y="0px"
	 viewBox="-1471 977 512 512" style="enable-background:new -1471 977 512 512;" xml:space="preserve">
<g>
	<path d="M-969.7,1467.7h-32c0-5.9-4.8-10.7-10.7-10.7c-5.9,0-10.7,4.8-10.7,10.7h-42.7c0-5.9-4.8-10.7-10.7-10.7
		c-5.9,0-10.7,4.8-10.7,10.7h-42.7c0-5.9-4.8-10.7-10.7-10.7c-5.9,0-10.7,4.8-10.7,10.7h-42.7c0-5.9-4.8-10.7-10.7-10.7
		c-5.9,0-10.7,4.8-10.7,10.7h-42.7c0-5.9-4.8-10.7-10.7-10.7c-5.9,0-10.7,4.8-10.7,10.7h-42.7c0-5.9-4.8-10.7-10.7-10.7
		c-5.9,0-10.7,4.8-10.7,10.7h-42.7c0-5.9-4.8-10.7-10.7-10.7c-5.9,0-10.7,4.8-10.7,10.7h-42.7V1425c5.9,0,10.7-4.8,10.7-10.7
		s-4.8-10.7-10.7-10.7V1361c5.9,0,10.7-4.8,10.7-10.7s-4.8-10.7-10.7-10.7V1297l0,0c5.9,0,10.7-4.8,10.7-10.7s-4.8-10.7-10.7-10.7
		l0,0V1233l0,0c5.9,0,10.7-4.8,10.7-10.7c0-5.9-4.8-10.7-10.7-10.7l0,0V1169l0,0c5.9,0,10.7-4.8,10.7-10.7c0-5.9-4.8-10.7-10.7-10.7
		l0,0V1105l0,0c5.9,0,10.7-4.8,10.7-10.7c0-5.9-4.8-10.7-10.7-10.7l0,0V1041l0,0c5.9,0,10.7-4.8,10.7-10.7c0-5.9-4.8-10.7-10.7-10.7
		l0,0v-32c0-5.9-4.8-10.7-10.7-10.7c-5.9,0-10.7,4.8-10.7,10.7v490.7c0,5.9,4.8,10.7,10.7,10.7h490.7c5.9,0,10.7-4.8,10.7-10.7
		S-963.8,1467.7-969.7,1467.7z"/>
	<path d="M-959,1073c0-5.9-4.8-10.7-10.7-10.7l0,0h-64c-5.9,0-10.7,4.8-10.7,10.7s4.8,10.7,10.7,10.7h38.2l-176.9,176.9l-67.1-67.1
		c-1.9-1.9-4.6-3.1-7.5-3.1s-5.6,1.2-7.5,3.1l-149.3,149.3c-1.9,1.9-3.1,4.6-3.1,7.5c0,5.9,4.8,10.7,10.7,10.7
		c2.9,0,5.6-1.2,7.5-3.1l141.8-141.8l67.1,67.1c1.9,1.9,4.6,3.1,7.5,3.1c3,0,5.6-1.2,7.6-3.1l184.4-184.4v38.2c0,0,0,0,0,0
		c0,5.9,4.8,10.7,10.7,10.7c5.9,0,10.7-4.8,10.7-10.7l0,0V1073L-959,1073z"/>
</g>
</svg>
