<?xml version="1.0" encoding="utf-8"?>
<!-- Generator: Adobe Illustrator 21.1.0, SVG Export Plug-In . SVG Version: 6.00 Build 0)  -->
<svg version="1.1" xmlns="http://www.w3.org/2000/svg" xmlns:xlink="http://www.w3.org/1999/xlink" x="0px" y="0px"
	 viewBox="0 0 80.2 125" style="enable-background:new 0 0 80.2 125;" xml:space="preserve">
<g id="marker">
	<path style="fill:#FFFFFF;stroke:#000000;stroke-miterlimit:10;" d="M40.3,1.2C18.9,1.2,1.6,18.8,1.6,40.7c0,5.7,1.2,10.9,3.2,15.9
		l33.4,65.8c0.9,1.8,3.3,1.8,4.2,0l33.4-65.8c2.1-4.8,3.2-10.2,3.2-15.9C79,18.8,61.7,1.2,40.3,1.2z"/>
</g>
<g id="heron">
	<g transform="translate(0,-288.53332)">
		<path d="M11.4,341.3l54.8,6.3v2l-54.8-6.3V341.3z"/>
		<path d="M52.5,346.6l-4.9-12.2c-0.6-1.6-1-3.3-1-5.1v-13c0-2.2-1.8-3.9-3.9-3.9h-2.2c-1.1,0-2.2,0.3-3.1,0.9l-6.4,4h-5.9
			c-1.1,0-2,0.9-2,2v0.5c0,1.1,0.9,2,2,2h6.4l5.9-3.4v7.8c0,1-0.4,1.9-1,2.7l-3.9,4.2c-0.9,1-1.2,2.3-0.9,3.6l2,8.2l4.9,0.5
			l-1.1-6.3c-0.2-1.3,0.2-2.5,1.1-3.4l2-2l6.4,13.2H52.5z"/>
		<path d="M24.1,324.1v19.6h2v-19.6H24.1z"/>
		<path d="M24.1,313.4v2h2v-2H24.1z"/>
		<path d="M50.5,310.9c-1.1,0-2,0.9-2,2v4.4V331h5.4c1.1,0,2-0.9,2-2v-9.5c0-0.5-0.1-1-0.4-1.5l-2-3.2h0.5c1.1,0,2-0.9,2-2
			c0-1.1-0.9-2-2-2H50.5z"/>
		<path d="M37.6,306.2c0,2.4,2,4.4,4.4,4.4s4.4-2,4.4-4.4c0-2.4-2-4.4-4.4-4.4S37.6,303.8,37.6,306.2z"/>
	</g>
</g>
</svg>
