<?xml version="1.0" encoding="utf-8"?>
<!-- Generator: Adobe Illustrator 19.1.0, SVG Export Plug-In . SVG Version: 6.00 Build 0)  -->
<svg version="1.1" id="Layer_1" xmlns="http://www.w3.org/2000/svg" xmlns:xlink="http://www.w3.org/1999/xlink" x="0px" y="0px"
	 viewBox="-1677 1238.1 100 91.8" style="enable-background:new -1677 1238.1 100 91.8;" xml:space="preserve">
<g>
	<path d="M-1577.6,1272.5l-11.6-8.1v-24.8c0-0.8-0.7-1.5-1.5-1.5h-11.4c-0.8,0-1.5,0.7-1.5,1.5v14.7l-22.6-15.8
		c-0.5-0.4-1.2-0.4-1.7,0l-48.5,34c-0.3,0.2-0.5,0.6-0.6,1c-0.1,0.4,0,0.8,0.2,1.1l6.6,9.4c0.3,0.4,0.8,0.6,1.2,0.6
		c0.3,0,0.6-0.1,0.9-0.3l2.9-2v46.1c0,0.8,0.7,1.5,1.5,1.5h25.5c0.8,0,1.5-0.7,1.5-1.5V1294h19.3v34.4c0,0.8,0.7,1.5,1.5,1.5h25.3
		c0.8,0,1.5-0.7,1.5-1.5v-46.2l3.1,2.2c0.7,0.5,1.6,0.3,2.1-0.4l6.6-9.4c0.2-0.3,0.3-0.7,0.2-1.1
		C-1577.1,1273-1577.3,1272.7-1577.6,1272.5z"/>
</g>
</svg>
