<?xml version="1.0" encoding="utf-8"?>
<!-- Generator: Adobe Illustrator 21.1.0, SVG Export Plug-In . SVG Version: 6.00 Build 0)  -->
<svg version="1.1" xmlns="http://www.w3.org/2000/svg" xmlns:xlink="http://www.w3.org/1999/xlink" x="0px" y="0px"
	 viewBox="0 0 80.2 125" style="enable-background:new 0 0 80.2 125;" xml:space="preserve">
<g id="marker">
	<path style="fill:#FFFFFF;stroke:#000000;stroke-miterlimit:10;" d="M40.3,1.2C18.9,1.2,1.6,18.8,1.6,40.7c0,5.7,1.2,10.9,3.2,15.9
		l33.4,65.8c0.9,1.8,3.3,1.8,4.2,0l33.4-65.8c2.1-4.8,3.2-10.2,3.2-15.9C79,18.8,61.7,1.2,40.3,1.2z"/>
</g>
<g id="heron">
	<path d="M66.7,30.1L53,24.7v-9h-6.3v6.6L30.4,16c-1.1-0.5-2.4-0.2-3.3,0.6L12.8,29.3c-1.3,1.1-1.4,3.2-0.3,4.4
		c0.8,0.6,1.6,0.9,2.5,0.9l0,0l0,0l0,0h1.6v22.1h9.5v-19h9.5v19H64V36.2h1.6l0,0c1.3,0,2.5-0.8,3-2.1C69.3,32.6,68.5,30.7,66.7,30.1
		z M57.7,37.8v4.7h-6.3v-4.7H57.7z M41.9,37.8h6.3v4.7h-6.3V37.8z M41.9,50.5v-4.7h6.3v4.7H41.9z M57.7,50.5h-6.3v-4.7h6.3V50.5z"/>
</g>
</svg>
