<?xml version="1.0" encoding="utf-8"?><!DOCTYPE svg PUBLIC "-//W3C//DTD SVG 1.1//EN" "http://www.w3.org/Graphics/SVG/1.1/DTD/svg11.dtd"><svg version="1.1" xmlns="http://www.w3.org/2000/svg" xmlns:xlink="http://www.w3.org/1999/xlink" x="0px" y="0px" viewBox="0 3.562 100 92.876" enable-background="new 0 3.562 100 92.876" xml:space="preserve"><path d="M51.312,3.562c-13.095,0-23.718,10.63-23.718,23.718c0,0.296,0.08,0.548,0.094,0.844c-0.296-0.02-0.58-0.063-0.876-0.063
	c-7.044,0-12.75,5.706-12.75,12.75c0,0.088,0.032,0.164,0.032,0.25c-1.008-0.302-2.054-0.5-3.156-0.5C4.895,40.562,0,45.462,0,51.5
	c0,6.043,4.895,8.312,10.938,8.312H81.25c10.357,0,18.75-8.39,18.75-18.75c0-10.358-8.391-18.75-18.75-18.75
	c-2.34,0-4.568,0.502-6.625,1.282C72.837,12.272,63.13,3.562,51.312,3.562L51.312,3.562z"></path><polygon points="46.719,62.219 34.75,82.75 43.312,82.75 36.469,96.438 57,75.905 46.719,75.905 55.281,62.219 "></polygon><polygon points="23.469,66 14.438,90.812 16.375,91.53 25.688,66 "></polygon><polygon points="33.812,66 24.781,90.812 26.719,91.53 36,66 "></polygon><polygon points="64.781,66 55.75,90.812 57.688,91.53 66.969,66 "></polygon><polygon points="75.094,66 66.094,90.812 68.031,91.53 77.312,66 "></polygon></svg>