<svg xmlns="http://www.w3.org/2000/svg" height="300.78" viewBox="0 0 252 300.77502" width="252"><path d="M1.386 38.796c0-20.655 16.752-37.407 37.419-37.407h174.868c20.655 0 37.408 16.752 37.408 37.407l-.012 136.38c0 69.03-55.97 124.988-125 124.988S1.08 244.206 1.08 175.176l.306-136.38" fill="#564535"/><path d="M243.204 38.796c0-16.247-13.178-29.425-29.425-29.425H38.91c-16.258 0-29.436 13.178-29.436 29.425l-.341 136.38c0 64.622 52.396 117.006 117.018 117.006s117.018-52.384 117.018-117.006l.035-136.38" fill="#e6cea5"/><path d="M220.868 205.377c3.186-9.676 3.444-19.739 3.444-30.472V80.988H27.978v93.917a98.195 98.195 0 0 0 4.878 30.648l188.012-.176" fill="#ffd151"/><path d="M31.48 205.377h189.364l5.537-33.775s-55.429-21.184-57.462-21.925c-3.515-1.293-8.088-1.704-11.78.53-1.528.916-37.7 22.218-37.7 22.218l-25.558 6.219S77.08 173.73 75 173.13c-2.222-.646-4.69-.67-6.336.118-1.6.776-39.747 18.41-39.747 18.41l2.563 13.719" fill="#faa225"/><path d="M191.36 205.377l.26-2.105 2.068-4.385-2.386-7.653-24.687 1.858-2.046 12.285-133.135.011c12.872 39.206 51.126 67.679 94.646 67.679 43.474 0 81.821-28.532 94.717-67.69h-29.436" fill="#fff"/><path d="M115.418 79.706c-.53 2.74-.8 5.573-.8 8.476 0 24.676 20.009 44.684 44.696 44.684 24.676 0 44.684-20.008 44.684-44.684 0-3.092-.317-6.101-.905-9.017l-87.675.541" fill="#fff100"/><path d="M163.753 89.727s-4.456 5.558-5.75 7.145c-1.292 1.576-18.316 18.884-28.672 23.163-5.396 2.222-9.117 10.723-10.727 11.664-.694.411-1.044-.478-.809-1.653 0 0-1.351.528-.881-.753.47-1.294 1.227-3.703-.478-3.233-1.234-1.117 1.822-2.917.588-3.858-.94-.705-1.065-.404-1.065-.404s2.072-4.048.367-4.225-2.002.35-2.002.35 2.175-2.929.882-3.693c-1.282-.764-1.881.522-2.352.11s2.053-3.974.478-4.739c-1.587-.764-2.476 1.859-3.417 1.047-.928-.822 2.234-3.523 1.176-4.628-1.058-1.117-4.331 2.52-4.978 3.637-.235.411-.643.58-.937-.184s2.708-4.869.533-5.033c-1.517-.118-12.225 11.841-16 20.224-2.41 5.325-2.538 8.505-1.303 10.727.928 1.68 1.594 5.448-.992 7.917-1.223 1.163-4.776.797-5.952.092-1.175-.706-2.9-1.762-4.004-2.02-2.445-.236-8.784.697-9.607 1.285-.729 6.266-.719 14.127 5.841 20.04 6.572 5.925 11.852 9.45 14.31 11.683 2.468 2.222 8.078 7.26 11.37 8.67-.235 2.457.772 9.273 2.994 10.966-.118.411.055 1.396.055 1.396s.764.764 1.176.882.937-.228.937-1.286-.235-.177-.294-.882c-.059-.705.239-.93.239-1.635s-.184-1.58-.184-1.58-.926-1.525-1.69-1.983c-.058-.882-.415-3.116.055-4.115.47-.987.882-1.635 1.764-1.635.87 0 .808.753.808 1.341 0 .576.056 2.572.056 2.572s1.711 1.939 2.24 1.892c0 .87 1.232 2.917 2.866 2.976 1 .587 2.943.705 3.637.293.94.353 3.34.94 4.74 0 .704.294 5.635 1.52 8.632-.055 1.81-.47 2.223-1.59 2.223-2.296s-.522-1.036-.992-1.506c.235-.823.463-1.525.404-2.407-.058-.881-.117-2.53-.882-3.765.294-.764.713-1.176.478-2.057-.235-.87-.776-1.095-1.47-1.8.353-.706.118-1.477-.587-1.948s-2.223-.754-3.398-1.8c-1.164-1.058-2.7-2.715-3.288-3.949-.588-1.223-1.397-6.499-5.97-8.32v-1.103c2.222-1.47 3.513-1.767 8.32-.239.765.412 2.168.822 2.462.129.294-.706-.066-1.363.404-1.892.47-.53 1.775.242 2.186-.404.4-.647.389-2.657.46-3.821.234-3.868 17.469-19.112 18.515-28.14.53-.53 1.892-1.118 1.892-1.764 0-.635-.183-2.04-.183-2.04 2.81-1.527 3.993-4.099 3.875-4.922.823-.411 2.998-2.575 2.058-4.28 1.163-.823 4.441-4.335 3.618-6.392 1.47-1.693 3.468-3.413 2.94-5.235 1.763-1.517 2.648-3.8 2.59-6.08.94-1.234 2.442-3.575 1.56-3.986l-3.27 3.288c1.94-2.457 3.512-4.691 2.407-5.75zM60.452 122.68c-3.809 0-7.37 1.488-8.946 4.427l-1.671 2.535c-.47.705-1.763 1.57-2.057 1.653-.588.176-7.311 1.524-7.311 1.524 1.399 2.81 3.92 3.343 5.437 3.343 1.528 0 4.034-.27 6.796-.422 1.552-.082 3.563.508 4.703 1.084 1.105.564 2.744 1.052 4.978 1.029 1.751-.024 4.056 1.414 4.702 3.177.823-.588 7.131-1.539 9.588-1.304-5.09-11.015-9.471-17.046-16.22-17.046zm114.972 36.424c-.71-.095-1.474.185-2.02 1.084-6.007 9.91-7.817 16.2-9.24 21.748-1.634 6.454-1.972 17.012-1.855 23.512H31.471a99.178 99.178 0 0 0 7.788 17.946h75.716c3.409 0 5.033-.595 5.033-1.653 0-1.046-1.114-1.561-1.984-1.855-1.058-.353-19.706-5.867-21.234-6.337-1.517-.47-3.747-1.29-3.747-2.572 0-1.293 3.762-1.892 5.29-1.892H160.4c.341-.2.615-.96 1.12-.937-.07-.482.026-.922.496-1.157.2-.106.4.032.423.22.094.541.18 1.175-.056 1.599-.258.47-.886.296-.569.955.024.058.27-.01.422.036.341.106.297.566.202.625-1.222.705-.274 1.498-.991 2.333-.118.153-.582-.15-.864-.386 0 .165-.04.318.019.46.06.176.241.36.44.22.165-.106.279-.302.478-.184.188.106.325.288.478.44-.87.177-.798.873-1.433 1.378-.153.118-.456-.015-.68.056-.188.047-.354.286-.201.404s.535-.044.606.073c.552.859.81 2.845-.625 3.068-.023 0-.064.303.019.386.082.07.305-.015.422.055.33.188.712.517.441.882-.364.482-1.222.324-1.47.606-.67.811.916 1.891.258 2.902-.706 1.105-.68 2.373-1.562 3.325-.235.247-.636.463-.624.698.011 1.011.163 2.153-.625 2.682-.482.329-1.235.61-1.047 1.304.047.2.299.29.404.478.118.2-.46.451-.624.569-.247.788-1.316 1.253-1.304 2.24 0 .483-1.05.63-.955.901.411 1.246 1.68.361 2.185-.661.106-.212-.084-.332-.202-.496-.129-.188.032-.364.22-.423.224-.059.464-.018.699-.018-.247-.94.662-1.44 1.414-1.58.082-.012.236.224.46.165-.33-.74-.257-1.802.495-2.296.27-.176.543.348.919.184-.553-.423-.582-.953-.441-1.635.07-.364.536-.158.606-.276.706-1.293-.596-4.094 1.25-4.353.317-.036.26.378.201.625-.047.188-.224.316-.459.257v.459c.658-.353.866-1.024.478-1.635.529-.153.773-.67 1.102-1.01.8-.835.595-2.238 1.653-3.05.188-.152-.394-.527-.147-.844.27-.341.668-.543 1.139-.496v-.478c-.482.083-.922 0-1.158-.459-.105-.212.063-.365.24-.46.493-.258.565.401.918.46-.059-.223.068-.382.257-.44.14-.048.288-.037.44-.037-.693-1.094.516-2.12.093-3.307-.082-.258.366-.178.624-.202-.352-.494-.61-1.076-.422-1.616.106-.282.736-.404.771-.533.306-1.105.132-2.308.202-3.472.012-.294.417-.583.864-.477.011-.588-.317-1.008-.717-1.396.753-.376.584-1.72 1.654-1.415-.06-.47.148-.868.477-1.138.176-.153.335.037.441.202.282-.27.352-.887.716-.864.694.035 1.43-.206 2.113.147.164-1.67-1.078-2.607-2.113-3.747-.059.235.144.325.202.478.224.552-.562.345-.68.698.965-.236 1.42.739 1.82 1.432.046.082-.187.313-.387.184-.164-.106-.318-.337-.459-.184-.552.565-1.149.232-1.69.056-.223-.082-.446.423-.716.588-.388.246-.653-.153-.9-.423.811-.27.513-1.1.937-1.653.235.33.665.3.606.019-.188-.976.689-.753.477-1.635-.011-.07-.603.043-.532-.239.14-.517 1.064-.07 1.322-.716.165.153.354.44.46.404.34-.094.345-.837.697-.79.953.13.255 1.46.772 1.672.317.117.072-1.061.624-.956.67.13.931.873.496 1.543h.46c-.06-.223.068-.4.257-.459.14-.047.34.045.422-.037.082-.081.066-.3.019-.44-.106-.353-.514-.135-.643-.276-.729-.752-.271-1.774.423-2.314-.283-.282-.329-.726-.717-.937.423-.694 1.407-.439 1.819.055.317.388-.407 1.108.11 1.543.14.13.466-.025.643.092.6.4-.005 1.127.312 1.562.082.106.49.139.643-.202.576.4 0 .787 0 1.175.223-.058.36.075.477.24-.34.152-.313.525-.183.642.188.188.663-.117.863.294.106.223-.037.342-.202.46.376.2.514.625.643.954.247.6-.336 1.174-.184 1.856.13.576 1.1 1.094.441 1.634-.311.248-.577-.292-.643-.587-.006-.032.062-.046.037-.074-.014-.012-.05.008-.073 0-.11-.037-.281-.058-.35 0-.14.153.038.404.203.404.111 0 .123-.15.147-.275-.25 1.17 1.181.984 1.763 1.8.435.611-.882.176-.753.588.188.576.898.93.863 1.671.459-.164.55-.892.937-.845.658.07.09.589.312 1.047.047.118.565-.065.588.276.011.165-.2.298-.422.239-.047 1.081 1.22 1.336 1.396 1.947.294.987-1.917 1.42-1.635 2.737.576-.13 1.192.137 1.58.349.493.282.872.615 1.083 1.12.424.976-1.087 1.498-1.322 2.333-.13.435.751-.135 1.01-.147 1.164 0 .141 1.305.588 2.057.117.188-.498.089-.827.147.306.306-.54.632 0 .937.682-1.07 2.57-1.847 3.545-.624.118.152-.019.39-.019.624.577-.047.821-.384.68-.937-.611.682-.989-.572-.918-.936-.635.047-1.327.37-1.855.147-.26-.106-.88-.705-.22-1.01.41-.189.851.66 1.322.33.293-.212-.26-.534-.166-.863.047-.188.23-.333.441-.24.4.177.434.656.716.938.318-.764.145-1.734 1.12-2.205.095-.047.575-2.107.093-2.718-.094-.13.2-.298.422-.239.118-.447-.195-.678-.477-.937.164-.106.373-.316.22-.422-.964-.647-.029-1.165-.147-1.929-.047-.306.366-.209.625-.22-.67-2.892.37-5.75.147-8.689-.024-.388.456-.891.973-1.267.294-.223-.062-.72-.367-1.12-.258-.353.825-2.845.33-3.656-.563-.952-.431-1.962.368-2.608.165-.141.9.863.9.863s-.4.283-.459.46c-.06.176 0 .756 0 .991s.577.42.753.478c.176.058.073.466.073.643s-.54-.004-.716.055c-.176.059.893 1.71 1.01 2.168.106.47-.062.94-.238 1.175-.177.235.177.82.459.937.294.118.345.35.11.937s-.165 1.004-.165 2.167c.587.06 2.399.012 3.104-.459.705-.458 1.078-2.06.643-3.765-.705-2.751-2.528-6.323-3.233-9.79-.729-3.61-1.275-8.263-1.745-12.601-.47-4.338-2.53-9.78-5.198-15.117-.13-.27-.792-1.313-1.58-1.525-.53-.153-1.376.78-1.47 1.837-.082 1.058-.641 3.966-1.487 5.694-.588-.564-2.405-2.166-2.664-3.6-.27-1.434-.42-2.518-.973-3.729-.283-.6-.925-1.08-1.635-1.175zm-2.406 34.276c-.036.258.879.32.22.661-.093.047-.328-.091-.422-.22-.141-.188.038-.335.202-.441zm-3.067.275c.117.036.267.322.22.405-.27.493-.766.815-1.378.698-.188-.036-.354-.275-.202-.405.4-.34.772-.897 1.36-.698zm.202 1.286c.307-.019.648.135 1.065.441.494.364 1.384-.64 1.984.147.117.165.169.549-.184.643-1.034.282-2.258-.246-3.104.165-.423.2-.847-.397-.588-.808.247-.382.52-.569.827-.588zm1.69 1.745c.211.153.843.274.22.662-.106.07-.318.047-.46 0-.176-.059-.314-.248-.22-.46.082-.176.26-.343.46-.202zm3.177.9c-.094.024-.214.132-.202.202.016.117.154.134.276.166-.012.022-.058.036-.056.055.024.176.218.291.441.22-.135-.112.216-.493-.22-.422.049-.157.096-.304-.24-.22zm-.244.96c-.153.152.037.404.202.404.164 0 .355-.252.202-.404-.07-.082-.322-.082-.404 0zm.79.955c-.153-.153-.381.007-.405.183-.01.07.132.22.202.22.177-.035.344-.262.202-.403zm-2.995.918c-.152.153.038.423.202.423.165 0 .355-.27.203-.423-.071-.082-.322-.082-.405 0zm1.617.22c.153.33.44.25.698.203.094-.012.156-.12.239-.202h-.937zm1.874 0c.059.224-.075.342-.24.46-.07-.235.075-.342.24-.46zm-2.958.974c-.153.153.038.423.202.423.153 0 .355-.27.202-.423-.07-.07-.333-.07-.404 0zm.845 1.378c-.211-.118-.417.032-.44.22-.012.06.13.168.201.239.235-.423.584.334.643-.019.024-.13-.216-.335-.404-.44zm-2.167.092c-.094.011-.202.15-.202.22.035.177.205.298.44.24-.152-.13.29-.59-.238-.46zm-.9.44c-.094.024-.233.15-.22.221.023.177.217.291.44.22-.141-.117.297-.57-.22-.44zm4.114.736c.083.081.152.191.257.238.2.094.355-.037.202-.202-.081-.07-.306-.036-.459-.036zm-4.904.128c-.122-.026-.25.027-.35.239-.093.211.033.389.221.46.141.046.359.063.441-.02.082-.035.082-.316 0-.422-.083-.118-.19-.23-.312-.257zm4.427.404c-.153-.153-.4.032-.423.22-.011.071.132.214.202.203.177-.024.362-.27.22-.423zm-2.443.056c-.447.423-1.11.588-1.415 1.175.224-.07.36.075.478.24.023-.671.984-.698.937-1.415zm7.568.257c.152.117.169.47.11.588-.06.117-.08.06-.35.036-.258-.035-.495-.092-.495-.092l-.092-.422.238-.037s.447-.191.588-.073zm11.755.33a79.05 79.05 0 0 1-.422 3.637h28.618c.435-1.199.843-2.414 1.231-3.636H191.4zm-22.52.093c-.12-.002-.223.087-.293.275-.011.047.131.202.202.202.165 0 .306-.12.46-.202-.118-.17-.248-.274-.368-.275zm12.583.275c.212-.106.4.044.423.22.058.541-.015 1.11.514 1.415-.435.153-1.025.902-1.377.22-.177-.34.691-.098.385-.404-.446-.458-.568-1.133.056-1.45zm-13.151.515c-.106-.036-.331.216-.202.404.117.164.28.254.22.477.353-.305.405-.717-.019-.881zm9.625.422c.082.07.144.173.238.22.2.095.355-.048.202-.202-.081-.081-.276-.018-.44-.018zm-4.464.514c.082.082.163.186.257.22.2.095.355-.03.202-.183-.083-.083-.294-.037-.459-.037zm1.433.441c-.106.024-.232.132-.22.202.023.177.217.31.44.239-.14-.118.297-.57-.22-.44zm3.288.294c.082.082.145.173.239.22.211.095.373-.03.22-.183-.082-.082-.306-.037-.46-.037zm-10.103.386c.06.364.243.666.478.937.07-.082.202-.157.202-.24 0-.08-.167-.144-.202-.238-.047-.141.045-.359-.037-.44-.082-.071-.288-.02-.44-.02zm3.031.055c-.611-.152-1.26-.17-1.837.02-.13.035.085.383.202.348.6-.188 1.153.412 1.635 0 .07-.058.036-.367 0-.367zm.808.809c-.094.023-.214.15-.202.22.024.176.218.291.441.22-.141-.117.278-.558-.239-.44zm6.209.275c.082.07.145.185.239.22.211.095.373-.03.22-.183-.082-.082-.306-.037-.46-.037zm.239.22c-.058.006-.093-.018-.147-.018.082.082.144.192.238.239.2.094.355-.05.202-.202-.054-.055-.18-.03-.293-.02zm1.432-.183c.059.223-.074.342-.238.46.164.117.35.259.22.458-.481.744-.83-.248-.992-.147-.01-.021.038-.036.019-.055-.07-.082-.34-.082-.423 0-.14.153.056.41.22.422.122 0 .147-.177.148-.312-.217.765.633 1.07 1.304 1.25.835.234.221-.406.68-.442-.953-.388-.264-.585-.276-1.396-.011-.329-.402-.227-.661-.238zm-12.049.46c-.141-.154-.369.031-.404.22 0 .059.143.213.202.202.188-.024.355-.282.202-.423zm1.102.073c-.12-.002-.223.075-.294.257-.023.047.12.202.202.202.153 0 .307-.12.46-.202-.118-.165-.247-.256-.368-.257zm-59.753.881c-1.058 0-3.288.236-3.288 1.047 0 1.117 1.76 1.753 3.288 2.223 1.517.47 17.48 4.346 20.408 5.051 2.927.706 6.851 2.568 6.851 4.978 0 2.81-5.919 4.978-13.078 4.978H42.781c11.004 16.928 27.007 30.311 45.921 38.023 2.281-.094 9.934-.11 12.05-1.286 1.187-.658 1.69-2.388.808-3.27-.4-.399-.929.791-1.47 1.25-1.293-1.587-.698-4.462 1.194-4.72 1.858-.26 3.757 1.578 3.252 3.765.305 0 .688.116.9-.037.81-.611.468-1.926 1.267-2.443.835-.529 1.507.635 1.965 1.47.212.387 1.03-.126 1.194-.643.153-.518-.718-1.016-.33-1.58.329-.494 1.054-.693 1.524-.423.8.459 1.194 1.632 2.076.974.47-.353.927-1.248.257-1.671-.4-.247-1.11.006-1.322-.57-.189-.505.03-1.123.477-1.322 1.975-.906 3.128 1.311 4.28 2.663.647.74 1.72.7 2.719.312-1.81-3.233-5.217-5.816-5.217-9.625 0-1.363 1.641-1.96 2.829-2.112 3.444-.423 6.109-.386 9.165.202 2.528.494 4.817 1.002 7.274.661 2.363-.317 6.459-2.263 5.989-2.663-.917-.776-.787-2.223.165-2.517 5.678-1.728 9.279-6.208 12.876-10.617.34-.411 3.726-4.1 3.067-6.557-.987-3.656-2.35-7.315-1.763-11.076.294-1.928 3.133-3.676 3.968-4.464h-48.787zm81.465 0c-.553 3.61-1.154 7-1.506 8.376-.412 1.576-.236 2.693 0 3.692.552 2.363.781 5.222.734 7.385-.047 2.092-3.435 2.441-5.07.936-1.057 1.2-1.868 2.485-2.938 3.637-1.975 2.14-4.071 4.126-6.705 5.42-2.516 1.233-5.106 2.21-7.586 3.397-1.893.894-2.043 3.587-3.453 5.327-1 1.235-1.913 2.538-3.288 3.196-2.105 1.023-2.74-1.562-3.105-3.361-.152-.694-1.214-1.008-1.708-.808-1.916.752-3.802 1.823-4.684 3.857-.611 1.364-.543 2.712-.202 4.17.106.482 1.423 1.026 1.341.532-.2-1.293-.26-2.4.716-3.27.659-.587 1.601-.392 2.26.02.893.564-.238 1.462-.662 2.039.165.117.31.242.24.477.47 0 .977.121 1.377-.055 1.528-.682 2.636-2.086 4.482-1.58.352.094.296.468.202.68-.27.646-1.385.686-.808.991 2.08 1.14 2.793-1.462 4.004-2.755.458-.494 1.231.601 1.984.33.188-.07.382-.252.44-.44.189-.67-.3-1.119-.606-1.672-.423-.775.252-1.61.57-2.222.388-.74 1.446-1.715 2.351-1.139.494.306 1.602.727 1.12 1.433-.388.564-1.117.984-.753 1.69.506.975 1.486 1.673 2.462 1.12 1.305-.729 2.993-2.142 1.653-4.023-.635-.893-.344-2.31.514-3.38.917-1.151 2.41-1.953 3.692-1.083.4.282 1.025.728.919 1.304-.177.987-1.93.66-1.506 1.635.87 2.01 2.936.741 3.618-.717.412-.87-.312-1.792-.735-2.626-.81-1.587.483-3.396 2.223-3.325.106 0 .69-.015.643.349-.094.74-.202 1.449.55 1.837.26.13.636.13.883 0 1.41-.753 2.03-2.144 2.571-3.637.294-.823 1.269-1.578 2.186-2.13.4-.248 1.299.093 1.029.587-.353.658-.774 1.527-.093 1.892.706.364 1.31-.18 1.452-.698.258-.94.283-1.954 1.34-2.26.894-.258 1.978-.051 1.966.9 0 .624-1.306.735-1.212 1.617.047.494.423.97.881 1.157.73.294 1.557-.164 1.745-.716.482-1.446 1.153-2.932 2.517-3.637 1.234-.623 2.573.658 2.314 1.763-.211.906-2.213.754-1.543 2.094.224.435 2.707-.027 2.425.35a99.59 99.59 0 0 0 17.083-28.656h-28.325zm-3.71.478c.07-.012.166.126.201.22.047.141.064.359-.018.441-.153.153-.34-.044-.423-.22a.317.317 0 0 1 .239-.441zm-18.039.128c.083.083.145.174.239.22.212.095.355-.037.202-.201-.082-.082-.288-.02-.44-.02zm9.92.257c-.121-.001-.242.088-.313.276-.011.047.132.202.202.202.165 0 .325-.12.478-.202-.118-.17-.247-.274-.368-.276zm-1.25.35c-.153 0-.318-.029-.459.018-.094.024-.214.155-.202.202.141.435.583.21.9.257-.164-.105-.297-.242-.239-.477zm-1.671 1.267c-.153.153.037.404.202.404.164 0 .373-.251.22-.404-.082-.07-.352-.07-.422 0zm11.48.11c.223.176.435.566 0 .625-.141.023-.399-.228-.422-.404-.012-.153.234-.362.422-.22zm-4.17.019a.445.445 0 0 1 .662.202c-.518.094-.374.897-.68.826-.447-.105-.44-.758.019-1.028zm-24.43.202c.14.117-.279.57.239.44.188-.046.354-.269.202-.422-.071-.07-.288-.019-.441-.019zm20.83.055c-.142.153.055.386.22.386.164 0 .343-.233.202-.386-.083-.081-.34-.081-.423 0zm-3.068.074c-.153.153.037.422.202.422.164 0 .361-.27.22-.422-.083-.07-.352-.07-.422 0zm1.212 0c-.153.153.038.422.202.422.153 0 .355-.27.202-.422-.07-.07-.333-.07-.404 0zm9.442.588c.14-.142.363.044.422.22.06.223-.241 1.566-.44 1.543-.8-.13-.476-1.258.018-1.763zm-6.503.624c-.12-.001-.223.093-.294.276-.023.047.12.202.202.202.153 0 .295-.139.46-.22-.118-.165-.248-.257-.368-.258zm-16.293.129c.27.07.507.499.46.863-.024.188-.225.269-.46.257-.27-.011-.579.06-.66-.257-.13-.517.155-1.004.66-.863zm9.534.165c.082.07.145.173.239.22.2.094.366-.048.202-.202-.07-.081-.288-.018-.441-.018zm27.406.22c.788 0 1.414.639 1.414 1.415 0 .787-.626 1.414-1.414 1.414a1.414 1.414 0 1 1 0-2.829zm-19.103.496c-.12-.003-.223.069-.294.257-.023.047.12.202.202.202.153 0 .325-.12.478-.202-.118-.164-.265-.254-.386-.257zm-1.267.129c.082.083.145.173.239.22.2.094.355-.049.202-.202-.082-.081-.277-.018-.441-.018zm-24.54.33c-.2-.093-.367.05-.203.203.07.081.288.018.441.018-.083-.07-.145-.173-.239-.22zm29.096.02c.2-.13.393.031.44.22.047.176.211.656-.165.386-.118-.07-.922-.195-.276-.607zm-6.54.257c-.152.152.038.422.202.422.165 0 .343-.27.202-.422-.081-.082-.333-.082-.404 0zm-1.12.367c-.153.153.049.386.202.386.164.01.355-.233.202-.386-.07-.082-.334-.082-.404 0zm-3.986.386c.083.07.145.173.239.22.211.094.354-.049.202-.202-.083-.082-.288-.019-.441-.019zm7.219.459c-.12-.003-.224.087-.294.275-.024.047.12.202.202.202.153 0 .313-.138.477-.22-.117-.165-.265-.254-.385-.257zm1.561.643c-.12-.002-.223.087-.294.275-.023.047.102.202.184.202.153 0 .325-.12.477-.202-.117-.17-.246-.274-.367-.275zm-20.114.202c.259.106.631.219.643.477.047.6-.413 1.141-.918 1.341-.083.036-.398-.263-.386-.404.023-.505.473-.92.661-1.414zm12.895.275c.082.083.126.174.22.22.212.095.374-.048.22-.201-.08-.082-.287-.019-.44-.019zm3.27.202c-.153 0-.318-.028-.46.02-.094.035-.213.154-.202.201.142.423.583.199.9.257-.164-.117-.297-.254-.238-.477zm-22.024.257c-.188.036-.374.282-.22.423.14.153.387-.032.422-.22 0-.06-.143-.203-.202-.203zm17.487.11c-.198.043-.425.129-.625.11.294.213.596.517.937.423.118-.035.26-.327.202-.385-.135-.188-.316-.19-.514-.147zm6.888.57c0 .153-.064.37.019.441.14.141.308.01.202-.202-.047-.094-.138-.168-.22-.239zm4.666.588c-.312.004-.657.219-.845.625-.341.693.092 1.351.68 1.763.129.094.484-.157.66-.404-.775-.294-1.317-1.017-.459-1.617.27-.188.51.95.533.22.011-.387-.258-.591-.57-.587zm16.789.037c.364 0 .68.296.68.66s-.316.68-.68.68-.661-.315-.661-.68.296-.66.66-.66zm-25.9.128c-.117 0-.254.254-.477.184.164.211-.326.68.239.68.152 0 .363-.092.422-.22.082-.213.145-.656-.184-.644zm-15.227.46c.788-.283.221.387.68.422-.235.34-.504.376-.68 0-.06-.13-.06-.4 0-.423zm16.624.092c-.27-.012-.96.48-.643 1.01.058.106.408.037.643.037-.306-.388.705-1.036 0-1.048zm-3.692.165c-.294.294.486.004.404.404.2-.106.657-.169.422-.404-.164-.165-.673-.165-.826 0zm23.97 1.396c.553 0 1.01.458 1.01 1.01s-.457.992-1.01.992-.991-.44-.991-.992.439-1.01.991-1.01zm-10.433 2.516c-1.305 1.211-1.35 3.013-1.433 4.482-.047.823 1.555.91 2.13-.018.189-.294-.349-.393-.22-.698-.105.164-.247.314-.459.22-.693-.306-.47-.99 0-1.378.094-.081.307-.018.46-.018-.153 0-.33.04-.46-.02-.423-.176-.255-.6-.22-.918.023-.176.217-.297.44-.238.071-.494-.403-.898-.238-1.415zm-4.445.754c-.506.117-.4 1.076-1.176.9-.07.517.342.097.46.238-.06-.223.137-.47.22-.422.552.306.079 1.156.514 1.58.094.07.357.07.404 0 .2-.341-.16-.84.276-1.158.153.33.44.227.698.24-.165-.212.344-.664-.22-.699-.541-.023-.635-.809-1.176-.68zm19.58.275c.412 0 .735.323.735.735s-.323.753-.735.753-.753-.342-.753-.753.342-.735.753-.735zm-21.785.588c-.135-.018-.277.033-.33.092-.2.223.063.48.404.386.094-.024.232-.132.22-.202-.029-.176-.159-.258-.294-.276zm-9.055.276c.164.211-.333.708.22.66.353-.023.234-.402.257-.66h-.477zm2.057.275c-.259-.235-.403.293-.661.423.117.164.254.302.477.22.341-.13.313-.537.184-.643zm1.335.414c-.117-.022-.19.01-.073.239.023.059.451.273.404-.22-.06.07-.213.003-.33-.02zm4.795.019c-.059.34-.046.903.202.845.505-.13-.097-.54-.202-.845zm1.414.238c-.176.953 1.383.846 1.065 1.599-.235.54-.54 1.2-1.304 1.212.153.435-.408 1.017-.22 1.029 1.316.117 2.179-1.818 1.58-3.123-.036-.06-.282.01-.423-.037-.188-.058-.217-.253-.276-.44-.035-.118-.27-.157-.422-.24zm16.99.662c.412 0 .735.323.735.734 0 .424-.323.754-.735.754s-.753-.33-.753-.754c0-.411.342-.734.753-.734zm-17.505 1.01c-.14-.141-.289-.022-.183.202.047.094.138.168.22.239 0-.153.045-.37-.036-.441zm-1.12 1.635c-.07.083-.07.34 0 .422.082.082.34.082.422 0 .071-.082.071-.34 0-.422-.081-.07-.34-.07-.422 0zm-5.878.202c.118.682-.132 1.5-.955 1.653.623.976 1.327 2.071 2.608 1.965.13-.01.416.418.698.606-.435.283-.548.682-.477 1.176.223-.07.313.115.477.22.2.13.382-.05.441-.238.047-.141-.045-.329.037-.423.446-.517.958-.085 1.028-.955.036-.482 1.058-.058 1.305-.716.081-.224-.075-.36-.24-.478.683-.34 1.788-.728 1.342-1.598-.059-.106-.449-.106-.625 0-.776.447-.448 1.77-1.212 1.947-.823.2-1.04 1.194-1.617 1.782-.294-.964-.474-1.775-1.414-2.351.33-.224.376-.532 0-.661-.282-.106-.672.037-.919-.093-.822-.446.414-.94.202-1.598-.117-.34-.42-.227-.68-.238zm1.874.955c.14.117-.302.558.238.44.165-.035.405-.137.405-.22.01-.329-.385-.208-.643-.22zm-5.107.275c-.458.377-1.073 1.191-.661 1.415.647.364.328 1.668 1.304 1.304.118-.047.226-.362.202-.386-.882-.682-.275-1.11-.275-1.91 0-.141-.288-.658-.57-.423zm6.98.184c-.305.306-.66.58-.918.955-.141.188.101.451.183.404.565-.293.982-.618.735-1.359zm-41.972.68c.917 0 1.653.754 1.653 1.671s-.736 1.654-1.653 1.654-1.653-.737-1.653-1.654.736-1.671 1.653-1.671zm37.05 1.892c-.165 0-.359-.034-.441.036-.141.142-.01.29.202.184.094-.047.157-.138.239-.22zm-4.225.477c-.153.012-.375-.051-.422.02-.118.176-.037.444-.037.679.247-.024.643.109.643-.22 0-.118.345-.537-.184-.478zm-15.705.24c-.552.657-1.634.28-2.057.973-.141.223-.223.826.165.826.4 0 .118-.586.294-.845.047-.07.322-.081.404 0 .082.082.019.295.019.46-.165-.765.734-.687 1.157-.992.07-.06.02-.27.02-.423zm17.34 0c-.164.117-.33.259-.201.458.105.153.284.255.202.478-.26.635-1.17.911-.864 1.616.036.082.51.1.57-.018.176-.294.016-.733.11-1.12.117-.506 1.097-.559.826-1.158-.047-.118-.49.072-.642-.257zm1.837.256c-.117-.164-.338.026-.385.202-.071.306.045.705.385.423.118-.106.118-.472 0-.625zm-51.542.496c1.01 0 1.818.82 1.818 1.819 0 1.01-.807 1.836-1.818 1.836s-1.819-.825-1.819-1.836c0-1 .808-1.819 1.819-1.819zm54.408.202c-.188.07-.315.23-.22.441.047.094.138.157.22.239.13-.259.622-.35.422-.68-.047-.07-.281-.047-.422 0zm-1.653.22c-.153 0-.34-.063-.423.02-.082.081-.036.276-.036.44.223-.07.388.062.459.239a.765.765 0 0 1 0 .46c-.06.187-.236.309-.46.238-.059.223.102.355.184.202.082-.153.106-.364.294-.422.141-.047.376.045.423-.037.34-.482-.476-.669-.441-1.139zm-5.64.02c-.164-.142-.375.031-.422.22-.07.306.015.613-.055.918-.047.188-.218.31-.441.24.411.646-.254 1.641.698 2.112 0-.388-.08-.793.037-1.158.188-.588.668-.48 1.138-.257-.2-.752-.355-1.535-.955-2.075zm4.483.918c-.388.47-1.094.667-1.176 1.396.776-.141 1.046-.714 1.176-1.396zm-3.95 1.69c-.117.082-.117.512 0 .606.212.153.623.13.882 0 .06-.024.064-.298-.019-.404-.2-.318-.628-.379-.863-.202zm-62.067.019c1.187 0 2.15.95 2.15 2.149 0 1.187-.963 2.167-2.15 2.167s-2.167-.98-2.167-2.167c0-1.2.98-2.15 2.167-2.15zm41.623.385c0 .153.052.383-.018.441-.67.447-1.142.272-.919 1.213.435-.177.894-.228 1.176-.698.27-.447-.345-.591-.24-.956zm12.197 1.91a.317.317 0 0 0-.238.442c.081.188.247.332.459.238.176-.082.361-.27.22-.459-.094-.13-.3-.232-.44-.22zm-46.086.552c.917 0 1.671.736 1.671 1.653s-.754 1.653-1.671 1.653c-.906 0-1.672-.736-1.672-1.653s.766-1.653 1.672-1.653zm56.52.165c.505 0 .918.395.918.9s-.413.919-.918.919-.9-.413-.9-.919.394-.9.9-.9zm-11.811.257c-.106.058-.118.46 0 .625.105.14.26.026.202-.22-.036-.189.197-.64-.202-.405zm-16.312.625c-.284.019-.574.083-.845.019.036.787.832.435 1.102.753.341.423-.518.308-.624.66-.082.236.05.378.239.46a.297.297 0 0 0 .422-.239c.07-.552-.033-1.078.496-1.396-.241-.247-.506-.276-.79-.257zm15.522.33c-.412-.293-.85.202-1.12.625.458-.094 1.124.04.936.698.8-.705 1.813.484 2.553-.257.082-.082.019-.288.019-.44-1.046.293-1.471.033-2.388-.625zm-2.958.864c-.164.47-.817 1.022-.44 1.304.41.294.157-.939.863-.845 0-.153.064-.359-.019-.44-.082-.071-.38-.067-.404-.02zm-3.343.275c-.211-.094-.676-.122-.606.184.13.611-.167 1.1-.073 1.653-.177-.811.806-.826.9-1.414.023-.141-.091-.376-.22-.423zm4.427.717c-.306-.282-.023.504-.422.422h.698c-.165-.117-.194-.34-.276-.422zm-15.21.68c-.399-.024-.436.679-.918.679.024.176-.233.604.202.404.318-.13.515-.522.974-.404-.024-.259.084-.656-.257-.68zm-2.093.918c-.013.247.09.538-.24.68.236 0 .528.08.68-.037.165-.118-.037-.293-.201-.423-.082-.07-.157-.15-.24-.22zm-40.227.367c.823 0 1.506.665 1.506 1.488s-.683 1.506-1.506 1.506-1.488-.683-1.488-1.506.665-1.488 1.488-1.488zm38.61.588c-.164.07-.305.175-.458.257-.153.094.049.391.202.367.223-.023.696.381.66-.183 0-.2-.05-.617-.403-.441zm9.534.753c-.493-.33-.858.437-1.34.625.27.529 1.371.949 1.524.22.047-.211-.03-.739-.184-.845zm-9.57.496c-.47-.06.042.766-.44 1.084-.048.036-.02.138-.02.22.624-.094 1-1.233.46-1.304zm-6.76.11c-.165-.004-.337.043-.495.019.235.388.62.192.937.239a.494.494 0 0 0-.441-.257zm3.73.056c-.153.07-.243.26-.478.202 0 .153.028.318-.019.459-.106.353-.461.296-.661.202-.294-.13-.505-.611-.717-.588-.693.094-.94.972-.459 1.525.07.083.3.008.441.055.188.06.338.23.22.441-.105.188-.288.325-.44.478.305-.13.404.403.698.238.458-.258.35-.784.55-1.102.306-.482.902-.834 1.231-1.304.365-.529-.12-.724-.367-.606zm-3.987.9c-.152 0-.382-.064-.44.019-.106.164-.118.525 0 .642.27.283.559-.218.9-.183 0-.165.051-.377-.02-.46-.082-.081-.287-.018-.44-.018zm4.923.239c.059.223-.172.36-.183.477 0 .33.384.197.642.22 0-.164.04-.318-.018-.459-.06-.176-.218-.309-.441-.238zm11.48.477c-.27.247-.583.472-.477.919.235-.059.372.074.478.238.081-.388.352-.769 0-1.157zm-18.589.147c-.107-.003-.189.06-.165.312.094-.211.693.327.422-.202a.435.435 0 0 0-.257-.11zm17.193.533c.07.388-.705.25-.423.367.494.188 1 .321 1.341.827.13.2-.067.341-.22.459-.153-.33-.451-.215-.698-.239 0 .318.052.643-.019.937-.047.188-.322.212-.404.294-.376.4.198.461.386.367.494-.27 1.092-.34 1.432-.881.142-.224.35-.475.22-.699-.375-.658-1.18-.833-1.616-1.432zm-24.155 2.829c-.27.34-.61.734-.423 1.157.024.059.344.059.368 0 .14-.341.055-.77.055-1.157zm-23.107.165c.681 0 1.249.555 1.249 1.249 0 .682-.568 1.23-1.25 1.23s-1.249-.548-1.249-1.23c0-.694.568-1.25 1.25-1.25zm24.282.073v.46c.118-.153.611.261.423-.221-.036-.118-.27-.168-.423-.239zm.46.955c-.188.047-.355.27-.202.423.082.082.276.019.44.019-.023-.177.255-.57-.238-.441zm-1.14.956c-.07.035-.082.321 0 .404.083.082.277.018.442.018-.118-.2-.112-.622-.441-.422zm2.536 1.598c-.141.576.25 1.088.239 1.653.235 0 .56.062.642-.056.47-.646-.884-.601-.66-1.377.011-.047-.139-.139-.221-.22zm2.116 1.185c-.177.07-.373.286-.22.404.164.117.444.055.679.055-.388.07-.012-.635-.46-.46z" fill="#0270bb"/><path d="M134.805 19.612c-3.35 0-6.245 1.443-6.245 4.335 0 1.223.768 2.516 2.002 3.233 1.458.858 2.338 1.034 4.078 1.304l1.819.294c1.105.153 2.075 1.022 2.075 1.892 0 1.152-1.243 2.13-2.571 2.13-3.15 0-5.155-2.145-6.025-4.426h-1.378l.184 5.29h1.047l1.249-1.194c1.317.835 3.218 1.304 4.923 1.304 1.504 0 3.124-.264 4.335-1.028 1.27-.847 1.984-2.05 1.984-3.344 0-3.291-3.014-4.248-6.411-4.812l-1.232-.222c-1.21-.188-2.425-.724-2.425-1.782 0-1.081 1.247-1.947 2.517-1.947 2.927 0 4.365 1.518 5.235 3.858h1.322l-.073-4.721h-1.01l-.955.9c-1.242-.694-2.935-1.066-4.44-1.066zm-31.3.33v1.011c.283 0 1.414-.014 1.838.092.329.117.367.31.367.57v7.64c0 1.482.41 2.682 1.855 3.564 1.188.729 3.923.955 5.345.955 1.117 0 2.59-.116 3.6-.55 1.211-.483 2.134-1.467 2.499-2.572.223-.635.275-1.179.275-1.837V23.47c.07-1.517.343-2.458 2.388-2.517v-1.01h-6.153v1.01c.364.012.78 0 1.12.129 1.258.282 1.286 1.33 1.286 2.259v4.85c0 1.045.011 2.075-.753 2.956-.705.882-1.99 1.231-3.178 1.231a5.386 5.386 0 0 1-1.984-.349c-.776-.294-1.133-.56-1.45-1.23-.33-.682-.313-1.733-.313-2.462V22.11c0-.223-.04-.675.184-.863.493-.423 1.392-.224 2.039-.294v-1.01h-8.964zm19.876 9.001c-1.411 0-2.609 1.108-2.609 2.425s1.198 2.406 2.609 2.406c1.422 0 2.626-1.09 2.626-2.406s-1.204-2.425-2.626-2.425zm22.06 0c-1.422 0-2.626 1.108-2.626 2.425s1.204 2.406 2.626 2.406c1.411 0 2.609-1.09 2.609-2.406s-1.198-2.425-2.609-2.425zM57.107 37.32c-3.35 0-6.246 1.455-6.246 4.335 0 1.223.78 2.528 2.003 3.233 1.457.87 2.326 1.034 4.077 1.304l1.8.294c1.106.141 2.095 1.022 2.095 1.892 0 1.164-1.244 2.13-2.572 2.13-3.162 0-5.137-2.145-6.007-4.426h-1.396l.184 5.29h1.047l1.23-1.194c1.33.847 3.25 1.304 4.942 1.304 1.516 0 3.136-.264 4.335-1.028 1.27-.847 1.984-2.05 1.984-3.343 0-3.292-3.007-4.26-6.393-4.813l-1.27-.222c-1.2-.188-2.425-.724-2.425-1.782 0-1.081 1.254-1.947 2.535-1.947 2.927 0 4.353 1.518 5.235 3.858h1.304l-.055-4.72h-1.01l-.956.9c-1.246-.694-2.94-1.065-4.445-1.065zm39.547.055c-2.504 0-4.518 1.302-4.518 3.582 0 .976.34 1.81.881 2.645-.987.412-2.042.793-2.865 1.452-.882.693-1.561 1.727-1.561 2.773 0 .94.548 2.04 1.359 2.664.976.728 2.269.991 3.527.991 1.68 0 3.307-.355 4.647-1.249.858.67 2.234 1.194 3.398 1.194 2.48 0 3.51-1.354 3.968-3.306l-1.01-.202c-.13.788-.596 1.635-1.654 1.635-.834 0-1.649-.836-2.13-1.341.529-.53.916-1.09 1.304-1.69.81-1.281 1.09-1.949 2.994-1.984v-.973h-5.878v.918c.8 0 1.947.057 1.947.974 0 .693-.619 1.454-1.066 1.983-1.081-1.328-2.152-2.678-3.104-4.077 1.705-.553 3.802-1.473 3.802-3.307 0-.834-.473-1.568-1.249-2.039-.881-.529-1.757-.643-2.792-.643zm-70.83.276v.992h.57c.412.023.623-.013 1.01.128.459.106.46.541.46.882v9.295c0 .282-.003.58-.074.863-.035.047-.063.143-.11.202-.035.047-.125.093-.184.129-.223.07-.42.073-.643.073h-1.047v.992h8.946v-.992l-1.127-.074c-1.234-.036-1.23-.25-1.23-1.25v-3.931h.22c1.446 0 2.34.44 2.81 1.286.236.435.333.692.368 1.139h1.102V41.12h-1.102c-.446 1.834-1.082 2.69-3.398 2.608v-3.857c0-.306-.037-.714.257-.937.517-.316 1.208-.256 1.82-.256 3.15 0 4.395 1.397 5.124 3.913h1.084l-.166-4.941H25.82zm15.449 0v.992h.661c.388.023.573-.007.937.11.306.07.28.218.386.44.047.213.037.414.037.625v9.111c0 .73.087 1.192-.9 1.286h-1.121v.992h8.633v-.992h-.532c-.348-.024-.468-.016-.797-.074-.106-.012-.214-.002-.331-.038-.4-.129-.405-.551-.405-.844V39.87c0-.211-.022-.436.037-.624.047-.118.078-.255.184-.35.34-.317.692-.256 1.139-.256h.698v-.992h-8.633zm23.09 0v.992c.587.035.978-.02 1.542.11.541.13.46.67.46 1.047v9.037c-.024.33-.087.633-.11.974-.024.317-.405.404-.699.404h-1.194v.992h8.523v-.992c-.258 0-.981-.05-1.322-.073-.67-.047-.661-.657-.661-1.14V45.31h5.308v3.361c0 .459.148 1.362-.57 1.433-.41.059-1.165.11-1.377.11v.992h8.486v-.992c-.587.024-.93-.051-1.506-.11-.282-.07-.436-.182-.46-.44-.023-.365-.017-.72-.017-1.085v-8.651c0-.423-.121-1.083.514-1.213l1.414-.073v-.992h-8.43v.992c.34 0 1.445-.043 1.762.239.118.094.13.213.166.33.047.224.018.47.018.717v4.17h-5.308v-4.28c0-.341-.017-.692.183-.974.4-.247 1.483-.202 1.8-.202v-.992h-8.523zm44.616 0v.992h.184c.54.035.917.009 1.176.514.164.247.261.538.367.808l4.353 11.517h2.278l2.884-7.825 2.755 7.825h2.223l3.82-10.58c.341-.905.728-1.892 1.892-2.186.106-.023.213-.05.331-.073v-.992h-5.382v.992c.776 0 1.947.225 1.947 1.084 0 .623-.223 1.187-.422 1.763l-1.764 5.033-2.351-6.833c-.07-.247-.226-.53-.073-.753.07-.059.156-.13.238-.166.306-.14.663-.105.992-.128v-.992h-7.09v.992l.254.036c.235.035.582.032.735.22.305.376.343.537.496.937l.734 1.947-1.8 4.868-2.59-6.907-.165-.44c-.011-.119-.069-.274.037-.368.081-.13.104-.113.257-.184.329-.094.674-.087.992-.11v-.992h-7.31zm23.64 0v.992h.662c.388.023.572-.007.937.11.306.07.28.218.386.44.047.213.036.414.036.625v9.111c0 .73.088 1.192-.9 1.286h-1.12v.992h8.615v-.992h-.515c-.348-.024-.48-.016-.79-.074-.103-.012-.216-.002-.329-.038-.404-.129-.404-.551-.404-.844V39.87c0-.211-.022-.436.037-.624.047-.118.059-.255.165-.35.34-.317.71-.256 1.157-.256h.68v-.992h-8.615zm9.369 0v.992h.33c1.81.035 1.672.078 1.672 1.653v8.909c0 .352-.004.901-.533.937-.564.035-.893.108-1.47.073v.992h13.391l.257-5.07h-1.102c-.623 2.551-1.81 4.078-4.114 4.078-.47 0-.449-.026-.919-.073-.978-.084-.912-.51-.959-1.215V39.65c0-.764.053-1.01 1.029-1.01h.918v-.992h-8.505zm14.015 0v.992h.514c.435 0 .874-.02 1.286.11.352.118.44.306.44.588v9.736c0 .223.028.461-.055.66a.547.547 0 0 1-.184.276.59.59 0 0 1-.257.129c-.564.07-1.157.073-1.745.073v.992h7.697c1.446 0 3.986-.007 5.327-.477 1.551-.53 2.9-1.648 3.582-2.976.564-1.07.79-2.296.79-3.472 0-1.787-.53-3.405-1.93-4.757-.622-.576-1.499-1.03-2.369-1.36-1.01-.387-2.635-.447-3.729-.459l-2.02-.055h-7.348zm17.064 0v.992h.313c1.822.035 1.69.078 1.69 1.653v8.909c0 .352.008.901-.533.937-.564.035-.893.108-1.47.073v.992h13.39l.258-5.07h-1.12c-.624 2.551-1.793 4.078-4.097 4.078-.47 0-.466-.026-.936-.073-.979-.084-.913-.51-.95-1.215V39.65c0-.764.082-1.01 1.047-1.01h.918v-.992h-8.505zm14.53 0v.992h.68c.387.023.572-.007.936.11.306.07.28.218.386.44.047.213.037.414.037.625v9.111c0 .73.087 1.192-.9 1.286h-1.14v.992h8.634v-.992h-.514c-.339-.024-.47-.016-.79-.074-.104-.012-.207-.002-.33-.038-.394-.129-.404-.551-.404-.844V39.87c0-.211-.021-.436.037-.624.047-.118.06-.255.165-.35.341-.317.692-.256 1.14-.256h.697v-.992h-8.633zm9.423 0v.992h.551c.412.023.641-.013 1.029.128.447.106.44.541.44.882v9.295c0 .282.004.58-.055.863-.047.047-.075.143-.11.202a.851.851 0 0 1-.202.129c-.212.07-.413.073-.624.073h-1.047v.992h8.945v-.992l-1.12-.073c-1.233-.037-1.233-.252-1.233-1.251v-3.931h.202c1.446 0 2.377.44 2.848 1.286.235.435.302.692.349 1.138h1.102V41.12h-1.102c-.459 1.834-1.094 2.69-3.399 2.608v-3.857c0-.306-.049-.714.258-.937.526-.316 1.222-.256 1.824-.256 3.15 0 4.396 1.397 5.125 3.913h1.084l-.147-4.942h-14.714zm15.302 0v.992c.6 0 .992-.007 1.58.11.235.035.328.124.422.312.082.118.055.275.055.404v9.589c0 .223.028.45-.055.66-.2.694-1.426.438-2.002.497v.992h14.676l.239-4.978-1.084-.074c-.905 2.728-1.642 4.06-5.051 4.06-.388 0-.788-.038-1.176-.074-1.058-.094-1.01-.5-1.01-1.322v-4.115c2.151-.047 3.352 1.074 3.435 2.884h1.175l-.092-6.54h-1.102c-.247 1.753-1.289 2.817-3.417 2.664v-3.545c0-.317-.024-.661.129-.955.036-.164.196-.273.349-.367.47-.188 1.007-.22 1.524-.22 3.457 0 4.068 1.173 4.997 3.912h1.083l-.146-4.886h-14.53zm-115.669.643c1.129 0 1.764.888 1.764 1.782 0 1.128-.606 1.904-1.782 2.35-.082.071-.206.094-.312.13-.459-.577-1.268-1.976-1.268-2.646 0-.881.529-1.616 1.598-1.616zm67.504.33c2.963 0 3.615 1.252 4.097 3.674.129.729.165 1.457.165 2.186 0 .458-.015.93-.073 1.378-.412 2.739-.742 4.353-4.28 4.353-.318 0-.654-.04-1.066-.276-.282-.317-.22-.836-.22-1.212v-8.982c0-.235-.01-.644.202-.808.388-.306.858-.313 1.176-.313zm-70.681 5.823c.211.341.424.681.624 1.01.823 1.317 1.337 1.986 2.406 3.197.259.294.55.606.809.9-.283.282-1.077.459-1.488.459-1.105 0-1.907-.43-2.553-1.194-.576-.694-1.047-1.647-1.047-2.517 0-.822.508-1.408 1.249-1.855zm-12.03 10.285c-3.35 0-6.263 1.443-6.263 4.335 0 1.211.798 2.528 2.02 3.233 1.458.87 2.32 1.046 4.06 1.304l1.819.294c1.105.141 2.094 1.034 2.094 1.892 0 1.164-1.25 2.13-2.59 2.13-3.15 0-5.137-2.145-6.007-4.426h-1.396l.202 5.29h1.029l1.249-1.212c1.317.846 3.23 1.322 4.923 1.322 1.505 0 3.154-.264 4.353-1.028 1.27-.847 1.965-2.05 1.965-3.343 0-3.28-2.994-4.249-6.392-4.813l-1.249-.22c-1.21-.2-2.424-.718-2.424-1.764 0-1.093 1.253-1.965 2.534-1.965 2.916 0 4.347 1.518 5.217 3.857h1.323l-.074-4.72h-1.01l-.937.9c-1.247-.693-2.942-1.065-4.446-1.065zm74.614 0c-2.14 0-4.759.459-6.264 1.764-1.598 1.399-2.35 3.485-2.35 5.437 0 1.798.6 3.801 2.093 5.106 1.587 1.434 4.075 1.8 6.356 1.8 3.973 0 6.152-1.573 6.998-4.96l-1.286-.256c-.458 2.198-2.068 4.06-4.83 4.06-1.035 0-1.907-.228-2.682-.827-.8-.635-1.07-1.256-1.305-2.15a10.83 10.83 0 0 1-.367-2.865c0-.74.024-1.628.165-2.333.247-1.07.35-1.752 1.103-2.645.752-.87 1.662-1.176 2.92-1.176 2.798 0 4.238 2.51 4.85 4.556l1.102-.092-.202-5.382h-.9l-1.231 1.01a1.13 1.13 0 0 1-.257-.147c-1.317-.729-2.385-.9-3.913-.9zm-66.806.276v.992c.611 0 .992-.014 1.58.092.235.035.321.124.404.312.094.117.073.293.073.422v9.588c0 .224.02.45-.073.662-.189.693-1.396.43-1.984.477v1.01h14.658l.257-4.977-1.084-.074c-.905 2.716-1.642 4.041-5.051 4.041-.388 0-.788-.038-1.176-.073-1.058-.094-1.01-.481-1.01-1.304V62.06c2.163-.059 3.353 1.067 3.435 2.866h1.157l-.092-6.521h-1.102c-.235 1.751-1.259 2.816-3.398 2.663v-3.545c0-.317-.013-.65.128-.955.047-.165.196-.292.35-.386.47-.188 1.007-.202 1.524-.202 3.456 0 4.067 1.174 4.996 3.913h1.065l-.147-4.886H89.253zm16.054 0v.992h.44c.506.023 1.05-.06 1.415.257.258.223.165 1.159.165 1.488v8.688c-.036.764-.031 1.097-1.065 1.12-.388.012-.567 0-.955 0v1.01h8.467v-1.01h-.532c-.365-.011-.285.01-.661-.036-.447-.024-.574-.157-.68-.533-.024-.2-.019-.413-.019-.624v-4.317h.22c.318 0 .179-.005.496.018 2.058.106 2.149 1.235 2.278 2.81l.092 1.14c.07.728.227 1.443.827 1.983.67.576 1.968.845 2.92.845 1.752 0 3.297-.63 3.637-2.24.118-.353.147-.727.147-1.103h-1.083c-.07.6-.163 1.828-1.268 1.451a1.163 1.163 0 0 1-.202-.22c-.211-.376-.114-.525-.22-.937l-.198-1.267c-.423-1.586-1.119-2.435-3.14-2.718v-.036c2.339-.153 4.646-1.053 4.646-3.38 0-1-.627-2.05-1.58-2.59-1.116-.623-2.275-.742-3.544-.753l-2.076-.037h-8.523zm15.411 0v.992c.282.023.581.031.863.055.882.153 1.09.761 1.396 1.396l5.254 11.388h2.498l4.796-10.268c.565-1.164 1.225-2.478 2.847-2.572v-.992h-6.098v.992c.835-.035 2.13.277 2.13 1.194 0 .247-.064.433-.146.68l-3.15 6.961-3.528-7.769c-.117-.247-.247-.483-.165-.753.306-.412 1.312-.23 1.782-.312v-.992h-8.486zm18.24 0v.992h.68c.388.023.542-.014.919.092.293.082.28.224.385.459.036.2.037.406.037.606v9.13c0 .728.1 1.173-.9 1.267h-1.12v1.01h8.614v-1.01h-.514c-.34-.012-.46.01-.79-.037-.106-.024-.225-.008-.33-.055-.414-.13-.414-.57-.414-.863V57.23c0-.211-.034-.436.036-.624.036-.106.06-.255.166-.35.353-.317.699-.256 1.157-.256h.68v-.992h-8.615zm24.449 0v.992c.6 0 1.004-.014 1.58.092.235.035.34.124.422.312.082.117.056.293.056.422v9.588c0 .224.027.45-.056.662-.188.693-1.414.43-2.002.477v1.01h14.676l.239-4.977-1.084-.074c-.905 2.716-1.642 4.041-5.051 4.041-.388 0-.788-.038-1.176-.073-1.046-.094-1.01-.481-1.01-1.304V62.06c2.163-.059 3.352 1.067 3.435 2.866h1.175l-.092-6.521h-1.102c-.235 1.751-1.277 2.816-3.417 2.663v-3.545c0-.317-.024-.65.129-.955.047-.165.215-.292.367-.386.47-.188 1.008-.202 1.525-.202 3.456 0 4.05 1.174 4.978 3.913h1.084l-.147-4.886h-14.53zm-50.23.955c1.963 0 3.03.548 3.03 2.37 0 2.022-1.208 2.635-3.324 2.682-.588.023-.435.048-1.01.036v-3.894c0-.376.01-.853.422-1.065.493-.153.364-.129.881-.129zM24.291 77.416v97.555c0 56.228 45.588 101.816 101.815 101.816 56.229 0 101.815-45.589 101.815-101.816V77.416H24.292zm3.637 3.637H224.27v93.918c0 54.206-43.944 98.167-98.167 98.167-54.218 0-98.175-43.956-98.175-98.167V81.053zm1.745 137.309l-.551.275.147.313c.129.247.283.5.33.771.047.235-.049.34-.202.423l-5.418 2.793c-.117.06-.256.147-.386.147-.058.023-.124-.002-.183-.037a.37.37 0 0 1-.166-.092c-.211-.306-.374-.67-.55-1.01l-.57.294 2.296 4.463c.435.847.995 1.907 1.653 2.553.753.753 1.778 1.208 2.719 1.231.764.024 1.509-.192 2.167-.533.988-.505 1.735-1.28 2.076-2.48.13-.528.119-1.175.037-1.763-.083-.705-.326-1.264-.643-1.91l-.57-1.176-2.186-4.261zm193.737.055c-.335.036-.686.15-.974.35-.67.493-1.045 1.132-1.433 1.873l-.496.919-2.443 4.996.551.275.202-.404c.153-.294.27-.635.551-.753.2-.094.694.23.882.312l4.868 2.388c.423.235.606.344.312.955a9.01 9.01 0 0 1-.33.68l.569.276 2.424-4.96-.55-.275-.148.33c-.117.212-.226.425-.367.625-.141.27-.23.31-.477.275a5.048 5.048 0 0 1-.368-.165l-2.406-1.194.184-.404c.094-.188.188-.375.293-.551.659-1.176 1.324-.934 2.241-.57l.643.258c.435.164.878.273 1.36.073.517-.235.911-.66 1.194-1.212.493-1.023.59-2.11-.22-2.756a1.822 1.822 0 0 0-.57-.367l-.313.625c.318.211 1.136.708.607 1.249a.565.565 0 0 1-.184.036c-.27.024-.55-.026-.808-.073l-.772-.129c-1.023-.188-1.811.169-2.516 1.12v-.018c.576-1.41.735-3.002-.57-3.637-.276-.141-.602-.182-.937-.147zm-1.543 2.474c.351-.201.756-.21 1.268.037 1.14.564 1.127 1.442.55 2.7-.164.34-.3.68-.477 1.01l-2.172-1.063c-.212-.094-.496-.257-.496-.55.059-.33.25-.65.404-.956.282-.57.567-.974.918-1.176zm-191.056 1.467c.294.141.518.565.624.753.882 1.705.495 2.728-.716 3.692a6.84 6.84 0 0 1-1.139.717 5.11 5.11 0 0 1-.79.33c-1.646.553-2.793.551-3.839-1.506-.106-.188-.25-.503-.239-.808.094-.259.407-.379.607-.496l4.996-2.553c.13-.06.343-.2.496-.129zm3.435 4.996l-.515.33c.212.33.447.677.588 1.03.07.152.034.231-.037.349-.023.082-.131.118-.202.165l-5.051 3.214c-.118.071-.226.16-.367.184-.435.118-.794-.771-1.03-1.065l-.532.33 5.143 8.083 2.7-1.543-.33-.625c-1.752.423-2.879.21-4.078-1.671a11.94 11.94 0 0 1-.367-.662c-.318-.61-.086-.721.349-.991l2.167-1.378c.788 1.164.587 2.2-.33 2.847l.422.643 3.398-2.241-.367-.606c-1.011.458-1.95.242-2.608-.992l1.873-1.194c.165-.106.34-.227.551-.239.106-.036.207.008.313.056.258.2.466.489.642.771 1.211 1.905.97 2.882-.146 4.317l.385.606 2.516-1.73-5.088-7.995zm185.959.515a4.641 4.641 0 0 0-1.819.183c-1.328.435-2.316 1.309-3.104 2.59-.705 1.129-1.071 2.573-.919 3.784.177 1.34.888 2.396 1.91 3.031.941.576 2.217.708 3.38.367 1.235-.364 2.328-1.262 3.068-2.461.788-1.27 1.157-2.47.992-3.858-.13-1.28-.91-2.504-1.874-3.104a3.81 3.81 0 0 0-1.634-.533zm-2.094 1.983c.845.12 1.695.579 2.277.937.365.235.76.496 1.066.79.81.764 1.848 1.762.955 3.196-.54.87-1.274 1.301-2.168 1.23-.81-.07-1.773-.47-2.443-.88-1.234-.765-3.235-2.21-1.965-4.244.588-.946 1.433-1.15 2.278-1.029zm-5.4 5.089l-3.215 4.426.496.368.257-.368c.153-.2.296-.435.496-.587.153-.13.233-.043.386-.02.117.06.224.114.33.184l4.61 3.362c.365.27.635.402.295.955l-.533.716.496.368 3.233-4.427-.496-.367-.202.275c-.141.176-.27.38-.423.533-.059.047-.076.1-.147.147-.223.164-.435.007-.588-.11l-4.739-3.435c-.105-.083-.223-.163-.294-.258-.047-.07-.128-.126-.128-.22-.024-.306.246-.58.422-.827l.257-.367-.514-.349zm-173.216.68l-.496.385c.235.317.521.64.698.992a.33.33 0 0 1 .018.184c.012.07-.038.118-.074.165l-4.904 3.82c-.317.236-.542.416-.918-.055-.188-.223-.345-.463-.533-.698l-.496.404 3.38 4.354.496-.386-.276-.35c-.117-.164-.266-.319-.349-.495-.035-.07-.075-.113-.11-.184a.47.47 0 0 1-.018-.22c-.012-.153.206-.285.312-.368l1.874-1.45.863 1.156c1.176 1.564 3.075 3.43 4.72 2.15.612-.47.903-1.047.809-1.93-.106-.916-.55-1.623-1.102-2.387a6.878 6.878 0 0 0-.33-.478l-3.555-4.617zm1.947 3.746c.258.071.57.493.734.717.964 1.234 1.003 1.962-.055 2.773-1.234.964-2.01.464-3.067-.9-.13-.164-.238-.33-.368-.496l-.11-.128 2.26-1.727c.176-.14.335-.309.606-.238zm168.363 1.617c-.333-.047-.7 0-1.03.128-.763.306-1.302.81-1.854 1.433l-.68.79-3.6 4.243.459.404.294-.349c.211-.247.41-.54.716-.588.212-.035.637.385.79.515l4.133 3.508c.34.341.497.475.073.992l-.496.606.46.386 3.6-4.206-.478-.386-.239.257c-.164.176-.32.368-.495.533-.2.211-.31.24-.533.147a6.96 6.96 0 0 1-.312-.258l-2.058-1.745.294-.349c.13-.164.282-.324.423-.477.928-.964 1.496-.558 2.296.019l.57.404c.375.258.786.474 1.303.404.565-.106 1.052-.412 1.451-.882.741-.87 1.083-1.895.46-2.718a2.123 2.123 0 0 0-.46-.515l-.459.533c.259.27.929.953.294 1.341a.424.424 0 0 1-.202.019 2.898 2.898 0 0 1-.753-.276l-.716-.312c-.94-.435-1.795-.263-2.7.478l-.02-.02c.906-1.222 1.448-2.732.331-3.673a1.697 1.697 0 0 0-.863-.386zm-2.095 2.039c.391-.109.778-.003 1.213.367.964.811.741 1.649-.129 2.719-.235.305-.45.6-.698.881l-1.855-1.58c-.176-.152-.413-.36-.33-.642.129-.306.382-.568.605-.827.412-.488.804-.81 1.194-.918zm-160.5 1.91l-6.76 1.782c-.81.211-1.859.482-2.682-.294l-.459.404 2.7 3.012.46-.404c-.447-.482-.837-1.15-.331-1.598.306-.27.774-.323 1.139-.44l2.388 2.663-.588 1.34c-.07.177-.12.385-.367.35-.247-.024-.577-.455-.754-.643l-.459.404 3.123 3.49v.019l.165.165 3.894 3.582.423-.46-.257-.238c-.165-.165-.38-.326-.533-.514-.2-.212-.21-.328-.092-.551.07-.106.163-.2.257-.294l1.837-1.984.312.312c.153.141.307.288.46.441.928.952.519 1.52-.092 2.296l-.441.57c-.282.364-.518.75-.46 1.267.083.564.369 1.065.827 1.488.835.776 1.836 1.175 2.682.588.2-.118.38-.295.533-.46l-.515-.477c-.282.247-.994.89-1.359.22a.482.482 0 0 1 0-.183c.059-.259.195-.5.312-.735l.35-.717c.47-.917.337-1.778-.368-2.718l.018-.019c1.188.964 2.668 1.584 3.656.514.423-.446.572-1.221.349-1.891-.282-.776-.778-1.335-1.378-1.91l-.753-.736-4.078-3.765-.422.44.33.313c.224.235.523.43.57.735.023.211-.422.618-.551.771l-3.692 3.986c-.353.33-.487.465-.992.019-.142-.117-.27-.243-.404-.367-.53-.656-.498-.887-.239-1.562l2.939-7.42-.698-.79zm-2.002 1.396l-1.25 2.976-1.891-2.112 3.14-.864zm157.2 1.415l-6.797 6.594.44.44c.283-.27.553-.56.882-.77.13-.095.213-.085.331-.038.094.012.162.089.22.147l4.17 4.299c.094.094.198.201.257.33.212.4-.58.937-.826 1.231l.422.44 6.87-6.667-2.057-2.333-.533.46c.764 1.622.772 2.764-.827 4.316-.188.176-.37.332-.569.496-.54.435-.694.236-1.047-.129l-1.782-1.836c.976-1 2.024-1.04 2.847-.276l.551-.533-2.902-2.883-.496.495c.647.894.617 1.832-.44 2.737l-1.524-1.57c-.13-.141-.309-.278-.368-.478-.058-.094-.035-.225 0-.33.142-.306.39-.555.625-.79 1.61-1.576 2.64-1.546 4.261-.735l.515-.496-2.2-2.116zM53.042 252.2c.305.153.561.408.808.643.94.87 1.235 1.609.46 2.443-.859.929-1.703.66-2.738-.257-.282-.247-.556-.483-.826-.753l1.635-1.763c.152-.177.379-.395.66-.313zm142.556 2.15l-7.237 5.84 1.819 2.609.55-.44c-.517-.93-.983-2.558.24-3.546.14-.106.396-.258.514-.128.117.117.225.256.33.385l3.637 4.519c.082.106.204.233.24.386.058.082.008.266-.074.349-.294.282-.59.556-.919.826l.386.496 4.427-3.582-.386-.477c-.282.211-.55.461-.845.661-.458.294-.52.2-.79-.128l-3.724-4.6c-.094-.129-.218-.274-.312-.404-.094-.152.11-.371.239-.477 1.234-1 2.692-.233 3.526.496l.551-.441-2.167-2.333zm-137.252 1.781l-2.112 2.407.55.404c.777-.717 2.263-1.559 3.51-.606.14.105.332.336.238.477s-.2.275-.294.404l-3.527 4.61c-.082.118-.17.254-.312.313-.07.082-.273.095-.367.037-.341-.224-.681-.452-1.01-.698l-.386.495 4.518 3.435.368-.496c-.27-.223-.568-.414-.827-.66-.388-.365-.332-.45-.073-.79l3.618-4.721c.094-.13.195-.269.313-.386.117-.13.366.016.496.11 1.27.976.872 2.558.367 3.545l.551.423 1.598-2.407-.22.386.312.184c.2.141.624.376.753.588.13.235-.096.496-.202.66l-2.572 4.244c-.517.776-.959 1.13-2.075.496l-.305.508 3.417 2.078.312-.536c-1.234-.705-.953-1.436-.46-2.26l2.738-4.5h.018l-1.194 8.156.625.368 6.649-4.96.018.019-3.324 5.455c-.07.118-.122.235-.24.294-.058.07-.176.109-.293.074-.094-.013-.213-.08-.33-.093l-.68-.413-.331.532 4.573 2.774.331-.533-.33-.183c-.271-.18-.822-.452-.717-.81.023-.07.08-.13.092-.201l2.902-4.831c.153-.247.29-.492.514-.68.306-.094.63.13.9.294l.35.22.054-.073c.306.14.615.29.882.478.13.082.165.164.165.294.024.081-.038.168-.073.238l-2.517 5.437c-.058.118-.114.274-.22.368-.306.34-1.087-.22-1.451-.35l-.257.57 8.688 4.041 1.433-2.773-.625-.312c-1.246 1.28-2.306 1.7-4.316.771-.235-.106-.457-.238-.68-.367-.6-.353-.469-.57-.257-1.029l1.102-2.314c1.281.552 1.69 1.506 1.267 2.553l.68.33 1.672-3.728-.643-.313c-.6.93-1.496 1.258-2.719.588l.919-2.02c.082-.188.166-.367.33-.496.07-.082.195-.117.313-.129.329.024.649.171.955.312 2.033.94 2.38 1.9 2.204 3.71l.643.295 1.194-2.81-8.578-3.987-.037.074-3.674-2.241-4.463 3.306.79-5.529-3.913-2.37.073-.092-7.384-5.657zm129.813 4.28l-3.343 2.186.33.514c1.012-.634 1.54-.499 2.058.313l1.855 2.828-7.53-1.524-2.977 1.928.331.533c.506-.34 1.087-.44 1.616-.275l2.848 4.371c.517.87.512 1.232-.57 1.984l.35.514 3.397-2.204-.349-.514c-1.093.682-1.608.43-2.149-.404l-2.37-3.656 9.167 1.892.734-.477-3.343-5.107c-.176-.294-.353-.582-.459-.9-.223-.646.176-1.023.716-1.47l-.312-.532zm-10.287 6.503l-4.83 2.571.293.57.386-.22c.223-.107.451-.266.698-.313.2-.047.22.035.35.129.093.105.16.213.22.33l2.681 5.033c.224.4.394.621-.147.974l-.79.422.294.551 4.831-2.571-.294-.551-.293.165c-.212.094-.407.205-.607.276-.07.023-.131.062-.202.073-.282.06-.402-.184-.495-.35l-2.756-5.16c-.058-.106-.153-.239-.165-.368-.011-.07-.036-.156 0-.239.106-.282.458-.428.716-.57l.404-.201-.294-.551zm-10.763 5.382l-8.872 3.343.238.588c.365-.142.745-.297 1.12-.368.154-.023.219.01.313.092.082.047.105.15.129.22l2.13 5.603c.047.141.093.263.093.404.035.459-.909.644-1.25.809l.221.587 8.964-3.38-.955-2.957-.68.184c.047 1.799-.399 2.868-2.48 3.655-.235.083-.47.15-.716.22-.67.189-.742-.05-.919-.532l-.9-2.406c1.305-.53 2.279-.135 2.737.9l.698-.276-1.487-3.802-.68.257c.247 1.082-.148 1.933-1.488 2.333l-.771-2.06c-.07-.188-.17-.376-.147-.588 0-.105.058-.2.128-.293.247-.212.583-.36.9-.478 2.105-.788 3.013-.37 4.188 1.029l.662-.257-1.176-2.81zm-81.447.459l-.202.588c.564.2 1.006.603 1.194 1.12l-1.727 4.905c-.376.952-.652 1.17-1.91.771l-.202.588 3.82 1.34.203-.587c-1.2-.433-1.31-.988-.98-1.919l1.45-4.114 4.079 8.413.826.275 2.04-5.75c.105-.317.215-.636.403-.918.377-.564.923-.465 1.617-.312l.202-.588-3.747-1.322-.203.588c1.13.4 1.328.913 1.01 1.818l-1.12 3.215-3.38-6.925-3.361-1.176zm72.225 3.05l-5.161 1.322.147.587c.211-.058 1.039-.3 1.286-.183.094.035.118.125.165.183.06.13.082.288.128.441l.57 2.241-3.655.937-.588-2.314c-.06-.212-.12-.425-.037-.625.223-.212 1.05-.382 1.25-.44l-.148-.607-5.235 1.36.147.587c.376-.07.763-.227 1.139-.239.352-.011.4.346.459.57l1.396 5.474c.036.2.056.394.092.606.035.2-.197.302-.386.349l-.9.238.166.607 5.235-1.36-.166-.606a25.18 25.18 0 0 1-.991.239c-.424.07-.524-.294-.607-.588l-.642-2.516 3.655-.955.606 2.332c.06.27.306.791-.129.956-.258.105-.88.277-1.01.312l.147.606 5.217-1.341-.165-.606c-.365.106-.726.162-1.103.22-.188 0-.308-.018-.367-.183a6.934 6.934 0 0 1-.184-.662l-1.326-5.238c-.059-.259-.247-.65.129-.827l1.047-.312-.165-.588zm-61.277.734l-.974 3.03.68.166c.423-.964 1.43-2.348 2.957-1.984.165.047.446.166.423.33s-.075.344-.11.497l-1.36 5.639c-.035.141-.059.305-.165.422-.036.094-.213.177-.33.166-.4-.07-.802-.127-1.213-.22l-.165.605 5.529 1.341.165-.606c-.341-.094-.718-.158-1.047-.275-.506-.177-.48-.287-.386-.698l1.42-5.766c.036-.152.082-.324.129-.477.058-.165.35-.146.514-.11 1.552.376 1.834 1.999 1.763 3.104l.698.165.533-3.14-9.037-2.186zm49.43 2.204l-9.202 1.36.238 3.177.698-.11c.024-1.058.439-2.716 2.002-2.939.165-.024.461-.011.496.165.036.153.069.332.093.496l.844 5.731c.024.141.066.307.02.46 0 .105-.14.24-.258.275-.388.094-.789.18-1.212.239l.092.606 5.62-.808-.091-.625c-.341.047-.695.105-1.047.129-.541.023-.566-.073-.625-.496l-.863-5.878a7.41 7.41 0 0 1-.056-.496c-.012-.176.276-.259.441-.294 1.575-.223 2.44 1.176 2.792 2.223l.698-.092-.68-3.123zm-29.907 1.204c-1.316-.118-2.754.2-3.765.882-1.129.752-1.756 1.868-1.874 3.067-.094 1.093.371 2.303 1.194 3.196.882.94 2.165 1.506 3.564 1.635 1.48.13 2.718-.08 3.894-.845 1.081-.693 1.834-1.92 1.928-3.049.106-1.176-.319-2.323-1.212-3.251-.987-1-2.224-1.494-3.729-1.635zm.037.625c2.222.2 2.26 2.659 2.13 4.022-.035.435-.109.893-.238 1.304-.318 1.07-.744 2.43-2.425 2.278-1.023-.094-1.734-.543-2.075-1.378-.294-.752-.365-1.814-.294-2.59.129-1.457.515-3.86 2.902-3.636zm4.923 0v.624h.367c.27.011.561-.027.808.056.294.07.294.357.294.569v5.805a2.9 2.9 0 0 1-.036.55c-.036.036-.032.076-.056.11-.036.037-.093.07-.129.093-.14.047-.28.037-.422.037h-.845v.624h5.694v-.624l-.9-.037c-.8-.024-.79-.167-.79-.79v-2.608h.13c.94 0 1.443.226 1.854.955.153.27.216.581.24.863h.715v-4.06h-.716c-.294 1.153-.718 1.683-2.223 1.636v-2.425c0-.188-.034-.447.166-.588.34-.2.787-.165 1.175-.165 2.058 0 2.88.886 3.362 2.461h.698l-.092-3.086h-9.295z" fill="#564535"/><path d="M54.9 126.941a.97.97 0 0 0-.973.974c0 .54.433.992.973.992.541 0 .974-.451.974-.992s-.433-.974-.974-.974zm17.579 11.866l-5.4 2.223.77 1.635 6.503.055 3.105-1.34-.79-1.654-4.188-.918zM183.5 161.52c-.14-.283-.54.048-.55.459-.095 2.08-.678 5.01-1.654 6.502 0 0 .954 1.177 1.212.919.27-.27 1.686-6.493.992-7.88zm-10.029 7.935a1.39 1.39 0 0 0-1.396 1.396c0 .787.62 1.414 1.396 1.414.788 0 1.414-.627 1.414-1.414 0-.776-.626-1.396-1.414-1.396zm15.89 10.36c-.236 1.705-2.28 8.289-8.487 9.276 7.853.294 9.548-5.922 9.313-7.274-.235-1.352-.827-2.002-.827-2.002z" fill="#fff"/></svg>