<?xml version="1.0" encoding="utf-8"?>
<!-- Generator: Adobe Illustrator 19.1.0, SVG Export Plug-In . SVG Version: 6.00 Build 0)  -->
<svg version="1.1" id="Layer_1" xmlns="http://www.w3.org/2000/svg" xmlns:xlink="http://www.w3.org/1999/xlink" x="0px" y="0px"
	 viewBox="-1677 1254.1 100 59.8" style="enable-background:new -1677 1254.1 100 59.8;" xml:space="preserve">
<g>
	<path d="M-1629.7,1271l1.5-1.2v-15.7l-23.2,12.2v47.6l23.2-12.2v-29.1L-1629.7,1271z M-1648,1296.9l-1.4-2l5.8-4.2l1.4,2
		L-1648,1296.9z M-1639.6,1290.1l-2-1.4l4.1-5.8l2,1.4L-1639.6,1290.1z M-1633.2,1281.7l-2.1-1.3l3.7-6.1l2.1,1.3L-1633.2,1281.7z"
		/>
	<path d="M-1654.9,1297.7l0.3-2.4l0.8,0.2v-29.1l-23.2-12.2v27.5l3.4,3.4l-1.7,1.7l-1.7-1.7v16.6l23.2,12.2v-15.9L-1654.9,1297.7z
		 M-1667.4,1292.5l-5.8-3.8l1.3-2l5.8,3.8L-1667.4,1292.5z M-1658.2,1296.7l-6.5-2.3l0.8-2.3l6.5,2.3L-1658.2,1296.7z"/>
	<path d="M-1625.8,1268.6l4.9,0.9l-0.5,2.4l-4.5-0.8v30.6l23.2,12.2v-47.6l-23.2-12.2V1268.6z M-1610.6,1279.1l5.4,4.3l-1.5,1.9
		l-5.4-4.3L-1610.6,1279.1z M-1617.5,1271.6l4.9,4.9l-1.7,1.7l-4.9-4.9L-1617.5,1271.6z"/>
	<path d="M-1578.5,1267.3l1.5-1.2v-12l-23.2,12.2v21l6.3-1.6l0.6,2.4l-6.9,1.8v24.1l23.2-12.2V1269L-1578.5,1267.3z M-1589.6,1285.2
		l-2-1.4l4.1-5.8l2,1.4L-1589.6,1285.2z M-1583.8,1276.6l-1.9-1.6l4.6-5.4l1.9,1.6L-1583.8,1276.6z"/>
</g>
</svg>
