<?xml version="1.0" encoding="utf-8"?>
<!-- Generator: Adobe Illustrator 21.1.0, SVG Export Plug-In . SVG Version: 6.00 Build 0)  -->
<svg version="1.1" xmlns="http://www.w3.org/2000/svg" xmlns:xlink="http://www.w3.org/1999/xlink" x="0px" y="0px"
	 viewBox="0 0 80.2 125" style="enable-background:new 0 0 80.2 125;" xml:space="preserve">
<g id="marker">
	<path style="fill:#FFFFFF;stroke:#000000;stroke-miterlimit:10;" d="M40.3,1.2C18.9,1.2,1.6,18.8,1.6,40.7c0,5.7,1.2,10.9,3.2,15.9
		l33.4,65.8c0.9,1.8,3.3,1.8,4.2,0l33.4-65.8c2.1-4.8,3.2-10.2,3.2-15.9C79,18.8,61.7,1.2,40.3,1.2z"/>
</g>
<g id="heron">
	<g>
		<path d="M70.9,35.9l-9.7-15.3c-0.2-0.3-0.5-0.5-0.8-0.6c-0.3-0.1-0.7,0-1,0.2l-6.8,4.3c-0.6,0.4-0.8,1.2-0.4,1.8l0.4,0.6l-1.1,0.4
			c-0.1,0-0.2,0-0.3,0L47,26.5c-2.5-0.5-5.1-0.6-7.6-0.1l-4.1,0.8c-1.1,0.2-2.2,0.7-3,1.5L28.6,28c0,0,0,0,0,0l-8.2-7.2
			c-0.5-0.5-1.3-0.4-1.8,0.1c-0.5,0.5-0.4,1.3,0.1,1.8l8.4,7.3c0.1,0.1,0.2,0.1,0.2,0.2c0.3,0.2,0.6,0.3,0.9,0.3l2.2,0.3L28,34
			c-0.5,0.6-0.7,1.4-0.6,2.2c0.1,0.8,0.5,1.5,1.2,2c0.9,0.7,2.2,0.8,3.2,0.3l7.4-3.9c0.1-0.1,0.3-0.1,0.5,0l15.9,10.3
			c0.3,0.2,0.5,0.5,0.6,0.8c0.1,0.3,0,0.7-0.2,1c-0.4,0.6-1.1,0.7-1.7,0.4l-1.4-0.9l-0.3-0.2c0,0,0,0,0,0L45.6,42
			c-0.6-0.4-1.4-0.2-1.8,0.4c-0.4,0.6-0.2,1.4,0.4,1.8l6.9,4.1c0,0,0,0,0,0l0.8,0.5c0.2,0.1,0.3,0.3,0.3,0.5c0,0.1,0,0.3-0.1,0.6
			c-0.4,0.7-1.3,0.9-2,0.5l-6.7-3.7c-0.6-0.3-1.4-0.1-1.7,0.5c-0.3,0.6-0.1,1.4,0.5,1.7l4.8,2.6l1.2,0.7c0.2,0.1,0.3,0.3,0.3,0.4
			c0,0.1,0,0.3-0.1,0.5c0,0,0,0-0.1,0.1c-0.4,0.6-1.2,0.8-1.8,0.5l-5.2-2.6c-0.6-0.3-1.4-0.1-1.7,0.6c-0.3,0.6-0.1,1.4,0.6,1.7
			l3.9,2c-0.7,0.3-1.6,0.5-2.4,0.3l-3.5-0.5l0,0c1-1.4,0.7-3.3-0.6-4.4c-0.3-0.3-0.7-0.5-1.1-0.6c0.3-1.3-0.2-2.6-1.2-3.5
			c-0.5-0.4-1.2-0.7-1.8-0.8c0-0.2,0-0.4-0.1-0.6c-0.2-0.9-0.7-1.7-1.5-2.3c-1.5-1-3.5-0.6-4.6,0.7c-0.2-0.3-0.5-0.6-0.9-0.8
			c-1.3-0.8-2.9-0.6-4,0.3l-3.5-4.6c-0.2-0.2-0.4-0.3-0.6-0.4l-7.5-2.7c-0.7-0.2-1.4,0.1-1.6,0.8c-0.2,0.7,0.1,1.4,0.8,1.6l7.1,2.5
			l3.7,4.9l-1,1.4c-1.1,1.6-0.7,3.8,0.9,4.9c0.5,0.4,1.1,0.6,1.7,0.6c0.1,1,0.6,2,1.5,2.7c0,0,0,0,0,0c0.6,0.4,1.3,0.6,2,0.6
			c0.2,0,0.4,0,0.6-0.1c0.1,0,0.2-0.1,0.3-0.1c0.3,0.7,0.8,1.2,1.5,1.6c0,0,0,0,0,0c0.5,0.3,1.1,0.4,1.7,0.4c0.5,0,0.9-0.1,1.3-0.3
			c0.4,0.6,0.9,1,1.5,1.3c0.4,0.2,0.8,0.2,1.2,0.2c0.9,0,1.8-0.4,2.4-1.1l4.8,0.7c0.3,0.1,0.7,0.1,1,0.1c1.7,0,3.4-0.7,4.6-1.9
			c0.1,0,0.2,0,0.2,0c1.3,0,2.5-0.6,3.3-1.8c0.4-0.5,0.5-1.1,0.6-1.7c1.3-0.1,2.5-0.7,3.2-1.8c0.3-0.4,0.4-0.9,0.5-1.3
			c1.2,0,2.5-0.6,3.2-1.7c0.6-0.9,0.8-1.9,0.6-2.9c0-0.1-0.1-0.2-0.1-0.2l3.5-3.3c0.2,0.2,0.4,0.4,0.7,0.5c0.1,0,0.2,0,0.3,0
			c0.2,0,0.5-0.1,0.7-0.2l6.8-4.3C71.1,37.2,71.3,36.5,70.9,35.9z M21.9,48.1l1.9-2.7c0.2-0.3,0.5-0.4,0.8-0.4c0.2,0,0.4,0,0.5,0.2
			c0.2,0.1,0.4,0.4,0.4,0.6c0.1,0.2,0,0.5-0.1,0.7l-2,2.9c-0.1,0.2-0.3,0.3-0.6,0.4c-0.3,0-0.5,0-0.8-0.2
			C21.7,49.1,21.6,48.5,21.9,48.1z M25.4,52.7C25.4,52.7,25.4,52.7,25.4,52.7c-0.4-0.3-0.6-0.9-0.3-1.4l0.4-0.6c0,0,0.1-0.1,0.1-0.1
			c0.6-0.9,1.3-1.9,1.9-2.8c0,0,0,0,0-0.1l1.6-2.4c0.3-0.4,0.9-0.6,1.4-0.3c0.2,0.1,0.4,0.4,0.4,0.6c0.1,0.3,0,0.5-0.2,0.8l-0.6,0.8
			c0,0,0,0,0,0l-3,4.4c-0.1,0.1-0.1,0.2-0.1,0.2l-0.3,0.4c-0.2,0.2-0.4,0.4-0.6,0.4C25.9,53,25.6,52.9,25.4,52.7z M29.6,54.7
			C29.6,54.7,29.6,54.7,29.6,54.7c-0.3-0.1-0.4-0.4-0.5-0.6c-0.1-0.2,0-0.5,0.1-0.7l3.1-4.6c0.2-0.2,0.4-0.4,0.6-0.4
			c0.3,0,0.5,0,0.8,0.2c0.4,0.3,0.5,0.9,0.2,1.3L33,51.3c0,0,0,0.1-0.1,0.1l-1.5,2.1c0,0.1-0.1,0.2-0.1,0.2l-0.5,0.7
			C30.6,54.8,30.1,55,29.6,54.7z M33.9,56c-0.3-0.1-0.4-0.3-0.4-0.4c0-0.1-0.1-0.2,0-0.4l1.6-2.4c0.1-0.2,0.3-0.2,0.4-0.2
			c0,0,0.1,0,0.1,0c0.1,0,0.3,0,0.4,0.2c0.3,0.2,0.3,0.6,0.1,0.9l-1.5,2.1C34.5,56,34.2,56.1,33.9,56z M41.1,32.5
			c-0.9-0.6-2.1-0.6-3-0.1l-7.4,3.9c-0.2,0.1-0.4,0.1-0.5,0C30,36.1,30,35.9,30,35.9c0-0.1,0-0.2,0.1-0.3l3.5-4.5
			c0.5-0.7,1.3-1.2,2.2-1.4l4.1-0.8c2.2-0.4,4.4-0.4,6.6,0.1l4.3,0.9c0.6,0.1,1.2,0.1,1.7-0.2l1.5-0.6l6.5,10.4L57,42.9
			c0,0-0.1-0.1-0.1-0.1L41.1,32.5z M63.4,39.1L55.1,26l4.6-3L68,36.1L63.4,39.1z"/>
		<path d="M57.5,25.6c-0.2,0.2-0.4,0.6-0.4,0.9c0,0.1,0,0.2,0,0.3c0,0.1,0,0.2,0.1,0.2c0,0.1,0.1,0.2,0.1,0.2
			c0.1,0.1,0.1,0.1,0.2,0.2c0.2,0.2,0.6,0.4,0.9,0.4c0.1,0,0.2,0,0.2,0c0.1,0,0.2,0,0.2-0.1c0.1,0,0.2-0.1,0.2-0.1
			c0.1,0,0.1-0.1,0.2-0.2c0.1-0.1,0.1-0.1,0.2-0.2c0-0.1,0.1-0.1,0.1-0.2c0-0.1,0.1-0.2,0.1-0.2c0-0.1,0-0.2,0-0.3
			c0-0.3-0.1-0.7-0.4-0.9C58.9,25.1,58,25.1,57.5,25.6z"/>
	</g>
</g>
</svg>
