<?xml version="1.0" encoding="utf-8"?>
<!-- Generator: Adobe Illustrator 19.1.0, SVG Export Plug-In . SVG Version: 6.00 Build 0)  -->
<svg version="1.1" id="Layer_1" xmlns="http://www.w3.org/2000/svg" xmlns:xlink="http://www.w3.org/1999/xlink" x="0px" y="0px"
	 viewBox="-1670.3 1238.9 86.5 90" style="enable-background:new -1670.3 1238.9 86.5 90;" xml:space="preserve">
<g>
	<path d="M-1589.5,1300.6c-5.7,4.8-13.3,5.1-16.9,0.8c-3.6-4.3-1.9-11.7,3.8-16.5c5.7-4.8,13.3-5.1,16.9-0.8
		C-1582.1,1288.4-1583.8,1295.8-1589.5,1300.6z M-1615.9,1276.7c-3.7-4.8-1.6-13.3,4.8-19c6.3-5.7,14.5-6.4,18.2-1.5
		c3.7,4.8,1.6,13.3-4.8,19C-1604.1,1280.8-1612.2,1281.5-1615.9,1276.7z M-1624.2,1274.7c10.6,5.1,8.9,17.3,10.7,22.6
		c2.1,6.2,9.8,14.4,4.6,23.7c-5.2,9.3-14.7,9.3-21.4,5.7c-6.7-3.5-9.5-8-13.3-9.7c-3.9-1.7-8.6-0.5-15.6-3.1
		c-7.1-2.6-13.5-9.6-10.1-19.7c3.4-10.1,14.7-10,20.7-12.6c5.1-2.2,13.1-11.6,23.9-7.3c0,0,0,0,0,0c0.1,0,0.2,0.1,0.3,0.1
		C-1624.4,1274.6-1624.3,1274.6-1624.2,1274.7C-1624.2,1274.6-1624.2,1274.7-1624.2,1274.7z M-1631.6,1269.7
		c-6.1,0.5-11-6-11.1-14.5c-0.1-8.5,4.8-15.8,10.9-16.3c6.1-0.5,11,6,11.1,14.5C-1620.7,1261.9-1625.6,1269.2-1631.6,1269.7z
		 M-1656.9,1279.5c-5.6,0.2-10.5-5.6-10.8-13.1c-0.3-7.5,4-13.7,9.6-13.9c5.6-0.2,10.5,5.6,10.8,13.1
		C-1646.9,1273-1651.2,1279.2-1656.9,1279.5z"/>
</g>
</svg>
