<?xml version="1.0" encoding="utf-8"?>
<!-- Generator: Adobe Illustrator 21.1.0, SVG Export Plug-In . SVG Version: 6.00 Build 0)  -->
<svg version="1.1" xmlns="http://www.w3.org/2000/svg" xmlns:xlink="http://www.w3.org/1999/xlink" x="0px" y="0px"
	 viewBox="0 0 80.2 125" style="enable-background:new 0 0 80.2 125;" xml:space="preserve">
<g id="marker">
	<path style="fill:#FFFFFF;stroke:#000000;stroke-miterlimit:10;" d="M40.3,1.2C18.9,1.2,1.6,18.8,1.6,40.7c0,5.7,1.2,10.9,3.2,15.9
		l33.4,65.8c0.9,1.8,3.3,1.8,4.2,0l33.4-65.8c2.1-4.8,3.2-10.2,3.2-15.9C79,18.8,61.7,1.2,40.3,1.2z"/>
</g>
<g id="heron">
	<g>
		<path d="M40.4,46.2c3.2,0,6.1-1.3,8-3.4c-0.2-1.8-0.1-3.6-0.1-4.9c0.7-0.8,1-2.7,1.6-5.9c4.3-4.5,2.4-9.5,0.8-9.5
			c0.8-5,0.6-9.9-5-9.5c0.2-3.7-17.2-5.7-15.9,9.6c-1.6-0.1-3.6,4.9,0.8,9.5c0.7,3.1,1,5.1,1.6,5.9c0.1,0.9-0.1,3.9-0.1,4.8
			C34.2,45,37.2,46.2,40.4,46.2z"/>
		<path d="M58.6,49c-1.3-1.7-7.1-4.3-9.4-5.3c-1.4,1.6-3.3,2.7-5.4,3.3l-3.6,4.6L36.7,47c-2.2-0.7-4.2-1.9-5.6-3.5
			c-2.3,1-7.7,3.5-9.3,5.6c-2.1,2.7-2.5,9.4-2.5,9.4s6.8,5.7,19,6.3c0,0,0,0,0.1,0c0.8,0.1,1.6,0.1,2.5,0.1s1.7,0,2.5-0.1
			c0.1,0,0.1,0,0.2,0c12-0.7,17.7-6.3,17.7-6.3S60.3,51.1,58.6,49z"/>
	</g>
</g>
</svg>
