<?xml version="1.0" encoding="utf-8"?>
<!-- Generator: Adobe Illustrator 21.1.0, SVG Export Plug-In . SVG Version: 6.00 Build 0)  -->
<svg version="1.1" xmlns="http://www.w3.org/2000/svg" xmlns:xlink="http://www.w3.org/1999/xlink" x="0px" y="0px"
	 viewBox="0 0 80.2 125" style="enable-background:new 0 0 80.2 125;" xml:space="preserve">
<g id="marker">
	<path style="fill:#FFFFFF;stroke:#000000;stroke-miterlimit:10;" d="M40.3,1.2C18.9,1.2,1.6,18.8,1.6,40.7c0,5.7,1.2,10.9,3.2,15.9
		l33.4,65.8c0.9,1.8,3.3,1.8,4.2,0l33.4-65.8c2.1-4.8,3.2-10.2,3.2-15.9C79,18.8,61.7,1.2,40.3,1.2z"/>
</g>
<g id="plane">
	<g>
		<path style="stroke:#000000;stroke-miterlimit:10;" d="M52.7,26.5l-5.4,3.9l1.5,2.1l5.4-3.9c0.4-0.3,0.7-0.5,1-0.8l-1.4-2
			C53.4,26,53.1,26.2,52.7,26.5z"/>
		<path style="stroke:#000000;stroke-miterlimit:10;" d="M56.4,25.5c-0.2-0.3-1.1-0.3-2.1,0.1l1.3,1.8
			C56.3,26.6,56.7,25.8,56.4,25.5z"/>
		<path style="stroke:#000000;stroke-miterlimit:10;" d="M50.7,55.7c0.3-1,0.2-1.7,0.1-1.8l-2.8-16.5l2.9-2.1
			c0.2-0.1,0.2-0.3,0.1-0.5l-0.7-1.7l3.4-2.4c8.7-6,9.9-9.9,10-10.1c0-0.1,0-0.3-0.1-0.4c-0.1-0.1-0.2-0.2-0.3-0.2
			c-0.2,0-4.3-0.1-12.8,6.1l-3.4,2.4l-1.4-1.2c-0.1-0.1-0.4-0.1-0.5,0l-2.9,2.1l-14.7-8C27.6,21.3,27,21,26,20.9
			c-1,0-2.5,0.3-4.3,1.9c-0.1,0.1-0.1,0.2-0.1,0.3c0,0.1,0,0.2,0.1,0.3l12.6,14.1l-7.9,6.9l-8.4-3c-0.3-0.1-1.5-0.6-3.3,0.9
			c-0.1,0.1-0.2,0.2-0.2,0.3c0,0.1,0,0.2,0.1,0.3l7.1,6.4l0.9,1.3l3.8,8.8c0,0,0,0.1,0,0.1c0.1,0.1,0.1,0.1,0.2,0.2
			c0.1,0,0.2,0,0.3,0c2-1.3,2-2.6,1.9-2.8l-0.1-8.9l9.1-5.2L47,59c0.1,0.1,0.1,0.2,0.3,0.2c0.1,0,0.2,0,0.3,0
			C49.6,58,50.4,56.7,50.7,55.7z M48.9,33.1c-0.1,0.1-0.3,0.1-0.4-0.1l-1.8-2.6c-0.1-0.1-0.1-0.3,0.1-0.4l5.7-4
			c1.9-1.4,3.9-1.8,4.5-0.9c0.6,0.9-0.4,2.6-2.3,3.9L48.9,33.1L48.9,33.1z"/>
	</g>
</g>
</svg>
