<?xml version="1.0" encoding="utf-8"?>
<!-- Generator: Adobe Illustrator 19.1.0, SVG Export Plug-In . SVG Version: 6.00 Build 0)  -->
<svg version="1.1" id="Layer_1" xmlns="http://www.w3.org/2000/svg" xmlns:xlink="http://www.w3.org/1999/xlink" x="0px" y="0px"
	 viewBox="0 0 243.7 172" style="enable-background:new 0 0 243.7 172;" xml:space="preserve">
<style type="text/css">
	.st0{fill:#573C98;}
	.st1{opacity:0.6;fill:#008996;stroke:#000000;stroke-width:0.171;stroke-miterlimit:10;}
	.st2{opacity:0.8;fill:#EDAA00;stroke:#000000;stroke-width:0.171;stroke-miterlimit:10;}
	.st3{font-family:'Univers-Condensed';}
	.st4{font-size:8px;}
	.st5{fill:none;stroke:#000000;stroke-miterlimit:10;}
	.st6{opacity:0.8;fill:#EDAA00;stroke:#000000;stroke-width:0.5;stroke-miterlimit:10;}
	.st7{opacity:0.6;fill:#008996;stroke:#000000;stroke-width:0.5;stroke-miterlimit:10;}
</style>
<g>
	<path d="M5,15.6V7.7h2.6C8.7,7.7,9,8,9.3,8.5c0.3,0.4,0.3,0.9,0.3,1.1c0,1-0.3,1.6-1.4,1.9v0.1c1.1,0.1,1.6,0.8,1.6,1.9
		c0,2-1.5,2.2-2.4,2.2H5z M6,11h1.5c0.8,0,1.2-0.5,1.2-1.3c0-0.7-0.4-1.2-1.2-1.2H6V11z M6,14.7h1.4c1.1,0,1.5-0.8,1.5-1.4
		c0-1.3-0.8-1.5-1.8-1.5H6V14.7z"/>
	<path d="M10.9,7.7h1v1h-1V7.7z M11.8,15.6h-0.9v-5.6h0.9V15.6z"/>
	<path d="M13.8,10.9L13.8,10.9c0.4-0.8,0.9-0.9,1.7-0.9v0.9c-0.1,0-0.2,0-0.2,0c-0.1,0-0.2,0-0.2,0c-1,0-1.3,0.8-1.3,1.5v3.3h-0.9
		v-5.6h0.9V10.9z"/>
	<path d="M18.9,7.7h0.9v7.9h-0.9v-0.7h0c-0.3,0.5-0.7,0.8-1.3,0.8c-0.9,0-1.8-0.4-1.8-2.8c0-1.4,0-3,1.8-3c0.5,0,0.9,0.2,1.2,0.7h0
		V7.7z M17.9,10.7c-1,0-1.1,0.8-1.1,2.3c0,0.8,0,2,1.1,2c1,0,1-1.3,1-2.4C18.9,11.9,18.9,10.7,17.9,10.7z"/>
	<path d="M22.6,15.7c-1.2,0-1.9-0.5-1.9-1.8h1c0,0.3,0,1.1,0.9,1.1c0.5,0,1-0.3,1-0.8c0-1-2.8-1-2.8-2.7c0-0.6,0.4-1.5,1.9-1.5
		c1,0,1.8,0.5,1.8,1.6h-1c0-0.6-0.3-0.9-0.9-0.9c-0.5,0-0.9,0.3-0.9,0.7c0,1,2.8,1,2.8,2.7C24.5,15.2,23.7,15.7,22.6,15.7z"/>
	<path class="st0" d="M4.3,20.9c0-1.5,0-2.9,1.5-2.9c0.8,0,1.4,0.5,1.4,1.4H6.4c0-0.4-0.2-0.8-0.6-0.8c-0.6,0-0.8,0.5-0.8,2h0
		C5.2,20.2,5.6,20,5.9,20c0.7,0,1.3,0.4,1.3,1.9c0,1-0.4,1.9-1.5,1.9C4.3,23.7,4.3,22.3,4.3,20.9z M5.8,23.1c0.6,0,0.7-0.7,0.7-1.4
		c0-0.5-0.1-1.1-0.8-1.1c-0.6,0-0.7,0.7-0.7,1.2C5,22.4,5.1,23.1,5.8,23.1z"/>
	<path class="st0" d="M10.2,18.1v0.6H8.4v1.6l0,0c0.1-0.2,0.5-0.4,0.9-0.4c0.8,0,1.2,0.6,1.2,1.9c0,0.9-0.1,1.9-1.5,1.9
		c-1.2,0-1.4-0.6-1.4-1.4h0.7c0,0.4,0.2,0.8,0.7,0.8c0.7,0,0.7-0.7,0.7-1.2c0-0.8,0-1.4-0.7-1.4c-0.4,0-0.6,0.3-0.7,0.6H7.6v-3.1
		H10.2z"/>
	<path class="st0" d="M13.6,20.9c0,1.4,0,2.9-1.5,2.9c-1.5,0-1.5-1.4-1.5-2.9c0-1.5,0-2.9,1.5-2.9S13.6,19.4,13.6,20.9z M11.3,21
		c0,0.9-0.1,2.1,0.8,2.1c0.8,0,0.8-1.2,0.8-2.1c0-1.5,0-2.4-0.8-2.4S11.3,19.5,11.3,21z"/>
	<path class="st0" d="M16.6,23.7c-0.9,0-1.4-0.4-1.4-1.3h0.7c0,0.2,0,0.8,0.7,0.8c0.4,0,0.7-0.2,0.7-0.6c0-0.7-2-0.7-2-1.9
		c0-0.4,0.3-1.1,1.4-1.1c0.7,0,1.3,0.3,1.3,1.1h-0.7c0-0.4-0.2-0.6-0.6-0.6c-0.4,0-0.6,0.2-0.6,0.5c0,0.7,2,0.7,2,1.9
		C18,23.3,17.4,23.7,16.6,23.7z"/>
	<path class="st0" d="M19.3,20L19.3,20c0.2-0.4,0.5-0.6,0.9-0.6c0.6,0,1.3,0.3,1.3,2c0,1,0,2.2-1.3,2.2c-0.4,0-0.7-0.2-0.9-0.5h0
		v1.9h-0.7v-5.6h0.7V20z M20.8,21.5c0-0.6,0-1.5-0.8-1.5c-0.8,0-0.7,1.1-0.7,1.7c0,0.5,0,1.4,0.8,1.4C20.7,23.2,20.8,22.6,20.8,21.5
		z"/>
	<path class="st0" d="M22.8,21.8c0,1.1,0.3,1.4,0.8,1.4c0.4,0,0.7-0.4,0.7-0.8H25c0,0.9-0.6,1.3-1.4,1.3c-0.9,0-1.5-0.3-1.5-2
		c0-1.2,0.1-2.2,1.5-2.2c1.2,0,1.4,0.6,1.4,2v0.3H22.8z M24.4,21.3c0-1.2-0.3-1.3-0.8-1.3c-0.4,0-0.8,0.2-0.8,1.3H24.4z"/>
	<path class="st0" d="M27.9,20.9c0-0.7-0.3-0.8-0.6-0.8c-0.5,0-0.8,0.2-0.8,1.3c0,1.3,0.2,1.8,0.8,1.8c0.2,0,0.6-0.2,0.6-0.9h0.7
		c0,1.1-0.8,1.4-1.3,1.4c-0.9,0-1.5-0.3-1.5-2c0-1.2,0.1-2.2,1.5-2.2c0.8,0,1.3,0.5,1.2,1.4H27.9z"/>
	<path class="st0" d="M29.3,17.8H30v0.7h-0.7V17.8z M30,23.6h-0.7v-4H30V23.6z"/>
	<path class="st0" d="M31.4,21.8c0,1.1,0.3,1.4,0.8,1.4c0.4,0,0.7-0.4,0.7-0.8h0.7c0,0.9-0.6,1.3-1.4,1.3c-0.9,0-1.5-0.3-1.5-2
		c0-1.2,0.1-2.2,1.5-2.2c1.2,0,1.4,0.6,1.4,2v0.3H31.4z M32.9,21.3c0-1.2-0.3-1.3-0.8-1.3c-0.4,0-0.8,0.2-0.8,1.3H32.9z"/>
	<path class="st0" d="M35.5,23.7c-0.9,0-1.4-0.4-1.4-1.3h0.7c0,0.2,0,0.8,0.7,0.8c0.4,0,0.7-0.2,0.7-0.6c0-0.7-2-0.7-2-1.9
		c0-0.4,0.3-1.1,1.4-1.1c0.7,0,1.3,0.3,1.3,1.1h-0.7c0-0.4-0.2-0.6-0.6-0.6c-0.4,0-0.6,0.2-0.6,0.5c0,0.7,2,0.7,2,1.9
		C36.9,23.3,36.3,23.7,35.5,23.7z"/>
	<path d="M5.8,36.1H4.9v-7.9h1.6l2,6.7h0l2-6.7h1.7v7.9h-1V29h0L9,36.1H8L5.9,29h0V36.1z"/>
	<path d="M16.4,30.6h0.9V35c0,0.4,0,0.8,0.1,1.2h-1v-0.7h0c-0.3,0.5-0.8,0.8-1.4,0.8c-1,0-1.5-0.5-1.5-1.4v-4.2h0.9v3.9
		c0,0.7,0.3,1.1,0.9,1.1c0.5,0,1.1-0.4,1.1-1.3V30.6z"/>
	<path d="M20,36.2c-1.2,0-1.9-0.5-1.9-1.8h1c0,0.3,0,1.1,0.9,1.1c0.5,0,1-0.3,1-0.8c0-1-2.8-1-2.8-2.7c0-0.6,0.4-1.5,1.9-1.5
		c1,0,1.8,0.5,1.8,1.6h-1c0-0.6-0.3-0.9-0.9-0.9c-0.5,0-0.9,0.3-0.9,0.7c0,1,2.8,1,2.8,2.7C21.9,35.7,21.1,36.2,20,36.2z"/>
	<path d="M24.3,36.2c-1.2,0-1.9-0.5-1.9-1.8h1c0,0.3,0,1.1,0.9,1.1c0.5,0,1-0.3,1-0.8c0-1-2.8-1-2.8-2.7c0-0.6,0.4-1.5,1.9-1.5
		c1,0,1.8,0.5,1.8,1.6h-1c0-0.6-0.3-0.9-0.9-0.9c-0.5,0-0.9,0.3-0.9,0.7c0,1,2.8,1,2.8,2.7C26.3,35.7,25.4,36.2,24.3,36.2z"/>
	<path d="M27.9,33.6c0,1.6,0.4,1.9,1.1,1.9c0.6,0,0.9-0.5,1-1.1h1c0,1.2-0.8,1.8-1.9,1.8c-1.2,0-2.1-0.4-2.1-2.8c0-1.6,0.2-3,2.1-3
		c1.6,0,2,0.9,2,2.7v0.5H27.9z M30.1,32.9c0-1.6-0.5-1.8-1.1-1.8c-0.6,0-1,0.3-1.1,1.8H30.1z"/>
	<path d="M32.8,36.1h-0.9v-7.9h0.9V36.1z"/>
	<path d="M35.5,36.2c-1.2,0-1.9-0.5-1.9-1.8h1c0,0.3,0,1.1,0.9,1.1c0.5,0,1-0.3,1-0.8c0-1-2.8-1-2.8-2.7c0-0.6,0.4-1.5,1.9-1.5
		c1,0,1.8,0.5,1.8,1.6h-1c0-0.6-0.3-0.9-0.9-0.9c-0.5,0-0.9,0.3-0.9,0.7c0,1,2.8,1,2.8,2.7C37.4,35.7,36.6,36.2,35.5,36.2z"/>
	<path class="st0" d="M4.3,44.1v-0.6c1.6-2.3,2.1-2.7,2.1-3.6c0-0.4-0.2-0.7-0.7-0.7c-0.6,0-0.7,0.5-0.6,0.9H4.4
		c-0.1-0.9,0.4-1.5,1.3-1.5c1,0,1.5,0.5,1.5,1.5c0,1.2-0.6,1.7-2.1,3.5h2.2v0.6H4.3z"/>
	<path class="st0" d="M10.4,41.4c0,1.4,0,2.9-1.5,2.9c-0.8,0-1.4-0.6-1.4-1.4h0.7c0,0.4,0.2,0.8,0.6,0.8c0.7,0,0.8-0.8,0.8-2.2h0
		c-0.2,0.4-0.5,0.5-1,0.5c-0.4,0-1.3-0.2-1.3-1.8c0-1.2,0.7-1.7,1.5-1.7C10.4,38.5,10.4,39.9,10.4,41.4z M8.2,40.2
		c0,0.6,0.1,1.2,0.7,1.2s0.7-0.6,0.7-1.2c0-0.5-0.1-1.2-0.7-1.2S8.2,39.7,8.2,40.2z"/>
	<path class="st0" d="M10.5,38.6h2.9v0.6l-1.5,4.9h-0.8l1.6-4.9h-2.1V38.6z"/>
	<path class="st0" d="M16.6,44.2c-0.9,0-1.4-0.4-1.4-1.3h0.7c0,0.2,0,0.8,0.7,0.8c0.4,0,0.7-0.2,0.7-0.6c0-0.7-2-0.7-2-1.9
		c0-0.4,0.3-1.1,1.4-1.1c0.7,0,1.3,0.3,1.3,1.1h-0.7c0-0.4-0.2-0.6-0.6-0.6c-0.4,0-0.6,0.2-0.6,0.5c0,0.7,2,0.7,2,1.9
		C18,43.8,17.4,44.2,16.6,44.2z"/>
	<path class="st0" d="M19.3,40.5L19.3,40.5c0.2-0.4,0.5-0.6,0.9-0.6c0.6,0,1.3,0.3,1.3,2c0,1,0,2.2-1.3,2.2c-0.4,0-0.7-0.2-0.9-0.5
		h0v1.9h-0.7v-5.6h0.7V40.5z M20.8,42c0-0.6,0-1.5-0.8-1.5c-0.8,0-0.7,1.1-0.7,1.7c0,0.5,0,1.4,0.8,1.4C20.7,43.7,20.8,43.1,20.8,42
		z"/>
	<path class="st0" d="M22.8,42.3c0,1.1,0.3,1.4,0.8,1.4c0.4,0,0.7-0.4,0.7-0.8H25c0,0.9-0.6,1.3-1.4,1.3c-0.9,0-1.5-0.3-1.5-2
		c0-1.2,0.1-2.2,1.5-2.2c1.2,0,1.4,0.6,1.4,2v0.3H22.8z M24.4,41.8c0-1.2-0.3-1.3-0.8-1.3c-0.4,0-0.8,0.2-0.8,1.3H24.4z"/>
	<path class="st0" d="M27.9,41.4c0-0.7-0.3-0.8-0.6-0.8c-0.5,0-0.8,0.2-0.8,1.3c0,1.3,0.2,1.8,0.8,1.8c0.2,0,0.6-0.2,0.6-0.9h0.7
		c0,1.1-0.8,1.4-1.3,1.4c-0.9,0-1.5-0.3-1.5-2c0-1.2,0.1-2.2,1.5-2.2c0.8,0,1.3,0.5,1.2,1.4H27.9z"/>
	<path class="st0" d="M29.3,38.3H30V39h-0.7V38.3z M30,44.1h-0.7v-4H30V44.1z"/>
	<path class="st0" d="M31.4,42.3c0,1.1,0.3,1.4,0.8,1.4c0.4,0,0.7-0.4,0.7-0.8h0.7c0,0.9-0.6,1.3-1.4,1.3c-0.9,0-1.5-0.3-1.5-2
		c0-1.2,0.1-2.2,1.5-2.2c1.2,0,1.4,0.6,1.4,2v0.3H31.4z M32.9,41.8c0-1.2-0.3-1.3-0.8-1.3c-0.4,0-0.8,0.2-0.8,1.3H32.9z"/>
	<path class="st0" d="M35.5,44.2c-0.9,0-1.4-0.4-1.4-1.3h0.7c0,0.2,0,0.8,0.7,0.8c0.4,0,0.7-0.2,0.7-0.6c0-0.7-2-0.7-2-1.9
		c0-0.4,0.3-1.1,1.4-1.1c0.7,0,1.3,0.3,1.3,1.1h-0.7c0-0.4-0.2-0.6-0.6-0.6c-0.4,0-0.6,0.2-0.6,0.5c0,0.7,2,0.7,2,1.9
		C36.9,43.8,36.3,44.2,35.5,44.2z"/>
	<path d="M4.8,56.6v-7.9h3.9v0.9H5.8v2.6h2.8V53H5.8v3.6H4.8z"/>
	<path d="M9,48.7h1v1H9V48.7z M10,56.6H9.1v-5.6H10V56.6z"/>
	<path d="M12.7,56.7c-1.2,0-1.9-0.5-1.9-1.8h1c0,0.3,0,1.1,0.9,1.1c0.5,0,1-0.3,1-0.8c0-1-2.8-1-2.8-2.7c0-0.6,0.4-1.5,1.9-1.5
		c1,0,1.8,0.5,1.8,1.6h-1c0-0.6-0.3-0.9-0.9-0.9c-0.5,0-0.9,0.3-0.9,0.7c0,1,2.8,1,2.8,2.7C14.6,56.2,13.8,56.7,12.7,56.7z"/>
	<path d="M18.4,56.6v-3.8c0-0.7-0.2-1.2-1-1.2c-0.9,0-1.1,0.7-1.1,1.7v3.3h-0.9v-7.9h0.9v3.1h0c0.4-0.6,0.8-0.8,1.5-0.8
		c0.9,0,1.5,0.5,1.5,1.7v3.9H18.4z"/>
	<path class="st0" d="M6.2,61.7c0.8,0.1,1,0.7,1,1.4c0,1-0.5,1.6-1.5,1.6c-1,0-1.5-0.6-1.5-1.6c0-0.7,0.2-1.4,1-1.4v0
		c-0.7-0.1-1-0.7-1-1.3c0-0.9,0.6-1.4,1.4-1.4s1.4,0.5,1.4,1.4C7.2,61,6.9,61.5,6.2,61.7L6.2,61.7z M6.5,63.1c0-0.5-0.1-1.1-0.7-1.1
		C5.1,62,5,62.6,5,63.1c0,0.5,0.2,1,0.7,1S6.5,63.6,6.5,63.1z M6.5,60.3c0-0.4-0.2-0.8-0.7-0.8s-0.7,0.4-0.7,0.8c0,0.4,0.1,1,0.7,1
		S6.5,60.7,6.5,60.3z"/>
	<path class="st0" d="M10.4,61.9c0,1.4,0,2.9-1.5,2.9c-1.5,0-1.5-1.4-1.5-2.9c0-1.5,0-2.9,1.5-2.9C10.4,59,10.4,60.4,10.4,61.9z
		 M8.2,62c0,0.9-0.1,2.1,0.8,2.1s0.8-1.2,0.8-2.1c0-1.5,0-2.4-0.8-2.4C8.2,59.6,8.2,60.5,8.2,62z"/>
	<path class="st0" d="M12.6,64.6h-0.7v-4.7L11,60.4v-0.7c0.2-0.1,0.7-0.5,0.9-0.7h0.6V64.6z"/>
	<path class="st0" d="M16.6,64.7c-0.9,0-1.4-0.4-1.4-1.3h0.7c0,0.2,0,0.8,0.7,0.8c0.4,0,0.7-0.2,0.7-0.6c0-0.7-2-0.7-2-1.9
		c0-0.4,0.3-1.1,1.4-1.1c0.7,0,1.3,0.3,1.3,1.1h-0.7c0-0.4-0.2-0.6-0.6-0.6c-0.4,0-0.6,0.2-0.6,0.5c0,0.7,2,0.7,2,1.9
		C18,64.3,17.4,64.7,16.6,64.7z"/>
	<path class="st0" d="M19.3,61L19.3,61c0.2-0.4,0.5-0.6,0.9-0.6c0.6,0,1.3,0.3,1.3,2c0,1,0,2.2-1.3,2.2c-0.4,0-0.7-0.2-0.9-0.5h0
		v1.9h-0.7v-5.6h0.7V61z M20.8,62.5c0-0.6,0-1.5-0.8-1.5c-0.8,0-0.7,1.1-0.7,1.7c0,0.5,0,1.4,0.8,1.4C20.7,64.2,20.8,63.6,20.8,62.5
		z"/>
	<path class="st0" d="M22.8,62.8c0,1.1,0.3,1.4,0.8,1.4c0.4,0,0.7-0.4,0.7-0.8H25c0,0.9-0.6,1.3-1.4,1.3c-0.9,0-1.5-0.3-1.5-2
		c0-1.2,0.1-2.2,1.5-2.2c1.2,0,1.4,0.6,1.4,2v0.3H22.8z M24.4,62.3c0-1.2-0.3-1.3-0.8-1.3c-0.4,0-0.8,0.2-0.8,1.3H24.4z"/>
	<path class="st0" d="M27.9,61.9c0-0.7-0.3-0.8-0.6-0.8c-0.5,0-0.8,0.2-0.8,1.3c0,1.3,0.2,1.8,0.8,1.8c0.2,0,0.6-0.2,0.6-0.9h0.7
		c0,1.1-0.8,1.4-1.3,1.4c-0.9,0-1.5-0.3-1.5-2c0-1.2,0.1-2.2,1.5-2.2c0.8,0,1.3,0.5,1.2,1.4H27.9z"/>
	<path class="st0" d="M29.3,58.8H30v0.7h-0.7V58.8z M30,64.6h-0.7v-4H30V64.6z"/>
	<path class="st0" d="M31.4,62.8c0,1.1,0.3,1.4,0.8,1.4c0.4,0,0.7-0.4,0.7-0.8h0.7c0,0.9-0.6,1.3-1.4,1.3c-0.9,0-1.5-0.3-1.5-2
		c0-1.2,0.1-2.2,1.5-2.2c1.2,0,1.4,0.6,1.4,2v0.3H31.4z M32.9,62.3c0-1.2-0.3-1.3-0.8-1.3c-0.4,0-0.8,0.2-0.8,1.3H32.9z"/>
	<path class="st0" d="M35.5,64.7c-0.9,0-1.4-0.4-1.4-1.3h0.7c0,0.2,0,0.8,0.7,0.8c0.4,0,0.7-0.2,0.7-0.6c0-0.7-2-0.7-2-1.9
		c0-0.4,0.3-1.1,1.4-1.1c0.7,0,1.3,0.3,1.3,1.1h-0.7c0-0.4-0.2-0.6-0.6-0.6c-0.4,0-0.6,0.2-0.6,0.5c0,0.7,2,0.7,2,1.9
		C36.9,64.3,36.3,64.7,35.5,64.7z"/>
	<path d="M5.9,73.5v3.7h-1v-7.9h2.7c1.4,0,1.9,1,1.9,2c0,0.9-0.5,1.7-1.5,1.8v0c0.9,0.1,1.2,0.5,1.3,2c0,0.3,0.1,1.6,0.3,2.1H8.6
		c-0.3-0.6-0.2-1.6-0.3-2.6c-0.1-1-0.9-1-1.2-1H5.9z M5.9,72.6h1.5c0.7,0,1.1-0.6,1.1-1.3c0-0.6-0.3-1.2-1.1-1.2H5.9V72.6z"/>
	<path d="M11.2,74.6c0,1.6,0.4,1.9,1.1,1.9c0.6,0,0.9-0.5,1-1.1h1c0,1.2-0.8,1.8-1.9,1.8c-1.2,0-2.1-0.4-2.1-2.8c0-1.6,0.2-3,2.1-3
		c1.6,0,2,0.9,2,2.7v0.5H11.2z M13.4,73.9c0-1.6-0.5-1.8-1.1-1.8c-0.6,0-1,0.3-1.1,1.8H13.4z"/>
	<path d="M16.3,72.2L16.3,72.2c0.3-0.5,0.7-0.8,1.3-0.8c0.9,0,1.8,0.4,1.8,2.8c0,1.4,0,3-1.8,3c-0.5,0-0.9-0.2-1.2-0.7h0v2.7h-0.9
		v-7.7h0.9V72.2z M18.4,74.2c0-0.8,0-2.1-1.1-2.1c-1.1,0-1,1.5-1,2.4c0,0.7,0,1.9,1,1.9C18.3,76.5,18.4,75.7,18.4,74.2z"/>
	<path d="M20.4,71.6v-1.1l0.9-0.4v1.5h1.2v0.7h-1.2v3.4c0,0.4,0,0.8,0.8,0.8c0.1,0,0.2,0,0.4,0v0.7c-0.3,0-0.6,0.1-0.9,0.1
		c-0.9,0-1.2-0.4-1.2-1v-3.9h-0.9v-0.7H20.4z"/>
	<path d="M22.7,69.2h1v1h-1V69.2z M23.6,77.1h-0.9v-5.6h0.9V77.1z"/>
	<path d="M25.5,77.1h-0.9v-7.9h0.9V77.1z"/>
	<path d="M27.4,74.6c0,1.6,0.4,1.9,1.1,1.9c0.6,0,0.9-0.5,1-1.1h1c0,1.2-0.8,1.8-1.9,1.8c-1.2,0-2.1-0.4-2.1-2.8c0-1.6,0.2-3,2.1-3
		c1.6,0,2,0.9,2,2.7v0.5H27.4z M29.6,73.9c0-1.6-0.5-1.8-1.1-1.8c-0.6,0-1,0.3-1.1,1.8H29.6z"/>
	<path d="M33.1,77.2c-1.2,0-1.9-0.5-1.9-1.8h1c0,0.3,0,1.1,0.9,1.1c0.5,0,1-0.3,1-0.8c0-1-2.8-1-2.8-2.7c0-0.6,0.4-1.5,1.9-1.5
		c1,0,1.8,0.5,1.8,1.6h-1c0-0.6-0.3-0.9-0.9-0.9c-0.5,0-0.9,0.3-0.9,0.7c0,1,2.8,1,2.8,2.7C35.1,76.7,34.2,77.2,33.1,77.2z"/>
	<path class="st0" d="M4.3,85.1v-0.6c1.6-2.3,2.1-2.7,2.1-3.6c0-0.4-0.2-0.7-0.7-0.7c-0.6,0-0.7,0.5-0.6,0.9H4.4
		c-0.1-0.9,0.4-1.5,1.3-1.5c1,0,1.5,0.5,1.5,1.5c0,1.2-0.6,1.7-2.1,3.5h2.2v0.6H4.3z"/>
	<path class="st0" d="M9.4,82.2c0.8,0.1,1,0.7,1,1.4c0,1-0.5,1.6-1.5,1.6c-1,0-1.5-0.6-1.5-1.6c0-0.7,0.2-1.4,1-1.4v0
		c-0.7-0.1-1-0.7-1-1.3c0-0.9,0.6-1.4,1.4-1.4s1.4,0.5,1.4,1.4C10.3,81.5,10,82,9.4,82.2L9.4,82.2z M9.7,83.6c0-0.5-0.1-1.1-0.7-1.1
		s-0.7,0.6-0.7,1.1c0,0.5,0.2,1,0.7,1S9.7,84.1,9.7,83.6z M9.6,80.8c0-0.4-0.2-0.8-0.7-0.8s-0.7,0.4-0.7,0.8c0,0.4,0.1,1,0.7,1
		S9.6,81.2,9.6,80.8z"/>
	<path class="st0" d="M10.5,79.6h2.9v0.6l-1.5,4.9h-0.8l1.6-4.9h-2.1V79.6z"/>
	<path class="st0" d="M16.6,85.2c-0.9,0-1.4-0.4-1.4-1.3h0.7c0,0.2,0,0.8,0.7,0.8c0.4,0,0.7-0.2,0.7-0.6c0-0.7-2-0.7-2-1.9
		c0-0.4,0.3-1.1,1.4-1.1c0.7,0,1.3,0.3,1.3,1.1h-0.7c0-0.4-0.2-0.6-0.6-0.6c-0.4,0-0.6,0.2-0.6,0.5c0,0.7,2,0.7,2,1.9
		C18,84.8,17.4,85.2,16.6,85.2z"/>
	<path class="st0" d="M19.3,81.5L19.3,81.5c0.2-0.4,0.5-0.6,0.9-0.6c0.6,0,1.3,0.3,1.3,2c0,1,0,2.2-1.3,2.2c-0.4,0-0.7-0.2-0.9-0.5
		h0v1.9h-0.7v-5.6h0.7V81.5z M20.8,83c0-0.6,0-1.5-0.8-1.5c-0.8,0-0.7,1.1-0.7,1.7c0,0.5,0,1.4,0.8,1.4C20.7,84.7,20.8,84.1,20.8,83
		z"/>
	<path class="st0" d="M22.8,83.3c0,1.1,0.3,1.4,0.8,1.4c0.4,0,0.7-0.4,0.7-0.8H25c0,0.9-0.6,1.3-1.4,1.3c-0.9,0-1.5-0.3-1.5-2
		c0-1.2,0.1-2.2,1.5-2.2c1.2,0,1.4,0.6,1.4,2v0.3H22.8z M24.4,82.8c0-1.2-0.3-1.3-0.8-1.3c-0.4,0-0.8,0.2-0.8,1.3H24.4z"/>
	<path class="st0" d="M27.9,82.4c0-0.7-0.3-0.8-0.6-0.8c-0.5,0-0.8,0.2-0.8,1.3c0,1.3,0.2,1.8,0.8,1.8c0.2,0,0.6-0.2,0.6-0.9h0.7
		c0,1.1-0.8,1.4-1.3,1.4c-0.9,0-1.5-0.3-1.5-2c0-1.2,0.1-2.2,1.5-2.2c0.8,0,1.3,0.5,1.2,1.4H27.9z"/>
	<path class="st0" d="M29.3,79.3H30V80h-0.7V79.3z M30,85.1h-0.7v-4H30V85.1z"/>
	<path class="st0" d="M31.4,83.3c0,1.1,0.3,1.4,0.8,1.4c0.4,0,0.7-0.4,0.7-0.8h0.7c0,0.9-0.6,1.3-1.4,1.3c-0.9,0-1.5-0.3-1.5-2
		c0-1.2,0.1-2.2,1.5-2.2c1.2,0,1.4,0.6,1.4,2v0.3H31.4z M32.9,82.8c0-1.2-0.3-1.3-0.8-1.3c-0.4,0-0.8,0.2-0.8,1.3H32.9z"/>
	<path class="st0" d="M35.5,85.2c-0.9,0-1.4-0.4-1.4-1.3h0.7c0,0.2,0,0.8,0.7,0.8c0.4,0,0.7-0.2,0.7-0.6c0-0.7-2-0.7-2-1.9
		c0-0.4,0.3-1.1,1.4-1.1c0.7,0,1.3,0.3,1.3,1.1h-0.7c0-0.4-0.2-0.6-0.6-0.6c-0.4,0-0.6,0.2-0.6,0.5c0,0.7,2,0.7,2,1.9
		C36.9,84.8,36.3,85.2,35.5,85.2z"/>
	<path d="M5.8,97.6H4.9v-7.9h1.6l2,6.7h0l2-6.7h1.7v7.9h-1v-7.1h0L9,97.6H8l-2.2-7.1h0V97.6z"/>
	<path d="M16.3,96.8L16.3,96.8c-0.3,0.6-0.7,0.9-1.4,0.9c-1.2,0-1.5-0.8-1.5-1.8c0-1.7,1.6-1.8,2.9-1.7c0-0.7,0-1.5-0.9-1.5
		c-0.6,0-0.9,0.4-0.9,1h-1c0-1.2,0.7-1.7,1.9-1.7c1.4,0,1.8,0.7,1.8,1.7v2.7c0,0.4,0,0.9,0.1,1.3h-1V96.8z M14.2,96
		c0,0.5,0.3,1,0.9,1c0.6,0,1.2-0.3,1.1-2.1C15.4,94.9,14.2,94.8,14.2,96z"/>
	<path d="M21.1,97.6v-3.9c0-0.6-0.2-1.1-0.9-1.1c-0.3,0-0.6,0.2-0.8,0.4c-0.2,0.3-0.2,0.6-0.2,0.8v3.7h-0.9v-4.4
		c0-0.4,0-0.8-0.1-1.2h1v0.7h0c0.3-0.6,0.7-0.8,1.4-0.8c0.5,0,1.1,0.2,1.3,0.7c0.3-0.6,0.8-0.7,1.3-0.7c0.6,0,1.5,0.1,1.5,1.4v4.2
		h-0.9v-3.9c0-0.6-0.2-1.1-0.9-1.1c-0.3,0-0.4,0-0.7,0.2c-0.3,0.2-0.3,0.8-0.3,1v3.7H21.1z"/>
	<path d="M28.5,97.6v-3.9c0-0.6-0.2-1.1-0.9-1.1c-0.3,0-0.6,0.2-0.8,0.4c-0.2,0.3-0.2,0.6-0.2,0.8v3.7h-0.9v-4.4
		c0-0.4,0-0.8-0.1-1.2h1v0.7h0c0.3-0.6,0.7-0.8,1.4-0.8c0.5,0,1.1,0.2,1.3,0.7c0.3-0.6,0.8-0.7,1.3-0.7c0.6,0,1.5,0.1,1.5,1.4v4.2
		h-0.9v-3.9c0-0.6-0.2-1.1-0.9-1.1c-0.3,0-0.4,0-0.7,0.2c-0.3,0.2-0.3,0.8-0.3,1v3.7H28.5z"/>
	<path d="M36,96.8L36,96.8c-0.3,0.6-0.7,0.9-1.4,0.9c-1.2,0-1.5-0.8-1.5-1.8c0-1.7,1.6-1.8,2.9-1.7c0-0.7,0-1.5-0.9-1.5
		c-0.6,0-0.9,0.4-0.9,1h-1c0-1.2,0.7-1.7,1.9-1.7c1.4,0,1.8,0.7,1.8,1.7v2.7c0,0.4,0,0.9,0.1,1.3h-1V96.8z M34,96c0,0.5,0.3,1,0.9,1
		c0.6,0,1.2-0.3,1.1-2.1C35.1,94.9,34,94.8,34,96z"/>
	<path d="M39,97.6h-0.9v-7.9H39V97.6z"/>
	<path d="M41.6,97.7c-1.2,0-1.9-0.5-1.9-1.8h1c0,0.3,0,1.1,0.9,1.1c0.5,0,1-0.3,1-0.8c0-1-2.8-1-2.8-2.7c0-0.6,0.4-1.5,1.9-1.5
		c1,0,1.8,0.5,1.8,1.6h-1c0-0.6-0.3-0.9-0.9-0.9c-0.5,0-0.9,0.3-0.9,0.7c0,1,2.8,1,2.8,2.7C43.6,97.2,42.7,97.7,41.6,97.7z"/>
	<path class="st0" d="M4.2,104.3v-0.6l1.6-3.6h1v3.6h0.7v0.6H6.7v1.4H6v-1.4H4.2z M6,103.6v-2.9h0l-1.2,2.9H6z"/>
	<path class="st0" d="M8.5,102.4c0.7,0.1,1.1-0.2,1.1-0.9c0-0.5-0.2-0.9-0.8-0.9c-0.6,0-0.7,0.5-0.7,0.9H7.4
		c-0.1-0.9,0.4-1.5,1.4-1.5c0.9,0,1.5,0.5,1.5,1.4c0,1-0.8,1.2-1.1,1.3v0c0.9,0.1,1.2,0.6,1.2,1.4c0,1.1-0.6,1.6-1.6,1.6
		c-1.6,0-1.4-1.3-1.4-1.6h0.7c0,0.6,0.1,1,0.8,1c0.6,0,0.8-0.4,0.8-1c0-0.9-0.3-1.1-1.2-1.1V102.4z"/>
	<path class="st0" d="M10.6,105.6V105c1.6-2.3,2.1-2.7,2.1-3.6c0-0.4-0.2-0.7-0.7-0.7c-0.6,0-0.7,0.5-0.6,0.9h-0.8
		c-0.1-0.9,0.4-1.5,1.3-1.5c1,0,1.5,0.5,1.5,1.5c0,1.2-0.6,1.7-2.1,3.5h2.2v0.6H10.6z"/>
	<path class="st0" d="M16.6,105.7c-0.9,0-1.4-0.4-1.4-1.3h0.7c0,0.2,0,0.8,0.7,0.8c0.4,0,0.7-0.2,0.7-0.6c0-0.7-2-0.7-2-1.9
		c0-0.4,0.3-1.1,1.4-1.1c0.7,0,1.3,0.3,1.3,1.1h-0.7c0-0.4-0.2-0.6-0.6-0.6c-0.4,0-0.6,0.2-0.6,0.5c0,0.7,2,0.7,2,1.9
		C18,105.3,17.4,105.7,16.6,105.7z"/>
	<path class="st0" d="M19.3,102L19.3,102c0.2-0.4,0.5-0.6,0.9-0.6c0.6,0,1.3,0.3,1.3,2c0,1,0,2.2-1.3,2.2c-0.4,0-0.7-0.2-0.9-0.5h0
		v1.9h-0.7v-5.6h0.7V102z M20.8,103.5c0-0.6,0-1.5-0.8-1.5c-0.8,0-0.7,1.1-0.7,1.7c0,0.5,0,1.4,0.8,1.4
		C20.7,105.2,20.8,104.6,20.8,103.5z"/>
	<path class="st0" d="M22.8,103.8c0,1.1,0.3,1.4,0.8,1.4c0.4,0,0.7-0.4,0.7-0.8H25c0,0.9-0.6,1.3-1.4,1.3c-0.9,0-1.5-0.3-1.5-2
		c0-1.2,0.1-2.2,1.5-2.2c1.2,0,1.4,0.6,1.4,2v0.3H22.8z M24.4,103.3c0-1.2-0.3-1.3-0.8-1.3c-0.4,0-0.8,0.2-0.8,1.3H24.4z"/>
	<path class="st0" d="M27.9,102.9c0-0.7-0.3-0.8-0.6-0.8c-0.5,0-0.8,0.2-0.8,1.3c0,1.3,0.2,1.8,0.8,1.8c0.2,0,0.6-0.2,0.6-0.9h0.7
		c0,1.1-0.8,1.4-1.3,1.4c-0.9,0-1.5-0.3-1.5-2c0-1.2,0.1-2.2,1.5-2.2c0.8,0,1.3,0.5,1.2,1.4H27.9z"/>
	<path class="st0" d="M29.3,99.8H30v0.7h-0.7V99.8z M30,105.6h-0.7v-4H30V105.6z"/>
	<path class="st0" d="M31.4,103.8c0,1.1,0.3,1.4,0.8,1.4c0.4,0,0.7-0.4,0.7-0.8h0.7c0,0.9-0.6,1.3-1.4,1.3c-0.9,0-1.5-0.3-1.5-2
		c0-1.2,0.1-2.2,1.5-2.2c1.2,0,1.4,0.6,1.4,2v0.3H31.4z M32.9,103.3c0-1.2-0.3-1.3-0.8-1.3c-0.4,0-0.8,0.2-0.8,1.3H32.9z"/>
	<path class="st0" d="M35.5,105.7c-0.9,0-1.4-0.4-1.4-1.3h0.7c0,0.2,0,0.8,0.7,0.8c0.4,0,0.7-0.2,0.7-0.6c0-0.7-2-0.7-2-1.9
		c0-0.4,0.3-1.1,1.4-1.1c0.7,0,1.3,0.3,1.3,1.1h-0.7c0-0.4-0.2-0.6-0.6-0.6c-0.4,0-0.6,0.2-0.6,0.5c0,0.7,2,0.7,2,1.9
		C36.9,105.3,36.3,105.7,35.5,105.7z"/>
	<path d="M6.7,110.2H8l2.6,7.9H9.4l-0.6-1.9H5.8l-0.6,1.9h-1L6.7,110.2z M7.3,111.1L7.3,111.1L6,115.3h2.5L7.3,111.1z"/>
	<path d="M13.7,118.1v-3.9c0-0.6-0.2-1.1-0.9-1.1c-0.3,0-0.6,0.2-0.8,0.4c-0.2,0.3-0.2,0.6-0.2,0.8v3.7h-0.9v-4.4
		c0-0.4,0-0.8-0.1-1.2h1v0.7h0c0.3-0.6,0.7-0.8,1.4-0.8c0.5,0,1.1,0.2,1.3,0.7c0.3-0.6,0.8-0.7,1.3-0.7c0.6,0,1.5,0.1,1.5,1.4v4.2
		h-0.9v-3.9c0-0.6-0.2-1.1-0.9-1.1c-0.3,0-0.4,0-0.7,0.2c-0.3,0.2-0.3,0.8-0.3,1v3.7H13.7z"/>
	<path d="M19.3,113.2L19.3,113.2c0.3-0.5,0.7-0.8,1.3-0.8c0.9,0,1.8,0.4,1.8,2.8c0,1.4,0,3-1.8,3c-0.5,0-0.9-0.2-1.2-0.7h0v2.7h-0.9
		v-7.7h0.9V113.2z M21.5,115.2c0-0.8,0-2.1-1.1-2.1c-1.1,0-1,1.5-1,2.4c0,0.7,0,1.9,1,1.9C21.3,117.5,21.5,116.7,21.5,115.2z"/>
	<path d="M26.3,118.1v-3.8c0-0.7-0.2-1.2-1-1.2c-0.9,0-1.1,0.7-1.1,1.7v3.3h-0.9v-7.9h0.9v3.1h0c0.4-0.6,0.8-0.8,1.5-0.8
		c0.9,0,1.5,0.5,1.5,1.7v3.9H26.3z"/>
	<path d="M28.2,110.2h1v1h-1V110.2z M29.1,118.1h-0.9v-5.6h0.9V118.1z"/>
	<path d="M31.1,118.1h-0.9v-7.9h0.9v2.9h0c0.3-0.4,0.7-0.7,1.2-0.7c1.8,0,1.8,1.6,1.8,3c0,2.4-0.9,2.8-1.8,2.8c-0.6,0-1-0.3-1.3-0.8
		h0V118.1z M32.1,117.5c1.1,0,1.1-1.2,1.1-2c0-1.5-0.1-2.3-1.1-2.3c-1,0-1,1.2-1,1.9C31.1,116,31,117.5,32.1,117.5z"/>
	<path d="M35,110.2h1v1h-1V110.2z M36,118.1h-0.9v-5.6H36V118.1z"/>
	<path d="M39.8,117.3L39.8,117.3c-0.3,0.6-0.7,0.9-1.4,0.9c-1.2,0-1.5-0.8-1.5-1.8c0-1.7,1.6-1.8,2.9-1.7c0-0.7,0-1.5-0.9-1.5
		c-0.6,0-0.9,0.4-0.9,1h-1c0-1.2,0.7-1.7,1.9-1.7c1.4,0,1.8,0.7,1.8,1.7v2.7c0,0.4,0,0.9,0.1,1.3h-1V117.3z M37.8,116.5
		c0,0.5,0.3,1,0.9,1c0.6,0,1.2-0.3,1.1-2.1C39,115.4,37.8,115.3,37.8,116.5z"/>
	<path d="M44.9,118.1v-3.9c0-0.6-0.2-1.1-1-1.1c-1,0-1.1,0.9-1.1,1.6v3.3h-0.9v-4.4c0-0.4,0-0.8-0.1-1.2h1v0.7h0
		c0.4-0.6,0.8-0.8,1.5-0.8c1.2,0,1.5,0.7,1.5,1.8v3.9H44.9z"/>
	<path d="M48.5,118.2c-1.2,0-1.9-0.5-1.9-1.8h1c0,0.3,0,1.1,0.9,1.1c0.5,0,1-0.3,1-0.8c0-1-2.8-1-2.8-2.7c0-0.6,0.4-1.5,1.9-1.5
		c1,0,1.8,0.5,1.8,1.6h-1c0-0.6-0.3-0.9-0.9-0.9c-0.5,0-0.9,0.3-0.9,0.7c0,1,2.8,1,2.8,2.7C50.5,117.7,49.6,118.2,48.5,118.2z"/>
	<path class="st0" d="M5.3,122.9c0.7,0.1,1.1-0.2,1.1-0.9c0-0.5-0.2-0.9-0.8-0.9c-0.6,0-0.7,0.5-0.7,0.9H4.3
		c-0.1-0.9,0.4-1.5,1.4-1.5c0.9,0,1.5,0.5,1.5,1.4c0,1-0.8,1.2-1.1,1.3v0c0.9,0.1,1.2,0.6,1.2,1.4c0,1.1-0.6,1.6-1.6,1.6
		c-1.6,0-1.4-1.3-1.4-1.6h0.7c0,0.6,0.1,1,0.8,1c0.6,0,0.8-0.4,0.8-1c0-0.9-0.3-1.1-1.2-1.1V122.9z"/>
	<path class="st0" d="M7.3,124.8v-0.6l1.6-3.6h1v3.6h0.7v0.6H9.9v1.4H9.2v-1.4H7.3z M9.2,124.1v-2.9h0L8,124.1H9.2z"/>
	<path class="st0" d="M10.6,123.4c0-1.5,0-2.9,1.5-2.9c0.8,0,1.4,0.5,1.4,1.4h-0.7c0-0.4-0.2-0.8-0.6-0.8c-0.6,0-0.8,0.5-0.8,2h0
		c0.2-0.3,0.5-0.5,0.9-0.5c0.7,0,1.3,0.4,1.3,1.9c0,1-0.4,1.9-1.5,1.9C10.6,126.2,10.6,124.8,10.6,123.4z M12.1,125.6
		c0.6,0,0.7-0.7,0.7-1.4c0-0.5-0.1-1.1-0.8-1.1c-0.6,0-0.7,0.7-0.7,1.2C11.3,124.9,11.4,125.6,12.1,125.6z"/>
	<path class="st0" d="M16.6,126.2c-0.9,0-1.4-0.4-1.4-1.3h0.7c0,0.2,0,0.8,0.7,0.8c0.4,0,0.7-0.2,0.7-0.6c0-0.7-2-0.7-2-1.9
		c0-0.4,0.3-1.1,1.4-1.1c0.7,0,1.3,0.3,1.3,1.1h-0.7c0-0.4-0.2-0.6-0.6-0.6c-0.4,0-0.6,0.2-0.6,0.5c0,0.7,2,0.7,2,1.9
		C18,125.8,17.4,126.2,16.6,126.2z"/>
	<path class="st0" d="M19.3,122.5L19.3,122.5c0.2-0.4,0.5-0.6,0.9-0.6c0.6,0,1.3,0.3,1.3,2c0,1,0,2.2-1.3,2.2
		c-0.4,0-0.7-0.2-0.9-0.5h0v1.9h-0.7v-5.6h0.7V122.5z M20.8,124c0-0.6,0-1.5-0.8-1.5c-0.8,0-0.7,1.1-0.7,1.7c0,0.5,0,1.4,0.8,1.4
		C20.7,125.7,20.8,125.1,20.8,124z"/>
	<path class="st0" d="M22.8,124.3c0,1.1,0.3,1.4,0.8,1.4c0.4,0,0.7-0.4,0.7-0.8H25c0,0.9-0.6,1.3-1.4,1.3c-0.9,0-1.5-0.3-1.5-2
		c0-1.2,0.1-2.2,1.5-2.2c1.2,0,1.4,0.6,1.4,2v0.3H22.8z M24.4,123.8c0-1.2-0.3-1.3-0.8-1.3c-0.4,0-0.8,0.2-0.8,1.3H24.4z"/>
	<path class="st0" d="M27.9,123.4c0-0.7-0.3-0.8-0.6-0.8c-0.5,0-0.8,0.2-0.8,1.3c0,1.3,0.2,1.8,0.8,1.8c0.2,0,0.6-0.2,0.6-0.9h0.7
		c0,1.1-0.8,1.4-1.3,1.4c-0.9,0-1.5-0.3-1.5-2c0-1.2,0.1-2.2,1.5-2.2c0.8,0,1.3,0.5,1.2,1.4H27.9z"/>
	<path class="st0" d="M29.3,120.3H30v0.7h-0.7V120.3z M30,126.1h-0.7v-4H30V126.1z"/>
	<path class="st0" d="M31.4,124.3c0,1.1,0.3,1.4,0.8,1.4c0.4,0,0.7-0.4,0.7-0.8h0.7c0,0.9-0.6,1.3-1.4,1.3c-0.9,0-1.5-0.3-1.5-2
		c0-1.2,0.1-2.2,1.5-2.2c1.2,0,1.4,0.6,1.4,2v0.3H31.4z M32.9,123.8c0-1.2-0.3-1.3-0.8-1.3c-0.4,0-0.8,0.2-0.8,1.3H32.9z"/>
	<path class="st0" d="M35.5,126.2c-0.9,0-1.4-0.4-1.4-1.3h0.7c0,0.2,0,0.8,0.7,0.8c0.4,0,0.7-0.2,0.7-0.6c0-0.7-2-0.7-2-1.9
		c0-0.4,0.3-1.1,1.4-1.1c0.7,0,1.3,0.3,1.3,1.1h-0.7c0-0.4-0.2-0.6-0.6-0.6c-0.4,0-0.6,0.2-0.6,0.5c0,0.7,2,0.7,2,1.9
		C36.9,125.8,36.3,126.2,35.5,126.2z"/>
	<path d="M5,138.6v-7.9h2.4c1.1,0,2.2,0.4,2.2,2.3c0,1.8-1.4,2.2-2.2,2.2H6v3.5H5z M6,134.2h1.1c0.4,0,1.4-0.1,1.4-1.4
		c0-1.2-0.9-1.3-1.1-1.3H6V134.2z"/>
	<path d="M11.2,138.6h-0.9v-7.9h0.9V138.6z"/>
	<path d="M15.1,137.8L15.1,137.8c-0.3,0.6-0.7,0.9-1.4,0.9c-1.2,0-1.5-0.8-1.5-1.8c0-1.7,1.6-1.8,2.9-1.7c0-0.7,0-1.5-0.9-1.5
		c-0.6,0-0.9,0.4-0.9,1h-1c0-1.2,0.7-1.7,1.9-1.7c1.4,0,1.8,0.7,1.8,1.7v2.7c0,0.4,0,0.9,0.1,1.3h-1V137.8z M13.1,137
		c0,0.5,0.3,1,0.9,1c0.6,0,1.2-0.3,1.1-2.1C14.2,135.9,13.1,135.8,13.1,137z"/>
	<path d="M20.2,138.6v-3.9c0-0.6-0.2-1.1-1-1.1c-1,0-1.1,0.9-1.1,1.6v3.3h-0.9v-4.4c0-0.4,0-0.8-0.1-1.2h1v0.7h0
		c0.4-0.6,0.8-0.8,1.5-0.8c1.2,0,1.5,0.7,1.5,1.8v3.9H20.2z"/>
	<path d="M22.2,133.1V132l0.9-0.4v1.5h1.2v0.7h-1.2v3.4c0,0.4,0,0.8,0.8,0.8c0.1,0,0.2,0,0.4,0v0.7c-0.3,0-0.6,0.1-0.9,0.1
		c-0.9,0-1.2-0.4-1.2-1v-4h-0.9v-0.7H22.2z"/>
	<path d="M26.3,138.7c-1.2,0-1.9-0.5-1.9-1.8h1c0,0.3,0,1.1,0.9,1.1c0.5,0,1-0.3,1-0.8c0-1-2.8-1-2.8-2.7c0-0.6,0.4-1.5,1.9-1.5
		c1,0,1.8,0.5,1.8,1.6h-1c0-0.6-0.3-0.9-0.9-0.9c-0.5,0-0.9,0.3-0.9,0.7c0,1,2.8,1,2.8,2.7C28.2,138.2,27.4,138.7,26.3,138.7z"/>
	<path class="st0" d="M4.3,146.6V146c1.6-2.3,2.1-2.7,2.1-3.6c0-0.4-0.2-0.7-0.7-0.7c-0.6,0-0.7,0.5-0.6,0.9H4.4
		c-0.1-0.9,0.4-1.5,1.3-1.5c1,0,1.5,0.5,1.5,1.5c0,1.2-0.6,1.7-2.1,3.5h2.2v0.6H4.3z"/>
	<path class="st0" d="M7.4,141.1h2.9v0.6l-1.5,4.9H7.9l1.6-4.9H7.4V141.1z"/>
	<path class="st0" d="M11,145.8h0.8l-0.7,1.8h-0.5L11,145.8z"/>
	<path class="st0" d="M13,143.4c0.7,0.1,1.1-0.2,1.1-0.9c0-0.5-0.2-0.9-0.8-0.9c-0.6,0-0.7,0.5-0.7,0.9H12c-0.1-0.9,0.4-1.5,1.4-1.5
		c0.9,0,1.5,0.5,1.5,1.4c0,1-0.8,1.2-1.1,1.3v0c0.9,0.1,1.2,0.6,1.2,1.4c0,1.1-0.6,1.6-1.6,1.6c-1.6,0-1.4-1.3-1.4-1.6h0.7
		c0,0.6,0.1,1,0.8,1c0.6,0,0.8-0.4,0.8-1c0-0.9-0.3-1.1-1.2-1.1V143.4z"/>
	<path class="st0" d="M17.1,143.7c0.8,0.1,1,0.7,1,1.4c0,1-0.5,1.6-1.5,1.6c-1,0-1.5-0.6-1.5-1.6c0-0.7,0.2-1.4,1-1.4v0
		c-0.7-0.1-1-0.7-1-1.3c0-0.9,0.6-1.4,1.4-1.4s1.4,0.5,1.4,1.4C18,143,17.7,143.5,17.1,143.7L17.1,143.7z M17.3,145.1
		c0-0.5-0.1-1.1-0.7-1.1c-0.7,0-0.7,0.6-0.7,1.1c0,0.5,0.2,1,0.7,1S17.3,145.6,17.3,145.1z M17.3,142.3c0-0.4-0.2-0.8-0.7-0.8
		s-0.7,0.4-0.7,0.8c0,0.4,0.1,1,0.7,1S17.3,142.7,17.3,142.3z"/>
	<path class="st0" d="M21.2,143.9c0,1.4,0,2.9-1.5,2.9c-1.5,0-1.5-1.4-1.5-2.9c0-1.5,0-2.9,1.5-2.9C21.3,141,21.2,142.4,21.2,143.9z
		 M19,144c0,0.9-0.1,2.1,0.8,2.1s0.8-1.2,0.8-2.1c0-1.5,0-2.4-0.8-2.4C19,141.6,19,142.5,19,144z"/>
	<path class="st0" d="M24.3,146.7c-0.9,0-1.4-0.4-1.4-1.3h0.7c0,0.2,0,0.8,0.7,0.8c0.4,0,0.7-0.2,0.7-0.6c0-0.7-2-0.7-2-1.9
		c0-0.4,0.3-1.1,1.4-1.1c0.7,0,1.3,0.3,1.3,1.1h-0.7c0-0.4-0.2-0.6-0.6-0.6c-0.4,0-0.6,0.2-0.6,0.5c0,0.7,2,0.7,2,1.9
		C25.7,146.3,25.1,146.7,24.3,146.7z"/>
	<path class="st0" d="M26.9,143L26.9,143c0.2-0.4,0.5-0.6,0.9-0.6c0.6,0,1.3,0.3,1.3,2c0,1,0,2.2-1.3,2.2c-0.4,0-0.7-0.2-0.9-0.5h0
		v1.9h-0.7v-5.6h0.7V143z M28.5,144.5c0-0.6,0-1.5-0.8-1.5c-0.8,0-0.7,1.1-0.7,1.7c0,0.5,0,1.4,0.8,1.4
		C28.4,146.2,28.5,145.6,28.5,144.5z"/>
	<path class="st0" d="M30.5,144.8c0,1.1,0.3,1.4,0.8,1.4c0.4,0,0.7-0.4,0.7-0.8h0.7c0,0.9-0.6,1.3-1.4,1.3c-0.9,0-1.5-0.3-1.5-2
		c0-1.2,0.1-2.2,1.5-2.2c1.2,0,1.4,0.6,1.4,2v0.3H30.5z M32,144.3c0-1.2-0.3-1.3-0.8-1.3c-0.4,0-0.8,0.2-0.8,1.3H32z"/>
	<path class="st0" d="M35.5,143.9c0-0.7-0.3-0.8-0.6-0.8c-0.5,0-0.8,0.2-0.8,1.3c0,1.3,0.2,1.8,0.8,1.8c0.2,0,0.6-0.2,0.6-0.9h0.7
		c0,1.1-0.8,1.4-1.3,1.4c-0.9,0-1.5-0.3-1.5-2c0-1.2,0.1-2.2,1.5-2.2c0.8,0,1.3,0.5,1.2,1.4H35.5z"/>
	<path class="st0" d="M37,140.8h0.7v0.7H37V140.8z M37.7,146.6H37v-4h0.7V146.6z"/>
	<path class="st0" d="M39,144.8c0,1.1,0.3,1.4,0.8,1.4c0.4,0,0.7-0.4,0.7-0.8h0.7c0,0.9-0.6,1.3-1.4,1.3c-0.9,0-1.5-0.3-1.5-2
		c0-1.2,0.1-2.2,1.5-2.2c1.2,0,1.4,0.6,1.4,2v0.3H39z M40.6,144.3c0-1.2-0.3-1.3-0.8-1.3c-0.4,0-0.8,0.2-0.8,1.3H40.6z"/>
	<path class="st0" d="M43.2,146.7c-0.9,0-1.4-0.4-1.4-1.3h0.7c0,0.2,0,0.8,0.7,0.8c0.4,0,0.7-0.2,0.7-0.6c0-0.7-2-0.7-2-1.9
		c0-0.4,0.3-1.1,1.4-1.1c0.7,0,1.3,0.3,1.3,1.1h-0.7c0-0.4-0.2-0.6-0.6-0.6c-0.4,0-0.6,0.2-0.6,0.5c0,0.7,2,0.7,2,1.9
		C44.6,146.3,44,146.7,43.2,146.7z"/>
</g>
<rect x="52.7" y="162.7" class="st1" width="6.3" height="6.3"/>
<rect x="112.7" y="162.7" class="st2" width="6.3" height="6.3"/>
<g>
	<path d="M62.7,166.6v0.2c0,0.8,0.5,1,1,1c0.6,0,1-0.2,1-0.9c0-1.3-2.6-1.1-2.6-2.9c0-1,0.7-1.6,1.7-1.6c1.1,0,1.6,0.5,1.6,1.7h-0.8
		c0-0.6-0.2-1-0.9-1c-0.4,0-0.9,0.2-0.9,0.8c0,1.3,2.6,1.1,2.6,2.9c0,1.2-0.8,1.6-1.8,1.6c-1.7,0-1.7-1.3-1.7-1.8H62.7z"/>
	<path d="M66.3,166.4c0-1.2,0.1-2.2,1.5-2.2s1.5,1,1.5,2.2c0,1.8-0.7,2-1.5,2S66.3,168.2,66.3,166.4z M68.7,166.1
		c0-1.1-0.3-1.3-0.8-1.3S67,165,67,166.1c0,1.3,0.2,1.8,0.8,1.8S68.7,167.4,68.7,166.1z"/>
	<path d="M72.5,164.3h0.7v3.2c0,0.3,0,0.6,0,0.8h-0.7v-0.5h0c-0.2,0.4-0.6,0.6-1,0.6c-0.7,0-1.1-0.4-1.1-1v-3.1H71v2.8
		c0,0.5,0.2,0.8,0.7,0.8c0.4,0,0.8-0.3,0.8-0.9V164.3z"/>
	<path d="M74.4,164.3v-0.8l0.7-0.3v1.1h0.9v0.5H75v2.5c0,0.3,0,0.6,0.6,0.6c0,0,0.2,0,0.3,0v0.5c-0.2,0-0.4,0.1-0.6,0.1
		c-0.6,0-0.9-0.3-0.9-0.7v-2.9h-0.7v-0.5H74.4z"/>
	<path d="M78.6,168.3v-2.7c0-0.5-0.2-0.8-0.7-0.8c-0.7,0-0.8,0.5-0.8,1.2v2.4h-0.7v-5.8h0.7v2.3h0c0.3-0.5,0.6-0.6,1.1-0.6
		c0.7,0,1.1,0.3,1.1,1.3v2.9H78.6z"/>
	<path d="M81,166.5c0,1.1,0.3,1.4,0.8,1.4c0.4,0,0.7-0.4,0.7-0.8h0.7c0,0.9-0.6,1.3-1.4,1.3c-0.9,0-1.5-0.3-1.5-2
		c0-1.2,0.1-2.2,1.5-2.2c1.2,0,1.4,0.6,1.4,2v0.3H81z M82.6,166c0-1.2-0.3-1.3-0.8-1.3c-0.4,0-0.8,0.2-0.8,1.3H82.6z"/>
	<path d="M86.3,167.7L86.3,167.7c-0.2,0.5-0.5,0.7-1,0.7c-0.9,0-1.1-0.6-1.1-1.3c0-1.2,1.2-1.3,2.1-1.3c0-0.5,0-1.1-0.7-1.1
		c-0.4,0-0.7,0.3-0.6,0.7h-0.7c0-0.9,0.5-1.2,1.4-1.2c1,0,1.3,0.5,1.3,1.2v1.9c0,0.3,0,0.6,0.1,1h-0.7V167.7z M84.9,167.1
		c0,0.4,0.2,0.7,0.6,0.7c0.4,0,0.9-0.2,0.8-1.6C85.7,166.3,84.9,166.3,84.9,167.1z"/>
	<path d="M89.4,168.4c-0.9,0-1.4-0.4-1.4-1.3h0.7c0,0.2,0,0.8,0.7,0.8c0.4,0,0.7-0.2,0.7-0.6c0-0.7-2-0.7-2-1.9
		c0-0.4,0.3-1.1,1.4-1.1c0.7,0,1.3,0.3,1.3,1.1H90c0-0.4-0.2-0.6-0.6-0.6c-0.4,0-0.6,0.2-0.6,0.5c0,0.7,2,0.7,2,1.9
		C90.8,168.1,90.2,168.4,89.4,168.4z"/>
	<path d="M91.7,164.3v-0.8l0.7-0.3v1.1h0.9v0.5h-0.9v2.5c0,0.3,0,0.6,0.6,0.6c0,0,0.2,0,0.3,0v0.5c-0.2,0-0.4,0.1-0.6,0.1
		c-0.6,0-0.9-0.3-0.9-0.7v-2.9h-0.7v-0.5H91.7z"/>
	<path d="M95.5,162.6h0.7v3.7c0,1.3,0.4,1.6,1.1,1.6s1.1-0.3,1.1-1.6v-3.7h0.7v3.7c0,1.6-0.6,2.2-1.8,2.2s-1.8-0.6-1.8-2.2V162.6z"
		/>
	<path d="M101,168.3h-0.8v-0.8h0.8V168.3z"/>
	<path d="M102.6,166.6v0.2c0,0.8,0.5,1,1,1c0.6,0,1-0.2,1-0.9c0-1.3-2.6-1.1-2.6-2.9c0-1,0.7-1.6,1.7-1.6c1.1,0,1.6,0.5,1.6,1.7
		h-0.8c0-0.6-0.2-1-0.9-1c-0.4,0-0.9,0.2-0.9,0.8c0,1.3,2.6,1.1,2.6,2.9c0,1.2-0.8,1.6-1.8,1.6c-1.7,0-1.7-1.3-1.7-1.8H102.6z"/>
	<path d="M107.1,168.3h-0.8v-0.8h0.8V168.3z"/>
</g>
<g>
	<path d="M122.4,165.7v2.7h-0.7v-5.8h2c1,0,1.4,0.7,1.4,1.4c0,0.7-0.4,1.2-1.1,1.3v0c0.7,0.1,0.9,0.3,0.9,1.5c0,0.2,0.1,1.2,0.2,1.5
		h-0.8c-0.2-0.4-0.2-1.2-0.2-1.9c-0.1-0.7-0.6-0.7-0.9-0.7H122.4z M122.4,165h1.1c0.5,0,0.8-0.5,0.8-1c0-0.4-0.2-0.9-0.8-0.9h-1.1
		V165z"/>
	<path d="M126.6,166.5c0,1.1,0.3,1.4,0.8,1.4c0.4,0,0.7-0.4,0.7-0.8h0.7c0,0.9-0.6,1.3-1.4,1.3c-0.9,0-1.5-0.3-1.5-2
		c0-1.2,0.1-2.2,1.5-2.2c1.2,0,1.4,0.6,1.4,2v0.3H126.6z M128.2,166c0-1.2-0.3-1.3-0.8-1.3c-0.4,0-0.8,0.2-0.8,1.3H128.2z"/>
	<path d="M131.1,168.4c-0.9,0-1.4-0.4-1.4-1.3h0.7c0,0.2,0,0.8,0.7,0.8c0.4,0,0.7-0.2,0.7-0.6c0-0.7-2-0.7-2-1.9
		c0-0.4,0.3-1.1,1.4-1.1c0.7,0,1.3,0.3,1.3,1.1h-0.7c0-0.4-0.2-0.6-0.6-0.6c-0.4,0-0.6,0.2-0.6,0.5c0,0.7,2,0.7,2,1.9
		C132.5,168.1,131.9,168.4,131.1,168.4z"/>
	<path d="M133.4,164.3v-0.8l0.7-0.3v1.1h0.9v0.5h-0.9v2.5c0,0.3,0,0.6,0.6,0.6c0,0,0.2,0,0.3,0v0.5c-0.2,0-0.4,0.1-0.6,0.1
		c-0.6,0-0.9-0.3-0.9-0.7v-2.9h-0.7v-0.5H133.4z"/>
	<path d="M137.1,166.4c0-1.2,0.1-2.2,1.5-2.2s1.5,1,1.5,2.2c0,1.8-0.7,2-1.5,2S137.1,168.2,137.1,166.4z M139.4,166.1
		c0-1.1-0.3-1.3-0.8-1.3s-0.8,0.2-0.8,1.3c0,1.3,0.2,1.8,0.8,1.8S139.4,167.4,139.4,166.1z"/>
	<path d="M141.2,164.3v-0.8c0-0.8,0.6-1,1.2-1c0.1,0,0.2,0,0.3,0v0.5c-0.7,0-0.8,0.2-0.8,0.6v0.7h0.8v0.5h-0.8v3.5h-0.7v-3.5h-0.6
		v-0.5H141.2z"/>
	<path d="M145,162.6h0.7v3.7c0,1.3,0.4,1.6,1.1,1.6c0.7,0,1.1-0.3,1.1-1.6v-3.7h0.7v3.7c0,1.6-0.6,2.2-1.8,2.2
		c-1.2,0-1.8-0.6-1.8-2.2V162.6z"/>
	<path d="M150.4,168.3h-0.8v-0.8h0.8V168.3z"/>
	<path d="M152.1,166.6v0.2c0,0.8,0.5,1,1,1c0.6,0,1-0.2,1-0.9c0-1.3-2.6-1.1-2.6-2.9c0-1,0.7-1.6,1.7-1.6c1.1,0,1.6,0.5,1.6,1.7H154
		c0-0.6-0.2-1-0.9-1c-0.4,0-0.9,0.2-0.9,0.8c0,1.3,2.6,1.1,2.6,2.9c0,1.2-0.8,1.6-1.8,1.6c-1.7,0-1.7-1.3-1.7-1.8H152.1z"/>
	<path d="M156.5,168.3h-0.8v-0.8h0.8V168.3z"/>
</g>
<g>
	<g>
		<g>
			<text transform="matrix(1 0 0 1 52.1149 156.4976)" class="st3 st4">0</text>
			<text transform="matrix(1 0 0 1 85.8625 156.4976)" class="st3 st4">20</text>
			<text transform="matrix(1 0 0 1 121.6628 156.4976)" class="st3 st4">40</text>
			<text transform="matrix(1 0 0 1 157.4626 156.4976)" class="st3 st4">60</text>
			<text transform="matrix(1 0 0 1 193.2629 156.4976)" class="st3 st4">80</text>
			<text transform="matrix(1 0 0 1 227.0109 156.4976)" class="st3 st4">100</text>
		</g>
		<line class="st5" x1="54.2" y1="148" x2="233.2" y2="148"/>
		<g>
			<g>
				<line class="st5" x1="54.2" y1="148" x2="54.2" y2="144.4"/>
				<line class="st5" x1="90" y1="148" x2="90" y2="144.4"/>
				<line class="st5" x1="125.8" y1="148" x2="125.8" y2="144.4"/>
				<line class="st5" x1="161.6" y1="148" x2="161.6" y2="144.4"/>
				<line class="st5" x1="197.4" y1="148" x2="197.4" y2="144.4"/>
				<line class="st5" x1="233.2" y1="148" x2="233.2" y2="144.4"/>
			</g>
			<g>
			</g>
		</g>
	</g>
	<g>
		<line class="st5" x1="54.2" y1="148" x2="54.2" y2="5"/>
		<g>
			<g>
				<line class="st5" x1="54.2" y1="137.8" x2="58.6" y2="137.8"/>
				<line class="st5" x1="54.2" y1="117.3" x2="58.6" y2="117.3"/>
				<line class="st5" x1="54.2" y1="96.9" x2="58.6" y2="96.9"/>
				<line class="st5" x1="54.2" y1="76.5" x2="58.6" y2="76.5"/>
				<line class="st5" x1="54.2" y1="56" x2="58.6" y2="56"/>
				<line class="st5" x1="54.2" y1="35.6" x2="58.6" y2="35.6"/>
				<line class="st5" x1="54.2" y1="15.2" x2="58.6" y2="15.2"/>
			</g>
			<g>
			</g>
		</g>
	</g>
	<g>
		<g>
			<g>
				<rect x="218.8" y="7.8" class="st6" width="14.3" height="14.7"/>
				<rect x="209.9" y="28.3" class="st6" width="23.3" height="14.7"/>
				<rect x="188.4" y="48.7" class="st6" width="44.8" height="14.7"/>
				<rect x="177.7" y="69.1" class="st6" width="55.5" height="14.7"/>
				<rect x="156.2" y="89.5" class="st6" width="77" height="14.7"/>
				<rect x="141.9" y="110" class="st6" width="91.3" height="14.7"/>
				<rect x="109.7" y="130.4" class="st6" width="123.5" height="14.7"/>
			</g>
		</g>
		<g>
			<g>
				<rect x="54.2" y="7.8" class="st7" width="164.7" height="14.7"/>
				<rect x="54.2" y="28.3" class="st7" width="155.7" height="14.7"/>
				<rect x="54.2" y="48.7" class="st7" width="134.2" height="14.7"/>
				<rect x="54.2" y="69.1" class="st7" width="123.5" height="14.7"/>
				<rect x="54.2" y="89.5" class="st7" width="102" height="14.7"/>
				<rect x="54.2" y="110" class="st7" width="87.7" height="14.7"/>
				<rect x="54.2" y="130.4" class="st7" width="55.5" height="14.7"/>
			</g>
		</g>
	</g>
	<g>
		<g>
		</g>
		<g>
		</g>
	</g>
</g>
<g>
	<path d="M134.5,11.9v0.6h-1.9v1.6l0,0c0.1-0.2,0.5-0.4,0.9-0.4c0.8,0,1.2,0.6,1.2,1.9c0,0.9-0.1,1.9-1.5,1.9
		c-1.2,0-1.4-0.6-1.4-1.4h0.7c0,0.4,0.2,0.8,0.7,0.8c0.7,0,0.7-0.7,0.7-1.2c0-0.8,0-1.4-0.7-1.4c-0.4,0-0.6,0.3-0.7,0.6h-0.7v-3.1
		H134.5z"/>
	<path d="M138.2,14.7c0,1.4,0,2.9-1.5,2.9c-0.8,0-1.4-0.6-1.4-1.4h0.7c0,0.4,0.2,0.8,0.6,0.8c0.7,0,0.8-0.8,0.8-2.2h0
		c-0.2,0.4-0.5,0.5-1,0.5c-0.4,0-1.3-0.2-1.3-1.8c0-1.2,0.7-1.7,1.5-1.7C138.2,11.8,138.2,13.2,138.2,14.7z M135.9,13.5
		c0,0.6,0.1,1.2,0.7,1.2s0.7-0.6,0.7-1.2c0-0.5-0.1-1.2-0.7-1.2S135.9,13,135.9,13.5z"/>
	<path d="M140.6,14.5c0.8,0.1,1,0.7,1,1.4c0,1-0.5,1.6-1.5,1.6s-1.5-0.6-1.5-1.6c0-0.7,0.2-1.4,1-1.4v0c-0.7-0.1-1-0.7-1-1.3
		c0-0.9,0.6-1.4,1.4-1.4c0.9,0,1.4,0.5,1.4,1.4C141.6,13.8,141.2,14.4,140.6,14.5L140.6,14.5z M140.9,16c0-0.5-0.1-1.1-0.7-1.1
		s-0.7,0.6-0.7,1.1c0,0.5,0.2,1,0.7,1S140.9,16.4,140.9,16z M140.8,13.2c0-0.4-0.2-0.8-0.7-0.8s-0.7,0.4-0.7,0.8c0,0.4,0.1,1,0.7,1
		S140.8,13.6,140.8,13.2z"/>
</g>
<g>
	<path d="M225.7,11.9v0.6h-1.9v1.6l0,0c0.1-0.2,0.5-0.4,0.9-0.4c0.8,0,1.2,0.6,1.2,1.9c0,0.9-0.1,1.9-1.5,1.9
		c-1.2,0-1.4-0.6-1.4-1.4h0.7c0,0.4,0.2,0.8,0.7,0.8c0.7,0,0.7-0.7,0.7-1.2c0-0.8,0-1.4-0.7-1.4c-0.4,0-0.6,0.3-0.7,0.6h-0.7v-3.1
		H225.7z"/>
	<path d="M226.5,17.4v-0.6c1.6-2.3,2.1-2.7,2.1-3.6c0-0.4-0.2-0.7-0.7-0.7c-0.6,0-0.7,0.5-0.6,0.9h-0.8c-0.1-0.9,0.4-1.5,1.3-1.5
		c1,0,1.5,0.5,1.5,1.5c0,1.2-0.6,1.7-2.1,3.5h2.2v0.6H226.5z"/>
</g>
<g>
	<path d="M127,37.9v-0.6c1.6-2.3,2.1-2.7,2.1-3.6c0-0.4-0.2-0.7-0.7-0.7c-0.6,0-0.7,0.5-0.6,0.9H127c-0.1-0.9,0.4-1.5,1.3-1.5
		c1,0,1.5,0.5,1.5,1.5c0,1.2-0.6,1.7-2.1,3.5h2.2v0.6H127z"/>
	<path d="M133.2,32.4V33h-1.9v1.6l0,0c0.1-0.2,0.5-0.4,0.9-0.4c0.8,0,1.2,0.6,1.2,1.9c0,0.9-0.1,1.9-1.5,1.9c-1.2,0-1.4-0.6-1.4-1.4
		h0.7c0,0.4,0.2,0.8,0.7,0.8c0.7,0,0.7-0.7,0.7-1.2c0-0.8,0-1.4-0.7-1.4c-0.4,0-0.6,0.3-0.7,0.6h-0.7v-3.1H133.2z"/>
	<path d="M135.8,35c0.8,0.1,1,0.7,1,1.4c0,1-0.5,1.6-1.5,1.6s-1.5-0.6-1.5-1.6c0-0.7,0.2-1.4,1-1.4v0c-0.7-0.1-1-0.7-1-1.3
		c0-0.9,0.6-1.4,1.4-1.4c0.9,0,1.4,0.5,1.4,1.4C136.8,34.3,136.5,34.9,135.8,35L135.8,35z M136.1,36.5c0-0.5-0.1-1.1-0.7-1.1
		s-0.7,0.6-0.7,1.1c0,0.5,0.2,1,0.7,1S136.1,36.9,136.1,36.5z M136.1,33.7c0-0.4-0.2-0.8-0.7-0.8s-0.7,0.4-0.7,0.8
		c0,0.4,0.1,1,0.7,1S136.1,34.1,136.1,33.7z"/>
</g>
<g>
	<path d="M219.3,34.7c0.7,0.1,1.1-0.2,1.1-0.9c0-0.5-0.2-0.9-0.8-0.9c-0.6,0-0.7,0.5-0.7,0.9h-0.7c-0.1-0.9,0.4-1.5,1.4-1.5
		c0.9,0,1.5,0.5,1.5,1.4c0,1-0.8,1.2-1.1,1.3v0c0.9,0.1,1.2,0.6,1.2,1.4c0,1.1-0.6,1.6-1.6,1.6c-1.6,0-1.4-1.3-1.4-1.6h0.7
		c0,0.6,0.1,1,0.8,1c0.6,0,0.8-0.4,0.8-1c0-0.9-0.3-1.1-1.2-1.1V34.7z"/>
	<path d="M224.6,35.2c0,1.4,0,2.9-1.5,2.9c-0.8,0-1.4-0.6-1.4-1.4h0.7c0,0.4,0.2,0.8,0.6,0.8c0.7,0,0.8-0.8,0.8-2.2h0
		c-0.2,0.4-0.5,0.5-1,0.5c-0.4,0-1.3-0.2-1.3-1.8c0-1.2,0.7-1.7,1.5-1.7C224.7,32.3,224.6,33.7,224.6,35.2z M222.4,34
		c0,0.6,0.1,1.2,0.7,1.2s0.7-0.6,0.7-1.2c0-0.5-0.1-1.2-0.7-1.2S222.4,33.5,222.4,34z"/>
</g>
<g>
	<path d="M116.5,55.7c0-1.5,0-2.9,1.5-2.9c0.8,0,1.4,0.5,1.4,1.4h-0.7c0-0.4-0.2-0.8-0.6-0.8c-0.6,0-0.8,0.5-0.8,2h0
		c0.2-0.3,0.5-0.5,0.9-0.5c0.7,0,1.3,0.4,1.3,1.9c0,1-0.4,1.9-1.5,1.9C116.5,58.6,116.5,57.1,116.5,55.7z M118,57.9
		c0.6,0,0.7-0.7,0.7-1.4c0-0.5-0.1-1.1-0.8-1.1c-0.6,0-0.7,0.7-0.7,1.2C117.3,57.2,117.3,57.9,118,57.9z"/>
	<path d="M123,55.7c0,1.4,0,2.9-1.5,2.9s-1.5-1.4-1.5-2.9c0-1.5,0-2.9,1.5-2.9S123,54.2,123,55.7z M120.7,55.8
		c0,0.9-0.1,2.1,0.8,2.1s0.8-1.2,0.8-2.1c0-1.5,0-2.4-0.8-2.4S120.7,54.3,120.7,55.8z"/>
	<path d="M125.5,58.4h-0.7v-4.7l-0.8,0.6v-0.7c0.2-0.1,0.7-0.5,0.9-0.7h0.6V58.4z"/>
</g>
<g>
	<path d="M206.1,58.4v-0.6c1.6-2.3,2.1-2.7,2.1-3.6c0-0.4-0.2-0.7-0.7-0.7c-0.6,0-0.7,0.5-0.6,0.9h-0.8c-0.1-0.9,0.4-1.5,1.3-1.5
		c1,0,1.5,0.5,1.5,1.5c0,1.2-0.6,1.7-2.1,3.5h2.2v0.6H206.1z"/>
	<path d="M212.5,55.7c0,1.4,0,2.9-1.5,2.9s-1.5-1.4-1.5-2.9c0-1.5,0-2.9,1.5-2.9S212.5,54.2,212.5,55.7z M210.2,55.8
		c0,0.9-0.1,2.1,0.8,2.1s0.8-1.2,0.8-2.1c0-1.5,0-2.4-0.8-2.4S210.2,54.3,210.2,55.8z"/>
	<path d="M215.9,55.7c0,1.4,0,2.9-1.5,2.9s-1.5-1.4-1.5-2.9c0-1.5,0-2.9,1.5-2.9S215.9,54.2,215.9,55.7z M213.7,55.8
		c0,0.9-0.1,2.1,0.8,2.1s0.8-1.2,0.8-2.1c0-1.5,0-2.4-0.8-2.4S213.7,54.3,213.7,55.8z"/>
</g>
<g>
	<path d="M113.1,78.9h-0.7v-4.7l-0.8,0.6v-0.7c0.2-0.1,0.7-0.5,0.9-0.7h0.6V78.9z"/>
	<path d="M117.5,76.2c0,1.4,0,2.9-1.5,2.9c-0.8,0-1.4-0.6-1.4-1.4h0.7c0,0.4,0.2,0.8,0.6,0.8c0.7,0,0.8-0.8,0.8-2.2h0
		c-0.2,0.4-0.5,0.5-1,0.5c-0.4,0-1.3-0.2-1.3-1.8c0-1.2,0.7-1.7,1.5-1.7C117.5,73.3,117.5,74.7,117.5,76.2z M115.2,75
		c0,0.6,0.1,1.2,0.7,1.2s0.7-0.6,0.7-1.2c0-0.5-0.1-1.2-0.7-1.2S115.2,74.5,115.2,75z"/>
	<path d="M119.9,76c0.8,0.1,1,0.7,1,1.4c0,1-0.5,1.6-1.5,1.6c-1,0-1.5-0.6-1.5-1.6c0-0.7,0.2-1.4,1-1.4v0c-0.7-0.1-1-0.7-1-1.3
		c0-0.9,0.6-1.4,1.4-1.4c0.9,0,1.4,0.5,1.4,1.4C120.9,75.3,120.6,75.9,119.9,76L119.9,76z M120.2,77.5c0-0.5-0.1-1.1-0.7-1.1
		c-0.7,0-0.7,0.6-0.7,1.1c0,0.5,0.2,1,0.7,1S120.2,77.9,120.2,77.5z M120.2,74.7c0-0.4-0.2-0.8-0.7-0.8s-0.7,0.4-0.7,0.8
		c0,0.4,0.1,1,0.7,1S120.2,75.1,120.2,74.7z"/>
</g>
<g>
	<path d="M204.3,76c0.8,0.1,1,0.7,1,1.4c0,1-0.5,1.6-1.5,1.6s-1.5-0.6-1.5-1.6c0-0.7,0.2-1.4,1-1.4v0c-0.7-0.1-1-0.7-1-1.3
		c0-0.9,0.6-1.4,1.4-1.4c0.9,0,1.4,0.5,1.4,1.4C205.3,75.3,205,75.9,204.3,76L204.3,76z M204.6,77.5c0-0.5-0.1-1.1-0.7-1.1
		s-0.7,0.6-0.7,1.1c0,0.5,0.2,1,0.7,1S204.6,77.9,204.6,77.5z M204.5,74.7c0-0.4-0.2-0.8-0.7-0.8s-0.7,0.4-0.7,0.8
		c0,0.4,0.1,1,0.7,1S204.5,75.1,204.5,74.7z"/>
	<path d="M208.8,76.2c0,1.4,0,2.9-1.5,2.9c-0.8,0-1.4-0.6-1.4-1.4h0.7c0,0.4,0.2,0.8,0.6,0.8c0.7,0,0.8-0.8,0.8-2.2h0
		c-0.2,0.4-0.5,0.5-1,0.5c-0.4,0-1.3-0.2-1.3-1.8c0-1.2,0.7-1.7,1.5-1.7C208.8,73.3,208.8,74.7,208.8,76.2z M206.6,75
		c0,0.6,0.1,1.2,0.7,1.2s0.7-0.6,0.7-1.2c0-0.5-0.1-1.2-0.7-1.2S206.6,74.5,206.6,75z"/>
</g>
<g>
	<path d="M100.3,99.4v-0.6c1.6-2.3,2.1-2.7,2.1-3.6c0-0.4-0.2-0.7-0.7-0.7c-0.6,0-0.7,0.5-0.6,0.9h-0.8c-0.1-0.9,0.4-1.5,1.3-1.5
		c1,0,1.5,0.5,1.5,1.5c0,1.2-0.6,1.7-2.1,3.5h2.2v0.6H100.3z"/>
	<path d="M103.6,98.1v-0.6l1.6-3.6h1v3.6h0.7v0.6h-0.7v1.4h-0.7v-1.4H103.6z M105.4,97.5v-2.9h0l-1.2,2.9H105.4z"/>
	<path d="M107.2,96.7c0-1.5,0-2.9,1.5-2.9c0.8,0,1.4,0.5,1.4,1.4h-0.7c0-0.4-0.2-0.8-0.6-0.8c-0.6,0-0.8,0.5-0.8,2h0
		c0.2-0.3,0.5-0.5,0.9-0.5c0.7,0,1.3,0.4,1.3,1.9c0,1-0.4,1.9-1.5,1.9C107.1,99.6,107.2,98.1,107.2,96.7z M108.7,99
		c0.6,0,0.7-0.7,0.7-1.4c0-0.5-0.1-1.1-0.8-1.1c-0.6,0-0.7,0.7-0.7,1.2C107.9,98.2,108,99,108.7,99z"/>
</g>
<g>
	<path d="M191.7,99.4H191v-4.7l-0.8,0.6v-0.7c0.2-0.1,0.7-0.5,0.9-0.7h0.6V99.4z"/>
	<path d="M195.1,96.5c0.8,0.1,1,0.7,1,1.4c0,1-0.5,1.6-1.5,1.6s-1.5-0.6-1.5-1.6c0-0.7,0.2-1.4,1-1.4v0c-0.7-0.1-1-0.7-1-1.3
		c0-0.9,0.6-1.4,1.4-1.4c0.9,0,1.4,0.5,1.4,1.4C196.1,95.8,195.8,96.4,195.1,96.5L195.1,96.5z M195.4,98c0-0.5-0.1-1.1-0.7-1.1
		s-0.7,0.6-0.7,1.1c0,0.5,0.2,1,0.7,1S195.4,98.4,195.4,98z M195.4,95.2c0-0.4-0.2-0.8-0.7-0.8s-0.7,0.4-0.7,0.8c0,0.4,0.1,1,0.7,1
		S195.4,95.6,195.4,95.2z"/>
	<path d="M196.7,96.7c0-1.5,0-2.9,1.5-2.9c0.8,0,1.4,0.5,1.4,1.4h-0.7c0-0.4-0.2-0.8-0.6-0.8c-0.6,0-0.8,0.5-0.8,2h0
		c0.2-0.3,0.5-0.5,0.9-0.5c0.7,0,1.3,0.4,1.3,1.9c0,1-0.4,1.9-1.5,1.9C196.6,99.6,196.7,98.1,196.7,96.7z M198.2,99
		c0.6,0,0.7-0.7,0.7-1.4c0-0.5-0.1-1.1-0.8-1.1c-0.6,0-0.7,0.7-0.7,1.2C197.4,98.2,197.5,99,198.2,99z"/>
</g>
<g>
	<path d="M95.1,119.9h-0.7v-4.7l-0.8,0.6v-0.7c0.2-0.1,0.7-0.5,0.9-0.7h0.6V119.9z"/>
	<path d="M96.5,114.4h2.9v0.6l-1.5,4.9h-0.8l1.6-4.9h-2.1V114.4z"/>
	<path d="M103.1,117.2c0,1.4,0,2.9-1.5,2.9s-1.5-1.4-1.5-2.9c0-1.5,0-2.9,1.5-2.9S103.1,115.7,103.1,117.2z M100.8,117.3
		c0,0.9-0.1,2.1,0.8,2.1s0.8-1.2,0.8-2.1c0-1.5,0-2.4-0.8-2.4S100.8,115.8,100.8,117.3z"/>
</g>
<g>
	<path d="M184.6,119.9h-0.7v-4.7l-0.8,0.6v-0.7c0.2-0.1,0.7-0.5,0.9-0.7h0.6V119.9z"/>
	<path d="M186,114.4h2.9v0.6l-1.5,4.9h-0.8l1.6-4.9H186V114.4z"/>
	<path d="M189.5,117.2c0-1.5,0-2.9,1.5-2.9c0.8,0,1.4,0.5,1.4,1.4h-0.7c0-0.4-0.2-0.8-0.6-0.8c-0.6,0-0.8,0.5-0.8,2h0
		c0.2-0.3,0.5-0.5,0.9-0.5c0.7,0,1.3,0.4,1.3,1.9c0,1-0.4,1.9-1.5,1.9C189.5,120.1,189.5,118.6,189.5,117.2z M191,119.5
		c0.6,0,0.7-0.7,0.7-1.4c0-0.5-0.1-1.1-0.8-1.1c-0.6,0-0.7,0.7-0.7,1.2C190.2,118.7,190.3,119.5,191,119.5z"/>
</g>
<g>
	<path d="M76.2,137.5c0.8,0.1,1,0.7,1,1.4c0,1-0.5,1.6-1.5,1.6s-1.5-0.6-1.5-1.6c0-0.7,0.2-1.4,1-1.4v0c-0.7-0.1-1-0.7-1-1.3
		c0-0.9,0.6-1.4,1.4-1.4c0.9,0,1.4,0.5,1.4,1.4C77.2,136.8,76.9,137.4,76.2,137.5L76.2,137.5z M76.5,139c0-0.5-0.1-1.1-0.7-1.1
		S75,138.5,75,139c0,0.5,0.2,1,0.7,1S76.5,139.4,76.5,139z M76.5,136.2c0-0.4-0.2-0.8-0.7-0.8s-0.7,0.4-0.7,0.8c0,0.4,0.1,1,0.7,1
		S76.5,136.6,76.5,136.2z"/>
	<path d="M78.2,139.6H79l-0.7,1.8h-0.5L78.2,139.6z"/>
	<path d="M79.4,139.1v-0.6l1.6-3.6h1v3.6h0.7v0.6h-0.7v1.4h-0.7v-1.4H79.4z M81.2,138.5v-2.9h0l-1.2,2.9H81.2z"/>
	<path d="M84.9,137.5c0.8,0.1,1,0.7,1,1.4c0,1-0.5,1.6-1.5,1.6c-1,0-1.5-0.6-1.5-1.6c0-0.7,0.2-1.4,1-1.4v0c-0.7-0.1-1-0.7-1-1.3
		c0-0.9,0.6-1.4,1.4-1.4c0.9,0,1.4,0.5,1.4,1.4C85.8,136.8,85.5,137.4,84.9,137.5L84.9,137.5z M85.2,139c0-0.5-0.1-1.1-0.7-1.1
		c-0.7,0-0.7,0.6-0.7,1.1c0,0.5,0.2,1,0.7,1S85.2,139.4,85.2,139z M85.1,136.2c0-0.4-0.2-0.8-0.7-0.8s-0.7,0.4-0.7,0.8
		c0,0.4,0.1,1,0.7,1S85.1,136.6,85.1,136.2z"/>
	<path d="M88.3,137.5c0.8,0.1,1,0.7,1,1.4c0,1-0.5,1.6-1.5,1.6s-1.5-0.6-1.5-1.6c0-0.7,0.2-1.4,1-1.4v0c-0.7-0.1-1-0.7-1-1.3
		c0-0.9,0.6-1.4,1.4-1.4c0.9,0,1.4,0.5,1.4,1.4C89.3,136.8,89,137.4,88.3,137.5L88.3,137.5z M88.6,139c0-0.5-0.1-1.1-0.7-1.1
		s-0.7,0.6-0.7,1.1c0,0.5,0.2,1,0.7,1S88.6,139.4,88.6,139z M88.6,136.2c0-0.4-0.2-0.8-0.7-0.8s-0.7,0.4-0.7,0.8c0,0.4,0.1,1,0.7,1
		S88.6,136.6,88.6,136.2z"/>
</g>
<g>
	<path d="M163.9,140.4h-0.7v-4.7l-0.8,0.6v-0.7c0.2-0.1,0.7-0.5,0.9-0.7h0.6V140.4z"/>
	<path d="M167.3,137.5c0.8,0.1,1,0.7,1,1.4c0,1-0.5,1.6-1.5,1.6c-1,0-1.5-0.6-1.5-1.6c0-0.7,0.2-1.4,1-1.4v0c-0.7-0.1-1-0.7-1-1.3
		c0-0.9,0.6-1.4,1.4-1.4c0.9,0,1.4,0.5,1.4,1.4C168.3,136.8,168,137.4,167.3,137.5L167.3,137.5z M167.6,139c0-0.5-0.1-1.1-0.7-1.1
		c-0.7,0-0.7,0.6-0.7,1.1c0,0.5,0.2,1,0.7,1S167.6,139.4,167.6,139z M167.5,136.2c0-0.4-0.2-0.8-0.7-0.8s-0.7,0.4-0.7,0.8
		c0,0.4,0.1,1,0.7,1S167.5,136.6,167.5,136.2z"/>
	<path d="M169.2,139.6h0.8l-0.7,1.8h-0.5L169.2,139.6z"/>
	<path d="M172.5,137.5c0.8,0.1,1,0.7,1,1.4c0,1-0.5,1.6-1.5,1.6s-1.5-0.6-1.5-1.6c0-0.7,0.2-1.4,1-1.4v0c-0.7-0.1-1-0.7-1-1.3
		c0-0.9,0.6-1.4,1.4-1.4c0.9,0,1.4,0.5,1.4,1.4C173.4,136.8,173.1,137.4,172.5,137.5L172.5,137.5z M172.8,139c0-0.5-0.1-1.1-0.7-1.1
		s-0.7,0.6-0.7,1.1c0,0.5,0.2,1,0.7,1S172.8,139.4,172.8,139z M172.7,136.2c0-0.4-0.2-0.8-0.7-0.8s-0.7,0.4-0.7,0.8
		c0,0.4,0.1,1,0.7,1S172.7,136.6,172.7,136.2z"/>
	<path d="M177,137.7c0,1.4,0,2.9-1.5,2.9c-0.8,0-1.4-0.6-1.4-1.4h0.7c0,0.4,0.2,0.8,0.6,0.8c0.7,0,0.8-0.8,0.8-2.2h0
		c-0.2,0.4-0.5,0.5-1,0.5c-0.4,0-1.3-0.2-1.3-1.8c0-1.2,0.7-1.7,1.5-1.7C177,134.8,177,136.2,177,137.7z M174.7,136.5
		c0,0.6,0.1,1.2,0.7,1.2s0.7-0.6,0.7-1.2c0-0.5-0.1-1.2-0.7-1.2S174.7,136,174.7,136.5z"/>
	<path d="M177.5,140.4v-0.6c1.6-2.3,2.1-2.7,2.1-3.6c0-0.4-0.2-0.7-0.7-0.7c-0.6,0-0.7,0.5-0.6,0.9h-0.8c-0.1-0.9,0.4-1.5,1.3-1.5
		c1,0,1.5,0.5,1.5,1.5c0,1.2-0.6,1.7-2.1,3.5h2.2v0.6H177.5z"/>
</g>
</svg>
