<svg id="svg7197" xmlns="http://www.w3.org/2000/svg" viewBox="0 0 294.5 223.6"><style>.st0{fill:#006358;stroke:#fff;stroke-width:1.1565}</style><g id="layer1" transform="translate(-349.157 -349.783)"><path id="SC_Pickens" class="st0" d="M380.7 371.1l11.1-1.3 2.6 3.2 4.2 9.2.6 1.7.5 2.5-.3.4-18.7 17.1-5.8-15.8-3.9-9.7 1-3.7 1-1.6 7.7-2"/><path id="SC_Oconee" class="st0" d="M373.1 373.1l-1 1.6-1 3.7 3.9 9.7 5.8 15.8-7.5 11.6-3.7-.5-3.6-2.5-15-9.2-1.2-1.9 1-5.5 3.9-7.1 5.4-4.2 1.3-5.8 5.6-2.7 6.1-3"/><path id="SC_Beaufort" class="st0" d="M521 524l23.5 12.1 3.5 5.1.3.6.2.9-.1 1.1-.7 3.7-.6.6-15 15.6-3.5 2.8-3.6 2.7-1.5-1.2-7.3-5.8-1-1.5-.5-1.6.1-.4.8-3.2 3.2-2.8 3.2-3.4 1.7-2.2.4-2v-4.7l-2.3-8.6-.3-.7-1.1-1.6-1.6-2 2.2-3.5"/><path id="SC_Hampton" class="st0" d="M521 524l-2.1 3.5-1.5 3.1-1.1-.3-1.8-.7-.5-1.4.2-1-.2-1-2.2-2.1-2.5-1.6-1.2 1.1-13.3 15.9-6.3-2.5-2.6-10.6 1.1-.6 2.6-1.8 2.5-4.3.5-3.4.2-2.7 1-2.9.8-1.1.7-.6 6.7-5.9 19 20.9"/><path id="SC_Jasper" class="st0" d="M518.9 527.6l1.6 2 1.1 1.6.3.7 2.3 8.6v4.7l-.4 2-1.7 2.2-3.2 3.4-3.2 2.8-.8 3.2-.1.4.5 1.6 1 1.5 7.3 5.8 1.5 1.2v3.4l-11.3-2.1-3.4-1.3-.3-.3-.8-3.1-.6-2.9-.3-1.4-.8-3.8-6.4-13-5.4-4.5-1.2-.4 13.3-15.9 1.2-1.1 2.5 1.6 2.2 2.1.2 1-.2 1 .5 1.4 1.8.7 1.1.3 1.7-3.4"/><path id="SC_Marion" class="st0" d="M578.5 401.8l.7-1.6 3.3-3.4 3.1-1.4 1.8-.4 12.3-1.2 3.1 1.9-4.3 13.8-1.7 3-2.5 3.5-.2.5.3 2.2.2.8 6.1 9.1 3.2 4.4 2.3 2.7-8.4-4-.7-1.3-11.2-8.4-.6-.6-1-1.8-6.4-13.7-.3-.5v-.3l.9-3.3"/><path id="SC_Dillon" class="st0" d="M579.3 372.8l26.3 19.1-2.8 3.9-3.1-1.9-12.3 1.2-1.8.4-3.1 1.4-3.3 3.4-.7 1.6-5.9-4 6.7-25.1"/><path id="SC_Horry" class="st0" d="M602.8 395.7l2.8-3.9 29.3 20.9 7.7 5.5-2.5 1-4.8 2.9-2.3 1.7-3 2.9-.3.3-1.2 1.3-.6.6-.9 1.2-1.2 1.6-.4.5-3.6 5.5-2.1 4.1-.8 1.5-12.8-7.6-2.3-2.7-3.2-4.4-6.1-9.1-.2-.8-.3-2.2.2-.5 2.5-3.5 1.7-3 4.4-13.8"/><path id="SC_Charleston" class="st0" d="M597.2 473.7l10.5 5.8-2.8 8.1-2.6.7-4.7 1-6.4 6.7-4.3 6.3-8.9 10.1-10.3 11.3-.6.3-.5.3-2 1.1-4.6 3.3-2.4 2.3-.5-.4-3.7 1.6-.7.8.7.6.1.2-.1.5-.5.1-1.1-.3-2.6-3.6-3.6-7.9-2.2-3.9 1.3-6.4-.2-3.5 7.1-.3 7.9.7.6-.1 2.3-5.3.6-3.2-5.3-6.1 7.2 3.6 6.2 2.6 2 5.5.9.4.6-.2.5-.4 6.4-10.6 1.6-5.2 3.5-7.5 8.6-7.9 2-1.1"/><path id="SC_Dorchester" class="st0" d="M542.2 479.8l1 .7 3.8 4.3-.6 1.5-.6.7 2 1.3 9.9 6.3 5.3 6.1-.6 3.2-2.3 5.3-.6.1-7.9-.7-7.1.3-1.3-12.7-.3-.7-.7-.5h-.2l-7.3.6-4.1.9-1.9-.3-.3-.2-11-6.5 15.3-13.8.3.3.3.4.1.6v.8l.2.5.7 1.1.7.4 3.1.7 4.1-.7"/><path id="SC_Berkeley" class="st0" d="M554.8 460l1.1-.9.4-.1 4.8-.6 1.7.2 4.4 2.6 2 1.5.9 1.3.4.4 6.3 3.4 5.5 1.8 14.8 4.2-2.1 1.1-8.6 7.9-3.5 7.5-1.6 5.2-6.4 10.6-.5.4-.6.2-.9-.4-2-5.5-6.2-2.6-7.2-3.6-9.9-6.3-2-1.3.6-.7.6-1.5-3.8-4.3-1-.7 6.1-14.8 6.7-5"/><path id="SC_Georgetown" class="st0" d="M597.7 431.7l8.4 4 12.8 7.6-3.7 7.2-.2.5-.4 1.1-.1.3v.2l-1.2 4.3-.2.7-.2 1-.1.2-.2 3.8-.1 2-.1 3.3v.1l.2.9v.2l.9 2.2-.5 2.5-.4.6-2.5 3.5-2.5 1.5-10.5-5.8-14.8-4.2-.4-1v-1.3l3.8-8.5 6.8-12.5.7-6.9.8-2 2.4-5 .3-.3 1-.2"/><path id="SC_Clarendon" class="st0" d="M556.8 426.5l6.6 3.4-8.6 30.1-6.5 5-5.9 1.9-1.7.3-.8-.1-1.9-.6-2.4-1.6-1.9-1.8-3.1-3.7-3.3-5.7 6.6-10.3 11.1-7.1 11.8-9.8"/><path id="SC_Williamsburg" class="st0" d="M597 430.4l.7 1.3-.9.3-.3.3-2.4 5-.8 2-.7 6.9-6.8 12.5-3.8 8.5v1.3l.4 1-5.5-1.8-6.3-3.4-.4-.4-.9-1.3-2-1.5-4.4-2.6-1.7-.2-4.8.6-.4.1-1.1.9 8.6-30.1 5.2 2.8 4.6.8 14 .3 3.1-1.1.5-.8 2.8-2.2.4-.2 1.2.1 1.7.9"/><path id="SC_Florence" class="st0" d="M571 397.5l1.5.3 5.9 4-.9 3.3v.3l.3.5 6.4 13.7 1 1.8.6.6 11.2 8.4-1.7-.8-1.2-.1-.4.2-2.8 2.2-.5.8-3.1 1.1-14-.3-4.6-.8-5.2-2.8-6.6-3.4-2.8-7-4.7-2 12-12.9 5.6-5.5 4-1.6"/><path id="SC_Marlboro" class="st0" d="M549.1 364.3l14-2.3 15.4 10.2.8.6-6.7 25-1.5-.3v-.3l-1.8-4.5-.9-1.8-2.2-.9h-.4l-.2.1-.2-.1-7.1-5.4-.1-.2-.2-1.2.1-.4-9-18.5"/><path id="SC_Darlington" class="st0" d="M558.2 383l-.1.4.2 1.2.1.2 7.1 5.4.2.1.2-.1h.4l2.2.9.9 1.8 1.8 4.5v.3L567 399l-5.6 5.5-12 12.9-.2.1-4.9-3.4-.9-1.2 1.6-2.2.3-3.1-2.4-3.9-2.5-2.5-2-.6-5.1-1v-.2L546 388l12.2-5"/><path id="SC_Lee" class="st0" d="M533.3 399.6l5.1 1 2 .6 2.5 2.5 2.4 3.9-.3 3.1-1.6 2.2.9 1.2 4.9 3.4.2-.1 4.7 2-1.1 3.1-7.5 5.1-.9.5-19.2-8.5-1-4.2.8-.9 1.4-3.8-.3-2.2-.2-.9 1.7-2.3 5.5-5.7"/><path id="SC_Kershaw" class="st0" d="M523.3 382.8l10 16.7v.2l-5.5 5.8-1.7 2.3.2.9.3 2.2-1.4 3.8-.8.9-7.2 6.3-5.7 3.2-10.2-6.7 1.6-6.6-5.3-13.1 7-7.2h.3l.2 2.3 1.9.6 4 .1 6.7-2.5-2-3.8 7.6-5.4"/><path id="SC_Sumter" class="st0" d="M524.4 415.5l1 4.2 19.2 8.5.9-.5 7.5-5.1 1.1-3.1 2.8 7-11.7 9.9-11.1 7.1-6.6 10.3-6.3-6.3-3.9-25.7 7.1-6.3"/><path id="SC_Calhoun" class="st0" d="M496.4 441.3l3.1 1.9 9.2 3.9 4.7.2 7.7.1 6.3 6.3 3.3 5.7-.7 1.6-6.1 5.8-1.9.5-20-8.2-5.5-5.2 4.8-3 1.6-1.6-.8-.6-1.6-.7-3.1.3-.9 1.4-1.5-.6-.1-6.1.1-.9 1.4-.8"/><path id="SC_Colleton" class="st0" d="M517.6 489.5l11 6.5.3.2 1.9.3 4.1-.9 7.3-.6h.2l.7.5.3.7 1.3 12.7.2 3.5-1.3 6.4 2.2 3.9 3.6 7.9 2.6 3.6 1.1.3.5-.1.1-.5-.1-.2-.7-.6.7-.8 3.7-1.6.5.4-4.4 4.5h-.4l-5-.1-3.4.8L521 524l-19-20.7 15.3-13.5.3-.3"/><path id="SC_Allendale" class="st0" d="M502 503.4l-6.7 5.9-.7.6-.8 1.1-1 2.9-.2 2.7-.5 3.4-2.5 4.3-2.6 1.8-1.1.6-11.5-20.3-5-2.7 3.7-5.4 5.6.9 5.6 1.1 4.8-.8 5.3-1.6 7.6 5.5"/><path id="SC_Bamberg" class="st0" d="M517.2 489.8L502 503.4l-7.6-5.6-2.1-2.4-.3-1-1.8-14.8-.5-2.6-.7-2 7.1 3.1 6.5 2.2 1.9.7 6.1 3.2 6.6 5.6"/><path id="SC_Orangeburg" class="st0" d="M496.6 454l5.5 5.2 20 8.2 1.9-.5 6.1-5.8.7-1.6 3.1 3.7 1.9 1.8 2.4 1.6 1.9.6.8.1 1.7-.3 5.9-1.9-6.1 14.8-3.9.6-3.1-.7-.7-.4-.7-1.1-.2-.5v-.8l-.1-.6-.3-.4-.3-.3-15.3 13.8-.4.4-6.7-5.7-6.1-3.2-1.9-.7-6.5-2.2-7.1-3.1-9.5-2.2 9.2-13.4 7.8-5.4"/><path id="SC_Barnwell" class="st0" d="M488.9 475l.7 2 .5 2.6 1.8 14.8.3 1 2.1 2.4-5.3 1.6-4.8.8-5.6-1.1-5.6-.9-3.7 5.4-10.1-4.7 20.2-26.1 9.5 2.2"/><path id="SC_Aiken" class="st0" d="M463.4 446.7l.3.4 2.5 2.5 8.1 6.1 1.4.2h2.1l1.3.2 3.7 1 5.8 2.3-9.2 13.4-20.2 26.1-5.6-4.3-3.9-5.6-1.4-5.5-4-4.7-2.8-2.7-.5-.5 18.4-23.7 4-5.2"/><path id="SC_Lexington" class="st0" d="M473.6 421.5l7 5.9h1.7l2.2.2 2.2 1.3 5.4 3.9 1 1 2.2 3.4.2.4.8 3.6-1.4.9-.1.9.1 6.1 1.5.6.9-1.4 3.1-.3 1.6.7.8.6-1.6 1.6-4.8 3-7.9 5.3-5.8-2.3-3.7-1-1.3-.2h-2.1l-1.4-.2-8.1-6.1-2.5-2.5-.3-.4 3.7-15.2 6.6-9.8"/><path id="SC_Richland" class="st0" d="M502.9 411.6l-1.6 6.6 10.2 6.7 5.7-3.2 3.9 25.7-7.7-.1-4.7-.2-9.2-3.9-3.1-1.9-.8-3.6-.2-.4-2.2-3.4-1-1-5.4-3.9-2.2-1.3-2.2-.2h-1.7l-7-5.9.8-3.2 2 .1 9.6-.2 9.2-4.1 7.6-2.6"/><path id="SC_Fairfield" class="st0" d="M496.7 392.4l.9 6.2 5.3 13.1-7.8 2.5-9.2 4.1-9.6.2-2-.1-9.1-17.4-.8-5.6 10.2-1 13.6-1.1 8.5-.9"/><path id="SC_Newberry" class="st0" d="M465.3 400.9l9.1 17.4-.8 3.2-6.5 9.9-1.8.5-2.6-.6-1.7-.6-3.9-2.2-4.5-1.9-1.5-.4-6.7 1.7-1.6 1.8.2 1.1-5.1-4.2 1.5-3.5 4.7-8 1.6-1.6 3.6-7 2.7-6.3 7.7 4.5 2.1-2.8.9-.4 1.7-.5h.8l.1-.1"/><path id="SC_Saluda" class="st0" d="M442.9 430.8l-.2-1.1 1.6-1.8 6.7-1.7 1.5.4 4.5 1.9 3.9 2.2 1.7.6 2.6.6 1.8-.5-3.7 15.2-4.1 5.2-11.5-2.1-1.5-.9-.8-.7-2.3-5.8-2.2.2-4.3 1.7 6.3-13.4"/><path id="SC_Edgefield" class="st0" d="M436.6 444.5l4.3-1.7 2.2-.2 2.3 5.8.8.7 1.5.9 11.5 2.1-18.4 23.7-1-.9-5.9-2.5-5.2-9.1-.6-15 6.2-2.7 2.3-1.1"/><path id="SC_McCormick" class="st0" d="M434.4 445.5l-6.2 2.7.6 15 5.2 9.1-6.9-6.1-2.4-4.5-3.7-3.1-1.6-1.1-5.2-2.6h-.3l-.8.3-.4-.1-9-5.3-2.5-3.8 3.3-4.9 2.5-.8 2.2 1h.7l3.8-.4 2.9-.9 2.9 5.8 4.6-1.2 3.7-.6 6.3-.7.3 2.2"/><path id="SC_Greenwood" class="st0" d="M417.8 414.3l1.1 1.1 5.1 3.7 8.7 4.5 5.1 2.9 5.1 4.2-6.3 13.7-2.2 1-.2-2.2-6.3.7-3.7.6-4.6 1.2-2.9-5.8 1.9-2.2 1.1-1.5.8-2.1.3-2.1-.3-2.1-.8-2-1.3-1.7-.9-.8-1.2-.8-.8-.3-2.3-4.5 4.6-5.5"/><path id="SC_Laurens" class="st0" d="M438.9 397.6l13 2.5-2.7 6.3-3.6 7-1.6 1.6-4.7 8-1.5 3.5-5.1-2.9-8.7-4.5-5.1-3.7-1.1-1.1-4.8-4.8 4-4.4-.7-3.7 1.8-8.4 1.5-6.7 19.3 11.3"/><path id="SC_Abbeville" class="st0" d="M413.1 409.5l4.8 4.8-4.5 5.6 2.3 4.5.8.3 1.2.8.9.8 1.3 1.7.8 2 .3 2.1-.3 2.1-.8 2.1-1.1 1.5-1.9 2.2-2.9.9-3.8.4h-.7l-2.2-1-2.5.8-3.3 4.9-10.5-13 22.1-23.5"/><path id="SC_Anderson" class="st0" d="M380.8 403.9l18.7-17.1 2.7 10.8.2.6 1 2.3 2.6 4.3 7.1 4.7-22.3 23.5-2.2-5.8-6.3-8.8-2-3v-.2l-.6-.5-1.2-.4-2.1.3-2.4.6h-.1l-.7.3 7.6-11.6"/><path id="SC_Union" class="st0" d="M443.8 373.4l4.1.5 7.9.4 1.1.3.7.4 1.9 1.4-1 1.5 6 17.5.8 5.6-.1-.1h-.8l-1.7.5-.9.4-2.1 2.8-7.7-4.5-13-2.5.9-7.9.6-10.2 1.9-3.6 1.4-2.5"/><path id="SC_Chesterfield" class="st0" d="M526.1 367.6l23-3.3 9.1 18.8-12.1 5-12.7 11.5-10-16.7-11.4-13.2 14.1-2.1"/><path id="SC_Lancaster" class="st0" d="M488.9 354.2l4.7 4.8 4.2 4.2.4 7.4v.7l1.2.2 12.6-1.9 11.3 13.1-7.7 5.3 2 3.8-6.7 2.5-4-.1-1.9-.6-.2-2.3h-.3l-7 7.2-.9-6.2-2.2-6.4.1-2.5.8-3-1.3-3.6-1.3-3.2-.6-1-3.2-18.4"/><path id="SC_Chester" class="st0" d="M492.3 372.6l.6 1 1.3 3.2 1.3 3.6-.8 3-.1 2.5 2.2 6.4-8.4.9-13.6 1.1-10.2 1-6-17.5 33.7-5.2"/><path id="SC_York" class="st0" d="M463.4 351.9l16.7-1.5 8.8 3.9 3.4 18.4-33.9 5.3 1-1.5-1.1-2-1.9-5-.9-6.4v-.4l3.9-8.1 1.7-2.4 2.3-.3"/><path id="SC_Cherokee" class="st0" d="M437.6 354.6l23.5-2.5-1.7 2.4-3.9 8.1v.4l.9 6.4 1.9 5 1.1 2-1.9-1.4-.7-.4-1.1-.3-7.9-.4-4.1-.5-3-1.6-3.2-6.5-6.3-10 6.4-.7"/><path id="SC_Spartanburg" class="st0" d="M425.8 355.8l5.6-.6 6.3 10 3.2 6.5 3 1.6-1.5 2.5-1.9 3.6-.6 10.2-.9 7.9-19.2-11.2-5.2-4.1-.2-.6-1.3-11.3-1.7-13 14.4-1.5"/><path id="SC_Greenville" class="st0" d="M403.1 357.7l8.2-.4 1.7 13 1.3 11.3.2.6 5.2 4.1-1.5 6.7-1.8 8.4.7 3.7-4 4.4-7.1-4.7-2.6-4.3-1-2.3-.2-.6-2.7-10.8.3-.4-.5-2.5-.6-1.7-4.2-9.2-2.6-3.2-11.1 1.3 10.4-7.1 11.9-6.3"/></g></svg>