<?xml version="1.0" encoding="utf-8"?>
<!-- Generator: Adobe Illustrator 21.1.0, SVG Export Plug-In . SVG Version: 6.00 Build 0)  -->
<svg version="1.1" xmlns="http://www.w3.org/2000/svg" xmlns:xlink="http://www.w3.org/1999/xlink" x="0px" y="0px"
	 viewBox="0 0 80.2 125" style="enable-background:new 0 0 80.2 125;" xml:space="preserve">
<g id="marker">
	<path style="fill:#FFFFFF;stroke:#000000;stroke-miterlimit:10;" d="M40.3,1.2C18.9,1.2,1.6,18.8,1.6,40.7c0,5.7,1.2,10.9,3.2,15.9
		l33.4,65.8c0.9,1.8,3.3,1.8,4.2,0l33.4-65.8c2.1-4.8,3.2-10.2,3.2-15.9C79,18.8,61.7,1.2,40.3,1.2z"/>
</g>
<g id="heron">
	<g transform="translate(0,-988.3621)">
		<g transform="matrix(3.7795274,0,0,3.7795274,347.18761,-575.72028)">
			<g transform="translate(-3.2246371,-20.867086)">
				<g>
					<path d="M-80.8,437.5c-0.1,0-0.2,0-0.2,0.1l-2,3.4c-0.1,0.2,0,0.4,0.2,0.4h0.5l-1.8,3.1c-0.1,0.2,0,0.4,0.2,0.4h0.5l-1.8,3.1
						c-0.1,0.2,0,0.4,0.2,0.4h8.1c0.2,0,0.3-0.2,0.2-0.4l-1.8-3.1h0.5c0.2,0,0.3-0.2,0.2-0.4l-1.8-3.1h0.5c0.2,0,0.3-0.2,0.2-0.4
						l-2-3.4C-80.7,437.6-80.7,437.5-80.8,437.5z M-74.8,439c-0.1,0-0.2,0-0.2,0.1l-1.8,3c-0.1,0.2,0,0.4,0.2,0.4h0.5l-1.6,2.7
						c-0.1,0.2,0,0.4,0.2,0.4h0.5l-0.2,0.4l1,1.7l0,0c0.1,0.3,0.1,0.6,0,0.8c0,0.1-0.1,0.1-0.1,0.2h0.9h1.4h2.9
						c0.2,0,0.3-0.2,0.2-0.4l-1.6-2.8h0.5c0.2,0,0.3-0.2,0.2-0.4l-1.6-2.7h0.5c0.2,0,0.3-0.2,0.2-0.4l-1.8-3
						C-74.6,439-74.7,439-74.8,439z M-81.5,448.7v2.8h1.4v-2.8H-81.5z M-75.4,449.1v2.4h1.4v-2.4H-75.4z"/>
				</g>
			</g>
		</g>
	</g>
</g>
</svg>
