<?xml version="1.0" encoding="utf-8"?>
<!-- Generator: Adobe Illustrator 19.1.0, SVG Export Plug-In . SVG Version: 6.00 Build 0)  -->
<svg version="1.1" id="Layer_1" xmlns="http://www.w3.org/2000/svg" xmlns:xlink="http://www.w3.org/1999/xlink" x="0px" y="0px"
	 viewBox="-1670.5 1239 84.6 85" style="enable-background:new -1670.5 1239 84.6 85;" xml:space="preserve">
<path d="M-1621.4,1308.2c0-5.8,2.5-11,6.5-14.6c-1.4-0.5-2.7-0.9-3.7-1.1c-1.4-0.3-2.4-1.6-2.4-3c0-0.9,0.6-2.1,1.4-2.7
	c3.1-2,10.3-8.2,10.3-26.1c-0.1-9.4-6.1-21.7-20.7-21.7c-14.9,0-20.6,12.3-20.6,21.7c0,17.8,7.3,24.1,10.3,26.1
	c0.9,0.6,1.3,1.9,1.4,2.7c0.2,1.4-1,2.7-2.4,3c-7.5,1.6-29.2,11.6-29.2,23.4c0,7.1,20.7,8.1,40.4,8.1c5.5,0,11-0.1,16.2-0.3
	C-1618.5,1320-1621.4,1314.4-1621.4,1308.2z"/>
<path d="M-1601.7,1292.4c-8.7,0-15.8,7.1-15.8,15.8c0,8.7,7.1,15.8,15.8,15.8c8.7,0,15.8-7.1,15.8-15.8
	C-1585.9,1299.5-1592.9,1292.4-1601.7,1292.4z M-1595.6,1310h-3.9v3.9c0,1.1-0.9,2-2,2s-2-0.9-2-2v-3.9h-3.9c-1.1,0-2-0.9-2-2
	s0.9-2,2-2h3.9v-3.9c0-1.1,0.9-2,2-2s2,0.9,2,2v3.9h3.9c1.1,0,2,0.9,2,2S-1594.5,1310-1595.6,1310z"/>
</svg>
