<?xml version="1.0" encoding="utf-8"?>
<!-- Generator: Adobe Illustrator 19.1.0, SVG Export Plug-In . SVG Version: 6.00 Build 0)  -->
<svg version="1.1" id="Layer_1" xmlns="http://www.w3.org/2000/svg" xmlns:xlink="http://www.w3.org/1999/xlink" x="0px" y="0px"
	 viewBox="-1671.9 1265.7 90.1 49.1" style="enable-background:new -1671.9 1265.7 90.1 49.1;" xml:space="preserve">
<path d="M-1602.7,1309.6h20.9c0-10-7.8-19.1-17.5-19.1c-4.1,0-7.9,1.5-10.9,4.1C-1606.2,1298.3-1603.5,1303.6-1602.7,1309.6z"/>
<circle cx="-1599.3" cy="1280.2" r="9.3"/>
<path d="M-1643.4,1294.7c-3-2.7-6.8-4.4-11-4.4c-9.6,0-17.5,9.2-17.5,19.2h20.9C-1650.2,1303.6-1647.4,1298.5-1643.4,1294.7z"/>
<circle cx="-1654.4" cy="1280.2" r="9.3"/>
<circle cx="-1626.8" cy="1277.3" r="11.7"/>
<path d="M-1648.9,1314.8c0-13.4,9.9-24.3,22-24.3s22,10.9,22,24.3H-1648.9z"/>
</svg>
