<?xml version="1.0" encoding="utf-8"?>
<!-- Generator: Adobe Illustrator 19.1.0, SVG Export Plug-In . SVG Version: 6.00 Build 0)  -->
<svg version="1.1" id="Layer_1" xmlns="http://www.w3.org/2000/svg" xmlns:xlink="http://www.w3.org/1999/xlink" x="0px" y="0px"
	 viewBox="-1670.4 1244 88.3 78.5" style="enable-background:new -1670.4 1244 88.3 78.5;" xml:space="preserve">
<path d="M-1582.3,1316.7l-40-69.8c-1.1-1.4-2.5-2.9-3.9-2.9c-1.4,0-2.8,1.4-3.9,2.9l-40.1,70c-0.4,1.5-0.3,3.9,3.3,5.7c0,0,0,0,0,0
	h81.3C-1581.9,1320.7-1581.9,1318.2-1582.3,1316.7z M-1621.5,1313.9c-1.1,1-2.8,1.4-4.8,1.4c-2.1,0-3.7-0.5-4.9-1.4
	c-1.2-1-1.8-2.3-1.8-4c0-1.7,0.6-3.1,1.7-4c1.1-1,2.8-1.4,5-1.4c2.1,0,3.8,0.5,4.9,1.4c1.1,1,1.7,2.3,1.7,4
	C-1619.7,1311.6-1620.3,1312.9-1621.5,1313.9z M-1621,1300.1h-10.4l-1.8-29.4c0-2.3,3.1-4.2,7-4.2c3.9,0,7,1.9,7,4.2L-1621,1300.1z"
	/>
</svg>
