<?xml version="1.0" encoding="utf-8"?>
<!-- Generator: Adobe Illustrator 19.1.0, SVG Export Plug-In . SVG Version: 6.00 Build 0)  -->
<svg version="1.1" id="Layer_1" xmlns="http://www.w3.org/2000/svg" xmlns:xlink="http://www.w3.org/1999/xlink" x="0px" y="0px"
	 viewBox="0 0 148.5 75.2" style="enable-background:new 0 0 148.5 75.2;" xml:space="preserve">
<style type="text/css">
	.st0{fill:#003976;}
	.st1{fill:#FFFFFF;}
</style>
<g>
	<path class="st0" d="M11.4,2c0,0,2.9-2.2,5.3-2c1,0.1,3,0.2,4.2,1.1c2.8,2.1,6.2,2,9.2,2.2l117.8,0c0,0,1.4,0.2-0.1,1.1
		c-0.8,0.5-6.7,4.2-10.1,4.6c-4.2,0.6-4.1,1.9-4.7,2.7c-1,1.3-5.5,4.1-9,4.1c0,0-2.5,2.1-0.6,1.8c0,0,1.9,0.1,3-0.4
		c1.2-0.5,0.9,0.1,0.9,0.1s-1.2,1,9.7,0.8c0,0,1,0.1-2.1,1.6c-1.6,0.7-3.5,1.8-5.6,1.4c-1.2-0.3-2-0.8-5.4-0.3
		c-1.9,0.3-1.6,0.6-3.7-0.7c0,0-1.9,2.4-8.4,5.8c0,0-1.1,0.3-0.4,1.4c0,0,18.6,29.5,17.7,44.4c0,0,0,5.2-4.3,2.8
		c0,0-6.9-7.1-9.9-9.3c-3-2.2-6.2-5.6-6.7-6c-0.6-0.4-7.3-6.2-8.2-7.6c-0.9-1.5-4.8-3.9-11.4-18.1c0,0,0.6-1.9-2.2-0.9
		c0,0-0.9,6.3-2.4,7.3c0,0,8.8,14.9,2.6,28.9c0,0-3.3,6.5-5.1,3.5c0,0-0.5-0.1-2.7-3.9c-1.9-3.2-2.9-5.7-5.6-9.8
		c-2.6-3.9-3.3-6.9-6.3-12c-3.8-6.4-4.1-16-3.5-23.7c0,0,0.7-1.3-1.3-2.8C60,18.7,51.3,10.1,51.3,10.1s-1.9-0.9-3.5-0.9
		C46,9.2,36,9.3,36,9.3s-7.3,0.5-9.9,2c-2.2,1.2-6.7,4.1-11.9,2.4c-4.9-1.6-4.3-2.6-8.4-3C3,10.4,0.2,10.8,0,8.6
		c0,0,0.2-1.7,4.1-2.4C4.1,6.2,8.8,5.7,11.4,2z"/>
	<g>
		<path class="st1" d="M61.3,15c0,0,4.7-3.1,7.4-6.4c0,0,0.5-0.5,0.8,0c0.4,0.5,5,3.5,13.2,5.6c0,0,0.7-0.1,0.5,0.6
			c0,0-0.3,3,0.9,7.1c1.2,4.1,1.8,6.3,1.8,6.3s1.1,1.3-0.7,1.3c-1.8,0-3-0.1-6-1.2c-3-1.1-2-0.2-6.5-3.2c-4.6-3-6.7-4.8-7.8-5.5
			c-1.1-0.7-3.8-3.4-3.7-3.6C61.3,15.7,60.5,15.2,61.3,15z"/>
		<path class="st1" d="M127.1,5.6l3.1-0.1c0,0-2.5,4.3-6.4,7.3c0,0-0.5,0.5,0.9,0.1c1.4-0.4,4.8-1.4,4.9-1.6
			c0.1-0.2-2.2,2.8-7.4,2.8c0,0-0.8,1.7-1.5,1.6c-0.7-0.1-0.6-0.5-1.3-1.6c-0.7-1.1-1.3-0.4-1.8-0.7h-2.1c0,0-1.1,0.3-0.9,1.1
			c0.2,0.8,0.5,1.3,0.5,1.3s0,0.9,0.9,0.7c0.9-0.2,2-0.1,2.1,0.4c0.1,0.5,0.6,0.4,0,1.4c-0.7,1.1-4.6,5.9-6.7,5.3
			c0,0,3.1-5.9,0.7-11.9l1.7-1.7c0,0,0.7-0.8,1.6-0.1C116.4,10.7,120.3,11.2,127.1,5.6z"/>
		<path class="st1" d="M21.6,6.5c0,0,0.9-1.2,0.9,0c0,1.2,0.6,3.4-1.1,4.2c-1.7,0.8-3,1.9-5.7,0.9c0,0-1.4-0.1,0-0.8
			C17.2,10.1,19.5,9.2,21.6,6.5z"/>
	</g>
</g>
</svg>
