<?xml version="1.0" encoding="utf-8"?>
<!-- Generator: Adobe Illustrator 21.0.2, SVG Export Plug-In . SVG Version: 6.00 Build 0)  -->
<svg version="1.1" id="Layer_1" xmlns="http://www.w3.org/2000/svg" xmlns:xlink="http://www.w3.org/1999/xlink" x="0px" y="0px"
	 viewBox="0 0 40.1 75" style="enable-background:new 0 0 40.1 75;" xml:space="preserve">
<path d="M40,3.6c-0.1-0.6-0.5-1-1-1.2C35.7,1.2,31.4,0,26.7,0c-3.6,0-7.5,0.7-11.1,2.8l0,0c-1.8,1.1-3.2,2.4-4.3,3.9
	c-1.6,2.2-2.5,4.8-3,7.5c-0.4,2.1-0.5,4.3-0.6,6.4c-0.9,0-2,0-3,0c-0.8,0-1.6,0-2.2,0c-0.3,0-0.5,0-0.7,0c-0.2,0-0.2,0-0.2,0
	c-0.4,0-0.8,0.2-1.1,0.5C0.2,21.3,0,21.7,0,22.2l0.1,10.6c0,0.9,0.7,1.7,1.6,1.7c0,0,0.4,0,1.1,0c1.6,0,4.5-0.1,6.7,0
	c0.3,7.3,0.4,18.1,0.4,26.6c0,3.6,0,6.7,0,8.9c0,1.1,0,2,0,2.6c0,0.6,0,0.9,0,0.9c0,0.4,0.2,0.8,0.5,1.1c0.3,0.3,0.7,0.5,1.1,0.5
	l14.1-0.1c0.4,0,0.8-0.2,1.1-0.5c0.3-0.3,0.5-0.7,0.5-1.1c0,0-0.1-8.7-0.2-18.1c-0.1-8.1-0.2-16.6-0.2-20.6c0.9,0,1.9,0,2.9,0
	c1.2,0,2.3,0,3.1,0c0.4,0,0.8,0,1,0c0.2,0,0.4,0,0.4,0c0.4,0,0.8-0.2,1.1-0.5s0.5-0.7,0.5-1.1l0-9.8c0-0.4-0.2-1-0.5-1.3
	c-0.3-0.3-0.7-0.6-1.1-0.6c0,0-0.2,0-0.5,0s-0.8,0.1-1.4,0.1c-1.8,0-4.5,0.1-6.6,0c0-1.1,0.1-2,0.3-2.8c0.2-0.8,0.4-1.4,0.6-2
	c0.2-0.4,0.4-0.7,0.6-1c0.3-0.4,0.7-0.7,1.2-0.9c0.5-0.2,1.1-0.3,1.8-0.3c1.4,0,3.2,0.4,5.5,1.3c0,0,0,0,0.1,0c0,0,0,0,0.1,0
	c0,0,0.1,0,0.1,0c0.1,0,0.1,0,0.2,0c0.1,0,0.1,0,0.2,0c0.1,0,0.1,0,0.2,0c0.1,0,0.1,0,0.2,0c0.1,0,0.1,0,0.2,0c0,0,0.1,0,0.1,0
	c0,0,0.1,0,0.1-0.1c0,0,0.1,0,0.1-0.1c0,0,0.1-0.1,0.1-0.1c0,0,0.1-0.1,0.1-0.1c0,0,0.1-0.1,0.1-0.1c0,0,0.1-0.1,0.1-0.1
	c0,0,0.1-0.1,0.1-0.1c0,0,0-0.1,0.1-0.1c0,0,0-0.1,0-0.1c0,0,0,0,0-0.1c0,0,0,0,0,0c0.3-1.1,0.9-2.8,1.3-4.7
	c0.2-0.9,0.5-1.9,0.6-2.8c0.2-0.9,0.3-1.8,0.3-2.6C40.1,4.3,40,4,40,3.6z"/>
</svg>
