<?xml version="1.0" encoding="utf-8"?>
<!-- Generator: Adobe Illustrator 21.0.2, SVG Export Plug-In . SVG Version: 6.00 Build 0)  -->
<svg version="1.1"
	 id="svg2" xmlns:cc="http://creativecommons.org/ns#" xmlns:dc="http://purl.org/dc/elements/1.1/" xmlns:rdf="http://www.w3.org/1999/02/22-rdf-syntax-ns#"
	 xmlns="http://www.w3.org/2000/svg" xmlns:xlink="http://www.w3.org/1999/xlink" x="0px" y="0px" viewBox="0 0 235 235"
	 style="enable-background:new 0 0 235 235;" xml:space="preserve">
<style type="text/css">
	.st0{fill:#ECECEB;}
	.st1{fill:url(#path1950_1_);}
	.st2{fill:#0059D4;}
	.st3{fill:#DA1593;}
</style>
<g id="layer1" transform="translate(-373.64 -318.34)">
	<path id="rect1942" class="st0" d="M573.2,318.3h-164c-19.6,0-35.5,15.9-35.5,35.5v164c0,19.6,15.9,35.5,35.5,35.5h164
		c19.6,0,35.5-15.9,35.5-35.5v-164C608.7,334.2,592.8,318.3,573.2,318.3z"/>
	
		<linearGradient id="path1950_1_" gradientUnits="userSpaceOnUse" x1="-508.4938" y1="124.2692" x2="-560.1938" y2="-26.4208" gradientTransform="matrix(-0.5915 0 0 -0.5915 132.6144 357.3056)">
		<stop  offset="0" style="stop-color:#FFFFFF"/>
		<stop  offset="1" style="stop-color:#FFFFFF;stop-opacity:0"/>
	</linearGradient>
	<path id="path1950" class="st1" d="M546.6,328.4H435.7c-29.3,0-53,23.8-53,53.4v108.1c1,23.1,4.6,8.5,11.6-17.1
		c8.1-29.7,34.4-55.7,66.4-75.1c24.5-14.9,51.8-24.3,101.7-25.2C590.7,371.9,588.2,335.8,546.6,328.4z"/>
	<path id="path4776" class="st2" d="M478.9,432.4c0,22.3-16.6,40.4-37.1,40.4c-20.5,0-37.1-18.1-37.1-40.4
		c0-22.3,16.6-40.4,37.1-40.4C462.2,392,478.9,410.1,478.9,432.4z"/>
	<path id="path4778" class="st3" d="M573.9,431.9c0,22-17.1,39.8-38.2,39.8c-21.1,0-38.2-17.8-38.2-39.8c0-22,17.1-39.8,38.2-39.8
		C556.7,392,573.9,409.9,573.9,431.9z"/>
</g>
</svg>
