<svg xmlns="http://www.w3.org/2000/svg" viewBox="183.9 388.3 458.6 432.1"><path fill="#FFF" d="M416.1 814.6c-1.3 0-2.5 0-3.4-.2-.7.2-1.5.2-2.3.2-26.7 0-44.5-12.6-60.4-23.7-11.3-8-21.9-15.6-34.4-17.7-6.1-1.1-12.3-1.5-18-1.5-10.6 0-19 1.6-25 2.8-3.8.7-7 1.3-9.5 1.3-2.6 0-5.9-.7-7.2-5.1-1.1-3.6-1.8-7-2.5-10.3-1.8-8.3-3.3-13.4-6.4-13.9-33.4-5.1-53.4-12.8-57.3-21.9-.3-1-.7-2-.7-2.8-.2-2.8 1.8-5.1 4.6-5.6 26.5-4.4 50.3-18.5 70.4-41.7 15.6-18 23.2-35.4 23.9-37.3 0-.2.2-.2.2-.2 3.8-7.9 4.6-14.6 2.3-20.1-4.3-10.3-18.5-14.7-28.2-17.7-2.5-.7-4.6-1.5-6.4-2.1-8.3-3.3-22.1-10.3-20.3-20 1.3-7 10.6-12 18.2-12 2.1 0 3.9.3 5.4 1.1 8.5 3.9 16.2 5.9 22.8 5.9 8.2 0 12.1-3.1 13.1-4.1-.2-4.4-.5-9-.8-13.3-2-30.6-4.3-68.6 5.4-90.4 29.1-65.2 90.9-70.4 109.2-70.4.5 0 8-.2 8-.2h1.1c18.3 0 80.1 5.1 109.2 70.4 9.8 21.8 7.4 59.9 5.4 90.4l-.2 1.5c-.2 4.1-.5 8-.7 12 1 .8 4.6 3.8 12 3.9 6.4-.2 13.4-2.3 21.4-5.9 2.5-1.1 5.1-1.5 7-1.5 2.8 0 5.6.7 8 1.5h.2c6.7 2.5 11.1 7.2 11.1 12.1.2 4.6-3.4 11.6-20.5 18.5-1.8.7-3.9 1.5-6.4 2.1-9.5 2.9-23.7 7.5-28.2 17.7-2.5 5.4-1.5 12.3 2.3 20.1 0 .2.2.2.2.2 1.1 2.8 30 68.4 94.3 79.1 2.8.5 4.6 2.8 4.6 5.6 0 1-.2 2-.7 2.9-3.9 9.2-23.7 16.7-57.3 21.9-3.1.5-4.6 5.6-6.4 13.9-.7 3.4-1.5 6.7-2.5 10.3-1 3.3-3.1 5.1-6.7 5.1h-.5c-2.3 0-5.4-.3-9.5-1.1-7.2-1.5-15.1-2.6-25-2.6-5.9 0-12 .5-18 1.5-12.4 2-23.1 9.7-34.4 17.7-16.1 11-34 23.6-60.5 23.6"/><path fill="#020202" d="M417.6 399c17.2 0 76.5 4.6 104.5 67.3 9.2 20.6 6.7 58 5.1 87.9-.2 4.7-.7 9.3-.8 13.8l-.2 2 1.3 1.5c.5.7 5.2 5.6 15.9 5.9h.4c7-.2 15.1-2.5 23.6-6.4 1.3-.7 2.9-.8 4.7-.8 2 0 4.1.3 5.9 1.1l.2.2c4.6 1.5 7.7 4.6 7.7 7.2 0 1.5-1.1 7-17.2 13.3-1.5.7-3.6 1.3-5.9 2-10.3 3.3-26 8.3-31.4 20.6-2.9 7-2.1 15.4 2.5 24.6 2 4.4 31.6 71.2 98.2 82.2 0 .3-.2.7-.2 1.1-1.1 2.6-8.3 12-53 18.8-7 1.1-8.7 9-10.6 18-.7 3.3-1.5 6.5-2.5 10-.3 1.1-.3 1.1-1.5 1.1h-.5c-2 0-5.1-.3-8.5-1.1-6.4-1.1-15.1-2.8-26.2-2.8-6.2 0-12.6.7-19 1.6-13.8 2.3-24.9 10.2-36.7 18.5-15.9 10.8-32.3 22.4-57.3 22.4-1.1 0-2.1 0-3.3-.2h-.4c-.7 0-1.1.2-2 .2-25 0-41.4-11.6-57.3-22.8-11.8-8.3-22.9-16.2-36.7-18.5-6.4-1.1-12.9-1.6-19-1.6-11.1 0-19.8 1.6-26.2 2.9-3.4.7-6.5 1.3-8.5 1.3-1.6 0-1.6-.2-2-1.3-1-3.4-1.8-6.7-2.5-10-2-9.2-3.8-17-10.6-18-44.7-6.9-52.1-16.2-53-18.8-.2-.5-.2-.8-.2-1.1 66.8-11 96.4-77.8 98.2-82.2 4.6-9.3 5.4-17.7 2.5-24.6-5.2-12.4-21-17.5-31.4-20.6-2.5-.7-4.4-1.5-5.9-2-13.4-5.4-17.7-10.6-17-13.9.7-3.8 7.2-7.7 12.9-7.7 1.3 0 2.5.2 3.3.7 9.2 4.3 17.7 6.5 25 6.5 11.6 0 16.7-5.4 17.4-6.1l1.3-1.5-.2-2c-.2-4.4-.5-9-.8-13.8-2-30-4.3-67.3 5.1-87.9 27.8-62.4 86.8-67.1 104.1-67.1.5 0 8-.2 8-.2 0 .3.3.3.7.3m0-10.7h-1.1c-2.8 0-7.5.2-7.9.2-10.3 0-30.6 1.5-52.6 11.1-12.4 5.4-23.7 12.9-33.4 22.3-11.6 11-21 24.6-28 40.3-10.3 22.9-7.9 61.7-5.9 93 .2 3.3.5 6.7.7 10.3-1.5.7-3.9 1.5-7.5 1.5-5.9 0-12.6-2-20.5-5.4-2.3-1.1-4.9-1.5-7.7-1.5-4.6 0-9.5 1.3-13.8 3.8-5.4 3.1-8.8 7.5-9.8 12.4-.7 3.3-.7 9.7 6.5 16.2 3.9 3.6 9.7 6.9 17.2 9.8 2 .7 4.3 1.5 6.7 2.3 8.5 2.8 21.4 6.7 24.7 14.6 1.6 4.1 1 9.3-2.1 15.6-.2.2-.2.3-.2.5-.8 1.8-8 18.5-23.1 36-8.5 9.8-18 18.2-27.8 24.7-12.1 7.9-25.4 12.9-39.1 15.4-5.4.8-9.3 5.7-9 11.1.2 1.5.5 3.3 1.1 4.6 2.1 5.1 7.2 9.5 15.6 13.3 10.2 4.6 25.2 8.7 44.9 11.8 1 2 2 6.7 2.8 9.8.7 3.4 1.5 7 2.6 10.8 1.1 4.1 4.3 9 12.3 9 2.9 0 6.5-.7 10.6-1.5 5.9-1.1 14.1-2.8 24.1-2.8 5.6 0 11.5.5 17.2 1.5 11.3 2 21 8.7 32.1 16.7 16.4 11.6 35 24.7 63.4 24.7.8 0 1.5 0 2.3-.2 1 0 2.1.2 3.3.2 28.5 0 47-13.1 63.4-24.7 11.1-8 21-14.7 32.1-16.7 5.9-1 11.6-1.5 17.2-1.5 9.7 0 17.2 1.1 24.1 2.6 4.4.8 7.9 1.3 10.6 1.3h.4c5.9 0 10.2-3.3 11.8-8.8 1.1-3.8 2-7.2 2.6-10.6.7-3.1 1.8-8 2.8-9.8 19.8-3.1 34.7-7 44.9-11.6 8.2-3.8 13.3-8.2 15.6-13.3.7-1.5 1.1-3.1 1.1-4.7.3-5.4-3.6-10.3-9-11.1-61.4-10.2-89.1-73.2-90.2-76-.2-.2-.2-.3-.2-.5-3.1-6.4-3.8-11.6-2.1-15.6 3.3-7.9 16.2-12 24.7-14.6 2.5-.8 4.7-1.5 6.7-2.3 8.3-3.3 14.4-6.9 18.3-11 4.7-4.9 5.6-9.5 5.6-12.6-.2-7.4-5.9-13.9-14.7-17.2-2.9-1.3-6.4-2-10-2-2.5 0-5.9.3-9.3 2-7.2 3.3-13.6 5.2-19.2 5.4-2.9-.2-5.1-.8-6.4-1.5.2-2.8.3-5.9.7-9l.2-1.3c2-31.1 4.4-69.9-5.9-93-7-15.9-16.5-29.5-28.2-40.3-9.8-9.2-21.1-16.7-33.6-22.3-21.9-10.1-42.3-11.4-52.6-11.4"/></svg>