<?xml version="1.0" encoding="utf-8"?>
<!-- Generator: Adobe Illustrator 19.1.0, SVG Export Plug-In . SVG Version: 6.00 Build 0)  -->
<svg version="1.1" id="Layer_1" xmlns="http://www.w3.org/2000/svg" xmlns:xlink="http://www.w3.org/1999/xlink" x="0px" y="0px"
	 viewBox="-1295 964 360 468" style="enable-background:new -1295 964 360 468;" xml:space="preserve">
<path d="M-1048.3,964H-1295v468h360v-354.7L-1048.3,964z M-1043,994.7l77.3,77.3h-77.3V994.7z M-1277,1414V982h216v108h108v324
	H-1277z"/>
<path d="M-1218.1,1349.7C-1218.1,1349.7-1218.1,1349.7-1218.1,1349.7c-3.7,0-7.3-1.2-10.3-3.5c-11.1-8.4-12.6-17.6-11.9-24
	c1.9-17.4,23.5-35.6,64-54.2c16.1-35.2,31.4-78.7,40.5-114.9c-10.7-23.2-21-53.4-13.5-71c2.6-6.2,7.3-10.5,13.5-12.6
	c2.4-0.8,4.8-1.2,7.1-1.2c5.4,0,10.2,2.4,13.6,6.6c3.2,4,12.7,16.1-1.6,76.3c14.4,29.8,34.8,60.1,54.4,80.8
	c14-2.5,26.1-3.8,35.9-3.8c16.7,0,26.9,3.9,31,11.9c3.4,6.7,2,14.4-4.2,23.1c-6,8.3-14.2,12.7-23.7,12.7c-13,0-28.1-8.2-45-24.4
	c-30.3,6.3-65.8,17.7-94.4,30.2c-8.9,19-17.5,34.2-25.5,45.4C-1199.3,1342.5-1208.7,1349.7-1218.1,1349.7z M-1189.6,1294.9
	c-22.9,12.8-32.2,23.4-32.8,29.3c-0.1,1-0.4,3.6,4.6,7.4C-1216.2,1331.1-1206.9,1326.9-1189.6,1294.9z M-1045.5,1247.6
	c8.7,6.7,16.4,10.4,22.1,10.4c2.5,0,5.8-0.6,9.1-5.2c1.6-2.2,2.2-3.7,2.5-4.4c-1.3-0.7-5.2-2.1-14.7-2.1
	C-1031.9,1246.2-1038.3,1246.7-1045.5,1247.6z M-1123.7,1177c-7.7,26.5-17.7,55-28.6,80.9c22.3-8.7,46.6-16.2,69.5-21.6
	C-1097.2,1219.5-1111.7,1198.6-1123.7,1177z M-1129.1,1086.3c-0.2,0-0.6,0.1-1,0.3c-1,0.3-1.9,0.9-2.6,2.6
	c-2.8,6.4-0.6,18.7,3.6,31.8C-1125.6,1098.3-1127.5,1088.7-1129.1,1086.3z"/>
</svg>
