<svg xmlns="http://www.w3.org/2000/svg" xmlns:xlink="http://www.w3.org/1999/xlink" viewBox="0 0 1269.4 1269.4"><defs><ellipse id="a" transform="rotate(-45.001 634.715 634.73)" cx="634.7" cy="634.7" rx="634.7" ry="634.7"/></defs><clipPath id="b"><use xlink:href="#a" overflow="visible"/></clipPath><path clip-path="url(#b)" fill="#CCEBF6" d="M-349.2-33.4h1814.1v913.8H-349.2z"/><path clip-path="url(#b)" fill="#81C241" d="M0 765.2l29.1-191.6 10 146.8 24-190.4 18 224.3 14-10.8 11-68.8V632l22 102.1V763l28-50.3 11-84.6 7-54.6 13.5 81.5-6.5 105.1 17 16.4 8.9-59.1 4.1-28.9s7 28.7 7 31.7c0 2.9 11.6 76.3 11.6 76.3l13.7-109.3-2.5-89.9 4.9-31.2 15.3 59 7 73.8v54.4l-4.2 30.4 20.3-27.5 12.4-63V642l9.7 86.1v45.2l-6.7 42.1 3.4 50.7-5.7 44.7L182.2 960l-110 38.8L0 765.2z"/><path clip-path="url(#b)" fill="#76A742" d="M28.9 831.5L58 639.9l10 146.8 24-190.4 18 224.3 14-10.8 11-68.8v-42.6l22 102.1v28.9l28-50.3 11-84.6 7-54.6 13.5 81.5-6.5 105.1 17 16.4 8.9-59.1L240 755s7 28.7 7 31.7c0 2.9 11.6 76.3 11.6 76.3l13.7-109.3-2.5-89.9 4.9-31.2 15.3 59 7 73.8v54.4l-4.2 30.4 20.3-27.5 12.4-63v-51.2l9.7 86.1v45.2l-6.7 42.1 3.4 50.7-5.7 44.7-115.2 49.3-110 38.8-72.1-233.9z"/><path clip-path="url(#b)" fill="#81C241" d="M968.6 728.3L998 536.7l9.8 146.8 24.3-190.3 17.6 224.3 14-10.8 11.1-68.7.1-42.6 21.8 102.1v28.9l28.1-50.3 11.1-84.6 7.1-54.6 13.3 81.6-6.6 105.1 17 16.5 9-59.1 4.2-28.9s7 28.7 6.9 31.7c0 2.9 11.5 76.4 11.5 76.4l13.8-109.3-2.4-89.9 4.9-31.1 15.2 59.1 6.9 73.8-.1 54.4-4.2 30.4 20.4-27.4 12.5-63 .1-51.2 9.6 86.2-.1 45.2-6.8 42.1 3.3 50.7-5.8 44.7-115.2 49-110.1 38.7-71.7-234.3z"/><path clip-path="url(#b)" fill="#76A742" d="M997.4 794.7l29.4-191.6 9.8 146.8 24.3-190.3 17.6 224.3 14-10.8 11.1-68.7.1-42.6 21.8 102.1v28.9l28.1-50.3 11.1-84.6 7.1-54.6 13.3 81.6-6.6 105.1 17 16.5 9-59.1 4.2-28.9s7 28.7 6.9 31.7c0 2.9 11.5 76.4 11.5 76.4l13.8-109.3-2.4-89.9 4.9-31.1 15.2 59.1 6.9 73.8-.1 54.4-4.2 30.4 20.4-27.4 12.5-63 .1-51.2 9.6 86.2-.1 45.2-6.8 42.1 3.3 50.7-5.8 44.7-115.2 49-110.1 38.7-71.7-234.3z"/><path clip-path="url(#b)" fill="#7D7D7D" d="M323.7 1081.6V887.1l-71.4-71.4H135.4l-84 84 66.1 181.9z"/><path clip-path="url(#b)" fill="#6D6E70" d="M318.7 1240.3l5-332.4s-83.4-8.8-92.1-3.3c-31.5-31.5-66.5-55.7-98-87.2l-82.3 82.3 65.8 181.1 201.6 159.5z"/><path clip-path="url(#b)" fill="#929497" d="M252.3 815.7H136.6l89.8 89.8c.3-.4 1-1.3 1.3-1.7-1.2-.8 2.1.8 3.9.8h92.1v-17.5l-71.4-71.4z"/><path clip-path="url(#b)" fill="#808184" d="M232.8 904.6c-29.2-29.2-64.1-52.5-93.3-81.7l-4.2-7.2-84 84 49.3 135.8c41.8-41.9 83.7-83.5 125-125.9.4-.5 1-.5 1.4-.4l4.8-5.1c.1-.3 1 .7 1 .5z"/><g clip-path="url(#b)"><path fill="#492917" d="M417.8 616.1s38.7 61.5 154.1 88.6c115.4 27.1 861.5 192.1 885.9 194.1 24.5 2 281.1 49.3 305.4 42.1 24.3-7.1 133 62.1 133.4 71.3.4 9.2 21.4 81.3 21.4 81.3s-76.3 4.9-38.1 13.9l38.2 9s11.4 106.9 11.2 116c-.2 9.1-16 56.5-16 56.5s-45.3 17.1-61.2 14.4c-15.8-2.8-26.6 9-26.6 9l71.8 12.6s-22.6 55.3-52.3 75.2c-29.7 19.9-68.6 49.6-68.6 49.6S651 1275.1 524.9 1255.3c-126.1-19.8-212.6-37.3-212.6-37.3s-94.5-132.9-91-152.8c3.5-19.9-20.3-99.4-13-114 7.3-14.7 71.2-110.7 80.5-150.1 9.3-39.4 50.8-155.3 61.5-176.3 10.8-20.9 45.2-33.3 67.5-8.7z"/><path fill="#C1803F" d="M341.7 1223.7c31.4-.3 61.7-7.1 75.9-35.3-5.6-1.9-1.7-10 3.9-8.1.5.2 1 .3 1.4.4 1.4-.2 3 .3 4.2 1.3 81.2 24.7 195.1 4.4 278.3 11.4-8.7-32-67.5-45.5-97.9-52.2-22-4.8-42.5-10.3-63.5-18.4-41.8-16.1-88.3-38-78.4-89.5 12.7-66.2 36.2-136.5 28.5-204.7-7.4-66-32.9-128.9-56.9-190.9-13.5-12.7-19.3-21.8-19.3-21.8-22.4-24.6-56.8-12.2-67.5 8.7-10.7 20.9-52.3 136.8-61.5 176.3-9.3 39.4-73.2 135.4-80.5 150.1-7.3 14.7 16.5 94.1 13 114-3.5 19.9 91 152.8 91 152.8s10.4 2.3 29.3 5.9z"/><path opacity=".3" d="M341.7 1223.7c31.4-.3 61.7-7.1 75.9-35.3-5.6-1.9-1.7-10 3.9-8.1.5.2 1 .3 1.4.4 1.4-.2 3 .3 4.2 1.3 81.2 24.7 195.1 4.4 278.3 11.4-8.7-32-67.5-45.5-97.9-52.2-22-4.8-42.5-10.3-63.5-18.4-41.8-16.1-88.3-38-78.4-89.5 12.7-66.2 36.2-136.5 28.5-204.7-7.4-66-32.9-128.9-56.9-190.9-13.5-12.7-19.3-21.8-19.3-21.8-22.4-24.6-56.8-12.2-67.5 8.7-10.7 20.9-52.3 136.8-61.5 176.3-9.3 39.4-73.2 135.4-80.5 150.1-7.3 14.7 16.5 94.1 13 114-3.5 19.9 91 152.8 91 152.8s10.4 2.3 29.3 5.9z"/><path fill="#C1803F" d="M512 1122.4c16.8 1.9 33.5 4.4 50.2 6.9-6.1-2-12.1-4-18.2-6.4-27.9-10.7-57.9-24.1-71.8-47.1-32.1 7.4-65.2 15.5-93.3 32.2 43.7 10.4 88.4 9.3 133.1 14.4z"/><path opacity=".3" fill="#8E542E" d="M1852.2 1303.2c15.8 2.8 61.2-14.4 61.2-14.4s15.8-47.4 16-56.5c.2-9.1-11.2-116-11.2-116l-38.2-9c-38.2-9 38.1-13.9 38.1-13.9s-21-72.1-21.4-81.3c-.4-9.2-109.1-78.4-133.4-71.3-24.3 7.1-280.9-40.1-305.4-42.1S687.4 731.7 572 704.6c-57.4-13.5-107.6-40.1-131.7-58.8 21.6 54.9 47.3 119.3 53.8 177.4 7.6 67.8-12 135.5-26.7 201.1-4.3 19.1 2.7 37.3 16.5 54 10.7 13 26.4 20.9 41.8 27.5 23.7 10.1 47.2 18.7 72.4 24.2 39 8.4 78.5 18.3 88.5 60.6 6.3.7-177.9 15.9-268.6-10.3-.9 30.9-41.9 40.1-64.9 44.6 37.3 6.8 109.6 20.5 171.7 30.3 126.1 19.8 1251.7 194.3 1251.7 194.3s38.8-29.7 68.6-49.6c29.7-19.9 52.3-75.2 52.3-75.2l-71.8-12.6c.1.1 10.8-11.7 26.6-8.9z"/><path opacity=".3" d="M558.6 754.7c20.4 8.4 50.1-6.2 72-2.5 22.6 3.8 74.7 38.1 97.5 40.5 39.4 4.1 94.8 46.3 133.5 54.5 39.9 8.4 41 47 79.5 60.5 42.4 14.9 27.2 19.6 65.5 43 9 5.5 19.6 11.2 26.9 19 7 7.5 10.7 16.4 21.5 19 9.5 2.2 22 .7 21.8-11.7-.1-9.6-5.3-16.7-10.8-24.1-26.5-36.2-47.2-75-56-119.3-2.2-11-6.4-28-7.7-39.6-189.2-41.7-374-82.8-428.2-90.7-89.7-13.1-139.5-70.2-172.1-89.6.5 7 33.5 20.4 53.8 72.6 17.3 44.4 43.7 22.9 47.4 48 5.7 2.3 49.5 18 55.4 20.4z"/><path opacity=".3" fill="#8E542E" d="M1918.1 1116.3l-38.2-9c-38.2-9 38.1-13.9 38.1-13.9s-21-72.1-21.4-81.3c-.4-9.2-109.1-78.4-133.4-71.3-12.9 3.8-91.7-7.8-166.2-19.8 17.5 21.9 35.2 43.6 52.5 65.6 31.4 39.8 58.4 82 93.4 118.9 29.6 31.2 50.2 63.8 67 103.4 12.5 29.5 26.3 64.9 22.4 98.1 4.7-2.7 11.5-5.3 19.8-3.8 15.8 2.8 61.2-14.4 61.2-14.4s15.8-47.4 16-56.5c.2-9.1-11.2-116-11.2-116zM1830.4 1318.5c-1 3.9-2.3 8-3.9 12h4.1c21.5.3 43 .3 64.4-.2 1.6-3.5 2.4-5.6 2.4-5.6l-66-11.6c-.2 1.9-.6 3.7-1 5.4z"/><path fill="#492917" d="M382.2 671.4s44.7 201.7 42 230.9c-2.8 29.2-23.7 135-23.7 135l68.7 15s-11 40.4 128.8 77.7c72.1 19.3 74.3 32.5 74.3 32.5l-303.6-37.3s-37.8 53.7-55 30.8c-17.2-22.9-53.3-72.5-65.7-108.9-12.5-36.4-27.6-71-4.7-94.3 22.9-23.3 81.4-74.7 97.2-138.1 15.9-63.4 6-167.8 41.7-143.3z"/><path fill="#693D1E" d="M1285.9 959.9c-63.2-10.2-126.1-22.1-188.7-35.4l-23.5-5.1-23.4-5.2c-15.6-3.4-31.2-7-46.8-10.6-31.2-7.2-62.4-14.4-93.5-21.8-62.3-14.7-124.6-29.4-187-43.5 62.5 13.9 124.8 28.5 187.2 42.9 31.2 7.2 62.4 14.4 93.6 21.4 15.6 3.5 31.2 7 46.9 10.4l23.4 5.1 23.5 5c62.3 13.8 125.1 26.1 188.3 36.8zM1871.7 1099.1c-30.1-3-60.6-3.8-91.1-4.6 37.3 15.7 76.6 20.3 113.6 10.8"/><path fill="#693D1E" d="M1894.2 1105.3c-11.1 2.9-22.6 4.6-34.1 5.1s-23.1-.3-34.5-2.1c-7.7-1.4-15.4-3.1-22.9-5.4-7.5-2.3-14.9-5-22.1-8l-2.1-.9 2.3.1c30.4.9 60.8 1.8 91.1 5-30.3-2.9-60.7-3.5-91.1-4.1l.2-.8c7.2 3 14.6 5.6 22.1 7.8 7.5 2.2 15.1 3.9 22.8 5.2 11.3 2 22.8 3 34.3 2.7 11.3-.4 22.8-1.9 34-4.6zM1840.2 1305.7c-34.3-6-71.2-10.2-99.5-10.6 40 13.9 83 23.7 126.1 19.8"/><path fill="#693D1E" d="M1866.8 1314.9c-25.3 2.4-51 .2-75.9-4.9-17.1-3.7-33.9-8.8-50.4-14.5l-2.5-.9 2.7.1c16.7.3 33.4 1.8 49.9 3.7 16.6 1.9 33.1 4.4 49.5 7.3-16.4-2.8-33-5.1-49.6-6.9-16.6-1.8-33.2-3.1-49.9-3.3l.1-.8c16.5 5.6 33.3 10.5 50.3 14.1 24.9 5.5 50.5 8.1 75.8 6.1zM1562.2 1225c-45.5-7.8-91-15.5-136.5-23.4-90.8-16.5-181.6-33.6-271.9-52.7 90.4 18.7 181.2 35.4 272.1 51.4 45.4 8.3 90.8 16.5 136.3 24.7zM837.3 1059.2c-16.6-2.7-33.1-5.9-49.6-9.5-32.7-7.8-65-17.3-97.1-27.6 32.2 9.9 64.6 19 97.4 26.4 16.3 4 32.8 7.5 49.3 10.7z"/><path fill="#3B2314" d="M417.6 846.7l72.1-46.2 33.4 35.2-29.1-6.9-74 32.5z"/><g opacity=".4"><path fill="#693D1E" d="M1599.2 1094.6c-22-3-43.8-7.5-65.5-12.4-21.6-5.2-43.1-10.8-64.8-15.3l-4.1-.9-4.1-.8-8.2-1.5-8.2-1.4-4.1-.7-4.1-.6-8.3-1.1-8.3-.8-4.1-.4-4.2-.3-8.3-.5 8.3.5 4.2.2 4.1.4 8.3.8 8.3 1 4.1.5 4.1.6 8.2 1.3 8.2 1.5 4.1.7 4.1.8c21.8 4.3 43.4 9.6 65 14.7 21.6 5.4 43.3 10.3 65.3 13.7z"/></g></g><ellipse transform="rotate(-45.001 627.833 674.599)" clip-path="url(#b)" fill="none" cx="627.8" cy="674.6" rx="576.5" ry="576.5"/><path clip-path="url(#b)" fill="#CD814D" d="M449.3 642.5c-3.1-1.4-5.5-4.2 2-.8-1.4-1.5 0 0-1.6-1.4-12-10-25.6-16.3-39.4-23.2-15-7.5-29.4-15.9-44-24-6.7-3.7-15.1-8.8-20.9-13.7-3.7 3-8.6 12.3-4.3 25.5 6 18.7 13.4 32.5 16.5 38.6 3.1 6 20.2 20.6 22.4 24.1 2.2 3.5 12.3 11.7 16.4 12.9 4 1.1-5.9 5.5-8 6.8-4.6 3-8.4 5.6-10.3 8.8-1.9 3.2-5.4 11.5 7.8 22.5s28 13 28 13-13.9-13.1-12.9-14.9c.5-.9 3.8-3 5.5-2.8.9-4.2 1.6-3.9 4.8-6.6.7-.6 1.5-.4 2.1.1.3-.2 1.7.9 1.3.5-.7-.8 1.2.1 1.2.9 3-1.9 14.2-5.7 23.6-19.1 12.1-17.3 6.5-29.3 6.7-32.6.2-3.3 3.1-14.6 3.1-14.6z"/><path opacity=".9" clip-path="url(#b)" fill="#15252D" d="M449.3 642.5c-3.1-1.4-5.5-4.2 2-.8-1.4-1.5 0 0-1.6-1.4-12-10-25.6-16.3-39.4-23.2-15-7.5-29.4-15.9-44-24-6.7-3.7-15.1-8.8-20.9-13.7-3.7 3-8.6 12.3-4.3 25.5 6 18.7 13.4 32.5 16.5 38.6 3.1 6 20.2 20.6 22.4 24.1 2.2 3.5 12.3 11.7 16.4 12.9 4 1.1-5.9 5.5-8 6.8-4.6 3-8.4 5.6-10.3 8.8-1.9 3.2-5.4 11.5 7.8 22.5s28 13 28 13-13.9-13.1-12.9-14.9c.5-.9 3.8-3 5.5-2.8.9-4.2 1.6-3.9 4.8-6.6.7-.6 1.5-.4 2.1.1.3-.2 1.7.9 1.3.5-.7-.8 1.2.1 1.2.9 3-1.9 14.2-5.7 23.6-19.1 12.1-17.3 6.5-29.3 6.7-32.6.2-3.3 3.1-14.6 3.1-14.6z"/><path opacity=".9" clip-path="url(#b)" fill="#15252D" d="M449.3 642.5c-3.1-1.4-5.5-4.2 2-.8-1.4-1.5 0 0-1.6-1.4-12-10-25.6-16.3-39.4-23.2-8.6-4.3-17.1-8.9-25.5-13.6 3.9 9.4 7.3 19.1 12.7 27.7 5.9 9.5 14.7 16.9 20.4 26.5 4.8 8 6.8 15.9 4.7 25.2-2 8.7-5.6 17-6.7 25.8 3.2-1.9 14.2-5.8 23.5-19 12.1-17.3 6.5-29.3 6.7-32.6.3-3.3 3.2-14.6 3.2-14.6z"/><path clip-path="url(#b)" fill="#CD814D" d="M1083.8 927.6c-10.9-8.3-18.4-19.7-35.8-31-17.3-11.3-29.3-15.8-27.3-19 2-3.2-6.3-28.1-9.6-39.1s-9.9-21.5-8.6-27.2c1.3-5.7-.3-17.4-.3-17.4s28 12.2 33.7 13.4c5.7 1.3 21.3 2.5 26.7-2.9 5.4-5.4 1-1.6-10.3-5.8-11.3-4.2-53.6-41.9-53.6-41.9L692.8 572s-182.6-57.2-191.1-64.5c-8.5-7.3-94-77.8-94-77.8s-14.2-29.3-21-38.1c-6.8-8.8-24.4-26.8-27.5-29.5-3.1-2.7-15.4-14.5-20.8-19-5.4-4.6-20.5-13.2-20.5-13.2s-15.4-14.5-21.4-12.5c0 0-20.3-15.3-26.1-15.8-5.8-.5-21.3 7.9-21.6 12-.3 4.1-8.1 7.6-10.9 12.4-2.9 4.7-9.4 24.9-8 28.3 1.4 3.4 5.2 28.6 12.7 38.3 7.5 9.7 44.1 51.5 56.9 61.6 12.8 10.1 14.4 21 18.9 27.2 4.5 6.2 36.5 50.9 44.3 57.3 1.2 1 2.5 1.5 3.8 1.7-6.1 4.4-12.4 10.3-13.2 15.7-2 12.4-5.1 20.4-5.1 20.4s-.4.2-1 .6c2.9 2.4 6.2 4.2 9.7 5.9 6.1 3 11.9 6.3 17.8 9.7 13.8 8 27.9 15.2 42.3 22 13 6.2 27.3 13.5 37.4 24 1.3 1.4 2.6 2.9 3.7 4.4 11.1 5 29.1 13 34.5 15.1 8 3.1 22.6 6.8 22.6 6.8s15.4 25.2 16.7 29.5c1.3 4.2 6 7.9-1.4 18.1-7.4 10.2-6.5 19.4-6.5 19.4s-4.3 12.1-2.9 16.3c1.3 4.2 5.5 13.7 5.5 13.7s3.8-15.4 5-20.3c1.2-4.9 10.2-3.3 12.1-6.5 1.9-3.2 5.6 2.9 5.6 2.9s-6.7 11.9-5.5 17c1.3 5.1 7.3 13 7.3 13s3.2-19.6 5.8-21.1c2.6-1.4 11.8-3.2 11.8-3.2s4.1.3 7.3 1.4c3.2 1.1 1.9 6.8 3.3 10.2 1.4 3.4 2.3 12.6 7.9 15.5 5.6 2.9 11.5.9 11.5.9s-6.3-3.8-6-7.9c.3-4.1 1.5-9 1.5-9l6.4-7.8s.8.9 4.9.4c4.2-.5 8.4-1.8 8.4-1.8s3 4.4 6.9 7.2c3.9 2.8 9.7 2.4 9.7 2.4s-8.4-8.9-7.4-11.3c1-2.4-.8-10.4-3.1-13.3-2.3-2.9-4.1-11.3-3.1-13.7 1-2.4-1.9-7.6-1.9-7.6s22.3 10.9 38.5 15.5 105.1 31.5 108.5 30.9c3.4-.6 57.5 26.1 71.3 30.5 13.7 4.4 47.3 19.5 57.9 22 10.6 2.5 39.1 8.1 39.1 8.1s15.8 41 23.2 52.3c7.4 11.3 43.9 52.3 48.5 56.8 4.6 4.5 29.5 34.6 29.8 41.3.3 6.6 3.8 35.1 6.8 39.5 3 4.4 4.1 11.1 6.5 12.1 2 .9 5.4.6 6.3.5 3.8-2.9 7.2-6.2 9.9-10.2.2-.3.4-.4.6-.4 1.8-2.3 8.4-5.3 8.4-5.3s4.4 17.7 3.2 21.8c-1.1 4 4.7-7.1 5.1-12 .4-4.9-2.9-15.1-2.9-15.1l4.8-8.7s4.1.3 3.8 4.4c-.3 4.1-1.4 18.1-1.4 18.1s8.2-9.3 8.3-21.7c.2-12.4 2.1-25.5 2.1-25.5s1.4-28.4-9.5-36.7z"/><path clip-path="url(#b)" fill="#CD814D" d="M956.8 815.7c5.1-3.5 11.4-5.3 17.2-7.2 7.8-2.5 18.3-5.4 22.6-13.2 5.1-9.2 2.9-20.3-3.3-28.5-11.9-15.5-30.5-24.5-48.5-30.7-25-8.6-51-13.5-77.3-16.3-25.6-2.7-51-3.6-76.8-2.3-24.2 1.3-45.6 1.6-67.7-9.8-18.2-9.3-35.1-20.5-53.8-29.1-13.3-6.1-31.6-16-46.9-12.7-.3.5-.8.9-1.5.9-25.2-.9-15.2 24.8-2.5 45 6.9 3.2 22.8 10.4 35.1 13.9 16.2 4.6 105.1 31.5 108.5 30.9 3.4-.6 57.5 26.1 71.3 30.5 13.7 4.4 47.3 19.5 57.9 22 10.6 2.5 39.1 8.1 39.1 8.1s6.8 17.5 13.5 32.8c1.1-5.7 2.1-11.4 3.2-17.1 1.4-7.2 3.6-12.8 9.9-17.2z"/><path clip-path="url(#b)" d="M784.6 718c-21.8.9-41.4.3-61.6-10.1-18.2-9.3-35.1-20.5-53.8-29.1-8.6-3.9-19.3-9.5-30-12 1.4 11.1 3 22.3 2.4 33.4-.4 7-1.7 13.8-3.8 20.3 5.2 2.1 10.7 4 15.6 5.4 16.2 4.6 105.1 31.5 108.5 30.9 1.2-.2 9.3 3.2 19.7 7.9-3.1-15.9-3.5-32 3-46.7z"/><path clip-path="url(#b)" fill="#15252D" d="M911.9 738.3c-15.5-13-168.6-20-188.9-30.4-18.2-9.3-35.1-20.5-53.8-29.1-8.6-3.9-19.3-9.5-30-12 1.4 11.1 3 22.3 2.4 33.4-.4 7-1.7 13.8-3.8 20.3 5.2 2.1 10.7 4 15.6 5.4 16.2 4.6 105.1 31.5 108.5 30.9 1.2-.2 74.6 30.9 85 35.5-3.2-15.8 58.4-39.2 65-54z"/><path opacity=".3" clip-path="url(#b)" d="M911.9 738.3c-15.5-13-168.6-20-188.9-30.4-18.2-9.3-35.1-20.5-53.8-29.1-8.6-3.9-19.3-9.5-30-12 1.4 11.1 3 22.3 2.4 33.4-.4 7-1.7 13.8-3.8 20.3 5.2 2.1 10.7 4 15.6 5.4 16.2 4.6 105.1 31.5 108.5 30.9 1.2-.2 74.6 30.9 85 35.5-3.2-15.8 58.4-39.2 65-54z"/><path opacity=".1" clip-path="url(#b)" fill="#15252D" d="M928.1 808.9c-3.7-7.3-12.2-14.7-13.8-21.3-3.6-14.9-5.8 18.1-4.5 25.6 10.4 2.1 20.4 4.1 20.4 4.1s3.6 9.4 8.2 20.5c1.5-11.2-5.7-19.7-10.3-28.9z"/><path opacity=".1" clip-path="url(#b)" fill="#FFF" d="M244.5 323.2c-1.4-.1-2.7 0-3.9.7-1.1 1-2 2.1-2.7 3.2-2.9 4.7-9.4 24.9-8 28.3 1.4 3.4 5.2 28.6 12.7 38.3 1.2 1.6 3.3 4.1 5.9 7.2 5.7 1.7 11.7 3 17.6 4.4 7.8 1.9 15.8 5.7 23.9 6 4.6.2 11.6-.1 14.5-4.5 4.5-6.8-.7-11.6-6.7-14.4-7-3.2-12.7-7.7-16.7-14.5-2.4-4.1-4.6-8.7-5.2-13.5-.6-4.4-.1-9.1-1.3-13.3-1.4-4.7-3.3-8.4-6.1-11.6-4.8-2.1-9.5-4.6-14.3-7.7-4.6-2.8-8.1-4.8-9.7-8.6z"/><path opacity=".6" clip-path="url(#b)" fill="#F8C264" d="M268.9 384.3c-12-9.7-23.8-20.9-30.9-34.7-2.6 2.5-5 5-7.6 7.4 1.7 6.5 5.4 27.9 12.2 36.7 1.2 1.6 3.3 4.1 5.9 7.2 5.7 1.7 11.7 3 17.6 4.4 7.8 1.9 15.8 5.7 23.9 6 2.1.1 4.7.1 7.2-.4-4.7-12-18.8-18.9-28.3-26.6z"/><path clip-path="url(#b)" fill="#DB8640" d="M295.4 418.1c9.7-1.4 14.6-6.9 22.4-11.7-.1-.4-.1-.8.2-1.2.9-1.4 1.8-2.8 2.6-4.2-6.4-.5-12.1-3-13.7-8.6-3-10 6.1-16.5 6.8-26 1-16.2-16.4-17.9-28.5-21.2-3.7-1-7.2-2.1-10.5-3.3 5.7 11.5 2.3 25.3 10.6 36.1 4.8 6.3 10.2 9.3 17.1 12.9 2.7 1.4 6.2 3.8 7.1 7 2 7.6-3.4 14.6-10.9 16.1-9.9 2-18.1-1.5-27.5-4-6.1-1.7-12.5-3-18.7-4.7 3.6 4.1 7.7 8.9 12.1 13.9.2-1 1.2-1.9 2.4-1.4 9.7 4.3 18.5 1.8 28.5.3z"/><path opacity=".9" clip-path="url(#b)" fill="#15252D" d="M407.5 430.4c-24.7.2-49.8-15.7-62.8-36.3-.8.7-1.7 1.4-2.6 2.1-3.6 2.7-10.8 4.8-17.7 5-1.1 1.9-2.2 3.7-3.3 5.5.4.7.3 1.6-.5 2.1-4.5 2.7-8.2 6.7-12.8 9.2-4 2.2-7.6 2.7-12 3.5-10.4 1.8-19.6 3.7-29.6-.4 12.5 14 26.4 28.8 33.4 34.3 12.8 10.1 14.4 21 18.9 27.2 2.7 3.7 15.7 21.8 27.1 36.8l3.3-1.5c11.6-5.9 21.1-14.9 29.3-24.8 13.5-16.5 27.9-36.5 35.4-57.3-3.6-3-5.8-4.8-5.8-4.8l-.3-.6zM271.6 337.8c9.7 3.5 8.9 5.5 18.7 8.9 10.7 3.7 26.2 22.1 23.2 34.5-1.8 7.3-11 11.1 1.4 14.9 8.4 2.6 20.1 2.5 26.7-3.8 8.8-8.5 14.2-18.3 17.5-29.1-3.2-2.8-15.4-14.4-20.8-19S317.8 331 317.8 331s-15.4-14.5-21.4-12.5c0 0-20.3-15.3-26.1-15.8-5.8-.5-21.3 7.9-21.6 12-.1 1.3-.9 2.5-2.1 3.8.6 8.8 18 16.7 25 19.3z"/><path clip-path="url(#b)" fill="#DA9446" d="M414.8 707.9c-.3 2.5-.5 5-.5 7.6"/><path opacity=".9" clip-path="url(#b)" fill="#15252D" d="M414.7 707.5c-3.4-.9-7.9-5.3-11.1-4.3-5.1 1.5-2 7.1.7 10.4 2 .4 5 1.1 9.8 1.6 9.4 1 11-1 11-1-8.6-5.7-8.6-5.7-10.4-6.7-.8-.5-1 .5 0 0z"/><path opacity=".9" clip-path="url(#b)" fill="#15252D" d="M414.7 707.5c-3.4-.9-7.9-5.3-11.1-4.3-5.1 1.5-2 7.1.7 10.4 2 .4 5 1.1 9.8 1.6 9.4 1 11-1 11-1-8.6-5.7-8.6-5.7-10.4-6.7-.8-.5-1 .5 0 0zM401.7 718.8c-1.4-.7-2.8-1.3-4.3-1.7-.5-.1-.8-.4-.9-.7-4-2-8.5-1.4-10.1 2.7 13 10.4 27.1 12.3 27.1 12.3s-8.8-8.3-11.8-12.6zM1085.4 927.3c-10.9-8.3-18.2-20.5-35.6-31.8-17.3-11.3-27.9-16.3-25.9-19.4 2-3.2-9.4-25.6-12.7-36.6-3.3-11-9.9-21.5-8.6-27.2 1.3-5.7-.3-17.4-.3-17.4s28 12.2 33.7 13.4c5.7 1.3 21.3 2.5 26.7-2.9 5.4-5.4 1-1.6-10.3-5.8-11.3-4.2-53.6-41.9-53.6-41.9L692.8 573s-182.6-57.2-191.1-64.5c-8.5-7.3-94-77.8-94-77.8s-14.2-29.3-21-38.1c-6.8-8.8-24.4-26.8-27.5-29.5-3.1-2.7-15.4-14.5-20.8-19-5.4-4.6-20.5-13.2-20.5-13.2s-15.4-14.5-21.4-12.5c0 0-20.3-15.3-26.1-15.8-.5 0-1 0-1.6.1 6.5 7.5 17.8 9.9 23.5 19 4.3 7 9.3 8.6 16.1 12.3 4.5 2.5 8.1 6.9 10.8 11.3 6.4 10.5 5.2 21.7-3.4 30.5-5.2 5.3-13.9 7.3-12.6 15.8 1.6 10.3 5.3 26.6 19.7 24.5 8.3-1.2 16.7-4.6 23.6 2.5 4.5 4.6 5.3 8.6 6.4 14.7 1 5.6 4.9 10 6.1 15.5 2.1 9.4.6 19.9-2.5 29-1.2 3.6-5.7 4.8-8.7 2.8-6.7-4.5-11.1-11.2-15.9-17.5-6.1-8.1-13.2-13.8-21.7-19.3-8.4-5.4-15.9-11.1-22.3-18.9-4.3-5.2-8.6-10.9-14.1-14.9-8.1-5.8-17.9-8.1-27.2-11.4 12.2 14.7 41.6 47.7 52.8 56.6 12.8 10.1 14.4 21 18.9 27.2 3.9 5.4 29.2 40.7 40.5 53.5 4.3 2.2 8.9 3 13.9 2.4h.9c1.2-2.1 3.6-3.4 6.4-1.9 4.9 2.5 8 5.5 11.3 9.9 4.2 5.5 8.8 7.1 15.2 9.4 6.6 2.4 12.3 6.7 19 8.9 4.8 1.6 9.8 2.6 14.7 3.8 5.9 1.4 10.8 3.5 15.8 6.8 4.4 2.9 9.8 7.2 15.1 3.7 11.1-7.2 6.8-21.8 5.4-32.8-.3-2.4.7-4.2 2.2-5.4 1.4-2.8 5-4.8 8.6-2.8 22.1 12.6 46.9 21.5 65.1 40 2.9 3 .9 9-3.3 9.4-24.5 2.5-38.1 20.3-42.4 42.2 0 .1 0 .2.1.3.7 7 3 13.5 5 20.3 1.3 4.3-3.8 7.9-7.6 6.5-30.9-11.5-54.4-35.3-71.3-63.1-.3.4-.6.8-1 1.2-.9 1-1.7 2.1-2.7 3-1.4 1.3-3.3 1.6-5 1.2-10.4 4.9-24.3 1.1-34.7-2.9-14.2-5.4-28.7-12.7-40.8-22l-.2-.2c0 2.3-.4 3.5-.4 3.5s-1.2.6-2.8 1.9c31.3 24.8 64.6 49.8 103 62l.3-1.2s3.4 1.5 8.3 3.7c.8.2 1.6.4 2.5.6 1.3.3 2.2 1 2.9 1.7 11 4.9 25.3 11.2 30 13.1 8 3.1 22.6 6.8 22.6 6.8s15.4 25.2 16.7 29.5c1.3 4.2 6 7.9-1.4 18.1-7.4 10.2-6.5 19.4-6.5 19.4s-4.3 12.1-2.9 16.3c1.3 4.2 5.5 13.7 5.5 13.7s3.8-15.4 5-20.3c1.2-4.9 10.2-3.3 12.1-6.5 1.9-3.2 5.6 2.9 5.6 2.9s-6.7 11.9-5.5 17c1.3 5.1 7.3 13 7.3 13s3.2-19.6 5.8-21.1c2.6-1.4 11.8-3.2 11.8-3.2s4.1.3 7.3 1.4c3.2 1.1 1.9 6.8 3.3 10.2 1.4 3.4 2.3 12.6 7.9 15.5 5.6 2.9 11.5.9 11.5.9s-6.3-3.8-6-7.9c.3-4.1 1.5-9 1.5-9l6.4-7.8s.8.9 4.9.4c4.2-.5 8.4-1.8 8.4-1.8s3 4.4 6.9 7.2c3.9 2.8 9.7 2.4 9.7 2.4s-8.4-8.9-7.4-11.3c1-2.4-.8-10.4-3.1-13.3-2.3-2.9-4.1-11.3-3.1-13.7 1-2.4-1.9-7.6-1.9-7.6s.1.1.3.1c-3.8-9.5-5.5-19.9-4.5-30.6 1.6-12.8 19.2-9.1 23.8-1.8 4.2 6.8 4.4 15.1 6 22.6 4.5 21.7 54.8 17.7 55.8 17.7 2.8 0 4.4 1.7 4.9 3.7 3.5 1.7 7 3.5 10.4 5.5 5.9 3.4 11.8 8 18.2 10.4 11.5 4.3 24 3.6 35.3 8.4 4.8 2 9.9 3.3 14.9 4.4-.2-1.7-.2-3.3-.2-5-.9-1.8-1.4-3.7-1.2-5.8.5-6.6 6.2-10.2 12.1-11.7 12.4-3.3 25.8-3 38.5-2.4 13.7.6 27.6 1.3 41.2 3.4 32.1 5 62.9 15.6 94.8 21.1.9.2 1.6.5 2.3.9 2.6-.2 5.5.5 8.3 2.6 19.2 14.3 23.4 49.5 1.7 64-7.1 4.8-18.7 7.7-23.4 15.1-4.1 6.4-4.7 15-1 21.7 1 1.8 2.2 3.4 3.7 4.8.2 0 .5 0 .8.1 6 .7 10.2 3.7 13.5 8.7 3.5 5.4 3.9 11.2 3 17.4-.2 1.2-.3 2.3-.4 3.5.2.3.4.8.7 1.6 1 1.5 2.5 3 3.9 4.2 9.9 9.2 19.5 18.6 28.9 28.3 8.3 8.6 14.6 20.2 24.5 27 8.3 5.8 6.4 15.7.5 20.9.9 10 4 32 6.5 35.8 3 4.4 4.1 11.1 6.5 12.1 2.4 1 6.6.5 6.6.5s-.1 1.2-.4 2.9c.4-.3.7-.6 1-1 3.2-3.2 6.3-6.6 8.8-10.3.1-.7.2-1.3.4-1.6 1-2.4 8.7-5.9 8.7-5.9s4.4 17.7 3.2 21.8c-1.1 4 4.7-7.1 5.1-12 .4-4.9-2.9-15.1-2.9-15.1l4.8-8.7s4.1.3 3.8 4.4c-.3 4.1-1.4 18.1-1.4 18.1s8.2-9.3 8.3-21.7c.2-12.4 2.1-25.5 2.1-25.5s3.2-29.2-7.7-37.6zM380.8 416.9c-1.4-5.1-4.6-10.2-7.5-14.5-2.4-3.5-5.6-9-9.6-10.9-6.6-3.2-2.8-14.1 3.9-10.9 6.7 3.2 11.2 9.4 15.2 15.5 3.8 5.8 7.4 11.9 9.3 18.7 2.1 7.1-9.3 9.3-11.3 2.1z"/><path opacity=".9" clip-path="url(#b)" fill="#15252D" d="M1067.1 1004.3c.2-3 .2-6.1.1-9.1 0-.6-1.4-11.1-2.2-10.3-5.3 5.3-4.9 15.8-3 24.3 1.1-1.3 3.6-2.8 5.5-3.8-.2-.3-.4-.7-.4-1.1zM1085.4 927.3c-10.9-8.3-18.2-20.5-35.6-31.8-17.3-11.3-27.9-16.3-25.9-19.4 2-3.2-7.3-26.5-12.7-36.6-4.9-9.1-9.9-21.5-8.6-27.2 1.3-5.7-.3-17.4-.3-17.4s28 12.2 33.7 13.4c5.7 1.3 21.3 2.5 26.7-2.9 5.4-5.4 1-1.6-10.3-5.8-11.3-4.2-53.6-41.9-53.6-41.9l-15.7-9.5c-1.7 2.5-3.2 5.2-4.7 7.9 16.9 15.4 19.7 48-.9 61.8-1.2.8-2.6 1.6-4 2.3 2.2 6.1 5.2 11.8 8.4 17.5 4.4 7.8 7.8 16.3 12.3 24 5.5 9.4 14.2 15.7 20.6 24.3 5.4 7.3 8.4 15.5 12.5 23.5 6.6 12.7 25.2 15.2 29.5 29.2.1.5.1.8-.1 1.2 6.2 11.6 18.2 18.8 25.1 30.1.5.2 1 .6 1.2 1.2 2.2 7.6 3.6 14.8 1.5 22.5-.1.2-.2.4-.3.5-.3 4.3-1.4 18-1.4 18s8.2-9.3 8.3-21.7c.2-12.4 2.1-25.5 2.1-25.5s3.1-29.3-7.8-37.7z"/><path opacity=".9" clip-path="url(#b)" fill="#15252D" d="M1081 976.9c-1.5 4.1-2.6 8.4-3.2 12.8.2.3.4.6.3 1.1-.1 1.1-.2 2.2-.1 3.3l2.4-4.3s.7.1 1.5.4c.7-4.5.1-8.9-.9-13.3zM506.6 652.1c1.3 4.3 1.4 6.1-2.4 4.7-30.9-11.5-54.4-35.3-71.3-63.1-.3.4-.6.8-1 1.2-.9 1-1.7 2.1-2.7 3-1.4 1.3-3.3 1.6-5 1.2-10.4 4.9-24.3 1.1-34.7-2.9-14.2-5.4-28.7-12.7-40.8-22l-.2-.2c0 2.3-.4 3.5-.4 3.5s-1.2.6-2.8 1.9c31.3 24.8 64.6 49.8 103 62l.3-1.2s3.4 1.5 8.3 3.7c.8.2 1.6.4 2.5.6 1.3.3 2.2 1 2.9 1.7 11 4.9 25.3 11.2 30 13.1 8 3.1 22.6 6.8 22.6 6.8s15.4 25.2 16.7 29.5c1.3 4.2 6 7.9-1.4 18.1-7.4 10.2-6.5 19.4-6.5 19.4s-4.3 12.1-2.9 16.3c1.3 4.2 5.5 13.7 5.5 13.7s3.8-15.4 5-20.3c1.2-4.9 10.2-3.3 12.1-6.5 1.9-3.2 5.6 2.9 5.6 2.9s-6.7 11.9-5.5 17c1.3 5.1 7.3 13 7.3 13s3.2-19.6 5.8-21.1c2.6-1.4 11.8-3.2 11.8-3.2s4.1.3 7.3 1.4c3.2 1.1 1.9 6.8 3.3 10.2 1.4 3.4 2.3 12.6 7.9 15.5 5.6 2.9 11.5.9 11.5.9s-6.3-3.8-6-7.9c.3-4.1 1.5-9 1.5-9l6.4-7.8s.8.9 4.9.4c4.2-.5 8.4-1.8 8.4-1.8s3 4.4 6.9 7.2c3.9 2.8 9.7 2.4 9.7 2.4s-8.4-8.9-7.4-11.3c1-2.4-.8-10.4-3.1-13.3-2.3-2.9-4.1-11.3-3.1-13.7 1-2.4-1.9-7.6-1.9-7.6s.1.1.3.1c-3.8-9.5-5.5-19.9-4.5-30.6 1.6-12.8 19.2-9.1 23.8-1.8 4.2 6.8 4.4 15.1 6 22.6 4.5 21.7 54.8 17.7 55.8 17.7 2.8 0 4.4 1.7 4.9 3.7 3.5 1.7 7 3.5 10.4 5.5 5.9 3.4 11.8 8 18.2 10.4 11.5 4.3 24 3.6 35.3 8.4 4.8 2 9.9 3.3 15 4.4 0-.2-.5.1-.5-.1-.2-1.4-.3-3.3-.3-4.7-.9-1.8-.7-3.9-.6-6 .5-6.6 6.2-10.2 12.1-11.7 12.4-3.3 25.8-3 38.5-2.4 13.7.6 27.6 1.3 41.2 3.4 32.1 5 62.9 15.6 94.8 21.1.9.2 1.6.5 2.3.9 2.6-.2 5.5.5 8.3 2.6 0 0 .1 0 .1.1 1.3-2.6 2.8-5 4.4-7.5L692.8 573s-182.6-57.2-191.1-64.5c-8.5-7.3-94-77.8-94-77.8s-14.2-29.3-21-38.1c-6.8-8.8-24.4-26.8-27.5-29.5-3.1-2.7-15.4-14.5-20.8-19-5.4-4.6-20.5-13.2-20.5-13.2s-15.4-14.5-21.4-12.5c0 0-20.3-15.3-26.1-15.8-.5 0-1 0-1.6.1 6.5 7.5 17.8 9.9 23.5 19 4.3 7 9.3 8.6 16.1 12.3 4.5 2.5 8.1 6.9 10.8 11.3 6.4 10.5 5.2 21.7-3.4 30.5-5.2 5.3-13.9 7.3-12.6 15.8 1.6 10.3 5.3 26.6 19.7 24.5 8.3-1.2 16.7-4.6 23.6 2.5 4.5 4.6 5.3 8.6 6.4 14.7 1 5.6 4.9 10 6.1 15.5 2.1 9.4.6 19.9-2.5 29-1.2 3.6-5.7 4.8-8.7 2.8-6.7-4.5-11.1-11.2-15.9-17.5-6.1-8.1-13.2-13.8-21.7-19.3-8.4-5.4-15.9-11.1-22.3-18.9-4.3-5.2-8.6-10.9-14.1-14.9-8.1-5.8-17.9-8.1-27.2-11.4 12.2 14.7 41.6 47.7 52.8 56.6 12.8 10.1 14.4 21 18.9 27.2 3.9 5.4 29.2 40.7 40.5 53.5 4.3 2.2 8.9 3 13.9 2.4h.9c1.2-2.1 3.6-3.4 6.4-1.9 4.9 2.5 8 5.5 11.3 9.9 4.2 5.5 8.8 7.1 15.2 9.4 6.6 2.4 12.3 6.7 19 8.9 4.8 1.6 9.8 2.6 14.7 3.8 5.9 1.4 10.8 3.5 15.8 6.8 4.4 2.9 9.8 7.2 15.1 3.7 11.1-7.2 6.8-21.8 5.4-32.8-.3-2.4.7-4.2 2.2-5.4 1.4-2.8 5-4.8 8.6-2.8 22.1 12.6 46.9 21.5 65.1 40 2.9 3 .9 10-3.3 9.4-40.4-5.2-47.1 22.8-49.6 39.2M380.8 416.9c-1.4-5.1-4.6-10.2-7.5-14.5-2.4-3.5-5.6-9-9.6-10.9-6.6-3.2-2.8-14.1 3.9-10.9 6.7 3.2 11.2 9.4 15.2 15.5 3.8 5.8 7.4 11.9 9.3 18.7 2.1 7.1-9.3 9.3-11.3 2.1z"/><path opacity=".9" clip-path="url(#b)" fill="#15252D" d="M404.2 544.2c-15.4-7.2-31.7-13-48.6-11.8.4.4.8.9 1.1 1.3 3.8 3.6 12.9 12.5 15.8 15.4.4.4 12.1 11.3 12.4 11.4 2.2 1.8 10 7.1 12.5 9.1 4.4 3.7-4.2-.9-.4 2.1 5.5 4.3-2.5 30.1 18.2 32.1 7 .7 22.8 5.1 29.5 7.3 2.3.8-13.9-28.4-6.9-32.3 6.7-3.8 25.9 2.4 27.8 1.4-7.7-10.9-49.3-30.4-61.4-36z"/><path opacity=".9" clip-path="url(#b)" fill="#15252D" d="M404.2 544.2c-15.4-7.2-31.7-13-48.6-11.8.4.4.8.9 1.1 1.3 3.8 3.6 12.9 12.5 15.8 15.4.4.4 12.1 11.3 12.4 11.4 2.2 1.8 10 7.1 12.5 9.1 4.4 3.7-4.2-.9-.4 2.1 5.5 4.3-2.5 30.1 18.2 32.1 7 .7 22.8 5.1 29.5 7.3 2.3.8-13.9-28.4-6.9-32.3 6.7-3.8 25.9 2.4 27.8 1.4-7.7-10.9-49.3-30.4-61.4-36z"/><path opacity=".3" clip-path="url(#b)" d="M693.8 573s-182.6-57.2-191.1-64.5c-8.5-7.3-94-77.8-94-77.8l-4.8-9.6c-1.8 5.6-3.2 11.3-4.2 17.1-1.3 8.3-5.4 23 1.4 29.6 11.5 11 23.4 22 33.5 34.5 9.9 12.3 19 29.7 33 37.8 3.2 1.9 6.6 3.5 10 4.9.1-1.8 1-3.3 2.2-4.2 1.4-2.8 5-4.8 8.6-2.8 22.1 12.6 46.9 21.5 65.1 40 2.9 3 .9 9-3.3 9.4-24.5 2.5-38.1 20.3-42.4 42.2 0 .1 0 .2.1.3.7 7 3 13.5 5 20.3 1.3 4.3-3.8 7.9-7.6 6.5-30.9-11.5-56.2-27.4-66.6-62.9-.3.4-5.3.7-5.7 1.1-.9 1-1.7 2.1-2.7 3-1.4 1.3-3.3 1.6-5 1.2-10.4 4.9-24.3 1.1-34.7-2.9-14.2-5.4-28.7-12.7-40.8-22l-.2-.2c0 2.3-.4 3.5-.4 3.5s-1.2.6-2.8 1.9c31.3 24.8 64.6 49.8 103 62l.3-1.2s3.4 1.5 8.3 3.7c.8.2 1.6.4 2.5.6 1.3.3 2.2 1 2.9 1.7 11 4.9 25.3 11.2 30 13.1 8 3.1 22.6 6.8 22.6 6.8s15.4 25.2 16.7 29.5c1.3 4.2 6 7.9-1.4 18.1-7.4 10.2-6.5 19.4-6.5 19.4s-4.3 12.1-2.9 16.3c1.3 4.2 5.5 13.7 5.5 13.7s3.8-15.4 5-20.3c1.2-4.9 10.2-3.3 12.1-6.5 1.9-3.2 5.6 2.9 5.6 2.9s-6.7 11.9-5.5 17c1.3 5.1 7.3 13 7.3 13s3.2-19.6 5.8-21.1c2.6-1.4 11.8-3.2 11.8-3.2s4.1.3 7.3 1.4c3.2 1.1 1.9 6.8 3.3 10.2 1.4 3.4 2.3 12.6 7.9 15.5 5.6 2.9 11.5.9 11.5.9s-6.3-3.8-6-7.9c.3-4.1 1.5-9 1.5-9l6.4-7.8s.8.9 4.9.4c4.2-.5 8.4-1.8 8.4-1.8s3 4.4 6.9 7.2c3.9 2.8 9.7 2.4 9.7 2.4s-8.4-8.9-7.4-11.3c1-2.4-.8-10.4-3.1-13.3-2.3-2.9-4.1-11.3-3.1-13.7 1-2.4-1.9-7.6-1.9-7.6s.1.1.3.1c-3.8-9.5-5.5-19.9-4.5-30.6 1.6-12.8 19.2-9.1 23.8-1.8 4.2 6.8 4.4 15.1 6 22.6 4.5 21.7 54.8 17.7 55.8 17.7 2.8 0 4.4 1.7 4.9 3.7 3.5 1.7 7 3.5 10.4 5.5 5.9 3.4 11.8 8 18.2 10.4 11.5 4.3 24 3.6 35.3 8.4 4.7 1.9 9.6 3.2 14.5 4.3-.1-1.8-.1-3.6.1-5.3-.7-1.7-1.1-3.5-1-5.4.5-6.6 6.2-10.2 12.1-11.7 12.4-3.3 25.8-3 38.5-2.4 13.7.6 27.6 1.3 41.2 3.4 32.1 5 62.9 15.6 94.8 21.1.9.2 1.6.5 2.3.9 2.6-.2 5.5.5 8.3 2.6 0 0 .1 0 .1.1 1.3-2.6 2.8-5 4.4-7.5L693.8 573z"/><path opacity=".1" clip-path="url(#b)" fill="#FFF" d="M598.6 684.7c-5.8-9.8-12.6-19.2-20.5-27.5-5.9-6.2-13-11.6-17.7-18.8-10.1-15.5-3.5-34.5-9.6-51.4-.5.2-1 .4-1.6.5-24.5 2.5-38.1 20.3-42.4 42.2 0 .1 0 .2.1.3.7 7 3.9 15.9 5.9 22.6.5 1.7-4 3-4.9 4.2 3.1 5.3 9.3 8.5 11.1 14.4.2.5.1.9-.1 1.2 4.6 7.8 12 20.3 12.9 23.1 1.3 4.2 6 7.9-1.4 18.1-7.4 10.2-6.5 19.4-6.5 19.4s-4.3 12.1-2.9 16.3c1.3 4.2 5.5 13.7 5.5 13.7s3.8-15.4 5-20.3c1.2-4.9 10.2-3.3 12.1-6.5 1.9-3.2 5.6 2.9 5.6 2.9s-6.7 11.9-5.5 17c1.3 5.1 7.3 13 7.3 13s3.2-19.6 5.8-21.1c2.6-1.4 11.8-3.2 11.8-3.2s4.1.3 7.3 1.4c3.2 1.1 1.9 6.8 3.3 10.2 1.4 3.4 2.3 12.6 7.9 15.5 5.6 2.9 11.5.9 11.5.9s-6.3-3.8-6-7.9c.3-4.1 1.5-9 1.5-9l6.4-7.8s.8.9 4.9.4c4.2-.5 8.4-1.8 8.4-1.8s3 4.4 6.9 7.2c.8.6 1.6 1 2.5 1.3-4.6-24.7-11.7-48.9-24.6-70.5z"/><path opacity=".3" clip-path="url(#b)" fill="#15252D" d="M543.3 736.2c.6-.9 1.3-1 2-.8.4-.7.8-1.5 1.1-2.3.8-1.6 5.5-10.9 1.7-10.3-.3.1-.6 0-.8-.1-3.1 5.8-7.8 10.6-11.1 16.2 2.8-.6 6-.9 7.1-2.7zM603.3 735.4c0 4.5-.8 8.9-1.9 13.2.7.1 1.9.2 3.8 0 2.1-.3 4.3-.7 5.9-1.1-1.6-4.4-4.2-9.1-7.8-12.1zM557.2 745.6c-.2.2-.4.4-.6.5-.3.7-.4 1.4-.4 2.1l.2-.2c2.6-1.4 11.8-3.2 11.8-3.2s2.4.2 4.9.7c.8-5 1.9-11.4-.6-15.7-2.9-5.2-13.4 13.5-15.3 15.8z"/><path opacity=".3" clip-path="url(#b)" fill="#FFF" d="M625.4 750.5c.4 1.9.7 3.8 1.1 5.7 2.2.3 3.9.2 3.9.2s-2.9-3-5-5.9z"/><path opacity=".3" clip-path="url(#b)" fill="#15252D" d="M588 682.8c.2 1.1 0 2.1-.3 3.2 1.4 7.8 7.9 14 12.4 20 4 5.2 6.5 10.6 9 16.7 3.7 8.8 7.6 15 14 19.7-.2-3.4-1.7-8.5-3.4-10.6-2.3-2.9-4.1-11.3-3.1-13.7 1-2.4-1.9-7.6-1.9-7.6s.1.1.3.1c-3.8-9.5-5.5-19.9-4.5-30.6.4-3.2 1.8-5.3 3.7-6.6-3.7-14-8.7-27.6-16-40.3-10.2-17.8-28.9-34.7-47.3-45.2-1.6 10.8-3.5 19.7-4 30.6-.5 11.3 3.5 24.5 11.9 32.6 6.1 5.9 12.6 11.1 18.6 17.1 4.2 4 9.7 8.5 10.6 14.6z"/><path clip-path="url(#b)" fill="#F6DF8E" d="M1033 752.6c-2.1-4.3-8-23.8-12.1-34.9-4.1-11.1-12.1-25-18-33.7-5.9-8.7-1.5-12.5-4.5-16.9-3-4.4-3.5-18.5-3.9-24.3-.4-5.8-16.7-40.2-27.2-54.3-10.5-14.1-16.5-31.9-22.3-42.3-5.8-10.4-24-30.9-38.6-35.3-14.5-4.5-16.4-12.1-25-19.4-8.5-7.3-37.2-31.9-49.1-38.7-11.9-6.7-33.7-13.4-40.2-15.6-6.5-2.2-29.6-13.1-34.7-11.9-5.1 1.3-15.6-2.1-31.7-7.5s-62.9-10.8-66.9-11.9c-4-1.1-35.1 3.8-40.1 5.1-5.1 1.3-22.9-3.5-30.4-2.4s-29.4 5.1-35.2 5.5c-5.8.4-46 6.3-56.9 7.9-10.9 1.6-27.6 13.5-30.2 15.8-2.7 2.3-19.1 1-23.2.6-4.1-.3-35-7.7-35-7.7s30 39.6 29.6 44.6c-.4 4.9 33.5 47.4 41.3 53.8 7.8 6.4 26.2 14.5 37.3 20.3 11.1 5.8 50.9 37.1 60.3 43.7 9.4 6.5 68.9 39.4 84.6 50.6 15.7 11.2 124.8 55.4 126.2 58 1.4 2.4 33.4 18.9 51.5 24.8 10.7.6 21.4 1.4 32 3 21.4 3.3 42.3 9.2 63.3 14.3 16.3 2.5 30.1 4.2 30.1 4.2s34 10.1 38.1 10.5c4.1.3 8.9 2.4 18.7 4.8 9.5 2.4 14.3-6.4 12.2-10.7z"/><path opacity=".3" clip-path="url(#b)" d="M592.4 765c.2-2.3.6-4.8 1-6.6-4.3-2.8-8.6-1.7-13.2 2 1.1 4.1 2.7 9.5 6.7 11.6 5.6 2.9 11.5.9 11.5.9s-6.4-3.8-6-7.9zM622.9 745c.1-.2.1-.4.2-.7-1.1-.2-2.2-.3-3.3-.2-2.6.4-3.9 1.9-5.2 3.9 1.2 1.5 3.3 4 5.9 5.8 3.9 2.8 9.7 2.4 9.7 2.4s-8.3-8.8-7.3-11.2z"/><path opacity=".9" clip-path="url(#b)" fill="#15252D" d="M1075.6 1000c-1.2-.5-2.4-1.1-3.7-1.4.4.1-1.5.1-1.4 0-.2.1-.3.1-.5.2 0 0 0 .1-.1.3-.1.2-.2.3-.2.4 0 0 0 .1-.1.1-.1.3-.3.7-.4 1l-.6 2.1s-.2 1.4-.2 1.3c0 .3-.1.7-.1 1 1.2-.6 2.1-1 2.1-1s4.4 17.7 3.2 21.8c-1.1 4 4.7-7.1 5.1-12 .3-3.7-1.5-10.5-2.4-13.5-.4-.2-.5-.2-.7-.3zM1091.2 988.7c-.9-.6-1.6-1.4-2.2-2.3-.8-1.3-3.5-.4-4.5.3-1.1.7-1.3 2.5-1.4 4.2.8.7 1.3 1.7 1.2 3.4-.3 4.1-1.4 18.1-1.4 18.1s8.2-9.3 8.3-21.7c-.1-.6-.1-1.3 0-2z"/><path opacity=".3" clip-path="url(#b)" d="M555.9 743.9c.2-1.3.9.6 0 0-1.2-.9-3-3.3-4.5-3.8-.9-.3-1.8-.6-2.7-.8-.8 1.4-6.9 4.6-5.4 16.8.6 5.2 7.3 13 7.3 13s3.2-19.6 5.8-21.1c.1-.1.3-.2.5-.2-.7-1-1.2-2.3-1-3.9zM531.6 736.6c-1.2-2.6-5.3-2.6-8.3-2.4-1 3.1-3.6 11.7-2.6 15.2 1.3 4.2 5.5 13.7 5.5 13.7s3.8-15.4 5-20.3c.4-1.7 1.8-2.6 3.5-3.2-1.2-.5-2.3-1.5-3.1-3z"/><path clip-path="url(#b)" fill="#15252D" d="M1033 752.6c-2.1-4.3-8-23.8-12.1-34.9-4.1-11.1-12.1-25-18-33.7-5.9-8.7-1.5-12.5-4.5-16.9-3-4.4-3.5-18.5-3.9-24.3-.4-5.8-16.7-40.2-27.2-54.3-10.5-14.1-16.5-31.9-22.3-42.3-5.8-10.4-24-30.9-38.6-35.3-14.5-4.5-16.4-12.1-25-19.4-8.5-7.3-37.2-31.9-49.1-38.7-11.9-6.7-33.7-13.4-40.2-15.6-6.5-2.2-29.6-13.1-34.7-11.9-5.1 1.3-15.6-2.1-31.7-7.5s-62.9-10.8-66.9-11.9c-4-1.1-35.1 3.8-40.1 5.1-5.1 1.3-22.9-3.5-30.4-2.4s-29.4 5.1-35.2 5.5c-5.8.4-46 6.3-56.9 7.9-10.9 1.6-27.6 13.5-30.2 15.8-2.7 2.3-19.1 1-23.2.6-4.1-.3-35-7.7-35-7.7s30 39.6 29.6 44.6c-.4 4.9 33.5 47.4 41.3 53.8 7.8 6.4 26.2 14.5 37.3 20.3 11.1 5.8 50.9 37.1 60.3 43.7 9.4 6.5 68.9 39.4 84.6 50.6 15.7 11.2 124.8 55.4 126.2 58 1.4 2.4 33.4 18.9 51.5 24.8 10.7.6 21.4 1.4 32 3 21.4 3.3 42.3 9.2 63.3 14.3 16.3 2.5 30.1 4.2 30.1 4.2s34 10.1 38.1 10.5c4.1.3 8.9 2.4 18.7 4.8 9.5 2.4 14.3-6.4 12.2-10.7z"/><g opacity=".4" clip-path="url(#b)"><path fill="#F1F1F2" d="M1033 752.6c.7 1.5.6 3.3 0 4.8-.6 1.6-1.5 2.9-2.8 4-1.3 1.1-2.8 1.8-4.4 2-1.6.3-3.3.2-4.9-.2-3.2-.7-6.4-1.7-9.5-2.6-3.2-.9-6.3-2-9.6-2.3-3.2-.5-6.4-1.5-9.6-2.3-3.2-.9-6.3-1.7-9.5-2.6-6.3-1.8-12.6-3.6-18.9-5.5l-30.1-4.2c-15.7-3.8-31.3-8.1-47.2-11.3-7.9-1.6-15.9-3.1-23.9-4-8-1-16.1-1.5-24.2-1.9-6.2-2.1-12.2-4.6-18.1-7.2-5.9-2.6-11.8-5.4-17.6-8.4-2.9-1.5-5.8-3-8.6-4.5-1.4-.8-2.8-1.6-4.2-2.5-.7-.4-1.4-.9-2-1.4-.3-.3-.7-.5-.9-.8-.2-.3-.6-.5-.9-.7-2.8-1.5-5.8-2.8-8.8-4.2l-8.9-3.9c-23.8-10.4-47.7-20.5-71.4-31.2-5.9-2.7-11.8-5.4-17.7-8.2-5.8-2.8-11.7-5.6-17.3-9-5.3-3.7-10.8-7.1-16.4-10.5-5.5-3.4-11.1-6.7-16.7-9.9l-33.7-19.5c-5.6-3.3-11.2-6.5-16.7-9.9-2.8-1.7-5.3-3.7-8-5.6l-7.8-5.9c-7.4-5.6-14.8-11.2-22.2-16.7-3.7-2.8-7.5-5.5-11.2-8.2-3.8-2.7-7.6-5.3-11.5-7.7-2-1.2-4.1-2.2-6.1-3.3l-6.2-3.1c-4.2-2-8.3-4.1-12.4-6.2-4.1-2.2-8.2-4.4-12-7-1-.6-1.9-1.4-2.8-2.1-.9-.8-1.7-1.6-2.5-2.4-1.6-1.7-3.2-3.4-4.7-5.1-6.1-7-11.9-14.2-17.6-21.5-2.8-3.7-5.6-7.4-8.3-11.1-1.3-1.9-2.7-3.8-3.9-5.7-1.3-1.9-2.5-3.9-3.5-6-.1-.3-.2-.5-.3-.8l-.1-.4v-.5c0-.6-.2-1.1-.4-1.6-.4-1.1-1-2.1-1.5-3.1-1.1-2-2.3-4-3.6-5.9-2.5-3.9-5.1-7.7-7.8-11.5-5.3-7.6-10.8-15-16.4-22.4l-.2-.2.3.1c8.2 2 16.5 3.9 24.8 5.7 2.1.5 4.1.9 6.2 1.3 1 .2 2.1.4 3.1.6 1 .2 2.1.2 3.2.3 4.2.3 8.5.5 12.7.5 2.1 0 4.2-.1 6.3-.5.5-.1 1-.3 1.5-.5.4-.2.8-.6 1.3-.9.8-.6 1.7-1.3 2.6-1.9 3.5-2.5 7.1-4.7 10.7-6.8 3.7-2.1 7.5-3.9 11.5-5.3 2-.7 4.1-1.1 6.2-1.4l6.3-.9 25.2-3.6 12.6-1.7c4.2-.5 8.4-1.2 12.6-1.5 8.4-1 16.7-2.6 25.1-4l6.3-1c1-.2 2.1-.4 3.2-.4.5-.1 1.1-.1 1.6-.1h1.6c4.2.2 8.4.9 12.6 1.5l6.3.9c2.1.2 4.2.5 6.3.4 1-.1 2.1-.4 3.1-.6l3.1-.6c2.1-.4 4.2-.7 6.3-1.1 4.2-.7 8.4-1.3 12.6-1.9 4.2-.5 8.4-1.1 12.6-1.3 1.1 0 2.1-.1 3.2 0 .5.1 1 .2 1.6.3.5.1 1 .2 1.6.3l6.3.9 12.6 1.8c8.4 1.2 16.8 2.5 25.1 4 4.2.8 8.3 1.6 12.5 2.5 1 .2 2.1.5 3.1.8l1.5.4 1.5.5c2 .6 4 1.3 6 2 4 1.3 8 2.7 12.1 3.8 2 .6 4.1 1.1 6.1 1.6 2.1.5 4.2.8 6.3.9 1.1.1 2.1-.1 3.1-.3 1.1-.2 2.1 0 3.2.2 2.1.4 4.1 1.1 6.1 1.7 4 1.4 7.9 2.9 11.9 4.5 3.9 1.6 7.8 3.3 11.8 4.8 4 1.4 8 2.6 12.1 4 8 2.7 16 5.6 23.7 9.1 7.8 3.4 14.5 8.7 21.3 13.8 6.7 5.2 13.3 10.6 19.8 16l9.7 8.2c1.6 1.4 3.2 2.7 4.8 4.1 1.6 1.4 3.1 2.9 4.5 4.5 2.8 3.1 5.5 6.5 8.9 9 3.4 2.5 7.3 4.3 11.4 5.5 4 1.3 7.7 3.5 11.2 6 3.5 2.5 6.7 5.2 9.8 8.1 6.1 5.9 11.8 12.3 16.3 19.4 2.2 3.6 4 7.5 5.8 11.3 1.8 3.9 3.5 7.7 5.3 11.5 3.6 7.6 7.7 15.1 12.8 21.9 2.5 3.4 4.7 7.1 6.8 10.7 2.1 3.7 4.2 7.4 6.1 11.1 3.9 7.5 7.6 15.2 10.8 23 .8 2 1.6 3.9 2.2 6 .1.5.3 1 .4 1.5.1.5.2 1 .2 1.6l.2 3.2c.3 4.2.6 8.5 1.2 12.6.3 2.1.7 4.2 1.5 6.2.4 1 .9 1.9 1.5 2.8.5 1 .6 2 .7 3.1 0 2.1-.2 4.3.3 6.3.4 2.1 1.3 4 2.5 5.8 4.7 7 9.1 14.3 12.9 21.9 1.9 3.8 3.7 7.6 5.2 11.6s2.8 8 4.2 12l4 12.1c1 4.1 2.2 8.2 4 12-1.7-3.9-3-7.9-4.4-11.9l-4-12.1c-1.4-4-2.7-8-4.2-12s-3.3-7.8-5.2-11.6c-3.8-7.6-8.2-14.8-12.9-21.9-1.1-1.8-2-3.7-2.5-5.8-.5-2.1-.3-4.2-.3-6.3 0-1.1-.2-2.1-.7-3.1-.5-.9-1.1-1.8-1.5-2.8-.7-2-1.1-4.1-1.5-6.2-.7-4.2-1-8.4-1.2-12.6l-.2-3.2c0-.5-.2-1-.2-1.6-.1-.5-.3-1-.4-1.5-.6-2-1.4-4-2.2-6-3.2-7.8-6.9-15.5-10.8-23-2-3.7-4-7.5-6.1-11.1-2.1-3.7-4.3-7.3-6.8-10.7-5.1-6.8-9.2-14.3-12.8-21.9-1.8-3.8-3.6-7.7-5.3-11.5-1.8-3.8-3.5-7.7-5.8-11.3-4.5-7.2-10.2-13.6-16.3-19.4-3.1-2.9-6.3-5.7-9.7-8.1-3.5-2.4-7.1-4.6-11.2-5.9-4-1.3-8-3-11.4-5.5-3.4-2.5-6.1-5.9-8.9-9-1.4-1.6-2.9-3.1-4.5-4.5s-3.2-2.8-4.8-4.1l-9.7-8.2c-6.5-5.4-13.1-10.8-19.8-16-6.7-5.1-13.5-10.4-21.3-13.8-7.7-3.5-15.7-6.4-23.7-9.1-4-1.4-8.1-2.6-12.1-4-4-1.5-7.8-3.2-11.8-4.8-3.9-1.6-7.9-3.2-11.9-4.5-2-.7-4-1.3-6.1-1.7-1-.2-2.1-.4-3.1-.2s-2.1.4-3.2.3c-2.1-.1-4.2-.4-6.3-.9-2.1-.5-4.1-1-6.2-1.6-4.1-1.2-8.1-2.5-12.1-3.8-2-.7-4-1.4-6-2l-1.5-.5-1.5-.4c-1-.3-2-.5-3.1-.8-4.1-.9-8.3-1.8-12.5-2.5-8.3-1.5-16.7-2.8-25.1-4l-12.6-1.8-6.3-.9c-.5-.1-1-.2-1.6-.3-.5-.1-1-.2-1.6-.3-1-.1-2.1-.1-3.2 0-4.2.2-8.4.8-12.6 1.3-4.2.6-8.4 1.2-12.6 1.9-2.1.3-4.2.7-6.3 1.1l-3.1.6c-1 .2-2.1.5-3.1.6-2.1.1-4.2-.1-6.4-.4l-6.3-.9c-4.2-.6-8.4-1.3-12.6-1.4h-1.6c-.5 0-1.1 0-1.6.1-1 .1-2.1.3-3.1.4l-6.3 1c-8.4 1.4-16.7 2.9-25.1 4-4.2.3-8.4.9-12.6 1.5l-12.6 1.7-25.2 3.6-6.3.9c-2.1.3-4.2.7-6.2 1.4-4 1.4-7.8 3.2-11.5 5.3-3.7 2.1-7.3 4.4-10.7 6.8-.9.6-1.7 1.2-2.6 1.9-.4.3-.8.7-1.3 1-.5.2-1 .4-1.5.5-2.1.4-4.2.5-6.3.5-4.2 0-8.5-.2-12.7-.5-1.1-.1-2.1-.1-3.2-.3-1.1-.2-2.1-.4-3.1-.6-2.1-.4-4.2-.9-6.2-1.3-8.3-1.8-16.5-3.8-24.8-5.7l.1-.2c5.6 7.4 11 14.9 16.4 22.4 2.7 3.8 5.3 7.6 7.8 11.5 1.2 2 2.5 3.9 3.6 5.9.5 1 1.1 2 1.5 3.1.2.5.4 1.1.4 1.7v.4l.1.4c.1.3.2.5.3.8.9 2.1 2.2 4 3.5 6l3.9 5.7c2.7 3.8 5.5 7.5 8.3 11.1 5.7 7.3 11.5 14.5 17.6 21.4 1.5 1.7 3.1 3.5 4.7 5.1.8.8 1.6 1.6 2.5 2.4.9.7 1.8 1.4 2.8 2.1 3.8 2.6 7.9 4.8 12 7 4.1 2.1 8.3 4.2 12.4 6.2l6.2 3.1c2.1 1 4.1 2.1 6.1 3.3 4 2.4 7.7 5.1 11.5 7.7 3.8 2.7 7.5 5.4 11.2 8.2 7.4 5.5 14.8 11.1 22.2 16.7l7.8 5.9c2.6 1.9 5.2 3.9 7.9 5.6 5.5 3.4 11.1 6.7 16.7 9.9L629 624c5.6 3.3 11.2 6.6 16.7 10 5.5 3.4 11.1 6.8 16.4 10.5 5.5 3.4 11.4 6.2 17.2 9 5.9 2.8 11.8 5.5 17.7 8.2 23.7 10.7 47.6 20.8 71.4 31.2l8.9 4c3 1.4 5.9 2.7 8.8 4.2 2.4 2.2 5.3 3.7 8.1 5.3 2.8 1.6 5.7 3.1 8.6 4.6 5.8 2.9 11.6 5.7 17.6 8.4 5.9 2.6 11.9 5.1 18.1 7.2 8.1.4 16.1 1 24.2 1.9 8 .9 16 2.4 23.9 4 15.8 3.3 31.5 7.5 47.2 11.4l30.1 4.2c6.3 1.9 12.6 3.7 18.9 5.5 3.2.9 6.3 1.8 9.5 2.6s6.3 1.8 9.6 2.3c3.3.3 6.4 1.4 9.6 2.3 3.2.9 6.3 1.8 9.5 2.6 1.6.4 3.3.4 4.9.2 1.6-.3 3.2-1 4.4-2 1.3-1.1 2.3-2.4 2.8-4 .4-1.7.6-3.5-.1-5z"/></g><g clip-path="url(#b)"><path fill="#F1F1F2" d="M538.9 477.6c7.7-11.1 17.5-20.6 28.9-27.8 1.4-.9 2.8-1.8 4.3-2.7l4.4-2.5c1.5-.9 3-1.6 4.5-2.3 1.5-.7 3-1.5 4.6-2.2l4.7-2c.8-.3 1.5-.7 2.3-1l2.4-.9 4.7-1.7 4.8-1.5 2.4-.8 2.4-.7 4.9-1.3 4.9-1.1 2.5-.6 2.5-.5 5-.9 5-.7 2.5-.4 2.5-.3 5-.5-5 .6-2.5.3-2.5.4-5 .8-5 .9-2.5.5-2.5.6-4.9 1.1-4.9 1.3-2.4.7-2.4.8-4.8 1.5-4.7 1.8-2.4.9c-.8.3-1.5.7-2.3 1l-4.6 2c-1.5.7-3 1.5-4.5 2.2-1.5.7-3 1.5-4.5 2.3l-4.4 2.5c-1.4.9-2.8 1.8-4.3 2.7-11.3 7.1-21.3 16.5-29.1 27.5z"/></g><g clip-path="url(#b)"><path fill="#F1F1F2" d="M719.4 613.6c1.1-1.3 2.3-2.6 3.5-3.9 1.1-1.3 2-2.8 2.8-4.4 1.4-3.2 2.4-6.5 3.3-9.9 1.7-6.7 2.6-13.6 3.2-20.6 1.1-13.8.9-27.8.1-41.6-.7-13.9-2-27.7-3.5-41.5-.3-3.5-.8-6.9-1.2-10.4-.4-3.4-.8-6.9-1.4-10.3-.6-3.4-1.5-6.8-3.2-9.8-1.7-3-4.2-5.5-7-7.5l-2.2-1.4-2.3-1.3c-.7-.4-1.5-.8-2.3-1.2l-2.3-1.2-4.8-2.1c-1.6-.6-3.3-1.2-4.9-1.8-6.6-2.2-13.3-4-19.9-6.3-3.3-1.1-6.5-2.4-9.6-3.9-3.1-1.5-6.1-3.3-8.9-5.5-5.5-4.2-9.7-10.1-12.2-16.6 2.5 6.5 6.7 12.3 12.2 16.6 2.7 2.1 5.7 3.9 8.9 5.4 3.1 1.5 6.4 2.8 9.6 3.9 6.6 2.3 13.3 4 19.9 6.3 1.6.6 3.3 1.1 4.9 1.8 1.6.6 3.2 1.4 4.8 2.1l2.3 1.2c.8.4 1.6.8 2.3 1.2l2.3 1.3 2.2 1.4c2.8 2 5.4 4.5 7.1 7.6 1.7 3 2.6 6.5 3.3 9.9.6 3.4 1 6.9 1.4 10.3.4 3.4.9 6.9 1.2 10.4 1.5 13.8 2.9 27.7 3.6 41.5.7 13.9.8 27.8-.3 41.7-.6 6.9-1.6 13.8-3.3 20.6-.9 3.4-1.9 6.7-3.3 9.9-.8 1.6-1.7 3-2.9 4.4-1 1.1-2.2 2.4-3.4 3.7z"/></g><g clip-path="url(#b)"><path fill="#F1F1F2" d="M843.4 648.2c1.1-29.1 4.1-58.1 3.1-87.2-.2-7.3-.8-14.5-1.6-21.7-.2-1.8-.5-3.6-.7-5.4l-.4-2.7c-.1-.9-.3-1.8-.5-2.7l-1-5.4c-.5-1.7-.9-3.5-1.5-5.2-.5-1.7-1.3-3.4-2-5.1l-1.2-2.5-.6-1.2-.6-1.2c-1.7-3.2-3.6-6.3-5.7-9.3-4.2-6-8.9-11.5-14-16.6-10.3-10.2-22.1-19-35-25.8-6.4-3.4-13.1-6.3-20.1-8.5-6.9-2.2-14.1-3.6-21.4-3.8 7.3.2 14.5 1.5 21.4 3.7 7 2.1 13.7 5.1 20.1 8.5 12.9 6.8 24.7 15.6 35.1 25.8 5.2 5.1 9.9 10.7 14.1 16.6 2 3 4 6.1 5.7 9.3l.7 1.2.6 1.2 1.2 2.5c.7 1.7 1.4 3.4 2 5.1.6 1.7 1.1 3.5 1.6 5.2l1 5.4c.2.9.3 1.8.5 2.7l.4 2.7c.2 1.8.5 3.6.7 5.4.8 7.2 1.4 14.5 1.6 21.8.9 29.1-2.3 58.1-3.5 87.2z"/></g><g clip-path="url(#b)"><path fill="#F1F1F2" d="M948.3 660.7c2.2-3.5 3.7-7.4 4-11.5.4-4.1-.1-8.2-1.2-12.2-2.2-7.9-6.1-15.3-10-22.5-1.9-3.6-3.9-7.3-5.6-11-1.8-3.7-3.4-7.5-4.4-11.5-2.1-8.1-1.5-16.4-2.5-24.6-.5-4.1-1.3-8.1-2.7-12-1.7-3.7-4-7.2-6.5-10.4-2.5-3.3-5-6.5-7.1-10.1-2.1-3.5-3.7-7.4-4.4-11.5.7 4.1 2.3 7.9 4.4 11.4 2.1 3.5 4.7 6.8 7.2 10 2.5 3.3 4.9 6.7 6.6 10.4 1.5 3.9 2.3 7.9 2.8 12 1 8.2.5 16.5 2.6 24.5 1.1 4 2.7 7.8 4.5 11.5 1.8 3.7 3.7 7.3 5.7 11 3.8 7.3 7.7 14.7 9.8 22.7 1 4 1.6 8.2 1.1 12.3-.5 4-2.1 8-4.3 11.5z"/></g><g clip-path="url(#b)"><path fill="#F1F1F2" d="M717 613.4c-16.6-4.6-32.8-10.3-48.6-17.2l-5.8-2.7-2.9-1.4-2.9-1.5-5.8-2.9-5.7-3.1c-3.8-2-7.4-4.3-11.1-6.5-1.8-1.1-3.6-2.3-5.4-3.5-1.8-1.2-3.6-2.3-5.4-3.6-14.1-9.8-27.4-20.9-39.5-33.1l-4.5-4.6c-1.4-1.6-2.9-3.2-4.2-4.9-2.7-3.3-5.3-6.8-7.9-10.2-5.1-6.9-10-14-15.3-20.8-5.3-6.8-10.9-13.3-17.5-18.8-3.3-2.7-6.8-5.3-10.4-7.6-3.6-2.4-7.3-4.6-11-6.7-7.5-4.3-15.1-8.3-22.5-12.6-7.4-4.3-14.7-9-21.4-14.4 6.7 5.4 13.9 10.1 21.4 14.4 7.4 4.3 15.1 8.3 22.5 12.6 3.7 2.1 7.4 4.3 11 6.7 3.6 2.3 7.1 4.9 10.4 7.6 6.6 5.5 12.3 12.1 17.6 18.8 5.3 6.8 10.2 13.8 15.3 20.7 2.6 3.4 5.2 6.9 7.9 10.2 1.3 1.7 2.8 3.3 4.2 4.9l4.5 4.6c12.1 12.2 25.4 23.2 39.5 33 1.7 1.3 3.6 2.4 5.3 3.6 1.8 1.2 3.6 2.4 5.4 3.5 3.7 2.2 7.3 4.5 11.1 6.5l5.6 3.1 5.7 2.9 2.9 1.5 2.9 1.4 5.8 2.7c16 7 32.2 12.7 48.8 17.4z"/></g><g clip-path="url(#b)"><path fill="#F1F1F2" d="M994.4 685c-7.8-2.2-15.6-4.4-23.5-5.9s-15.9-3.2-23.8-4.8c-7.9-1.6-15.9-3.2-23.8-4.5-4-.7-8-1.3-12-1.8-2-.2-4-.6-6-.6-2-.1-4 0-6 .1-4 .1-8.1.5-12.1.4-2 0-4.1-.1-6.1-.4-1-.2-2-.3-3-.6-.5-.1-1-.3-1.5-.4-.5-.2-1-.3-1.4-.5-7.6-3.1-13.7-8.6-21-12.1-1.8-.8-3.7-1.5-5.7-1.8-2-.3-4-.1-6 .2-4 .6-7.9 1.7-11.9 2.5-2 .4-4 .7-6 .9-1 .1-2 .1-3 0l-3-.3c-4-.6-8-1.6-11.8-2.8-7.7-2.4-15.1-5.8-22.5-9-7.5-3-14.5-7.2-21.4-11.3-6.9-4.2-13.8-8.5-21.1-12-3.6-1.8-7.4-3.3-11.2-4.6-3.9-1.2-7.8-2-11.9-2.2 4 .2 8 1 11.9 2.2 3.8 1.3 7.6 2.8 11.2 4.6 7.3 3.5 14.2 7.8 21.1 11.9 6.9 4.1 13.9 8.2 21.4 11.3 7.4 3.2 14.8 6.5 22.5 8.9 3.9 1.2 7.8 2.2 11.8 2.7l3 .3c1 .1 2 0 3 0 2-.2 4-.5 6-.9 4-.8 7.9-1.9 11.9-2.5 2-.3 4-.5 6.1-.2 2 .3 4 1 5.8 1.8 7.3 3.5 13.5 9 21 12 .5.2.9.3 1.4.5.5.2.9.3 1.4.4 1 .2 2 .4 3 .5 2 .3 4 .4 6 .4 4 0 8.1-.3 12.1-.5 2-.1 4.1-.1 6.1 0s4 .4 6 .7c4 .6 8 1.2 12 1.9 8 1.4 15.9 3 23.8 4.6 7.9 1.6 15.8 3.3 23.8 4.9 7.9 1.6 15.7 3.8 23.4 6z"/></g><g clip-path="url(#b)"><path fill="#F1F1F2" d="M954.2 722.4c0-4.7-.7-9.3-1.9-13.8-1-4.5-2.4-9-3.5-13.5s-1.9-9.2-2.1-13.8c.2 4.7 1.1 9.3 2.3 13.8 1.2 4.5 2.7 8.9 3.8 13.5 1 4.4 1.6 9.1 1.4 13.8z"/></g><g clip-path="url(#b)"><path fill="#F1F1F2" d="M1001.2 725.3c-1.3-4-3.1-7.8-5-11.6-1.8-3.8-3.6-7.7-5-11.7-1.4-4-2.2-8.2-2.1-12.4 0 4.2.8 8.4 2.3 12.4 1.4 4 3.3 7.7 5.2 11.5 1.7 3.8 3.4 7.7 4.6 11.8z"/></g><g clip-path="url(#b)"><path fill="#F1F1F2" d="M887.8 714.7c-.8-4.5-2.3-8.9-3.7-13.2-.7-2.2-1.3-4.4-1.9-6.7-.5-2.3-.9-4.5-1-6.8-.2-4.6.9-9.3 3.2-13.3-2.1 4.1-3.2 8.7-2.9 13.3.1 2.3.6 4.5 1.1 6.8.6 2.2 1.3 4.4 2 6.6 1.2 4.3 2.5 8.7 3.2 13.3z"/></g><g clip-path="url(#b)"><path fill="#F1F1F2" d="M801.4 686.3c.7-3.1 1.1-6.2 1.1-9.4.4-6.3-.3-12.6-1.4-18.8 1.2 6.2 2.1 12.5 1.9 18.8-.2 3.2-.7 6.4-1.6 9.4z"/></g><g clip-path="url(#b)"><path fill="#F1F1F2" d="M658.1 625.3c1.8-2.5 3.4-5.2 4.7-8 2.8-5.5 4.5-11.6 5.6-17.7-.9 6.1-2.5 12.2-5.2 17.9-1.4 2.7-3.2 5.4-5.1 7.8z"/></g><g clip-path="url(#b)"><path fill="#F1F1F2" d="M604.9 564.8c-1.9 3.4-4.5 6.5-7.7 8.9-3.2 2.4-6.8 4.1-10.5 5.5-3.7 1.4-7.5 2.4-11.4 3.1 3.8-.8 7.7-1.9 11.3-3.3 3.6-1.5 7.2-3.3 10.3-5.7 3.2-2.2 6-5.2 8-8.5z"/></g><g clip-path="url(#b)"><path fill="#F1F1F2" d="M522.5 538.4c4.5-1.6 8.9-3.7 12.9-6.3 8.2-5 15.1-11.8 22.2-18.2-7 6.5-13.8 13.4-22 18.6-4.1 2.4-8.5 4.4-13.1 5.9z"/></g><g clip-path="url(#b)"><path fill="#F1F1F2" d="M532.4 477.1c-4.3 2-8.6 3.8-13.2 5.1l-1.7.5c-.6.2-1.1.3-1.7.4l-3.4.9-3.5.7-1.7.3-1.8.2c-4.7.7-9.4.9-14.1 1.1-4.7.1-9.4 0-14.1-.1-9.4-.4-18.8-1.1-28.2-1.7 9.4.4 18.8 1.1 28.2 1.4 4.7.2 9.4.2 14.1 0 4.7-.2 9.4-.5 14-1.2l1.7-.2 1.7-.3 3.5-.6 3.4-.8c.6-.1 1.1-.3 1.7-.4l1.7-.5c4.7-1.1 9-2.9 13.4-4.8z"/></g><g clip-path="url(#b)"><path fill="#15252D" d="M545.4 736c.4-1.1.8-2.1 1.1-3.2.9-2.1 1.6-4.2 2.1-6.5-.4 2.2-1 4.5-1.7 6.6-.4 1.1-1 2.1-1.5 3.1z"/></g><g clip-path="url(#b)"><path fill="#231F20" d="M360.7 451.5c5-2.7 10.5-4 15.8-5.9 2.7-.9 5.3-1.9 7.7-3.4 2.4-1.4 4.6-3.2 6.8-5 2.2-1.8 4.4-3.6 7-4.7 2.6-1.1 5.4-1.6 8.2-1.6-2.8 0-5.6.6-8.2 1.7-2.6 1.2-4.7 3-6.9 4.8-2.1 1.8-4.3 3.6-6.8 5.1-2.4 1.5-5 2.6-7.7 3.5-5.3 1.8-10.8 2.9-15.9 5.5z"/></g><g clip-path="url(#b)"><path fill="#231F20" d="M397 445.6c.4-.8.9-1.6 1.5-2.3 1.3-1.3 2.7-2.5 4.1-3.6-1.3 1.2-2.7 2.5-3.8 3.9-.6.7-1.2 1.3-1.8 2z"/></g><g clip-path="url(#b)"><path fill="#231F20" d="M393.5 463.2c2.6-.6 5.2-1.2 7.8-1.9 5.2-1.1 10.5-2.2 15.8-3.1-5.3 1-10.4 2.3-15.7 3.6-2.6.5-5.2 1-7.9 1.4z"/></g><g clip-path="url(#b)"><path fill="#231F20" d="M356.9 494.6c-1.4 1.8-3.1 3.3-5 4.5-2 1.1-4.1 1.9-6.3 2.5-2.2.6-4.4.9-6.7.9 2.2-.1 4.5-.5 6.6-1.1 2.1-.6 4.2-1.5 6.1-2.7 2-1 3.8-2.4 5.3-4.1z"/></g><g clip-path="url(#b)"><path fill="#231F20" d="M368.5 499.5l.9-.6c.7-.2 1.3-.5 1.9-1-.4.6-1 1.1-1.7 1.5-.3 0-.7 0-1.1.1z"/></g><g clip-path="url(#b)"><path fill="#231F20" d="M408 510.5c4.9-.2 9.8-.7 14.6-1.7 2.4-.4 4.8-1.1 7.1-1.9.6-.2 1.1-.4 1.7-.7.6-.2 1.1-.4 1.7-.7l1.7-.8 1.6-.9c4.3-2.4 7.8-5.9 10.6-10-2.7 4.1-6.3 7.7-10.5 10.2l-1.6.9-1.7.8c-.5.3-1.1.5-1.7.7-.6.2-1.1.5-1.7.7-2.3.8-4.7 1.5-7.1 2-4.9 1-9.8 1.3-14.7 1.4z"/></g><g clip-path="url(#b)"><path fill="#231F20" d="M412.4 523.2c-.5.5-1 1-1.6 1.4-1.3.6-2.6.9-4 .9 1.4-.1 2.7-.6 3.8-1.3.6-.3 1.2-.6 1.8-1z"/></g><g clip-path="url(#b)"><path fill="#231F20" d="M419.5 532.9c.9-.6 1.9-1.3 2.8-2 1.9-1.2 3.8-2.5 5.6-3.9-1.7 1.5-3.5 3-5.3 4.3-1.1.6-2.1 1.1-3.1 1.6z"/></g><g clip-path="url(#b)"><path fill="#FFF100" d="M1018.1 902.1c5.3 0 5.3-8.3 0-8.3-5.3.1-5.3 8.3 0 8.3z"/></g><g clip-path="url(#b)"><path fill="#FFF100" d="M1046.9 915.2c5.3 0 5.3-8.3 0-8.3s-5.3 8.3 0 8.3z"/></g><g clip-path="url(#b)"><path fill="#FFF100" d="M1041.6 929.7c5.3 0 5.3-8.3 0-8.3s-5.3 8.3 0 8.3z"/></g><g clip-path="url(#b)"><path fill="#FFF100" d="M1031.6 903.7c1.3 0 1.3-2.1 0-2.1s-1.4 2.1 0 2.1z"/></g><g clip-path="url(#b)"><path fill="#FFF100" d="M1024.9 918.6c1.3 0 1.3-2.1 0-2.1s-1.4 2.1 0 2.1z"/></g><g clip-path="url(#b)"><path fill="#FFF100" d="M1059.8 924.1c1.3 0 1.3-2.1 0-2.1-1.4.1-1.4 2.1 0 2.1z"/></g><g opacity=".3" clip-path="url(#b)"><path d="M825 721.2c17.8 13.4 169.5 62.9 174.9 36.9-43.8-13.2-126.6-33.2-172.3-35.9"/></g><g clip-path="url(#b)"><path fill="#FFF100" d="M355.7 519.7c-1 .1.5 0 .6.1-.6-.1-.6-.1-.2 0 .1 0 .3.1.4.1.3.1.2.1-.3-.1.2.1.4.2.5.3.4.2.7.5 1.1.7 1.7 1.3 4.7.3 5.6-1.5 1.2-2.2.4-4.2-1.5-5.6-2.6-2-5.4-2.4-8.6-1.9-2.1.3-3.5 3.1-2.9 5.1 1 2.2 3 3.1 5.3 2.8z"/></g><g opacity=".6" clip-path="url(#b)"><path fill="#FFF100" d="M531.4 615c-.1 1.3.1 2.6 1 3.7 1.2 1.6 3.4 2.2 5.3 1.4 1-.4 1.9-.9 2.5-1.9.5-.9.7-2.2.4-3.2-.3-1-.9-2-1.9-2.5-.9-.5-2.2-.8-3.2-.4-.2.1-.3.1-.5.1.4 0 .7-.1 1.1-.1h-.2c.4 0 .7.1 1.1.1h-.1c.3.1.7.3 1 .4 0 0-.1 0-.1-.1.3.2.6.4.8.6.2.3.4.6.6.8 0 0 0-.1-.1-.1.1.3.3.7.4 1v-.1c0 .4.1.7.1 1.1v-1c.1-1-.5-2.2-1.2-2.9-.7-.7-1.9-1.3-2.9-1.2-1.1 0-2.2.4-2.9 1.2-.8 1-1.1 2-1.2 3.1z"/></g><g clip-path="url(#b)"><path fill="#CCA54A" d="M541.8 629v-.5c.1-1-.5-2.2-1.2-2.9-.7-.7-1.9-1.3-2.9-1.2-1.1 0-2.2.4-2.9 1.2-.8.8-1.1 1.8-1.2 2.9v.5c-.1 1 .5 2.2 1.2 2.9.7.7 1.9 1.3 2.9 1.2 1.1 0 2.2-.4 2.9-1.2.8-.8 1.1-1.8 1.2-2.9z"/></g><g clip-path="url(#b)"><path fill="#CCA54A" d="M535.8 643.5c-.2.5-.3 1-.5 1.5.1-.3.3-.7.4-1-.3.6-1.1 1.8.1.3 1.3-.4 2.7-.7 4-1.1 1 1.7 1.9 3.4 2.9 5.1-.1.3-.3.7-.4 1 .3-.5.6-1 1-1.5-2.6-.7-5.1-1.4-7.7-2.1-.1 1.8.3 3.5 1.6 4.8 1.1 1.1 2.5 1.7 4 1.5 1.7-.2 3.1-1.4 3.6-3.1.3-.8.3-1.8.3-2.6 0-1 0-2.4-.7-3.2-.8-1.1-1.6-1.8-3-2-1.3-.2-2.5.2-3.5 1.1-.9.8-1.1 1.8-1.2 3 0-.4.1-.7.1-1.1 0 .2-.1.3-.1.4.1-.3.3-.7.4-1-.3.8-.7 1.5-1.2 2.2-1.1 1.9-.4 4.5 1.5 5.6 2.2 1.2 4.7 1.3 6.6-.4.5-.4.8-.9 1.2-1.4.3-.3-.8.9-.4.5l.2-.2c.3-.4-.9.5-.5.4.1 0 .2-.1.3-.2-.3.1-.7.3-1 .4.1 0 .2-.1.3-.1 2.1-.6 3.6-2.9 2.9-5.1-.7-2.1-2.9-3.5-5.1-2.9-1.1.3-2.1.9-2.9 1.8-.3.3-.6.7-.8 1-.2.3-.6.5.4-.5l-.2.2c-.5.4 1-.6.5-.4.3-.1.7-.3 1-.4-.1 0-.1 0-.2.1.4 0 .7-.1 1.1-.1h-.3c.4 0 .7.1 1.1.1-.1 0-.3-.1-.4-.1.3.1.7.3 1 .4-.2-.1-.3-.2-.5-.3.5 1.9 1 3.8 1.5 5.6.3-.4.5-.9.7-1.3.6-1.1 1-2.2 1.1-3.5 0 .4-.1.7-.1 1.1-.4.6-.7 1.2-1.1 1.8-2.2-.3-4.3-.6-6.5-.8-.1-.3-.3-.7-.4-1v.2c0-.4-.1-.7-.1-1.1.1.7.1 1.4 0 2.1 0-.4.1-.7.1-1.1 0 .1 0 .3-.1.4.1-.3.3-.7.4-1 .3-.6.8-1 1.3-1.3l2.1-.6 2.1.6c-.6-.4.7.7.3.2.1.1.6 1 .4.4.1.3.3.7.4 1 0-.1-.1-.2-.1-.3 0 .4.1.7.1 1.1v-1.1c.1-1.7-1.4-3.6-3-4-1.9-.4-3.6.3-4.7 1.9-.6.8-1 1.5-1.4 2.5-.3.9-.1 2.4.4 3.2.6.9 1.4 1.6 2.5 1.9 1.3.4 3.1.1 4-1.1 1-1.3 1.7-2.8 2.1-4.4.6-2.1-.7-4.6-2.9-5.1-2.1-.3-4.3.9-5 3.1z"/></g><g clip-path="url(#b)"><path fill="#CCA54A" d="M544.7 662.4c-.5 4.2.7 9.1 5 10.7 2 .7 4.2.1 5.7-1.3 1.3-1.2 2.1-3.2 1.9-5-.1-1.5-.5-2.6-1.1-3.9-.6-1.2-1.4-2.3-2.3-3.3-.6-.8-1.9-1.2-2.9-1.2s-2.2.4-2.9 1.2c-.7.8-1.3 1.8-1.2 2.9.1 1.1.5 2 1.2 2.9.2.2.3.4.5.6-.2-.3-.4-.6-.6-.8.5.7 1 1.4 1.3 2.2-.1-.3-.3-.7-.4-1 .2.5.3.9.4 1.4 0-.4-.1-.7-.1-1.1v.9c0-.4.1-.7.1-1.1 0 .2-.1.4-.2.6.1-.3.3-.7.4-1-.1.1-.1.3-.2.4.2-.3.4-.6.6-.8l-.3.3c.3-.2.6-.4.8-.6-.1.1-.2.1-.3.2.3-.1.7-.3 1-.4-.1.1-.3.1-.4.1.4 0 .7-.1 1.1-.1h-.4c.4 0 .7.1 1.1.1-.2 0-.3-.1-.5-.1.3.1.7.3 1 .4-.2-.1-.4-.2-.5-.3.3.2.6.4.8.6-.2-.2-.4-.4-.5-.6.2.3.4.6.6.8-.2-.3-.4-.6-.5-.9.1.3.3.7.4 1-.2-.6-.4-1.1-.5-1.7 0 .4.1.7.1 1.1-.1-1.1-.1-2.1 0-3.2.1-1-.6-2.3-1.2-2.9-.7-.7-1.9-1.3-2.9-1.2-1.1 0-2.2.4-2.9 1.2-.2.3-.4.6-.6.8-.4.7-.6 1.4-.6 2.1z"/></g><g clip-path="url(#b)"><path fill="#B58D5C" d="M524 657.8c-6.4 5.9-5.5 14.4 1.1 19.7 1.6 1.3 4.4 1.9 5.8 0 3.8-4.9 4.2-10.1 2.6-16-1.4-5.1-9.4-2.9-8 2.2.7 2.7 1.4 5.6-.4 8h5.8c-3.2-2.6-4.4-5-1.1-8.1 4-3.6-1.9-9.4-5.8-5.8z"/></g><g clip-path="url(#b)"><path fill="#B58D5C" d="M512.8 647.8c-.1 2.6 1.3 5 3.8 5.8 1.9.6 3.9 0 5.6-.9 1.9-1 2.7-3.8 1.5-5.6-1.2-1.9-3.6-2.6-5.6-1.5l-.6.3c.3-.1.7-.3 1-.4-.3.1-.6.2-.9.2.4 0 .7-.1 1.1-.1h-.5c.4 0 .7.1 1.1.1-.2 0-.3-.1-.5-.1.3.1.7.3 1 .4-.1 0-.1-.1-.2-.1.3.2.6.4.8.6-.1-.1-.2-.1-.2-.2.2.3.4.6.6.8-.1-.1-.1-.2-.2-.3.1.3.3.7.4 1 0-.1-.1-.3-.1-.4 0 .4.1.7.1 1.1v-.7c.1-2.2-2-4.2-4.1-4.1-2.3 0-4 1.8-4.1 4.1z"/></g><g clip-path="url(#b)"><path fill="#B58D5C" d="M508.3 635.3c.3 2.3.9 4.7 3.1 5.9 1.8 1 4 .8 5.8 0 1-.4 1.9-.9 2.5-1.9.5-.9.7-2.2.4-3.2-.6-1.9-2.9-3.7-5.1-2.9-.5.2-1 .4-1.6.5.4 0 .7-.1 1.1-.1h-.6c.4 0 .7.1 1.1.1-.7-.1.8.4.5.2-.1 0 .9.8.6.4-.4-.4.6.9.4.5-.3-.6.3 1 .1.3-.1-.3-.1-.6-.2-.8 0 .4.1.7.1 1.1v-.2c-.1-1.1-.4-2.1-1.2-2.9-.7-.7-1.9-1.3-2.9-1.2-1.1 0-2.2.4-2.9 1.2-.7.8-1.4 1.9-1.2 3z"/></g><g clip-path="url(#b)"><path fill="#B58D5C" d="M516 621c0 .4-.1.7-.1 1.1-.1 1 .5 2.2 1.2 2.9.7.7 1.9 1.3 2.9 1.2 1.1 0 2.2-.4 2.9-1.2.8-.8 1.1-1.8 1.2-2.9 0-.4.1-.7.1-1.1.1-1-.5-2.2-1.2-2.9-.7-.7-1.9-1.3-2.9-1.2-1.1 0-2.2.4-2.9 1.2-.8.8-1.1 1.7-1.2 2.9z"/></g><g clip-path="url(#b)"><path fill="#B58D5C" d="M524.6 638.2c5.3 0 5.3-8.3 0-8.3s-5.3 8.3 0 8.3z"/></g><g opacity=".6" clip-path="url(#b)"><path fill="#FFF100" d="M557.4 648.5c0 1.6.7 3 2 4 .8.6 1.7 1 2.8 1 .8 0 1.8-.3 2.5-.8.9-.6 1.6-1.4 1.9-2.5.3-1 .1-2.3-.4-3.2-.6-.9-1.4-1.7-2.5-1.9-1-.2-2.3-.2-3.2.4-.1.1-.2.1-.3.2.3-.1.7-.3 1-.4h-.1c.4 0 .7-.1 1.1-.1h-.1c.4 0 .7.1 1.1.1h-.1c.3.1.7.3 1 .4 0 0-.1 0-.1-.1.3.2.6.4.8.6-.1 0-.1-.1-.2-.2.2.3.4.6.6.8 0-.1-.1-.1-.1-.2.1.3.3.7.4 1 0-.1 0-.2-.1-.2 0 .4.1.7.1 1.1v-.1c0-1.1-.5-2.2-1.2-2.9-.7-.7-1.9-1.3-2.9-1.2-2.1.2-4 1.9-4 4.2z"/></g><g opacity=".6" clip-path="url(#b)"><path fill="#FFF100" d="M568 664.3c.2 1.2.5 2.4 1.1 3.4.5.7 1.1 1.4 1.8 1.8.8.5 1.6.6 2.5.7 1 .1 2.2-.5 2.9-1.2.7-.7 1.3-1.9 1.2-2.9 0-1.1-.4-2.2-1.2-2.9-.3-.2-.6-.4-.8-.6-.6-.4-1.3-.6-2.1-.6h-.1c.4 0 .7.1 1.1.1h-.2c.3.1.7.3 1 .4-.1 0-.1-.1-.2-.1.3.2.6.4.8.6l-.2-.2c.2.3.4.6.6.8l-.3-.6c.1.3.3.7.4 1-.2-.6-.4-1.3-.5-1.9-.2-1-1.1-2-1.9-2.5-.9-.5-2.2-.7-3.2-.4-1 .3-2 .9-2.5 1.9-.3 1-.4 2-.2 3.2z"/></g><g clip-path="url(#b)"><path fill="#B58D5C" d="M586.5 686.2c-.1 1.7.7 2.9 1.7 4.1.7.8 1.9 1.2 2.9 1.2s2.2-.4 2.9-1.2c.7-.8 1.3-1.8 1.2-2.9-.1-1.1-.5-2-1.2-2.9-.1-.1-.2-.2-.3-.4.2.3.4.6.6.8-.1-.1-.1-.1-.1-.2.1.3.3.7.4 1v-.1c0 .4.1.7.1 1.1v-.4c.1-1-.5-2.2-1.2-2.9-.7-.7-1.9-1.3-2.9-1.2-1.1 0-2.2.4-2.9 1.2-.8.7-1.1 1.6-1.2 2.8z"/></g><g opacity=".6" clip-path="url(#b)"><path fill="#FFF100" d="M564.1 691.2s-.1 0 0 0c.2-.1.6-.2.9-.4-.1 0-.2.1-.4.1.4 0 .7-.1 1.1-.1h-1.1c-1.5-.1-3.2.6-3.9 2-.9 1.9-.6 4.6 1.5 5.6 1.9.9 4.5 1.4 6.6.7 1.4-.5 2.5-1.4 3.3-2.6.1-.2.3-.4.4-.6-.8 1.2-.7.8-.4.6-1 .9-.8.6-.4.4.9-.4 1.6-1.6 1.9-2.5.3-1 .1-2.3-.4-3.2-.6-.9-1.4-1.7-2.5-1.9-1.1-.3-2.1-.1-3.2.4-1 .4-1.6 1.3-2.2 2.2-.1.1-.1.2-.2.2-.3.5.8-.9.4-.5-.1.1-.2.1-.2.2.7-.8.8-.6.3-.3.3-.1.7-.3 1-.4-.2.1-.4.1-.6.1.4 0 .7-.1 1.1-.1h-1c.4 0 .7.1 1.1.1-.6-.1-1.2-.2-1.8-.4.3.1.7.3 1 .4.5 1.9 1 3.8 1.5 5.6-1.2.7-2.4 1.4-3.6 2h.9c1 0 2.2-.2 3-.7.9-.7 1.6-1.4 1.9-2.5.3-1 .1-2.3-.4-3.2-1.1-1.5-3.7-2.6-5.6-1.2z"/></g><g clip-path="url(#b)"><path fill="#B58D5C" d="M536 682.7c-.3 2.8 0 5.9 1.5 8.4 1.2 2.1 3.2 3.8 5.6 4.3 2.5.6 5.1.1 7-1.6 1.9-1.6 2.5-4.5 1.7-6.8-1.1-3.4-4-5.8-6.9-7.6-1.8-1.2-4.6-.4-5.6 1.5-1.1 2.1-.5 4.4 1.5 5.6.6.4 1.1.7 1.6 1.2-.3-.2-.6-.4-.8-.6.9.7 1.7 1.4 2.4 2.3-.2-.3-.4-.6-.6-.8.3.4.6.9.8 1.4-.1-.3-.3-.7-.4-1 .1.3.2.6.3 1 0-.4-.1-.7-.1-1.1v.7c0-.4.1-.7.1-1.1 0 .2-.1.4-.2.6.1-.3.3-.7.4-1-.1.2-.2.3-.3.5.2-.3.4-.6.6-.8-.1.2-.3.3-.4.4.3-.2.6-.4.8-.6-.2.1-.4.3-.6.4.3-.1.7-.3 1-.4-.3.1-.5.2-.8.2.4 0 .7-.1 1.1-.1h-1.1c.4 0 .7.1 1.1.1-.4-.1-.8-.2-1.1-.3.3.1.7.3 1 .4-.4-.2-.7-.4-1-.6.3.2.6.4.8.6-.3-.3-.7-.6-.9-.9.2.3.4.6.6.8-.3-.4-.6-.9-.8-1.4.1.3.3.7.4 1-.3-.7-.5-1.4-.6-2.2 0 .4.1.7.1 1.1-.1-1.1-.1-2.2 0-3.3.1-1-.5-2.3-1.2-2.9-.7-.7-1.9-1.3-2.9-1.2-1.1 0-2.2.4-2.9 1.2-.2.3-.4.6-.6.8-.4.4-.6 1.1-.6 1.8z"/></g><g clip-path="url(#b)"><path fill="#B58D5C" d="M538.6 712.7c-.1 1.6.4 3.2 1.5 4.4.9 1 2.3 1.4 3.5 1.9.9.4 2.4.1 3.2-.4.9-.5 1.7-1.5 1.9-2.5.2-1.1.2-2.2-.4-3.2-.2-.3-.4-.6-.6-.8-.5-.5-1.1-.9-1.8-1.1-.2-.1-.5-.2-.7-.3.3.1.7.3 1 .4-.3-.1-.6-.3-.8-.4.3.2.6.4.8.6l-.2-.2c.2.3.4.6.6.8-.1-.1-.1-.2-.1-.3.1.3.3.7.4 1 0-.1-.1-.2-.1-.3 0 .4.1.7.1 1.1v-.8c.1-1-.5-2.2-1.2-2.9-.7-.7-1.9-1.3-2.9-1.2-1.1 0-2.2.4-2.9 1.2-.9.9-1.3 1.9-1.3 3z"/></g><g opacity=".6" clip-path="url(#b)"><path fill="#FFF100" d="M532.6 723.9c.6.1 1.3.3 1.9.5.5.1 1 .3 1.5.4.3.1.5.2.8.3-.4-.2.1.1.2.1 2.3 1.3 4.4-2.3 2.1-3.6-1.6-.9-3.6-1.3-5.3-1.7-2.7-.6-3.8 3.4-1.2 4z"/></g><g opacity=".6" clip-path="url(#b)"><path fill="#FFF100" d="M528.7 731.3c1.2.4 2.9 1 4-.1 1.4-1.5.2-3.1-.8-4.3-.7-.8-2.2-.8-2.9 0-.8.9-.7 2 0 2.9.1.1.1.2.2.2.1.2.1.1-.1-.1.1.1.2.2.2.3.3.4-.1-.4-.1-.2-.3-1.1.6-2.3 1.8-2.3-.4 0 .5.1.2 0-.1 0-.3-.1-.4-.1-.4-.1-.7-.2-1.1-.3-1-.3-2.3.4-2.5 1.4-.2 1.2.4 2.2 1.5 2.6z"/></g><g clip-path="url(#b)"><path fill="#B58D5C" d="M551.4 728.6c-1.3 1.4-2.5 3.2-2 5.2.5 1.9 2.4 2.9 4.2 3.3 2.6.7 3.7-3.3 1.1-4-.5-.1-.9-.2-1.3-.5-.2-.1-.2-.1-.1-.1l.1.1c.1.2.1.2.1.1-.1-.3.1.3 0 .3s.2-.5.1-.3c.2-.5.5-.8.9-1.2 1.6-1.9-1.3-4.8-3.1-2.9z"/></g><g opacity=".6" clip-path="url(#b)"><path fill="#FFF100" d="M551.8 731.3c0 .4.1.9.2 1.3.1.1.1.3.2.4.1.2 0 .5 0 0 0 1.1.9 2.1 2.1 2.1 1.1-.1 2.1-.9 2.1-2.1 0-.4-.1-.9-.2-1.3-.1-.1-.1-.3-.2-.4-.1-.2 0-.5 0 0 0-1.1-.9-2.1-2.1-2.1-1.1.1-2.1.9-2.1 2.1z"/></g><g opacity=".6" clip-path="url(#b)"><path fill="#FFF100" d="M522 661.8c-.6 1.4-1.6 2.5-1.9 4.1-.3 1.8-.2 3.9 1.1 5.2.8.8 2.2 1.4 3.3 1.7 1.5.4 3 .4 4.4-.3 1.1-.5 2-1.3 2.6-2.3.5-.9.8-2 .7-3.1 0-.2 0-.5-.1-.8 0-.4 0-.3-.1.5 0-.2.1-.3.1-.4.7-2-.8-4.6-2.9-5.1-2.3-.5-4.3.7-5.1 2.9-.3.9-.4 1.8-.3 2.8v.4c.1.4.1-.4.1-.6.2-.6.5-1 .9-1.4.4-.4-.1 0-.3.1l2.1-.6c-.2 0-.4 0-.6-.1.7.1.8.1.3 0-.4-.1-.3-.1.2.1l-.6-.3c.6.8 1.3 1.6 1.9 2.5.1.5.1.6.1.2-.1.7-.1.8 0 .4.2-.7-.5.9 0 0 .3-.5.7-1.1 1-1.6.9-2 .6-4.5-1.5-5.6-1.6-1.1-4.4-.8-5.4 1.3z"/></g><g opacity=".6" clip-path="url(#b)"><path fill="#FFF100" d="M536.1 650.2c.7.8 1.6 1.5 2.7 1.8 1.2.3 2.4.1 3.4-.5.8-.4 1.5-1.2 2-2 1.2-1.8.4-4.6-1.5-5.6-2.1-1.1-4.4-.5-5.6 1.5-.1.1-.1.2-.2.3.2-.3.4-.6.6-.8l-.2.2c.3-.2.6-.4.8-.6 0 0-.1 0-.1.1.3-.1.7-.3 1-.4-.1 0-.1 0-.2.1.4 0 .7-.1 1.1-.1h-.1c.4 0 .7.1 1.1.1h-.2c.3.1.7.3 1 .4-.1 0-.2-.1-.2-.2.3.2.6.4.8.6l-.5-.5c-.7-.8-1.9-1.2-2.9-1.2s-2.2.4-2.9 1.2c-.7.8-1.3 1.8-1.2 2.9.2 1 .6 1.9 1.3 2.7z"/></g><g opacity=".6" clip-path="url(#b)"><path fill="#FFF100" d="M546.9 665.9c.4 1 .8 1.9 1.2 2.9.2.4.5.8.8 1.1 1.5 1.5 4.3 1.7 5.9 0 .8-.9 1.2-1.8 1.2-3 0-.4-.1-1-.2-1.5-.1-.6-.2-1.1-.3-1.7-.2-1-1.1-2-1.9-2.5-.9-.5-2.2-.7-3.2-.4-1 .3-2 .9-2.5 1.9-.5 1-.6 2-.4 3.2.1.7.3 1.3.4 2 0-.4-.1-.7-.1-1.1v.1c0-.4.1-.7.1-1.1.1-.3.3-.7.4-1 .8-.6 1.6-1.3 2.5-1.9 1.1.1 2.1.3 3.2.4.3.2.6.4.8.6.2.3.4.6.6.8-.1-.1-.2-.3-.2-.5.1.3.3.7.4 1-.2-.6-.5-1.1-.7-1.7-.4-1-.9-1.9-1.9-2.5-.9-.5-2.2-.7-3.2-.4-1 .3-2 .9-2.5 1.9-.5 1.1-.8 2.4-.4 3.4z"/></g><g opacity=".6" clip-path="url(#b)"><path fill="#FFF100" d="M539.1 685.2c0 1.1.2 2.3.5 3.4.2.6.5 1.2.7 1.8.1.3.7 1.7.2.4.4 1 .9 1.9 1.9 2.5.9.5 2.2.7 3.2.4 1.9-.6 3.8-2.9 2.9-5.1-.2-.5-.5-1.1-.7-1.6-.1-.2-.1-.3-.2-.5.2.6.3.6.1.2-.1-.4-.2-.8-.3-1.1-.1-.5-.1-.4 0 .2v-.6c.1-2.2-2-4.2-4.1-4.1-2.4.1-4.1 1.8-4.2 4.1z"/></g><g opacity=".6" clip-path="url(#b)"><path fill="#FFF100" d="M516.9 651.9c5.3 0 5.3-8.3 0-8.3s-5.3 8.3 0 8.3z"/></g><g opacity=".6" clip-path="url(#b)"><path fill="#FFF100" d="M509.5 637.6c.2.2.3.4.5.6.7.8 1.9 1.2 2.9 1.2s2.2-.4 2.9-1.2c.7-.8 1.3-1.8 1.2-2.9-.1-1.1-.5-2-1.2-2.9-.2-.2-.3-.4-.5-.6-.7-.8-1.9-1.2-2.9-1.2s-2.2.4-2.9 1.2c-.7.8-1.3 1.8-1.2 2.9.1 1.2.5 2.1 1.2 2.9z"/></g><g opacity=".6" clip-path="url(#b)"><path fill="#FFF100" d="M525.2 637.6c5.3 0 5.3-8.3 0-8.3-5.3.1-5.3 8.3 0 8.3z"/></g><g opacity=".6" clip-path="url(#b)"><path fill="#FFF100" d="M516.7 623.3c.1.1.2.2.3.4-.2-.3-.4-.6-.6-.8.1.1.1.1.1.2-.1-.3-.3-.7-.4-1v.1c0-.4-.1-.7-.1-1.1v.4c-.1 1 .5 2.2 1.2 2.9.7.7 1.9 1.3 2.9 1.2 1.1 0 2.2-.4 2.9-1.2.8-.8 1.1-1.8 1.2-2.9.1-1.7-.7-2.9-1.7-4.1-.7-.8-1.9-1.2-2.9-1.2s-2.2.4-2.9 1.2c-.7.8-1.3 1.8-1.2 2.9.1 1.2.5 2.1 1.2 3z"/></g><g opacity=".6" clip-path="url(#b)"><path fill="#FFF100" d="M591.7 690.4c5.3 0 5.3-8.3 0-8.3s-5.3 8.3 0 8.3z"/></g><g opacity=".6" clip-path="url(#b)"><path fill="#FFF100" d="M565.1 698.8c5.3 0 5.3-8.3 0-8.3s-5.3 8.3 0 8.3z"/></g><g opacity=".6" clip-path="url(#b)"><path fill="#FFF100" d="M561.1 721.6c5.3 0 5.3-8.3 0-8.3-5.3.1-5.4 8.3 0 8.3z"/></g><g opacity=".6" clip-path="url(#b)"><path fill="#FFF100" d="M542.4 720.1c5.3 0 5.3-8.3 0-8.3-5.3.1-5.3 8.3 0 8.3z"/></g><g clip-path="url(#b)"><path fill="#231F20" d="M406.2 575.5c-6.4-2.6-12.6-6-18.3-10-10.5-9.2-19.4-19.8-29-29.6 10.4 9 20.2 18.9 31.1 27 4.9 4.7 10.3 9 16.2 12.6z"/></g><g clip-path="url(#b)"><path fill="#CD814D" d="M590.1 632.7c-12.3-1.5-4.5 11.8-.7 15.4 3.1 3 5.4 5.1 7.9 8.6 1.2 2 3.9 9.7 5.5 10.9 6.3 4.6 10.2-7.5 10.5-13.8.3-7.7-3.3-14.6-6.9-21.2-2.2-3.5-9.7-17.3-14.7-16.9-8.1.7-.1 12.1-.5 16.2-.8-.1-1.1.2-1.7.7"/></g><g clip-path="url(#b)"><path fill="#FFF100" d="M334.3 351.1c.8.9 1.8 1.3 2.7 2-.3-.2-.6-.4-.8-.6.2.1.3.3.5.5 1.4 1.6 4.4 1.6 5.8 0 1.6-1.7 1.5-4.1 0-5.8-.8-.9-1.8-1.3-2.7-2 .3.2.6.4.8.6-.2-.1-.3-.3-.5-.5-1.4-1.6-4.4-1.6-5.8 0-1.6 1.7-1.5 4.1 0 5.8z"/></g><g clip-path="url(#b)"><path fill="#FFF100" d="M517 518.1c5.3 0 5.3-8.3 0-8.3s-5.3 8.3 0 8.3z"/></g><g clip-path="url(#b)"><path fill="#FFF100" d="M570.4 565.3c5.3 0 5.3-8.3 0-8.3-5.3.1-5.3 8.3 0 8.3z"/></g><g clip-path="url(#b)"><path fill="#FFF100" d="M638.3 607.1c5.3 0 5.3-8.3 0-8.3-5.3.1-5.3 8.3 0 8.3z"/></g><g clip-path="url(#b)"><path fill="#FFF100" d="M740.8 650.8c5.3 0 5.3-8.3 0-8.3-5.3.1-5.3 8.3 0 8.3z"/></g><g clip-path="url(#b)"><path fill="#FFF100" d="M851.7 692.7c5.3 0 5.3-8.3 0-8.3-5.3.1-5.3 8.3 0 8.3z"/></g><g clip-path="url(#b)"><path fill="#FFF100" d="M920.5 703.2c5.3 0 5.3-8.3 0-8.3s-5.3 8.3 0 8.3z"/></g><g clip-path="url(#b)"><path fill="#FFF100" d="M987.9 730c5.3 0 5.3-8.3 0-8.3-5.3.1-5.3 8.3 0 8.3z"/></g><g clip-path="url(#b)"><path fill="#FFF100" d="M453.7 460.9c5.3 0 5.3-8.3 0-8.3-5.4 0-5.4 8.3 0 8.3z"/></g><g clip-path="url(#b)"><path fill="#FFF100" d="M639.8 498c10.6 0 10.6-16.5 0-16.5-10.6-.1-10.6 16.5 0 16.5z"/></g><g clip-path="url(#b)"><path fill="#FFF100" d="M795.8 555.8c10.6 0 10.6-16.5 0-16.5s-10.6 16.5 0 16.5z"/></g><g clip-path="url(#b)"><path fill="#FFF100" d="M891 577.4c10.6 0 10.6-16.5 0-16.5s-10.6 16.5 0 16.5z"/></g><g clip-path="url(#b)"><path fill="#FFF100" d="M633.7 529.8c5.3 0 5.3-8.3 0-8.3-5.4 0-5.4 8.3 0 8.3z"/></g><g clip-path="url(#b)"><path fill="#FFF100" d="M703.7 522.9c5.3 0 5.3-8.3 0-8.3s-5.3 8.3 0 8.3z"/></g><g clip-path="url(#b)"><path fill="#FFF100" d="M799.9 615.8c5.3 0 5.3-8.3 0-8.3s-5.3 8.3 0 8.3z"/></g><g clip-path="url(#b)"><path fill="#FFF100" d="M756.7 523c5.3 0 5.3-8.3 0-8.3s-5.3 8.3 0 8.3z"/></g><g clip-path="url(#b)"><path fill="#FFF100" d="M876.3 529.1c5.3 0 5.3-8.3 0-8.3s-5.3 8.3 0 8.3z"/></g><g clip-path="url(#b)"><path fill="#FFF100" d="M861.3 571.8c5.3 0 5.3-8.3 0-8.3s-5.3 8.3 0 8.3z"/></g><g clip-path="url(#b)"><path fill="#FFF100" d="M917.8 632.6c5.3 0 5.3-8.3 0-8.3s-5.3 8.3 0 8.3z"/></g><g clip-path="url(#b)"><path fill="#FFF100" d="M971 618.6c5.3 0 5.3-8.3 0-8.3s-5.3 8.3 0 8.3z"/></g><g clip-path="url(#b)"><path fill="#FFF100" d="M973.1 655.2c5.3 0 5.3-8.3 0-8.3s-5.3 8.3 0 8.3z"/></g><g clip-path="url(#b)"><path fill="#FFF100" d="M528.7 443.6c5.3 0 5.3-8.3 0-8.3-5.3.1-5.3 8.3 0 8.3z"/></g><g clip-path="url(#b)"><path fill="#FFF100" d="M561.1 432.1c5.3 0 5.3-8.3 0-8.3-5.3.1-5.3 8.3 0 8.3z"/></g><g clip-path="url(#b)"><path fill="#FFF100" d="M704.8 436.9c5.3 0 5.3-8.3 0-8.3-5.4 0-5.4 8.3 0 8.3z"/></g><g clip-path="url(#b)"><path fill="#FFF100" d="M668 420.7c5.3 0 5.3-8.3 0-8.3-5.4.1-5.4 8.3 0 8.3z"/></g><g clip-path="url(#b)"><path fill="#231F20" d="M906 774c-9.5-.9-19.1-2.1-28.5-4-4.7-1-9.3-2.2-14-3.5-4.6-1.4-9.2-2.9-13.6-4.7-2.3-.8-4.4-1.9-6.6-2.8l-3.2-1.6-1.6-.8-1.6-.9-3.2-1.7-3.1-1.9-1.5-.9-1.5-1-3-2 3 2 1.5 1 1.5.9 3.1 1.8 3.2 1.7 1.6.8 1.6.8 3.2 1.6c2.2.9 4.4 1.9 6.6 2.8 4.4 1.8 9 3.2 13.6 4.6 4.6 1.3 9.3 2.4 14 3.4 9.4 2.1 19 3.4 28.5 4.4z"/></g><g clip-path="url(#b)"><path fill="#231F20" d="M926.2 804.3c-3.4-4.1-6.9-8-9.8-12.5-1.4-2.2-2.7-4.6-3.6-7.1-.9-2.5-1.4-5.2-.8-7.9.3-1.3.9-2.5 1.7-3.6.8-1.1 1.8-2 2.8-2.8 2.2-1.6 4.6-2.6 7.1-3.4-2.5.9-5 1.9-7.1 3.5-1 .8-2 1.7-2.8 2.8-.7 1.1-1.3 2.3-1.6 3.6-.5 2.6 0 5.2.9 7.7s2.2 4.8 3.7 7c2.9 4.5 6.2 8.6 9.5 12.7z"/></g><g clip-path="url(#b)"><path fill="#231F20" d="M968.6 778.4c-4.4-1.1-9-1.7-13.5-1.6-9.1-.1-18.1 1.8-27 3.9 8.8-2.2 17.8-4.4 27-4.4 4.5.1 9.1.9 13.5 2.1z"/></g><g clip-path="url(#b)"><path fill="#231F20" d="M897.8 793.8c-12.3-.2-24.6-1.9-36.6-4.7-6-1.4-11.9-3.2-17.8-5.1-5.8-2-11.6-4.1-17.3-6.5-11.4-4.8-22.3-10.5-32.6-17.3 10.3 6.7 21.3 12.4 32.7 17.1 5.7 2.4 11.5 4.5 17.3 6.4 5.9 1.8 11.8 3.6 17.8 5 11.9 2.9 24.2 4.8 36.5 5.1z"/></g><g clip-path="url(#b)"><path fill="#231F20" d="M506.6 632c-4.3-2.5-8-5.9-11-9.8-3.1-3.9-5.6-8.2-8.6-12.1-1.5-2-3-3.9-4.7-5.7-1.7-1.8-3.6-3.4-5.6-4.9-3.9-3-8.4-5.3-12.9-7.2-4.6-1.9-9.2-3.5-13.8-5.4-4.6-1.9-9.1-4-13.2-6.8 4.1 2.8 8.6 4.9 13.2 6.7 4.6 1.8 9.3 3.4 13.9 5.3s9 4.2 13 7.1c2 1.5 3.9 3.1 5.6 4.9 1.8 1.8 3.3 3.7 4.8 5.7 2.9 4 5.4 8.3 8.4 12.2 3 4 6.6 7.5 10.9 10z"/></g><g clip-path="url(#b)"><path fill="#231F20" d="M415.3 628.1c-5.4-.4-10.8-.8-16.2-1.3-10.6-2.1-21.2-4.7-31-9.1 10.1 3.7 20.8 5.5 31.4 6.8 5.2 1.3 10.5 2.5 15.8 3.6z"/></g><g clip-path="url(#b)"><path fill="#231F20" d="M977.8 809.9c2.7 0 2.7-4.1 0-4.1-2.6 0-2.6 4.1 0 4.1z"/></g><g clip-path="url(#b)"><path fill="#231F20" d="M955.3 822c2.7 0 2.7-4.1 0-4.1-2.6-.1-2.6 4.1 0 4.1z"/></g><g clip-path="url(#b)"><path fill="#231F20" d="M983.9 830.8c2.7 0 2.7-4.1 0-4.1s-2.7 4.1 0 4.1z"/></g><g clip-path="url(#b)"><path fill="#231F20" d="M966.2 838.3c2.7 0 2.7-4.1 0-4.1s-2.7 4.1 0 4.1z"/></g><g clip-path="url(#b)"><path fill="#231F20" d="M960.4 813.5c2.7 0 2.7-4.1 0-4.1-2.6 0-2.6 4.1 0 4.1z"/></g><g clip-path="url(#b)"><path fill="#231F20" d="M982 798.7c2.7 0 2.7-4.1 0-4.1-2.6 0-2.6 4.1 0 4.1z"/></g><path opacity=".9" clip-path="url(#b)" fill="#15252D" d="M314.7 361.3c-.7 8.6-5.4 15.3-13.8 14.6-4-.3-8.4-3-10.9-5.8-2.8-3.1-6.1-6.7-5.7-11.2.7-8.6 8.1-15.1 16.5-14.4 8.3.6 14.6 8.2 13.9 16.8z"/><path opacity=".9" clip-path="url(#b)" fill="#15252D" d="M294.7 354.7c3.8-2.2 8.1-2.3 11.9.5 4.9 3.5 5.7 10.1 4.5 16.4 2.1-2.6 3.3-6.2 3.6-10.3.7-8.6-5.6-16.2-14-16.8-8.4-.7-15.8 5.8-16.5 14.4-.3 3.2 1.3 5.9 3.2 8.3 1.5-4.5 2.9-9.9 7.3-12.5z"/><path clip-path="url(#b)" fill="#7F1718" d="M311 366c-.4 5.7-5.4 9.9-11.1 9.5-5.7-.4-9.9-5.4-9.5-11.1.5-5.7 5.4-9.9 11.1-9.5 5.7.4 10 5.4 9.5 11.1z"/><path clip-path="url(#b)" fill="#231F20" stroke="#231F20" stroke-width=".825" stroke-miterlimit="10" d="M306.2 364c-.2 3-2.8 5.2-5.8 4.9-3-.2-5.2-2.8-4.9-5.8.2-3 2.8-5.2 5.8-4.9 3 .2 5.2 2.8 4.9 5.8z"/><g clip-path="url(#b)"><path fill="#231F20" d="M290.3 398.6c-4-2.7-8.4-4.5-12.7-6.7-2.1-1.1-4.2-2.4-6.2-3.9-1.9-1.4-3.8-3-5.7-4.5-2.8-2.6-5.6-5.1-8.5-7.6-2.9-2.5-5.7-5.1-8.3-8-2.6-2.8-5-5.8-6.9-9.2-1.9-3.3-3.3-6.9-4.2-10.7h.3c-.8 1.8-1.5 3.7-2.5 5.4-1 1.7-2.3 3.3-4 4.3 1.7-1.1 3-2.6 3.9-4.4.9-1.7 1.6-3.6 2.3-5.4l.2-.4.1.4c.9 3.7 2.5 7.2 4.4 10.4 1.9 3.3 4.4 6.2 7 8.9 5.3 5.4 11.4 10 17.1 15.1 3.6 3.2 7.1 6.4 11.2 8.8 4.2 2.6 8.7 4.6 12.5 7.5z"/></g><g clip-path="url(#b)"><path fill="#DB8640" d="M369.9 395.5c-2 4.8-.6 7.4 5.1 8.7M365.9 394.4c-1.2 2.8-1.5 6.1.1 8.8 1.6 2.8 4.9 4.2 7.9 4.9 5.2 1.2 7.4-6.7 2.2-8-.6-.2-1.3-.3-1.9-.5-.8-.3.2.2-.5-.2-.1 0-1.2-.6-.3-.1-.2-.1-.3-.3-.4-.4.3.4.4.5.2.2-.1-.3-.1-.2.1.3-.1-.2-.1-.4-.2-.6 0 .2.1.3.1.5v-.7c-.2 1 .1-.2.1-.4.2-.6.4-1.1.6-1.7.8-2.1-.9-4.5-2.9-5.1-2.4-.5-4.2.9-5.1 3z"/></g><path clip-path="url(#b)" fill="#15252D" d="M249 330.2c-.2 2.3-1.1 4.1-2 4-.9-.1-1.5-2-1.3-4.2.2-2.3 1.1-4.1 2-4 .9 0 1.4 1.9 1.3 4.2zM242.2 328.3c-1.2 2-2.7 3.2-3.5 2.7-.8-.5-.5-2.4.7-4.4 1.2-2 2.8-3.2 3.5-2.7.8.5.5 2.5-.7 4.4z"/><g clip-path="url(#b)"><path fill="#231F20" d="M384.9 639.7c-.8.1-1.4.4-2.1.7-.7.3-1.6.6-2.6.3-.9-.5-1.4-1.1-1.9-1.8h1.2c-.8.9-2 1.6-3.2 1.7-1.2.2-2.3 0-3.4.3 1-.5 2.2-.6 3.2-1s1.7-1 2.2-1.9l.4-.7.7.7c.5.5 1 .8 1.5.9.7.7 2.6.3 4 .8z"/></g><g clip-path="url(#b)"><path fill="#231F20" d="M396.6 655.1c-.9.7-1.8 1.3-2.7 2-2 1-3.8 2.2-5.6 3.5 1.6-1.6 3.3-3 5.1-4.3 1-.4 2.1-.8 3.2-1.2z"/></g><g clip-path="url(#b)"><path fill="#231F20" d="M377.9 628.8c-1.1-.1-2.3 0-3.4.2s-2.2.5-3.5.6c-1.3-.2-2.6-.8-3.4-1.8-.8-.9-1.4-2-1.8-3l.5.3c-1.1 0-2.1.3-3.1.9-1 .6-1.9 1.4-3 1.8 1-.6 1.8-1.5 2.7-2.2.9-.8 2.1-1.4 3.3-1.5h.3l.2.3c.6.9 1.2 1.8 2 2.4.8.6 1.6.9 2.6.9 1 .3 2.1.3 3.3.4 1.1 0 2.3.2 3.3.7z"/></g><g clip-path="url(#b)"><path fill="#231F20" d="M414.9 647.8c-.7.6-1.5 1.1-2.4 1.5-1.9.3-3.8.2-5.5-.4 1.8.3 3.6.1 5.3-.5.9-.1 1.8-.3 2.6-.6z"/></g><g clip-path="url(#b)"><path fill="#231F20" d="M406.9 666.2c.8-1.6 2-3 3-4.4.5-.5 1-.9 1.4-1.4l.9-1 .3 1.2c.3 1.1 1.2 2.2 2.2 3.1.5.4 1.1.8 1.6 1.2.3.2.6.3.9.5.2.1.3.1.5.2h.2c.1 0 .2-.1.1-.1.1.1 0 .2-.1.2h-.3c-.2 0-.3-.1-.5-.1-.3-.1-.7-.2-1-.4-.6-.3-1.3-.6-1.9-1-1.2-.8-2.4-1.6-3.1-3.2l1.2.2c-.4.7-.9 1.3-1.3 1.8-1.4 1.1-2.9 2-4.1 3.2z"/></g><g clip-path="url(#b)"><path fill="#231F20" d="M420.2 681c-.8.3-1.5.6-2.1 1.1-.7.4-1.2 1-2.1 1.5-.4.1-.9.2-1.4.1-.2 0-.5-.2-.7-.3-.2-.1-.4-.3-.5-.4-.6-.6-.8-1.3-1.1-1.9l.8.1c-.6.8-1.5 1.4-2.4 1.7-.9.4-1.9.4-2.8.5.9-.2 1.8-.5 2.6-.9.8-.5 1.3-1.1 1.8-1.9l.4-.6.5.7c.4.5.7 1.1 1.1 1.4.4.3.7.2 1.2 0 .6-.1 1.5-.4 2.3-.6.7-.4 1.6-.6 2.4-.5z"/></g><g clip-path="url(#b)"><path fill="#231F20" d="M356.9 601.4c-1-.1-2-.1-2.8 0-.7-.3-1.5-.5-2.3-.3-.8.2-1.6.7-2.4 1.3.5-.8 1.1-1.6 1.9-2.2.9-.6 2.1-.8 3.2-.8 1 .7 1.7 1.3 2.4 2z"/></g><g clip-path="url(#b)"><path fill="#231F20" d="M310.5 423.3c-2.2 2.3-4.8 4.3-7.7 5.8-5.8 2.8-12.4 3.8-18.7 3 6.4.6 12.9-.5 18.5-3.5 2.9-1.3 5.6-3.2 7.9-5.3z"/></g><g clip-path="url(#b)"><path fill="#231F20" d="M336.9 445.8c2.6-.6 5.1-1.5 7.4-2.7 4.8-2.2 8.8-5.9 11.3-10.5-2.4 4.7-6.4 8.6-11.1 10.9-2.4 1.2-5 1.9-7.6 2.3z"/></g><path clip-path="url(#b)" fill="none" d="M1728.1 995.2l-874-734.6"/><g clip-path="url(#b)"><path fill="#FFF100" d="M844.1 484.4c3.2 0 3.2-5 0-5-3.3 0-3.3 5 0 5z"/></g><g clip-path="url(#b)"><path fill="#FFF100" d="M810.7 462.4c3.2 0 3.2-5 0-5s-3.2 5 0 5z"/></g><g clip-path="url(#b)"><path fill="#FFF100" d="M780.7 485.1c3.2 0 3.2-5 0-5s-3.2 5 0 5z"/></g><g clip-path="url(#b)"><path fill="#FFF100" d="M934.1 547.7c3.2 0 3.2-5 0-5-3.3 0-3.3 5 0 5z"/></g><g clip-path="url(#b)"><path fill="#FFF100" d="M585.4 470.4c3.2 0 3.2-5 0-5s-3.2 5 0 5z"/></g><g clip-path="url(#b)"><path fill="#FFF100" d="M634.7 449.1c3.2 0 3.2-5 0-5s-3.2 5 0 5z"/></g><g clip-path="url(#b)"><path fill="#FFF100" d="M708.7 592.4c3.2 0 3.2-5 0-5s-3.2 5 0 5z"/></g><g clip-path="url(#b)"><path fill="#FFF100" d="M876.7 646.4c3.2 0 3.2-5 0-5s-3.2 5 0 5z"/></g><g clip-path="url(#b)"><path fill="#FFF100" d="M334.7 365.7c3.2 0 3.2-5 0-5s-3.2 5 0 5z"/></g><g clip-path="url(#b)"><path fill="#FFF100" d="M346.7 364.4c3.2 0 3.2-5 0-5s-3.2 5 0 5z"/></g><g clip-path="url(#b)"><path fill="#231F20" d="M364.7 572.9c-.4-.4-1-.6-1.6-.7-.6-.1-1.2-.1-1.8-.4-.5-.3-.8-.7-1-1.2-.2-.5-.3-.9-.4-1.4h.2c-.7 1.3-1.9 2.1-2.7 3.3.8-1.2 2-2.1 2.6-3.4l.1-.2.1.2c.1.5.2.9.4 1.4.2.4.5.8.9 1 .5.3 1.1.3 1.7.5.5.2 1.1.4 1.5.9z"/></g><g clip-path="url(#b)"><path fill="#231F20" d="M384.7 584.6c-.5-.6-1.1-1.1-1.7-1.6-.6-.5-1.4-.8-2.1-1.1-.7-.3-1.3-.7-1.8-1.3-.5-.6-.8-1.3-1.1-1.9h.1l-4.7 1.9 4.6-2.1h.1v.1c.3.7.7 1.3 1.1 1.8.5.5 1.1.9 1.8 1.2.7.4 1.4.7 2 1.3.7.5 1.2 1 1.7 1.7z"/></g><g clip-path="url(#b)"><path fill="#231F20" d="M379.1 569.2c-.5-.4-1.1-.5-1.7-.6-.6-.1-1.2-.1-1.8-.5-.7-.4-1.1-1.2-1.3-1.9h.2c-.1 1.8-1.6 3-1.8 4.7 0-.8.5-1.6.8-2.3.4-.7.7-1.5.7-2.3v-.6l.2.6c.2.7.6 1.4 1.3 1.7.5.3 1.1.4 1.7.6.6 0 1.2.2 1.7.6z"/></g><path clip-path="url(#b)" fill="#CD814D" d="M656.8 726.9s6.4-1.1 13.3-27.9c6.9-26.8 10.9-44.3 16.9-16.3 6 28 2.9 54 2.9 54l-33.1-9.8zM727.4 747.7s9.9-3.1 14.9-12.5 9.5-23.2 11.2-20.9 8 17.4 6.8 25.1-.8 17.2-1.2 17.1c-.4-.2-31.7-8.8-31.7-8.8zM795.8 770.2s16.2-27.8 16.7-30.9 7.5-.4 8.5 8.9 4 29.2 4 30.5v5.2l-29.2-13.7z"/><path clip-path="url(#b)" fill="#CD814D" d="M677.3 726.2c-5-1.9-9.9-3.8-14.8-5.9-3.4 6.2-5.7 6.6-5.7 6.6l33.2 9.8s.2-2.1.5-5.7c-4.5-1.6-8.8-3.2-13.2-4.8zM690.5 729c.5-9.8.5-27.5-3.5-46.2-6-28-10-10.5-16.9 16.3-2.4 9.2-4.7 15.3-6.7 19.4 9 3.7 18 7.2 27.1 10.5zM732.7 745.1c-3 1.8-5.3 2.5-5.3 2.5s31.2 8.6 31.7 8.7c.2 0 .2-1.3.2-3.4-8.9-2.4-17.8-5-26.6-7.8zM735.9 744.1c7.8 2.4 15.6 4.6 23.5 6.7.1-3.3.3-7.6.9-11.5 1.2-7.7-5-22.8-6.8-25.1s-6.2 11.5-11.2 20.9c-2 3.8-4.9 6.6-7.5 8.6.4.1.7.3 1.1.4zM824.9 777.2c-8.8-3.9-17.6-7.8-26.5-11.4-1.5 2.6-2.5 4.4-2.5 4.4l29.2 13.6v-5.2c-.1-.1-.1-.6-.2-1.4zM820.4 773.1c1.4.6 2.8 1.2 4.2 1.9-.9-6.5-2.8-19.7-3.5-26.7-1-9.3-8-12-8.5-8.9-.3 2.1-8.3 16.2-13.1 24.6 7 2.8 13.9 6 20.9 9.1z"/><g opacity=".9" clip-path="url(#b)"><path fill="#15252D" d="M1051.1 1018.7c1.7 9.5.8 12.8-3.8 21.3 13.8-7.8 14.2-16 13-31.5"/></g><g opacity=".9" clip-path="url(#b)"><path fill="#15252D" d="M1051.1 1018.7c1.7 9.5.8 12.8-3.8 21.3 13.8-7.8 14.2-16 13-31.5"/></g><g clip-path="url(#b)"><path d="M929.6 816c-9.3 1.9-18.9.9-28.1-1.4-9.2-2.2-18.1-5.5-26.9-9-8.8-3.6-17.4-7.2-26.1-10.9-8.7-3.6-17.4-7.2-26.2-10.7-17.4-7.3-34.9-14.2-52.6-20.8-8.8-3.3-17.7-6.5-26.6-9.6l-6.7-2.3c-2.2-.8-4.5-1.5-6.7-2.2-4.5-1.4-9-2.7-13.6-3.9-18.2-4.9-36.6-9-54.7-14.7-9-2.8-17.9-6.1-26.5-10.1-8.5-4-16.8-8.8-24-14.9 7.3 6 15.6 10.6 24.2 14.5 8.6 3.9 17.5 7 26.5 9.7 18.1 5.4 36.5 9.3 54.8 13.9 4.6 1.2 9.1 2.4 13.7 3.7 2.3.7 4.5 1.4 6.8 2.1l6.7 2.3c8.9 3 17.9 6.1 26.8 9.3 17.8 6.3 35.4 13.1 53 20.1 8.7 3.7 17.3 7.5 25.9 11.4 8.6 3.9 17.2 7.8 25.8 11.6 8.6 3.8 17.4 7.3 26.5 9.7 9.2 2.5 18.7 3.8 28 2.2z"/></g></svg>