<?xml version="1.0" encoding="utf-8"?>
<!-- Generator: Adobe Illustrator 21.0.2, SVG Export Plug-In . SVG Version: 6.00 Build 0)  -->
<svg version="1.1" id="Layer_1" xmlns:sketch="http://www.bohemiancoding.com/sketch/ns"
	 xmlns="http://www.w3.org/2000/svg" xmlns:xlink="http://www.w3.org/1999/xlink" x="0px" y="0px" viewBox="0 0 88.8 71.6"
	 style="enable-background:new 0 0 88.8 71.6;" xml:space="preserve">
<title>6-twitter</title>
<desc>Created with Sketch.</desc>
<g sketch:type="MSPage">
	<path sketch:type="MSShapeGroup" d="M29.4,71.6C62,70.8,79.7,43.7,79.7,20.2c0-0.8,0-1.6-0.1-2.3c3.6-2.5,6.6-5.7,9.1-9.4
		c-3.3,1.4-6.8,2.4-10.5,2.8c3.8-2.2,6.6-5.8,8-10c-3.5,2.1-7.4,3.6-11.6,4.4C71.4,2.2,66.7,0,61.5,0C51.4,0,43.2,8.1,43.2,18.1
		c0,1.4,0.2,2.8,0.5,4.1c-15.1-0.8-28.6-8-37.5-18.9C4.6,6,3.7,9.1,3.7,12.4c0,6.3,3.2,11.8,8.1,15c-3-0.1-5.8-0.9-8.3-2.3
		c0,0.1,0,0.2,0,0.2c0,8.8,6.3,16.1,14.6,17.7c-1.5,0.4-3.1,0.6-4.8,0.6c-1.2,0-2.3-0.1-3.4-0.3c2.3,7.2,9,12.4,17,12.6
		c-6.2,4.8-14.1,7.7-22.6,7.7c-1.5,0-2.9-0.1-4.3-0.3v0c7.8,4.9,17,7.9,26.8,8.1H29.4"/>
</g>
</svg>
