<?xml version="1.0" encoding="utf-8"?>
<!-- Generator: Adobe Illustrator 21.0.2, SVG Export Plug-In . SVG Version: 6.00 Build 0)  -->
<svg version="1.1" id="Layer_1" xmlns="http://www.w3.org/2000/svg" xmlns:xlink="http://www.w3.org/1999/xlink" x="0px" y="0px"
	 viewBox="0 0 44.1 36.9" style="enable-background:new 0 0 44.1 36.9;" xml:space="preserve">
<g>
	<path d="M41.7,5c0.3-1.1,1.2-3.1,0.2-3.8c-0.5-0.4-1.1-0.6-1.8-0.6c-0.5,0-1,0.1-1.4,0.4c-0.9,0.5-1.8,0.9-2.8,1.2
		C34.1,0.8,31.8,0,29.4,0C24,0,19.5,4,18.8,9.3c-4.3-1-8.3-3.3-11.1-6.8c-0.5-0.7-1.4-1-2.2-1c-0.1,0-0.1,0-0.2,0
		C4.4,1.5,3.5,2,3.1,2.8c-1,1.6-1.5,3.5-1.5,5.4c0,1.3,0.4,3,1.3,3.9c-0.5,0.5-1.4,1-1.4,1.7c0,2.8,1.8,5,3.5,6.9
		c-0.1,0.5-1,1-0.6,1.9c0.6,1.9,1.7,3.6,3.2,4.8c-0.9,0.2-1.9,0.3-2.9,0.3c-0.5,0-1,0-1.5-0.1c-0.1,0-0.2,0-0.3,0
		c-1.2,0-2.3,0.7-2.7,1.9c-0.4,1.2,0,2.6,1.1,3.3c4.1,2.6,8.8,4,13.6,4C30.6,36.9,40,24.3,40.1,12c1.3-1.1,2.4-2.3,3.3-3.7
		C43.8,7.8,44,7.2,44,6.6C44.1,5.6,42.4,5.5,41.7,5z"/>
</g>
</svg>
